<?xml version="1.0" encoding="utf-8"?>
<!-- Generator: Adobe Illustrator 27.5.0, SVG Export Plug-In . SVG Version: 6.00 Build 0)  -->
<svg version="1.1" xmlns="http://www.w3.org/2000/svg" xmlns:xlink="http://www.w3.org/1999/xlink" x="0px" y="0px"
	 viewBox="0 0 500 500" style="enable-background:new 0 0 500 500;" xml:space="preserve">
<g id="Background_Complete">
	<g>
		<g>
			<path style="fill:#F5F5F5;" d="M374.073,222.64c0.525-9.423-0.177-19.142-1.777-28.443c-1.6-9.301-5.082-18.449-11.197-25.638
				c-4.148,9.339-5.104,20.061-2.672,29.986c2.432,9.925,7.274,18.094,15.269,24.457"/>
		</g>
		<g>
			<path style="fill:#F5F5F5;" d="M365.843,249.444c-1.402-10.057-3.029-20.195-6.89-29.586c-3.861-9.392-10.19-18.09-19.081-22.996
				c-1.352,10.674,0.645,21.748,5.64,31.278C350.508,237.669,356.295,244.484,365.843,249.444"/>
		</g>
		<g>
			<path style="fill:#F5F5F5;" d="M355.157,281.469c-0.051-9.166-0.296-18.432-2.627-27.297
				c-2.331-8.865-6.954-17.405-14.323-22.857c-2.486,9.389-2.024,19.536,1.306,28.66C342.843,269.1,347.207,275.889,355.157,281.469
				"/>
		</g>
		<g>
			<path style="fill:#F5F5F5;" d="M347.331,304.323c-2.045-10.106-4.324-20.28-8.819-29.559
				c-4.496-9.279-11.451-17.703-20.766-22.122c-0.708,10.903,2.003,22.003,7.658,31.351
				C331.058,293.341,337.346,299.888,347.331,304.323"/>
		</g>
		<g>
			<path style="fill:#F5F5F5;" d="M334.674,331.854c-1.1-9.391-2.409-18.861-5.811-27.683c-3.403-8.821-9.117-17.048-17.294-21.795
				c-1.476,9.909,0.157,20.259,4.613,29.232C320.638,320.581,325.887,327.043,334.674,331.854"/>
		</g>
		<g>
			<path style="fill:#F5F5F5;" d="M324.23,355.413c-1.1-9.391-2.409-18.861-5.811-27.683c-3.403-8.821-7.953-16.333-16.129-21.081
				c-1.476,9.909-1.008,19.545,3.448,28.518C310.194,344.14,315.443,350.601,324.23,355.413"/>
		</g>
		<g>
			<path style="fill:#F5F5F5;" d="M365.849,249.16c5.392-5.012,12.195-9.94,18.65-13.48c5.313-2.914,10.761-5.683,16.596-7.314
				c5.836-1.631,12.13-2.074,17.932-0.328c-5.807,8.254-14.061,14.764-23.44,18.489C386.208,250.252,375.737,251.179,365.849,249.16
				"/>
		</g>
		<g>
			<path style="fill:#F5F5F5;" d="M338.167,331.629c4.387-4.078,9.922-8.088,15.174-10.968c4.323-2.371,8.755-4.624,13.503-5.951
				c4.748-1.327,9.87-1.687,14.591-0.267c-4.725,6.716-11.44,12.012-19.072,15.043C354.731,332.517,346.212,333.272,338.167,331.629
				"/>
		</g>
		<g>
			<path style="fill:#F5F5F5;" d="M326.532,350.668c5.185-2.999,11.942-8.583,17.703-10.222c4.742-1.349,9.565-2.559,14.489-2.796
				c4.924-0.237,9.997,0.552,14.284,2.988c-6.102,5.495-13.827,9.164-21.942,10.421C342.952,352.314,334.01,354.06,326.532,350.668"
				/>
		</g>
		<g>
			<path style="fill:#F5F5F5;" d="M357.126,279.237c5.392-5.012,12.195-9.94,18.65-13.48c5.313-2.914,10.761-5.683,16.596-7.314
				c5.836-1.631,12.13-2.073,17.933-0.328c-5.808,8.254-14.061,14.764-23.44,18.489
				C377.485,280.329,367.014,281.257,357.126,279.237"/>
		</g>
		<g>
			<path style="fill:#F5F5F5;" d="M344.232,312.174c4.717-5.651,10.845-11.398,16.802-15.723c4.903-3.56,9.959-6.994,15.542-9.347
				c5.584-2.353,11.772-3.585,17.748-2.585c-4.721,8.92-12.089,16.418-20.924,21.295
				C364.566,310.693,354.295,312.932,344.232,312.174"/>
		</g>
		<g>
			<path style="fill:#F5F5F5;" d="M373.245,225.962c10.13-2.365,19.677-7.194,27.583-13.955c7.907-6.76,14.16-15.44,18.07-25.08
				c-7.43,2.101-14.764,5.028-20.79,9.855C388.033,204.851,382.293,216.756,373.245,225.962"/>
		</g>
		<g>
			<path style="fill:#F5F5F5;" d="M381.184,200.732c6.927-4.713,12.028-12.04,14.044-20.171c2.017-8.132,0.93-16.993-2.992-24.396
				c-5.905,5.611-10.152,12.945-12.08,20.86c-1.927,7.914-1.528,16.38,1.137,24.078"/>
		</g>
		<g>
			<g>
				<path style="fill:#F5F5F5;" d="M325.345,355.639c0.771-1.465,1.555-2.954,2.352-4.468c0.807-1.508,1.51-3.099,2.288-4.681
					c1.525-3.179,3.095-6.452,4.705-9.807c6.149-13.557,12.368-28.704,18.239-44.847c5.822-16.167,10.806-31.759,15.175-45.986
					c4.299-14.249,8.006-27.128,11.026-37.969c2.999-10.831,5.428-19.603,7.112-25.687c0.821-3.021,1.461-5.374,1.901-6.993
					c0.208-0.787,0.368-1.392,0.481-1.822c0.105-0.411,0.146-0.626,0.146-0.626s-0.077,0.204-0.2,0.611
					c-0.126,0.427-0.303,1.027-0.533,1.808c-0.463,1.612-1.136,3.956-2,6.965c-1.724,6.073-4.21,14.827-7.279,25.639
					c-3.068,10.827-6.812,23.692-11.136,37.927c-4.393,14.214-9.389,29.793-15.207,45.947
					c-5.867,16.131-12.066,31.268-18.183,44.822c-1.601,3.355-3.162,6.627-4.68,9.806c-0.773,1.582-1.472,3.173-2.274,4.682
					c-0.792,1.514-1.57,3.004-2.336,4.469"/>
			</g>
		</g>
	</g>
	<g>
		<g>
			<path style="fill:#E0E0E0;" d="M422.339,326.352c1.748-10.242,2.19-20.96,1.598-31.333c-0.592-10.373-3.262-20.813-9.055-29.438
				c-5.701,9.698-8.081,21.308-6.657,32.467c1.424,11.159,5.703,20.697,13.656,28.653"/>
		</g>
		<g>
			<path style="fill:#E0E0E0;" d="M409.999,354.646c-0.281-11.175-0.798-22.467-3.852-33.22
				c-3.053-10.753-8.893-21.056-18.007-27.529c-2.808,11.507-2.003,23.869,2.274,34.915
				C394.692,339.857,400.173,348.031,409.999,354.646"/>
		</g>
		<g>
			<path style="fill:#E0E0E0;" d="M394.322,388.345c1.085-10.032,1.972-20.198,0.526-30.185c-1.446-9.987-5.439-19.904-12.82-26.785
				c-3.889,9.96-4.647,21.117-2.14,31.512C382.394,373.282,386.321,381.251,394.322,388.345"/>
		</g>
		<g>
			<path style="fill:#E0E0E0;" d="M382.917,412.369c-0.978-11.309-2.204-22.721-5.966-33.431
				c-3.762-10.709-10.321-20.789-19.96-26.784c-2.132,11.837-0.549,24.316,4.472,35.246
				C366.484,398.33,372.547,406.274,382.917,412.369"/>
		</g>
		<g>
			<path style="fill:#E0E0E0;" d="M365.644,440.907c-0.034-10.409-0.286-20.931-2.909-31.004
				c-2.623-10.072-7.85-19.783-16.203-25.993c-2.849,10.655-2.351,22.179,1.406,32.549
				C351.695,426.828,356.632,434.549,365.644,440.907"/>
		</g>
		<g>
			<path style="fill:#E0E0E0;" d="M351.286,465.375c-0.034-10.409-0.286-20.931-2.909-31.004
				c-2.623-10.073-6.665-18.856-15.017-25.067c-2.849,10.655-3.536,21.253,0.221,31.623
				C337.337,451.296,342.274,459.017,351.286,465.375"/>
		</g>
		<g>
			<path style="fill:#E0E0E0;" d="M410.041,354.336c6.522-4.811,14.577-9.354,22.078-12.423c6.174-2.526,12.478-4.876,19.064-5.934
				c6.586-1.057,13.527-0.758,19.656,1.874c-7.38,8.305-17.218,14.398-27.942,17.305
				C432.174,358.065,420.606,357.776,410.041,354.336"/>
		</g>
		<g>
			<path style="fill:#E0E0E0;" d="M369.492,441.095c5.306-3.914,11.86-7.611,17.963-10.108c5.023-2.055,10.152-3.967,15.511-4.828
				c5.359-0.86,11.006-0.616,15.993,1.525c-6.005,6.757-14.01,11.715-22.734,14.08C387.5,444.129,378.088,443.894,369.492,441.095"
				/>
		</g>
		<g>
			<path style="fill:#E0E0E0;" d="M354.395,460.471c6.045-2.635,14.132-7.901,20.637-8.977c5.355-0.885,10.781-1.608,16.197-1.254
				c5.416,0.354,10.867,1.849,15.252,5.047c-7.358,5.251-16.266,8.302-25.298,8.666C372.15,464.317,362.152,465.113,354.395,460.471
				"/>
		</g>
		<g>
			<path style="fill:#E0E0E0;" d="M396.754,386.149c6.522-4.811,14.577-9.354,22.078-12.423c6.174-2.526,12.478-4.876,19.064-5.934
				c6.586-1.057,13.527-0.758,19.656,1.874c-7.38,8.305-17.218,14.398-27.942,17.305
				C418.887,389.879,407.319,389.589,396.754,386.149"/>
		</g>
		<g>
			<path style="fill:#E0E0E0;" d="M378.549,420.57c5.864-5.594,13.282-11.117,20.337-15.106c5.806-3.283,11.764-6.41,18.164-8.289
				c6.401-1.879,13.323-2.456,19.735-0.617c-6.275,9.169-15.267,16.453-25.539,20.688
				C400.975,421.482,389.462,422.652,378.549,420.57"/>
		</g>
		<g>
			<path style="fill:#E0E0E0;" d="M421.02,329.882c11.375-1.325,22.418-5.419,31.909-11.829c9.49-6.41,17.412-15.125,22.889-25.183
				c-8.389,1.373-16.775,3.661-23.968,8.19C439.824,308.632,432.063,320.939,421.02,329.882"/>
		</g>
		<g>
			<path style="fill:#E0E0E0;" d="M432.845,303.274c8.163-4.292,14.655-11.671,17.874-20.315c3.218-8.643,3.133-18.471-0.234-27.057
				c-7.158,5.402-12.717,12.896-15.81,21.312c-3.094,8.417-3.711,17.727-1.755,26.478"/>
		</g>
		<g>
			<g>
				<path style="fill:#E0E0E0;" d="M352.477,465.761c1.026-1.506,2.069-3.038,3.129-4.594c1.07-1.549,2.038-3.201,3.086-4.835
					c2.065-3.288,4.189-6.671,6.368-10.141c8.414-14.064,17.102-29.857,25.535-46.783c8.381-16.959,15.775-33.393,22.325-48.411
					c6.477-15.051,12.135-28.676,16.789-40.158c4.629-11.474,8.378-20.766,10.978-27.211c1.275-3.202,2.267-5.697,2.95-7.412
					c0.325-0.835,0.576-1.477,0.753-1.933c0.167-0.437,0.238-0.666,0.238-0.666s-0.109,0.214-0.295,0.643
					c-0.191,0.451-0.459,1.085-0.808,1.911c-0.707,1.705-1.735,4.185-3.055,7.369c-2.642,6.428-6.451,15.694-11.155,27.138
					c-4.703,11.46-10.402,25.066-16.904,40.099c-6.575,15-13.98,31.418-22.355,48.365c-8.426,16.913-17.091,32.699-25.47,46.763
					c-2.169,3.47-4.284,6.854-6.34,10.143c-1.043,1.634-2.005,3.287-3.071,4.838c-1.054,1.557-2.092,3.09-3.112,4.597"/>
			</g>
		</g>
	</g>
	<g>
		<g>
			<path style="fill:#E0E0E0;" d="M69.759,324.52c-2.964-9.958-4.688-20.546-5.345-30.915c-0.657-10.369,0.741-21.053,5.458-30.311
				c6.823,8.944,10.579,20.184,10.504,31.434c-0.075,11.249-3.179,21.232-10.12,30.085"/>
		</g>
		<g>
			<path style="fill:#E0E0E0;" d="M85.403,351.128c-1.062-11.128-1.902-22.4-0.161-33.442c1.741-11.042,6.303-21.971,14.574-29.49
				c4.169,11.087,4.852,23.456,1.931,34.935C98.826,334.61,94.365,343.383,85.403,351.128"/>
		</g>
		<g>
			<path style="fill:#E0E0E0;" d="M105.01,382.703c-2.281-9.83-4.381-19.815-4.143-29.904c0.237-10.088,3.012-20.413,9.514-28.13
				c5.056,9.422,7.146,20.407,5.905,31.028C115.045,366.319,112.102,374.701,105.01,382.703"/>
		</g>
		<g>
			<path style="fill:#E0E0E0;" d="M119.215,405.185c-0.385-11.345-0.538-22.822,1.912-33.905
				c2.45-11.083,7.752-21.877,16.602-28.985c3.537,11.496,3.462,24.075-0.211,35.528
				C133.845,389.276,128.778,397.891,119.215,405.185"/>
		</g>
		<g>
			<path style="fill:#E0E0E0;" d="M139.787,431.445c-1.215-10.337-2.227-20.814-0.831-31.129c1.396-10.314,5.42-20.581,12.967-27.75
				c4.106,10.236,4.995,21.737,2.509,32.482C151.946,415.794,147.971,424.052,139.787,431.445"/>
		</g>
		<g>
			<path style="fill:#E0E0E0;" d="M156.977,454.014c-1.215-10.337-2.227-20.814-0.831-31.129
				c1.396-10.315,4.354-19.52,11.901-26.688c4.106,10.236,6.06,20.675,3.575,31.421
				C169.135,438.364,165.161,446.621,156.977,454.014"/>
		</g>
		<g>
			<path style="fill:#E0E0E0;" d="M85.324,350.825c-7.052-3.993-15.594-7.538-23.409-9.684c-6.432-1.767-12.973-3.344-19.638-3.604
				c-6.666-0.26-13.52,0.871-19.289,4.219c8.323,7.36,18.821,12.228,29.816,13.828C63.799,357.184,75.249,355.508,85.324,350.825"/>
		</g>
		<g>
			<path style="fill:#E0E0E0;" d="M135.989,432.093c-5.738-3.249-12.688-6.133-19.046-7.88c-5.233-1.437-10.555-2.721-15.978-2.932
				c-5.423-0.211-11,0.709-15.694,3.433c6.772,5.988,15.314,9.949,24.259,11.251C118.475,437.267,127.791,435.903,135.989,432.093"
				/>
		</g>
		<g>
			<path style="fill:#E0E0E0;" d="M153.301,449.518c-6.317-1.891-14.977-6.149-21.565-6.436c-5.422-0.236-10.896-0.303-16.23,0.698
				c-5.334,1.001-10.566,3.139-14.536,6.84c7.935,4.33,17.144,6.291,26.155,5.568C136.136,455.467,146.158,455.058,153.301,449.518"
				/>
		</g>
		<g>
			<path style="fill:#E0E0E0;" d="M102.332,380.815c-7.052-3.993-15.594-7.538-23.409-9.684c-6.432-1.767-12.973-3.344-19.638-3.604
				c-6.666-0.26-13.52,0.871-19.289,4.219c8.323,7.359,18.821,12.228,29.816,13.828C80.807,387.173,92.257,385.497,102.332,380.815"
				/>
		</g>
		<g>
			<path style="fill:#E0E0E0;" d="M124.536,412.804c-6.492-4.85-14.52-9.443-22.002-12.557c-6.158-2.563-12.448-4.952-19.028-6.05
				c-6.58-1.097-13.522-0.84-19.667,1.755c7.33,8.35,17.131,14.502,27.836,17.475C102.381,416.399,113.951,416.18,124.536,412.804"
				/>
		</g>
		<g>
			<path style="fill:#E0E0E0;" d="M71.492,327.866c-11.452,0.049-22.907-2.69-33.097-7.916
				c-10.191-5.225-19.101-12.927-25.745-22.255c8.493,0.357,17.093,1.622,24.778,5.256
				C50.273,309.025,59.455,320.312,71.492,327.866"/>
		</g>
		<g>
			<path style="fill:#E0E0E0;" d="M56.559,302.869c-8.619-3.282-15.95-9.829-20.182-18.024c-4.232-8.195-5.327-17.962-3.013-26.89
				c7.754,4.504,14.172,11.277,18.253,19.262c4.081,7.985,5.811,17.154,4.919,26.077"/>
		</g>
		<g>
			<g>
				<path style="fill:#E0E0E0;" d="M155.84,454.54c-1.199-1.372-2.418-2.768-3.657-4.185c-1.249-1.41-2.408-2.934-3.644-4.43
					c-2.444-3.016-4.96-6.12-7.539-9.303c-10.04-12.953-20.561-27.589-30.963-43.382c-10.355-15.831-19.667-31.259-27.971-45.383
					c-8.236-14.165-15.488-27.013-21.486-37.854c-5.972-10.836-10.809-19.611-14.163-25.697c-1.65-3.026-2.934-5.384-3.818-7.005
					c-0.423-0.79-0.749-1.397-0.98-1.829c-0.218-0.414-0.316-0.633-0.316-0.633s0.134,0.199,0.37,0.603
					c0.243,0.425,0.586,1.022,1.032,1.8c0.906,1.608,2.225,3.947,3.917,6.95c3.394,6.064,8.287,14.807,14.33,25.603
					c6.044,10.813,13.334,23.637,21.593,37.781c8.327,14.103,17.648,29.514,27.996,45.333c10.394,15.78,20.891,30.412,30.896,43.37
					c2.57,3.185,5.076,6.291,7.511,9.309c1.231,1.497,2.385,3.023,3.629,4.434c1.233,1.42,2.447,2.817,3.641,4.191"/>
			</g>
		</g>
	</g>
	<g>
		<g>
			<path style="fill:#F5F5F5;" d="M114.852,213.388c-5.562-7.625-12.261-14.701-19.39-20.885
				c-7.129-6.185-15.618-11.058-24.903-12.748c2.704,9.854,8.756,18.757,16.924,24.898c8.168,6.141,17.089,9.395,27.306,9.255"/>
		</g>
		<g>
			<path style="fill:#F5F5F5;" d="M125.46,239.342c-7.454-6.895-15.135-13.709-24.071-18.532c-8.936-4.823-19.343-7.545-29.33-5.71
				c5.714,9.117,14.273,16.422,24.175,20.632C106.135,239.943,114.93,241.551,125.46,239.342"/>
		</g>
		<g>
			<path style="fill:#F5F5F5;" d="M137.474,270.893c-5.845-7.061-11.903-14.077-19.321-19.46
				c-7.419-5.384-16.405-9.064-25.561-8.617c4.023,8.84,10.808,16.4,19.163,21.352C120.111,269.12,127.788,271.611,137.474,270.893"
				/>
		</g>
		<g>
			<path style="fill:#F5F5F5;" d="M145.893,293.535c-7.983-6.525-16.191-12.956-25.547-17.289
				c-9.356-4.333-20.073-6.447-30.081-3.967c6.357,8.885,15.486,15.758,25.783,19.411
				C126.344,295.344,135.357,296.427,145.893,293.535"/>
		</g>
		<g>
			<path style="fill:#F5F5F5;" d="M153.535,322.857c-6.799-6.57-13.81-13.071-22.03-17.742c-8.22-4.671-17.853-7.418-27.187-5.913
				c5.134,8.603,12.953,15.578,22.084,19.699C135.534,323.023,143.688,324.699,153.535,322.857"/>
		</g>
		<g>
			<path style="fill:#F5F5F5;" d="M160.374,347.703c-6.799-6.57-13.81-13.071-22.03-17.742c-8.22-4.671-16.499-7.603-25.834-6.098
				c5.134,8.603,11.599,15.763,20.73,19.884C142.373,347.869,150.527,349.545,160.374,347.703"/>
		</g>
		<g>
			<path style="fill:#F5F5F5;" d="M125.285,239.118c0.998-7.293,3.141-15.416,5.894-22.244c2.266-5.62,4.728-11.213,8.211-16.171
				c3.483-4.958,8.074-9.288,13.67-11.612c0.733,10.066-1.53,20.331-6.429,29.154C141.731,227.069,134.216,234.418,125.285,239.118"
				/>
		</g>
		<g>
			<path style="fill:#F5F5F5;" d="M156.095,320.47c0.812-5.934,2.556-12.543,4.796-18.098c1.844-4.572,3.847-9.123,6.68-13.158
				c2.834-4.034,6.569-7.556,11.122-9.448c0.597,8.19-1.245,16.542-5.231,23.721C169.477,310.667,163.362,316.646,156.095,320.47"/>
		</g>
		<g>
			<path style="fill:#F5F5F5;" d="M159.15,342.573c2.113-5.605,3.805-14.206,7.225-19.123c2.815-4.047,5.781-8.038,9.442-11.34
				c3.661-3.302,8.086-5.905,12.946-6.734c-1.241,8.117-4.896,15.849-10.38,21.961C172.9,333.447,167.086,340.462,159.15,342.573"/>
		</g>
		<g>
			<path style="fill:#F5F5F5;" d="M137.584,267.919c0.998-7.293,3.141-15.416,5.894-22.244c2.266-5.62,4.728-11.213,8.211-16.171
				c3.483-4.958,8.074-9.288,13.67-11.612c0.733,10.066-1.53,20.331-6.429,29.154C154.031,255.87,146.515,263.219,137.584,267.919"
				/>
		</g>
		<g>
			<path style="fill:#F5F5F5;" d="M148.467,301.574c0.071-7.361,1.174-15.689,3.044-22.809c1.539-5.86,3.277-11.72,6.107-17.077
				c2.83-5.358,6.839-10.231,12.098-13.241c1.996,9.893,1.044,20.361-2.704,29.732C163.264,287.549,156.734,295.786,148.467,301.574
				"/>
		</g>
		<g>
			<path style="fill:#F5F5F5;" d="M116.315,216.482c6.342-8.246,10.67-18.03,12.507-28.269c1.837-10.239,1.179-20.917-1.901-30.854
				c-4.419,6.332-8.241,13.242-9.847,20.794C114.388,190.779,117.487,203.627,116.315,216.482"/>
		</g>
		<g>
			<path style="fill:#F5F5F5;" d="M106.48,191.93c2.375-8.034,1.682-16.935-1.907-24.505c-3.59-7.57-10.043-13.739-17.767-16.984
				c-1.016,8.082,0.343,16.448,3.864,23.793c3.521,7.345,9.193,13.644,16.13,17.913"/>
		</g>
		<g>
			<g>
				<path style="fill:#F5F5F5;" d="M161.38,347.172c-0.331-1.622-0.668-3.271-1.01-4.947c-0.331-1.678-0.794-3.355-1.194-5.072
					c-0.833-3.427-1.691-6.953-2.57-10.569c-3.829-14.386-8.609-30.046-14.29-46.257c-5.734-16.198-11.752-31.422-17.383-45.198
					c-5.698-13.749-10.986-26.064-15.515-36.366c-4.539-10.282-8.215-18.607-10.765-24.382c-1.278-2.858-2.273-5.084-2.958-6.615
					c-0.338-0.741-0.597-1.31-0.782-1.715c-0.179-0.385-0.284-0.577-0.284-0.577s0.07,0.207,0.232,0.599
					c0.173,0.41,0.416,0.986,0.732,1.737c0.663,1.54,1.626,3.781,2.864,6.657c2.512,5.791,6.133,14.141,10.605,24.451
					c4.483,10.321,9.734,22.649,15.404,36.404c5.603,13.782,11.604,29.002,17.333,45.188c5.676,16.199,10.467,31.839,14.318,46.202
					c0.886,3.61,1.75,7.131,2.589,10.552c0.404,1.714,0.87,3.388,1.205,5.063c0.346,1.673,0.687,3.319,1.022,4.938"/>
			</g>
		</g>
	</g>
	<g>
		<path style="fill:#FAFAFA;" d="M399.793,63.759c0.612-4.445-5.661-8.101-10.375-8.481c-2.248-0.181-4.583,0.162-6.712-0.58
			c-4.614-1.608-6.457-7.569-10.959-9.468c-3.366-1.42-7.241-0.156-10.503,1.486c-3.263,1.642-6.487,3.709-10.133,3.942
			c-3.171,0.203-6.614-0.973-9.388,0.576c-2.067,1.154-3.15,3.536-5.056,4.942c-1.864,1.375-4.296,1.666-6.609,1.792
			c-2.313,0.126-4.707,0.149-6.814,1.113c-2.106,0.964-3.848,3.191-3.411,5.466L399.793,63.759z"/>
	</g>
	<g>
		<path style="fill:#F5F5F5;" d="M471.792,118.782c0.612-4.445-5.661-8.101-10.375-8.481c-2.248-0.181-4.583,0.162-6.712-0.58
			c-4.614-1.608-6.457-7.569-10.959-9.468c-3.366-1.42-7.241-0.156-10.504,1.486c-3.263,1.642-6.487,3.709-10.133,3.942
			c-3.171,0.203-6.614-0.973-9.389,0.576c-2.067,1.154-3.15,3.536-5.056,4.942c-1.864,1.375-4.296,1.666-6.609,1.792
			c-2.313,0.126-4.708,0.149-6.813,1.113c-2.106,0.964-3.848,3.191-3.411,5.466L471.792,118.782z"/>
	</g>
	<g>
		<path style="fill:#F5F5F5;" d="M218.201,43.417c0.417-3.032-3.862-5.527-7.078-5.786c-1.533-0.124-3.126,0.111-4.579-0.396
			c-3.148-1.097-4.405-5.164-7.477-6.459c-2.296-0.969-4.94-0.106-7.166,1.014c-2.226,1.12-4.426,2.53-6.913,2.69
			c-2.163,0.138-4.513-0.664-6.405,0.393c-1.41,0.787-2.149,2.413-3.449,3.371c-1.272,0.938-2.931,1.137-4.509,1.223
			c-1.578,0.086-3.212,0.102-4.648,0.76c-1.437,0.658-2.626,2.177-2.327,3.729L218.201,43.417z"/>
	</g>
	<g>
		<path style="fill:#F5F5F5;" d="M141.141,100.835c0.778-5.654-7.202-10.306-13.198-10.789c-2.86-0.231-5.83,0.207-8.539-0.738
			c-5.869-2.046-8.214-9.629-13.941-12.044c-4.282-1.806-9.211-0.198-13.362,1.891c-4.151,2.089-8.253,4.718-12.89,5.015
			c-4.034,0.258-8.414-1.238-11.943,0.733c-2.63,1.468-4.007,4.499-6.432,6.286c-2.371,1.749-5.465,2.119-8.407,2.28
			c-2.942,0.16-5.988,0.19-8.668,1.416c-2.679,1.227-4.896,4.06-4.34,6.953L141.141,100.835z"/>
	</g>
</g>
<g id="Background_Simple" style="display:none;">
	<path style="display:inline;fill:#EBEBEB;" d="M414.654,137.048l-2.065-3.403c-17.41-28.69-48.887-45.984-82.074-43.886
		c-4.266,0.27-8.514,0.847-12.705,1.744c-30.174,6.459-56.429,29.277-67.312,58.5c-6.4,17.187-8.188,36.975-20.334,50.617
		c-15.807,17.754-42.643,18.312-66.238,17.576s-50.449-0.108-66.179,17.716c-9.852,11.163-12.982,27.038-12.188,41.987
		c2.103,39.58,29.683,74.97,64.758,92.561c35.075,17.591,76.371,19.166,114.758,11.428c53.776-10.84,104.916-40.61,135.655-86.59
		C431.469,249.319,439.248,186.676,414.654,137.048z"/>
	<circle style="display:inline;fill:#EBEBEB;" cx="171.57" cy="115.059" r="48.918"/>
</g>
<g id="Table">
	<g>
		<path style="fill:#263238;" d="M453.631,471.682c0,0.144-91.084,0.26-203.415,0.26c-112.37,0-203.435-0.117-203.435-0.26
			c0-0.144,91.064-0.26,203.435-0.26C362.547,471.422,453.631,471.539,453.631,471.682z"/>
	</g>
</g>
<g id="Character">
	<g>
		<g>
			<g>
				<g>
					<path style="fill:#263238;" d="M254.372,63.365c0,0,42.699-11.909,62.446,45.512c15.337,44.598,14.651,159.993,14.651,159.993
						s-61.488-1.015-63.419-0.507C266.119,268.869,254.372,63.365,254.372,63.365z"/>
					<g>
						<path style="fill:#263238;" d="M320.485,233.496c0,0-0.014-0.162-0.014-0.479c0.003-0.339,0.006-0.805,0.011-1.405
							c0.025-1.235,0.025-3.058,0.115-5.403c0.259-4.685,0.777-11.464,1.965-19.774c1.149-8.313,2.934-18.144,4.572-29.105
							c1.591-10.948,3.095-23.114,2.319-35.878c-0.04-0.797-0.081-1.592-0.12-2.384c-0.091-0.788-0.182-1.573-0.273-2.356
							c-0.194-1.564-0.333-3.125-0.568-4.66c-0.612-3.045-1.047-6.085-1.899-8.974c-1.553-5.812-3.695-11.236-6.167-16.18
							c-2.452-4.96-5.312-9.397-8.243-13.344c-1.421-2.011-2.992-3.798-4.428-5.574c-1.556-1.671-2.961-3.361-4.481-4.801
							c-5.901-5.947-11.387-9.995-15.279-12.588c-1.927-1.335-3.505-2.242-4.56-2.883c-0.511-0.313-0.908-0.557-1.197-0.734
							c-0.268-0.168-0.399-0.266-0.399-0.266s0.148,0.067,0.425,0.22c0.295,0.166,0.701,0.396,1.224,0.69
							c1.073,0.612,2.67,1.493,4.618,2.805c3.934,2.547,9.471,6.561,15.428,12.498c1.534,1.438,2.954,3.126,4.524,4.798
							c1.45,1.776,3.036,3.565,4.47,5.579c2.959,3.954,5.847,8.405,8.325,13.386c2.497,4.965,4.663,10.417,6.232,16.264
							c0.861,2.907,1.301,5.963,1.918,9.026c0.237,1.544,0.378,3.113,0.573,4.685c0.091,0.787,0.183,1.576,0.274,2.368
							c0.04,0.796,0.081,1.595,0.121,2.395c0.779,12.828-0.746,25.024-2.364,35.98c-1.666,10.97-3.487,20.789-4.682,29.087
							c-1.233,8.294-1.805,15.056-2.127,19.732c-0.121,2.34-0.153,4.161-0.212,5.394c-0.027,0.599-0.048,1.065-0.063,1.404
							C320.507,233.334,320.485,233.496,320.485,233.496z"/>
					</g>
					<g>
						<path style="fill:#455A64;" d="M309.202,98.362c-0.016,0.009-0.135-0.148-0.348-0.455c-0.24-0.358-0.54-0.806-0.908-1.356
							c-0.381-0.597-0.859-1.318-1.47-2.118c-0.602-0.804-1.241-1.755-2.066-2.715c-0.401-0.491-0.82-1.003-1.255-1.536
							c-0.439-0.532-0.943-1.045-1.437-1.599c-0.974-1.123-2.129-2.214-3.316-3.388c-2.446-2.272-5.287-4.61-8.48-6.771
							c-3.215-2.129-6.46-3.865-9.493-5.261c-1.538-0.651-2.986-1.303-4.396-1.776c-0.701-0.246-1.367-0.516-2.026-0.719
							c-0.659-0.2-1.292-0.391-1.898-0.575c-1.202-0.397-2.324-0.626-3.297-0.876c-0.972-0.26-1.821-0.427-2.518-0.552
							c-0.648-0.131-1.177-0.238-1.599-0.323c-0.365-0.08-0.556-0.13-0.553-0.148c0.003-0.018,0.198-0.002,0.569,0.044
							c0.427,0.06,0.963,0.135,1.619,0.228c0.705,0.095,1.563,0.234,2.546,0.467c0.984,0.224,2.118,0.429,3.334,0.806
							c0.613,0.175,1.254,0.357,1.92,0.547c0.666,0.195,1.341,0.456,2.049,0.696c1.426,0.459,2.892,1.1,4.446,1.744
							c3.068,1.382,6.346,3.12,9.588,5.267c3.219,2.178,6.074,4.547,8.52,6.856c1.188,1.192,2.339,2.302,3.306,3.446
							c0.491,0.564,0.99,1.088,1.424,1.629c0.429,0.544,0.842,1.066,1.237,1.567c0.811,0.98,1.433,1.951,2.016,2.775
							c0.591,0.82,1.046,1.56,1.402,2.176c0.335,0.572,0.609,1.038,0.828,1.411C309.129,98.177,309.218,98.352,309.202,98.362z"/>
					</g>
				</g>
				<g>
					<g>
						<g>
							<g>
								<g>
									<path style="fill:#FFBE9D;" d="M213.386,97.012l42.007-19.61l11.311,0.649c25.285-1.389,41.839,24.95,43.212,45.414
										c1.583,23.595,4.996,51.435,2.334,68.055c-5.464,34.112-31.432,38.574-31.432,38.574
										c-0.004-0.052,4.361,26.871,5.239,38.179c1.577,20.321-17.676,20.186-38.048,20.865l0,0
										c-19.419,0.647-35.808-14.319-36.922-33.717l-8.396-146.197C202.547,102.994,207.193,97.69,213.386,97.012z"/>
								</g>
							</g>
						</g>
						<g>
							<g>
								<g>
									<g>
										<g>
											<g>
												<g>
													<g>
														<g>
															<g>
																<g>
																	<g>
																		<g>
																			<g>
																				<g>
																					<g>
																						<g>
																							<g>
																								<path style="fill:#263238;" d="M289.956,149.447c0.378-0.691,4.211,0.83,8.76-0.388
																									c4.56-1.153,7.28-4.381,7.921-3.954c0.309,0.182,0.037,1.319-1.135,2.764
																									c-1.152,1.434-3.323,3.107-6.161,3.848c-2.839,0.736-5.501,0.325-7.155-0.38
																									C290.503,150.635,289.764,149.763,289.956,149.447z"/>
																							</g>
																						</g>
																					</g>
																				</g>
																			</g>
																		</g>
																	</g>
																</g>
															</g>
														</g>
													</g>
												</g>
											</g>
										</g>
									</g>
									<g>
										<g>
											<g>
												<g>
													<g>
														<g>
															<g>
																<g>
																	<g>
																		<g>
																			<g>
																				<g>
																					<g>
																						<g>
																							<path style="fill:#263238;" d="M277.366,174.385c-0.023-0.267,2.902-0.783,7.643-1.407
																								c1.202-0.129,2.339-0.371,2.539-1.193c0.28-0.87-0.227-2.164-0.815-3.561
																								c-1.141-2.906-2.335-5.952-3.589-9.143c-4.984-13.018-8.597-23.724-8.071-23.919
																								c0.526-0.197,4.994,10.196,9.978,23.214c1.199,3.21,2.348,6.27,3.439,9.198
																								c0.46,1.365,1.248,2.912,0.641,4.717c-0.321,0.9-1.201,1.555-1.971,1.766
																								c-0.77,0.238-1.445,0.253-2.041,0.291C280.346,174.621,277.385,174.653,277.366,174.385z"/>
																						</g>
																					</g>
																				</g>
																			</g>
																		</g>
																	</g>
																</g>
															</g>
														</g>
													</g>
												</g>
											</g>
										</g>
									</g>
									<g>
										<g>
											<g>
												<g>
													<g>
														<g>
															<g>
																<g>
																	<g>
																		<g>
																			<g>
																				<g>
																					<g>
																						<path style="fill:#EB996E;" d="M280.818,230.094c0,0-22.948,1.562-45.738-12.025
																							c0,0,12.258,23.607,46.395,20.292L280.818,230.094z"/>
																					</g>
																				</g>
																			</g>
																		</g>
																	</g>
																</g>
															</g>
														</g>
													</g>
												</g>
											</g>
										</g>
									</g>
									<g>
										<g>
											<g>
												<g>
													<g>
														<g>
															<g>
																<g>
																	<g>
																		<g>
																			<g>
																				<g>
																					<g>
																						<path style="fill:#EB996E;" d="M275.274,187.406c-1.702-2.232-4.673-3.452-7.617-3.124
																							c-2.042,0.228-4.104,1.22-5.339,2.889c-1.236,1.668-1.487,4.031-0.353,5.614
																							c1.278,1.782,3.934,2.185,6.179,1.538c2.246-0.647,4.173-2.133,6.006-3.613
																							c0.506-0.41,1.024-0.837,1.339-1.398c0.316-0.559,0.38-1.291-0.013-1.752"/>
																					</g>
																				</g>
																			</g>
																		</g>
																	</g>
																</g>
															</g>
														</g>
													</g>
												</g>
											</g>
										</g>
									</g>
									<g>
										<g>
											<g>
												<g>
													<g>
														<g>
															<g>
																<g>
																	<g>
																		<g>
																			<g>
																				<g>
																					<g>
																						<g>
																							<path style="fill:#263238;" d="M263.379,179.358c0.765-0.047,0.794,5.064,5.182,8.676
																								c4.379,3.624,9.826,3.031,9.868,3.745c0.073,0.321-1.21,0.998-3.508,1.068
																								c-2.255,0.086-5.552-0.628-8.236-2.837c-2.678-2.214-3.836-5.179-4.017-7.276
																								C262.464,180.598,263.029,179.329,263.379,179.358z"/>
																						</g>
																					</g>
																				</g>
																			</g>
																		</g>
																	</g>
																</g>
															</g>
														</g>
													</g>
												</g>
											</g>
										</g>
									</g>
									<g>
										<g>
											<g>
												<g>
													<g>
														<g>
															<g>
																<g>
																	<g>
																		<g>
																			<g>
																				<g>
																					<g>
																						<g>
																							<g>
																								<g>
																									<path style="fill:#263238;" d="M305.79,123.365c-0.837,1.314-4.456,0.194-8.725,0.363
																										c-4.275,0.008-7.832,1.278-8.735-0.001c-0.4-0.623,0.101-1.921,1.614-3.205
																										c1.491-1.278,4.04-2.395,6.976-2.458c2.936-0.058,5.538,0.951,7.092,2.166
																										C305.591,121.45,306.156,122.726,305.79,123.365z"/>
																								</g>
																							</g>
																						</g>
																					</g>
																				</g>
																			</g>
																		</g>
																	</g>
																</g>
															</g>
														</g>
													</g>
												</g>
											</g>
										</g>
									</g>
									<g>
										<g>
											<g>
												<g>
													<g>
														<g>
															<g>
																<g>
																	<g>
																		<g>
																			<g>
																				<g>
																					<g>
																						<g>
																							<g>
																								<path style="fill:#263238;" d="M260.133,150.126c-0.46-0.712-4.459,1.218-9.439,0.26
																									c-4.988-0.885-8.158-4.143-8.814-3.634c-0.317,0.22,0.062,1.421,1.433,2.881
																									c1.348,1.451,3.809,3.08,6.915,3.657c3.107,0.571,5.934-0.077,7.656-0.962
																									C259.638,151.443,260.365,150.45,260.133,150.126z"/>
																							</g>
																						</g>
																					</g>
																				</g>
																			</g>
																		</g>
																	</g>
																</g>
															</g>
														</g>
													</g>
												</g>
											</g>
										</g>
									</g>
									<g>
										<g>
											<g>
												<g>
													<g>
														<g>
															<g>
																<g>
																	<g>
																		<g>
																			<g>
																				<g>
																					<g>
																						<g>
																							<g>
																								<g>
																									<path style="fill:#263238;" d="M243.576,125.295c0.984,1.083,4.611-0.231,9.026-0.468
																										c4.407-0.379,8.19,0.419,9.002-0.789c0.355-0.585-0.281-1.685-1.959-2.681
																										c-1.655-0.992-4.384-1.747-7.417-1.537c-3.032,0.214-5.62,1.338-7.109,2.551
																										C243.605,123.587,243.141,124.764,243.576,125.295z"/>
																								</g>
																							</g>
																						</g>
																					</g>
																				</g>
																			</g>
																		</g>
																	</g>
																</g>
															</g>
														</g>
													</g>
												</g>
											</g>
										</g>
									</g>
								</g>
							</g>
						</g>
					</g>
				</g>
			</g>
			<g>
				<g>
					<path style="fill:#E3E3E3;" d="M277.694,96.966C277.701,96.951,277.682,96.949,277.694,96.966L277.694,96.966z"/>
					<path style="fill:#E3E3E3;" d="M280.056,106.511l0.003,0.009c0.053-0.002,0.098-0.004,0.132-0.005L280.056,106.511z"/>
					<path style="fill:#E3E3E3;" d="M280.028,108.125l-0.012,0.012C280.047,108.13,280.078,108.127,280.028,108.125z"/>
					<path style="fill:#E3E3E3;" d="M278.879,103.032c0-0.014-0.013-0.019-0.03-0.021
						C278.861,103.016,278.872,103.022,278.879,103.032z"/>
					<path style="fill:#E3E3E3;" d="M276.782,94.206l0.006,0.006c0.009-0.008,0.015-0.013,0.027-0.024L276.782,94.206z"/>
					<path style="fill:#E3E3E3;" d="M276.876,94.217c-0.03,0.043-0.074,0.007-0.088-0.005c-0.06,0.053-0.057,0.092-0.017,0.123
						C276.85,94.316,276.821,94.247,276.876,94.217z"/>
					<path style="fill:#E3E3E3;" d="M275.334,89.16l0.035,0.007C275.36,89.163,275.347,89.161,275.334,89.16z"/>
					<path style="fill:#E3E3E3;" d="M275.049,103.963c-0.009-0.007-0.013-0.011-0.023-0.019
						C275.026,103.956,275.036,103.961,275.049,103.963z"/>
					<path style="fill:#E3E3E3;" d="M275.457,89.982l0.126-0.022C275.529,89.966,275.49,89.973,275.457,89.982z"/>
					<path style="fill:#E3E3E3;" d="M280.191,106.515l0.051,0.002C280.23,106.517,280.212,106.516,280.191,106.515z"/>
					<path style="fill:#E3E3E3;" d="M280.21,109.575c-0.038,0.007-0.068,0.016-0.094,0.025l0,0.004L280.21,109.575z"/>
					<path style="fill:#E3E3E3;" d="M279.433,117.142l0.048-0.011l-0.094-0.015C279.398,117.129,279.413,117.138,279.433,117.142z"
						/>
					<path style="fill:#E3E3E3;" d="M280.016,111.641l0.045-0.001c0.036-0.041,0.03-0.131,0.005-0.244l-0.155,0.02L280.016,111.641z
						"/>
					<path style="fill:#E3E3E3;" d="M276.79,114.395l0.275-0.26c0.256,0.643-0.006,1.006,0.338,1.537l-0.072-0.021
						c-0.059,0.094,0.647,0.03-0.056,1.086l-0.031,0.005c0.01,0.031,0.072,0.021,0,0.098l0.165-0.189
						c0.093,0.083,0.254,0.143,0.295,0.266c-0.03,0.032-0.092,0.052-0.142,0.062l0.101,0.303l-0.186,0.127
						c0.124,0.078,0.54-0.032,0.344,0.26c0.279-0.142,0.196,0.099,0.34,0.044c-0.034,0.022-0.084,0.056-0.13,0.088
						c0.058,0.146,0.185,0.419,0.347,0.467c0,0,0.526-0.69,0.814-0.899c-0.046,0.227,0.045,0.051,0.137-0.007l-0.075-0.003
						c0.052-0.14,0.237-0.169,0.278-0.241c-0.015,0.003-0.033,0.008-0.051,0.012l0.026,0.004c-0.032,0.011-0.055,0.011-0.075,0.007
						c-0.039,0.008-0.072,0.007-0.066-0.03l0.021,0.004c-0.036-0.049-0.021-0.147-0.014-0.189l0.155-0.025
						c-0.31-0.049,0.35-0.712,0.338-0.842c0.174-0.16-0.095-0.28-0.023-0.457c0.008-0.264,0.205-0.165,0.317-0.315
						c0.071-0.176-0.175,0.062-0.196-0.001l0.184-0.228c0.037,0.109,0.12,0.033,0.177,0.003c-0.001-0.171,0.24-0.48-0.077-0.48
						c0.111-0.249,0.235-0.27,0.234-0.369c-0.051,0.042-0.092,0.114-0.154,0.125c0.121-0.113-0.041-0.037-0.065,0.004
						c-0.155-0.115,0.443-0.806,0.1-0.778l0.062-0.01c-0.258,0.01-0.494,0.103-0.649,0.03l0.102-0.083l-0.125-0.078
						c0.071-0.078,0.143-0.058,0.174-0.063c-0.143-0.137-0.041-0.379-0.039-0.575l-0.654,0.318c0.132-0.187,0.405-0.53,0.179-0.524
						l0.215-0.136c0.385-0.397-0.23-0.191-0.12-0.342l0.223-0.204l0.024,0.161c0.1-0.182,0.17-0.261,0.312-0.417l-0.007,0
						c-0.009,0.011-0.02,0.018-0.035,0.022l-0.01-0.021c-0.129,0.002-0.229-0.066-0.241-0.181c0.007-0.167-0.2-0.259,0.021-0.563
						l-0.268-0.019l0.119-0.219l0.204-0.036c0.021,0.191,0.161,0.532,0.214,0.773l0.094-0.012c-0.025-0.144-0.145-0.291-0.141-0.39
						c0.033-0.053,0.225-0.21,0.378-0.148l-0.216-0.054c-0.106-0.476-0.118-0.477,0.023-1.02l-0.095,0.062
						c-0.078-0.089-0.155-0.177,0.006-0.235c-0.021-0.307,0.052-0.642,0.275-0.885l-0.249,0.001
						c0.002-0.066,0.348-0.228,0.006-0.197l-0.132-0.116c0.002-0.09-0.145-0.118-0.026-0.242h0l0-0.001l0.025-0.024l-0.02,0.005
						c0.07-0.216-0.215,0.042-0.119-0.209c0.158-0.104-0.32-0.023-0.286-0.143l0.325-0.174c0.161-0.236-0.192-0.205-0.246-0.492
						c0.097-0.161,0.379-0.284,0.657-0.242c-0.34-0.066-0.217-0.018-0.4-0.157c0.125-0.05,0.156-0.038,0.28-0.023
						c0.125-0.177-0.135-0.069-0.148-0.182c-0.251,0.014-0.648,0.051-0.671,0.018l-0.068,0.058c-0.154-0.093-0.24-0.21-0.143-0.371
						l0.124-0.019l-0.091-0.134l0.156-0.039l-0.089-0.199l-0.037,0.037c-0.03-0.045-0.116-0.195-0.051-0.303l0.088-0.014
						c0.222-0.313-0.175-0.457-0.264-0.755l0.186,0.005c0.157-0.138-0.28,0.026-0.216-0.115l0.218-0.049
						c-0.31-0.052,0.033-0.152,0.127-0.249l-0.28,0.092l0.033-0.153c0.064-0.174,0.344-0.167,0.499-0.174l-0.247-0.061l0.249-0.071
						c-0.31-0.019,0.032-0.087-0.153-0.191c0.094-0.03,0.155-0.007,0.187-0.061l-0.402-0.152l0.185,0.103l-0.374,0.058
						c-0.309-0.084,0.003-0.198-0.121-0.277l0.124,0.047c-0.122-0.145,0.033-0.186,0.097-0.294c-0.063,0.042-0.157,0.107-0.218,0.05
						c-0.03-0.044,0.125-0.053,0.157-0.107c-0.249,0.039-0.403-0.052-0.308-0.181c0.035-0.006,0.07-0.01,0.093-0.008
						c-0.045-0.019-0.112-0.02-0.062-0.079l0.28-0.028l-0.28-0.038c0.063-0.076-0.154-0.123,0.032-0.153l0.062,0.023l-0.028-0.472
						l0.218-0.051c-0.311,0.017,0.063-0.273-0.31-0.181c0.187-0.129-0.215-0.31,0.22-0.347c-0.03-0.308-0.47-0.386-0.341-0.794
						c0.332-0.206,0.14-0.538,0.129-0.781c-0.248-0.427-0.444-0.695-0.662-1.138c0.44-0.39-0.326-0.665-0.108-1.029l-0.217-0.039
						c0.274-0.271-0.182-0.493,0.063-0.843c-0.103-0.05-0.138-0.08-0.149-0.094c-0.007,0.015-0.04,0.043-0.165,0.077
						c0.071-0.1-0.077-0.238,0.178-0.283l0.031,0.015c0.255-0.045-0.173-0.218,0.026-0.357l-0.259,0.11l0.012-0.163l0.061,0.029
						c-0.747-0.527,0.04-1.021-0.651-1.517c0.313,0.015-0.183-0.087,0.137-0.169c0.369-0.25-0.154-0.27-0.292-0.373
						c-0.016,0.004-0.035,0.006-0.061,0.005l-0.013-0.233c0.438,0.039-0.374-0.083,0-0.041c0.167-0.656-0.324-1.346-0.345-2.056
						l-0.097,0.055c-0.022-0.176-0.2-0.359-0.065-0.529c0.135-0.17-0.334-0.22-0.363-0.266c-0.214-0.099,0.112-0.315,0.108-0.25
						c-0.087-0.14-0.492-0.193-0.384-0.443c0.327-0.157-0.48-0.492-0.094-0.594l-0.033,0.006c0.205-0.338-0.322-0.477-0.148-0.83
						c0,0,0.03,0.001,0.058,0.002l-1.321-0.296l-1.25,0.493l-0.923,0.772l0.569,1.319l-0.144,1.199l0.773,2.645l0.337,0.124
						c-0.391,0.645,0.356,1.186,0.116,1.838l0.255-0.045c0.051,0.157-0.108,0.181-0.143,0.231c0.393,1.477,1.059,2.946,1.024,4.359
						c-0.139,0.165,0.04,0.539-0.116,0.678c0.4,0.373,0.492,0.838,0.55,1.283l-0.031-0.011l0.09,0.197
						c-0.019,0.013-0.049,0.02-0.07,0.017c0.271,0.188,0.122,0.6,0.087,0.903l-0.031-0.011c0.286,1.672,1.054,3.132,1.002,4.854
						c-0.275,0.845,0.46,1.638,0.266,2.584C276.152,112.499,276.645,114.256,276.79,114.395z"/>
					<path style="fill:#E3E3E3;" d="M277.562,116.979l-0.002-0.007C277.452,116.99,277.494,116.993,277.562,116.979z"/>
					<polygon style="fill:#E3E3E3;" points="279.889,112.773 279.888,112.785 280.033,112.715 					"/>
					<path style="fill:#E3E3E3;" d="M280.377,115.154c0.016-0.113-0.011-0.114-0.051-0.092
						C280.325,115.102,280.339,115.135,280.377,115.154z"/>
					<path style="fill:#E3E3E3;" d="M277.903,117.819c0,0.058,0.061,0.026,0.128-0.018c-0.022-0.059-0.035-0.094-0.035-0.094
						C277.976,117.743,277.924,117.783,277.903,117.819z"/>
					<path style="fill:#E3E3E3;" d="M279.329,117.362l0.09,0.004C279.393,117.336,279.361,117.343,279.329,117.362z"/>
				</g>
				<g>
					<path style="fill:#E3E3E3;" d="M272.277,100.09C272.267,100.082,272.265,100.1,272.277,100.09L272.277,100.09z"/>
					<path style="fill:#E3E3E3;" d="M278.945,98.831c0.003,0,0.004-0.002,0.007-0.002c-0.002-0.052-0.003-0.097-0.004-0.132
						L278.945,98.831z"/>
					<path style="fill:#E3E3E3;" d="M280.068,99.011c0.003,0.005,0.005,0.008,0.008,0.013
						C280.072,98.993,280.069,98.962,280.068,99.011z"/>
					<path style="fill:#E3E3E3;" d="M276.519,99.638c-0.01-0.002-0.013,0.01-0.015,0.028
						C276.507,99.654,276.512,99.644,276.519,99.638z"/>
					<path style="fill:#E3E3E3;" d="M270.333,100.624c0,0,0.002-0.003,0.004-0.005c-0.005-0.01-0.01-0.017-0.016-0.03
						L270.333,100.624z"/>
					<path style="fill:#E3E3E3;" d="M270.343,100.534c0.029,0.035,0.003,0.074-0.006,0.086c0.035,0.067,0.063,0.068,0.085,0.033
						C270.411,100.573,270.362,100.591,270.343,100.534z"/>
					<path style="fill:#E3E3E3;" d="M266.769,101.316l0.007-0.034C266.773,101.292,266.771,101.304,266.769,101.316z"/>
					<path style="fill:#E3E3E3;" d="M277.137,103.529c-0.004,0.008-0.01,0.012-0.014,0.021
						C277.132,103.551,277.135,103.541,277.137,103.529z"/>
					<path style="fill:#E3E3E3;" d="M267.347,101.321l-0.01-0.127C267.338,101.247,267.342,101.287,267.347,101.321z"/>
					<path style="fill:#E3E3E3;" d="M278.948,98.697l0.001-0.05C278.949,98.659,278.948,98.676,278.948,98.697z"/>
					<path style="fill:#E3E3E3;" d="M281.077,98.961c0.005,0.039,0.012,0.069,0.018,0.095c0.001,0,0.002,0,0.003,0L281.077,98.961z"
						/>
					<path style="fill:#E3E3E3;" d="M286.373,100.308c-0.002-0.016-0.005-0.032-0.009-0.049l-0.008,0.092
						C286.365,100.341,286.371,100.327,286.373,100.308z"/>
					<path style="fill:#E3E3E3;" d="M282.519,99.328c-0.001-0.015,0.001-0.029-0.001-0.045c-0.029-0.039-0.092-0.04-0.17-0.025
						l0.016,0.156L282.519,99.328z"/>
					<path style="fill:#E3E3E3;" d="M284.49,102.743l-0.187-0.293c0.45-0.205,0.709,0.079,1.078-0.225l-0.013,0.07
						c0.068,0.064,0.009-0.64,0.766,0.131l0.004,0.031c0.022-0.008,0.013-0.071,0.069,0.007l-0.137-0.176
						c0.056-0.087,0.095-0.244,0.182-0.276c0.023,0.032,0.038,0.095,0.047,0.145l0.212-0.081l0.093,0.193
						c0.052-0.118-0.034-0.539,0.176-0.326c-0.106-0.286,0.065-0.188,0.024-0.336c0.014,0.035,0.041,0.087,0.064,0.135
						c0.102-0.048,0.291-0.157,0.32-0.315c0,0-0.497-0.566-0.65-0.867c0.16,0.06,0.035-0.041-0.008-0.136l0,0.075
						c-0.099-0.06-0.123-0.246-0.175-0.292c0.002,0.015,0.006,0.033,0.009,0.051l0.003-0.026c0.008,0.032,0.009,0.055,0.007,0.075
						c0.006,0.04,0.006,0.071-0.02,0.064l0.002-0.02c-0.034,0.032-0.102,0.011-0.132,0.002l-0.021-0.155
						c-0.028,0.305-0.506-0.393-0.596-0.391c-0.115-0.184-0.194,0.075-0.319-0.009c-0.185-0.027-0.119-0.215-0.226-0.337
						c-0.125-0.083,0.046,0.178,0.003,0.195l-0.162-0.199c0.075-0.029,0.021-0.117-0.001-0.175
						c-0.119-0.011-0.339-0.272-0.334,0.042c-0.176-0.128-0.192-0.252-0.261-0.259c0.03,0.054,0.081,0.099,0.09,0.162
						c-0.081-0.129-0.025,0.038,0.004,0.065c-0.078,0.147-0.569-0.5-0.545-0.157l-0.008-0.062c0.011,0.256,0.079,0.498,0.031,0.647
						l-0.059-0.107l-0.053,0.118c-0.056-0.076-0.042-0.147-0.047-0.178c-0.094,0.131-0.264,0.012-0.401-0.005l0.231,0.673
						c-0.132-0.145-0.376-0.443-0.369-0.217l-0.098-0.224c-0.282-0.414-0.131,0.213-0.237,0.091l-0.145-0.238l0.112-0.01
						c-0.128-0.114-0.184-0.19-0.295-0.344c0,0.003,0,0.005,0,0.007c0.008,0.01,0.013,0.021,0.016,0.036l-0.015,0.008
						c0.003,0.128-0.044,0.222-0.124,0.224c-0.116-0.021-0.179,0.177-0.393-0.067l-0.01,0.265l-0.154-0.137l-0.027-0.206
						c0.133-0.005,0.37-0.116,0.537-0.148l-0.009-0.094c-0.1,0.013-0.202,0.119-0.271,0.108c-0.038-0.037-0.148-0.24-0.107-0.387
						l-0.035,0.21c-0.331,0.067-0.332,0.077-0.711-0.111l0.044,0.1c-0.061,0.07-0.122,0.138-0.163-0.027
						c-0.214-0.007-0.447-0.108-0.617-0.351l0.002,0.247c-0.046-0.008-0.16-0.366-0.137-0.023l-0.08,0.119
						c-0.063-0.011-0.082,0.133-0.169,0.003c0,0,0,0,0,0c0-0.001,0-0.001,0-0.001c-0.005-0.008-0.011-0.017-0.017-0.027
						c0.001,0.007,0.002,0.014,0.003,0.02c-0.151-0.089,0.03,0.217-0.145,0.098c-0.073-0.166-0.015,0.315-0.099,0.27l-0.122-0.338
						c-0.164-0.182-0.142,0.171-0.342,0.198c-0.112-0.111-0.198-0.402-0.169-0.674c-0.046,0.331-0.013,0.213-0.109,0.382
						c-0.035-0.129-0.026-0.158-0.016-0.28c-0.123-0.14-0.048,0.127-0.127,0.129c0.01,0.25,0.035,0.647,0.012,0.666l0.04,0.073
						c-0.065,0.143-0.147,0.216-0.259,0.105l-0.013-0.125l-0.094,0.076l-0.027-0.158l-0.139,0.068l0.026,0.04
						c-0.031,0.025-0.136,0.095-0.211,0.02l-0.009-0.089c-0.217-0.252-0.319,0.129-0.527,0.186l0.004-0.184
						c-0.096-0.17,0.017,0.28-0.081,0.202l-0.033-0.221c-0.038,0.301-0.106-0.049-0.173-0.152l0.063,0.287l-0.106-0.048
						c-0.121-0.082-0.115-0.358-0.119-0.512l-0.044,0.238l-0.048-0.254c-0.015,0.305-0.06-0.041-0.134,0.131
						c-0.02-0.096-0.004-0.155-0.041-0.192l-0.108,0.382l0.073-0.172l0.038,0.376c-0.06,0.297-0.138-0.023-0.194,0.09l0.034-0.118
						c-0.102,0.106-0.129-0.053-0.204-0.127c0.029,0.067,0.073,0.166,0.033,0.221c-0.031,0.025-0.036-0.129-0.073-0.166
						c0.025,0.25-0.039,0.393-0.129,0.285c-0.004-0.036-0.007-0.07-0.005-0.093c-0.014,0.043-0.015,0.108-0.056,0.053l-0.017-0.28
						l-0.029,0.272c-0.052-0.07-0.087,0.139-0.106-0.049l0.017-0.059l-0.329-0.025l-0.034-0.221c0.008,0.309-0.19-0.093-0.129,0.286
						c-0.088-0.2-0.218,0.178-0.239-0.256c-0.215-0.005-0.274,0.423-0.557,0.247c-0.139-0.353-0.373-0.202-0.542-0.219
						c-0.301,0.194-0.49,0.359-0.802,0.519c-0.264-0.483-0.469,0.24-0.718-0.02l-0.032,0.21c-0.183-0.303-0.347,0.119-0.586-0.169
						c-0.037,0.095-0.059,0.126-0.069,0.135c0.01,0.008,0.029,0.045,0.05,0.173c-0.068-0.083-0.168,0.045-0.193-0.212l0.011-0.028
						c-0.025-0.257-0.156,0.142-0.248-0.072l0.07,0.27l-0.113-0.032l0.022-0.056c-0.385,0.671-0.709-0.173-1.072,0.441
						c0.019-0.307-0.065,0.169-0.114-0.158c-0.164-0.398-0.192,0.116-0.268,0.237c0.002,0.016,0.004,0.035,0.002,0.061l-0.163-0.019
						c0.04-0.426-0.069,0.358-0.028-0.005c-0.452-0.256-0.947,0.13-1.442,0.05l0.035,0.104c-0.123-0.005-0.257,0.144-0.371-0.014
						c-0.114-0.158-0.165,0.297-0.198,0.318c-0.076,0.197-0.215-0.156-0.17-0.143c-0.101,0.065-0.152,0.456-0.322,0.314
						c-0.097-0.344-0.361,0.398-0.418,0.003l0.003,0.034c-0.227-0.254-0.345,0.244-0.584,0.019c0,0,0-0.03,0.004-0.057l-0.261,1.255
						l0.292,1.305l0.503,1.025l0.952-0.362l0.839,0.317l1.889-0.392l0.097-0.316c0.443,0.472,0.846-0.191,1.298,0.128l-0.025-0.258
						c0.112-0.03,0.125,0.13,0.159,0.171c1.052-0.196,2.098-0.681,3.093-0.482c0.114,0.158,0.381,0.021,0.476,0.191
						c0.268-0.354,0.597-0.394,0.911-0.403l-0.008,0.03l0.139-0.069c0.009,0.02,0.014,0.051,0.012,0.071
						c0.135-0.249,0.424-0.058,0.638,0.008l-0.008,0.03c1.183-0.108,2.212-0.73,3.426-0.525c0.597,0.347,1.153-0.313,1.821-0.046
						C283.161,103.235,284.395,102.878,284.49,102.743z"/>
					<path style="fill:#E3E3E3;" d="M286.299,102.157l-0.005,0.002C286.308,102.266,286.31,102.225,286.299,102.157z"/>
					<polygon style="fill:#E3E3E3;" points="283.31,99.544 283.319,99.546 283.268,99.398 					"/>
					<path style="fill:#E3E3E3;" d="M284.964,99.236c-0.079-0.024-0.079,0.003-0.063,0.045
						C284.929,99.284,284.952,99.273,284.964,99.236z"/>
					<path style="fill:#E3E3E3;" d="M286.883,101.871c0.04,0.003,0.017-0.059-0.016-0.128c-0.038,0.019-0.065,0.029-0.065,0.029
						C286.827,101.794,286.857,101.848,286.883,101.871z"/>
					<path style="fill:#E3E3E3;" d="M286.53,100.425l0.001-0.089C286.511,100.36,286.516,100.392,286.53,100.425z"/>
				</g>
				<path style="fill:#E0E0E0;" d="M283.986,107.55c0.548-0.036,1.023,0.595,0.837,1.112c-0.186,0.517-0.954,0.7-1.354,0.323
					c-0.399-0.378-0.26-1.155,0.246-1.37"/>
				<path style="fill:#E0E0E0;" d="M285.228,105.343c0.274-0.018,0.512,0.297,0.418,0.556c-0.093,0.258-0.477,0.35-0.677,0.161
					c-0.2-0.189-0.13-0.577,0.123-0.685"/>
			</g>
		</g>
		<g>
			<path style="fill:#FF725E;" d="M201.617,238.449c0,0-50.888,16.554-70.342,35.671c-14.836,14.58-21.852,60.014-22.663,67.314
				c-0.811,7.3-11.649,87.552-9.216,98.907c1.283,5.989,7.079,15.7,12.27,23.542c4.156,6.278,13.297,6.497,17.775,0.444
				l21.808-29.475l20.983-28.319l4.987-110.628L201.617,238.449z"/>
			<path style="fill:#FF725E;" d="M306.626,253.389c0,0,36.18,7.121,49.396,29.462c6.398,10.814,20.716,46.044,21.909,74.124
				c3.893,91.594-4.24,101.095-4.24,101.095s3.092-20.567-17.996-35.977c-21.088-15.41-24.332-25.954-24.332-25.954l7.705-71.78
				L306.626,253.389z"/>
			<path style="fill:#FF725E;" d="M201.617,238.449c0.406,1.217,9.302,30.35,44.989,30.756
				c35.687,0.406,39.799-22.436,39.799-22.436l20.22,6.62l36.904,55.559l-2.624,162.735H146.248l-5.486-134.753l4.565-73.407
				L201.617,238.449z"/>
			<g>
				<path style="fill:#263238;" d="M265.575,460.56c-0.013,0.012-0.219-0.187-0.598-0.579c-0.408-0.43-0.955-1.006-1.641-1.73
					c-0.713-0.751-1.574-1.681-2.542-2.789c-0.972-1.104-2.101-2.343-3.281-3.771c-2.408-2.814-5.167-6.259-8.117-10.169
					c-2.926-3.929-6.029-8.333-9.095-13.083c-3.048-4.764-5.766-9.418-8.125-13.712c-2.331-4.309-4.318-8.249-5.878-11.609
					c-0.808-1.667-1.467-3.208-2.067-4.551c-0.605-1.341-1.093-2.51-1.48-3.471c-0.373-0.925-0.67-1.662-0.891-2.211
					c-0.199-0.508-0.295-0.777-0.278-0.784c0.017-0.007,0.145,0.249,0.375,0.744c0.244,0.54,0.57,1.263,0.981,2.172
					c0.416,0.947,0.93,2.104,1.56,3.431c0.625,1.33,1.306,2.858,2.134,4.512c1.6,3.334,3.617,7.249,5.967,11.537
					c2.377,4.272,5.101,8.908,8.142,13.661c3.059,4.739,6.143,9.142,9.042,13.078c2.924,3.917,5.647,7.379,8.015,10.219
					c1.16,1.44,2.268,2.694,3.217,3.815c0.946,1.125,1.784,2.073,2.474,2.844c0.656,0.751,1.179,1.349,1.568,1.795
					C265.408,460.324,265.588,460.547,265.575,460.56z"/>
			</g>
			<g>
				<path style="fill:#263238;" d="M282.255,450.725c-0.011,0.014-0.249-0.153-0.694-0.485c-0.478-0.365-1.12-0.855-1.927-1.471
					c-1.674-1.278-4.044-3.195-6.921-5.626c-2.883-2.423-6.232-5.409-9.864-8.818c-3.612-3.429-7.494-7.293-11.42-11.493
					c-3.911-4.215-7.491-8.363-10.655-12.21c-3.143-3.865-5.883-7.418-8.095-10.465c-2.22-3.042-3.964-5.542-5.12-7.302
					c-0.557-0.849-1.001-1.524-1.331-2.027c-0.299-0.466-0.449-0.716-0.434-0.726c0.015-0.01,0.194,0.22,0.521,0.668
					c0.35,0.488,0.82,1.145,1.411,1.97c1.206,1.724,2.994,4.188,5.249,7.198c2.247,3.016,5.013,6.539,8.17,10.38
					c3.179,3.823,6.762,7.953,10.666,12.16c3.917,4.191,7.782,8.058,11.369,11.5c3.607,3.421,6.924,6.43,9.773,8.886
					c2.842,2.463,5.174,4.421,6.808,5.747c0.781,0.648,1.403,1.164,1.866,1.547C282.049,450.516,282.266,450.711,282.255,450.725z"
					/>
			</g>
			<g style="opacity:0.2;">
				<path d="M184.487,469.593c25.04-6.611,45.303-28.65,49.791-54.156c3.721,4.593,8.477,8.341,13.812,10.885
					c1.596-6.481-6.016-13.693-8.734-19.789c0,0,4.883-5.742,8.08-14.431c9.444-25.669,19.928-51.795,28.694-77.703
					c0.91-2.691,1.776-5.737,0.491-8.27c-1.285-2.533-5.767-3.159-6.666-0.464L184.487,469.593z"/>
			</g>
			<g style="opacity:0.2;">
				<path d="M329.312,462.382c-11.985-54.949-32.428-107.634-52.792-160.059l-2.372,11.965c-3.824,9.94,2.767,20.471,5.835,30.67
					c3.286,10.926,2.474,22.588,2.86,33.991c0.677,20.019,5.182,39.902,13.201,58.258c5.543,12.69,13.201,25.114,25.004,32.355
					c1.953,1.198,4.426,2.252,6.449,1.175C330.21,469.293,329.967,465.384,329.312,462.382z"/>
			</g>
			<g>
				<path style="fill:#263238;" d="M168.708,406.533c-0.008,0.004-0.045-0.08-0.11-0.251c-0.073-0.201-0.164-0.454-0.278-0.768
					c-0.24-0.681-0.533-1.691-0.932-2.992c-0.781-2.604-1.871-6.383-3.197-11.059c-2.651-9.351-6.242-22.289-10.177-36.586
					c-3.92-14.289-7.468-27.221-10.048-36.626c-2.558-9.381-4.203-15.155-4.203-15.155c0.008-0.005,0.045,0.08,0.112,0.251
					c0.074,0.201,0.168,0.452,0.284,0.766c0.25,0.678,0.54,1.688,0.946,2.987c0.789,2.602,1.886,6.379,3.217,11.053
					c2.662,9.348,6.259,22.285,10.196,36.587C162.247,382.953,167.959,403.798,168.708,406.533z"/>
			</g>
			<g>
				<path style="fill:#263238;" d="M168.708,406.533c-0.012,0.013-0.155-0.08-0.414-0.269c-0.303-0.23-0.671-0.508-1.115-0.845
					c-0.477-0.374-1.05-0.844-1.803-1.266c-0.369-0.228-0.759-0.469-1.171-0.724c-0.208-0.128-0.42-0.26-0.638-0.395
					c-0.232-0.113-0.469-0.228-0.712-0.346c-3.828-2.003-9.623-3.822-16.222-4.372c-3.291-0.314-6.449-0.388-9.316-0.301
					c-2.869,0.055-5.448,0.261-7.611,0.455c-2.162,0.206-3.908,0.419-5.116,0.563c-0.554,0.065-1.013,0.119-1.391,0.163
					c-0.319,0.032-0.488,0.04-0.491,0.022c-0.003-0.018,0.161-0.06,0.475-0.126c0.375-0.071,0.829-0.157,1.378-0.26
					c1.2-0.206,2.942-0.475,5.107-0.729c2.165-0.242,4.752-0.487,7.635-0.569c2.881-0.114,6.062-0.055,9.38,0.262
					c6.652,0.553,12.517,2.453,16.345,4.565c0.242,0.125,0.48,0.247,0.711,0.366c0.217,0.142,0.43,0.281,0.637,0.416
					c0.409,0.269,0.796,0.525,1.162,0.766c0.745,0.45,1.306,0.948,1.767,1.35c0.422,0.368,0.771,0.673,1.058,0.925
					C168.602,406.4,168.72,406.52,168.708,406.533z"/>
			</g>
			<g>
				<path style="fill:#263238;" d="M344.833,294.893c0.142,0.025-2.702,16.749-6.35,37.348c-3.649,20.607-6.722,37.286-6.863,37.261
					c-0.142-0.025,2.701-16.745,6.351-37.352C341.619,311.551,344.692,294.868,344.833,294.893z"/>
			</g>
			<g style="opacity:0.3;">
				<path d="M239.313,278.59c-1.14-17.215-2.279-34.429-3.419-51.644l-65.201,59.761c5.37,3.472,11.919,4.476,18.247,5.399
					c9.514,1.388,19.028,2.776,28.542,4.164c6.897,1.006,15.226,1.472,19.46-4.066C239.805,288.46,239.624,283.293,239.313,278.59z"
					/>
			</g>
			<g style="opacity:0.2;">
				<path d="M148.607,332.501c2.192,21.542,8.435,47.75,13.027,68.911c-8.945-3.686-20.239-4.86-27.617-2.136
					c-1.42,0.524-2.875,1.187-3.773,2.405c-0.898,1.219-1.005,3.142,0.149,4.121c0.866,0.735,2.117,0.736,3.252,0.7
					c11.797-0.381,14.613-5.301,35.063,0.031C161.899,382.247,155.417,356.786,148.607,332.501"/>
			</g>
			<g>
				<path style="fill:#FFFFFF;" d="M150.89,343.741c-0.005,0.036-0.636-0.002-1.771-0.099c-0.567-0.054-1.261-0.114-2.069-0.149
					c-0.808-0.039-1.725-0.118-2.743-0.122c-2.033-0.07-4.456-0.031-7.138,0.132c-2.68,0.194-5.618,0.529-8.669,1.083
					c-3.048,0.577-5.912,1.317-8.483,2.097c-2.563,0.809-4.839,1.642-6.711,2.436c-0.949,0.369-1.777,0.771-2.517,1.098
					c-0.742,0.322-1.368,0.626-1.878,0.88c-1.024,0.498-1.6,0.759-1.617,0.727c-0.017-0.031,0.526-0.353,1.525-0.908
					c0.497-0.282,1.112-0.615,1.845-0.963c0.731-0.353,1.552-0.78,2.496-1.173c1.864-0.842,4.141-1.716,6.713-2.556
					c2.581-0.811,5.462-1.571,8.532-2.151c3.073-0.559,6.035-0.882,8.734-1.05c2.702-0.138,5.141-0.138,7.182-0.02
					c1.022,0.028,1.942,0.133,2.751,0.2c0.809,0.062,1.503,0.152,2.068,0.237C150.273,343.6,150.895,343.705,150.89,343.741z"/>
			</g>
			<g>
				<path style="fill:#FFFFFF;" d="M131.334,463.445c-0.012,0.014-0.163-0.099-0.439-0.326c-0.271-0.234-0.693-0.555-1.182-1.028
					c-1.007-0.915-2.385-2.334-3.89-4.252c-3.014-3.797-6.38-9.89-7.599-17.285c-1.22-7.397,0.012-14.249,1.647-18.813
					c0.81-2.3,1.66-4.086,2.319-5.276c0.311-0.605,0.607-1.045,0.789-1.353c0.189-0.304,0.296-0.459,0.311-0.45
					c0.038,0.022-0.322,0.682-0.92,1.895c-0.601,1.212-1.393,3.007-2.15,5.301c-1.532,4.553-2.685,11.318-1.482,18.61
					c1.203,7.29,4.466,13.326,7.378,17.146c1.454,1.929,2.78,3.375,3.738,4.33C130.81,462.902,131.363,463.411,131.334,463.445z"/>
			</g>
			<g>
				<path style="fill:#FFFFFF;" d="M247.436,298.549c0.013,0.143-23.594,2.441-52.722,5.133
					c-29.138,2.692-52.762,4.758-52.775,4.615c-0.013-0.143,23.589-2.441,52.727-5.133
					C223.794,300.472,247.423,298.406,247.436,298.549z"/>
			</g>
			<g>
				<path style="fill:#FFFFFF;" d="M194.688,373.505c0.037,0.139-6.984,2.108-15.678,4.398c-8.698,2.29-15.776,4.033-15.812,3.894
					c-0.037-0.139,6.982-2.108,15.68-4.398C187.571,375.11,194.651,373.366,194.688,373.505z"/>
			</g>
			<g>
				<path style="fill:#FFFFFF;" d="M288.517,362.743c0.022,0.142-8.728,1.584-19.54,3.219c-10.816,1.636-19.598,2.847-19.619,2.705
					s8.726-1.583,19.542-3.22C279.711,363.812,288.495,362.601,288.517,362.743z"/>
			</g>
			<g>
				<path style="fill:#FFFFFF;" d="M333.516,352.677c0.004,0.144-2.43,0.324-5.435,0.404c-3.006,0.079-5.445,0.027-5.449-0.117
					c-0.004-0.144,2.429-0.324,5.435-0.404C331.073,352.481,333.513,352.533,333.516,352.677z"/>
			</g>
			<g>
				<path style="fill:#FFFFFF;" d="M374.681,336.286c-0.015,0.033-0.496-0.145-1.352-0.493c-0.853-0.354-2.095-0.848-3.638-1.433
					c-3.083-1.174-7.407-2.632-12.295-3.828c-4.892-1.188-9.402-1.884-12.679-2.261c-1.639-0.19-2.969-0.323-3.889-0.402
					c-0.92-0.085-1.429-0.148-1.427-0.184c0.002-0.036,0.514-0.041,1.439-0.018c0.926,0.016,2.264,0.094,3.914,0.238
					c3.299,0.284,7.846,0.926,12.765,2.121c4.915,1.203,9.247,2.725,12.306,3.991c1.531,0.632,2.755,1.179,3.585,1.591
					C374.244,336.014,374.696,336.254,374.681,336.286z"/>
			</g>
			<g>
				<path style="fill:#FFFFFF;" d="M254.712,448.757c0.003,0.018-0.22,0.075-0.648,0.169c-0.482,0.098-1.104,0.226-1.877,0.384
					c-1.693,0.337-4.037,0.803-6.907,1.374c-5.828,1.175-13.86,2.895-22.67,5.05c-8.812,2.161-16.73,4.347-22.441,5.999
					c-2.809,0.82-5.103,1.49-6.759,1.973c-0.758,0.217-1.369,0.392-1.841,0.527c-0.423,0.115-0.647,0.167-0.653,0.15
					c-0.005-0.017,0.209-0.103,0.621-0.25c0.465-0.159,1.066-0.365,1.813-0.62c1.576-0.531,3.87-1.262,6.715-2.133
					c5.689-1.743,13.601-3.988,22.423-6.151c8.82-2.157,16.873-3.822,22.723-4.905c2.925-0.543,5.297-0.955,6.941-1.212
					c0.78-0.118,1.408-0.214,1.894-0.288C254.48,448.763,254.709,448.74,254.712,448.757z"/>
			</g>
			<g>
				<path style="fill:#FFFFFF;" d="M274.131,444.239c0.041,0.052-0.639,0.687-1.837,1.594c-1.196,0.908-2.924,2.07-4.939,3.168
					c-2.017,1.096-3.931,1.916-5.344,2.427c-1.413,0.513-2.315,0.739-2.336,0.677c-0.025-0.073,0.833-0.423,2.199-1.018
					c1.367-0.595,3.235-1.459,5.232-2.543c1.994-1.087,3.734-2.186,4.976-3.011C273.324,444.708,274.083,444.178,274.131,444.239z"
					/>
			</g>
			<g>
				<path style="fill:#FFFFFF;" d="M305.838,432.315c0.009,0.035-0.49,0.193-1.398,0.45c-0.909,0.258-2.229,0.607-3.867,1.018
					c-3.273,0.826-7.816,1.886-12.857,2.945c-5.043,1.058-9.629,1.914-12.958,2.475c-1.664,0.282-3.014,0.493-3.949,0.623
					c-0.935,0.13-1.455,0.186-1.461,0.15c-0.006-0.035,0.502-0.158,1.426-0.35c1.02-0.204,2.337-0.468,3.918-0.785
					c3.31-0.653,7.879-1.565,12.917-2.622c5.036-1.058,9.586-2.06,12.879-2.794c1.575-0.346,2.886-0.633,3.903-0.857
					C305.315,432.372,305.829,432.28,305.838,432.315z"/>
			</g>
			<g>
				<path style="fill:#FFFFFF;" d="M344.833,294.893c0,0.144-9.621,0.264-21.485,0.268c-11.869,0.004-21.488-0.109-21.488-0.253
					c0-0.144,9.618-0.264,21.487-0.268C335.213,294.636,344.833,294.75,344.833,294.893z"/>
			</g>
			<g>
				<path style="fill:#263238;" d="M168.708,406.533c-0.005,0.017-0.219-0.013-0.621-0.087c-0.455-0.09-1.036-0.205-1.753-0.347
					c-0.78-0.164-1.703-0.357-2.763-0.58c-1.076-0.225-2.331-0.311-3.7-0.503c-5.456-0.638-13.278-0.757-21.335,1.831
					c-4.047,1.2-7.645,3.063-10.766,4.941c-3.135,1.881-5.695,3.98-7.748,5.826c-2.073,1.835-3.556,3.523-4.597,4.669
					c-0.517,0.577-0.888,1.052-1.16,1.357c-0.267,0.309-0.415,0.466-0.429,0.456c-0.014-0.011,0.105-0.19,0.346-0.52
					c0.246-0.326,0.592-0.823,1.088-1.422c0.998-1.19,2.447-2.926,4.503-4.809c2.036-1.894,4.593-4.041,7.745-5.963
					c3.137-1.918,6.77-3.816,10.862-5.03c8.151-2.617,16.062-2.436,21.537-1.7c1.375,0.217,2.633,0.329,3.709,0.582
					c1.057,0.257,1.977,0.48,2.755,0.669c0.709,0.181,1.284,0.328,1.734,0.443C168.508,406.451,168.713,406.515,168.708,406.533z"/>
			</g>
			<g style="opacity:0.2;">
				<path d="M328.452,362.907l3.168,7.766c3.275-20.785,7.208-37.327,9.717-58.315C333.416,327.995,328.983,345.386,328.452,362.907
					z"/>
			</g>
			<g>
				<path style="fill:#FFFFFF;" d="M378.405,420.638c-0.015,0.01-0.143-0.152-0.374-0.471c-0.258-0.368-0.585-0.833-0.987-1.406
					c-0.885-1.285-2.098-3.048-3.58-5.2c-3.047-4.364-7.283-10.414-12.835-16.339c-5.549-5.93-11.536-10.323-16.235-12.798
					c-2.341-1.255-4.32-2.111-5.71-2.64c-0.688-0.285-1.241-0.455-1.605-0.602c-0.367-0.139-0.558-0.22-0.552-0.238
					c0.005-0.017,0.206,0.031,0.584,0.138c0.375,0.116,0.941,0.255,1.642,0.512c1.418,0.473,3.432,1.282,5.813,2.505
					c4.778,2.409,10.858,6.798,16.443,12.766c5.587,5.963,9.787,12.068,12.76,16.489c1.481,2.219,2.648,4.035,3.445,5.296
					c0.369,0.595,0.669,1.078,0.905,1.46C378.322,420.446,378.42,420.628,378.405,420.638z"/>
			</g>
			<g>
				<path style="fill:#FFFFFF;" d="M137.433,295.786c-0.109,0.094-2.599-2.614-5.56-6.048c-2.963-3.435-5.275-6.295-5.167-6.389
					c0.109-0.094,2.598,2.614,5.561,6.049C135.229,292.832,137.542,295.692,137.433,295.786z"/>
			</g>
		</g>
		<g>
			<path style="fill:#263238;" d="M267.283,62.61c-28.3-7.275-46.215-2.377-60.461,9.397c-10.214,6.848-18.413,16.768-24.287,27.664
				c-7.691,14.265-11.761,30.182-14.917,46.077c-8.055,40.57-4.602,82.625-7.513,123.478c-0.414,5.806,1.233,12.152,5.479,16.134
				c5.245,4.918,13.454,4.224,20.557,3.108c10.948-1.72,18.51,2.905,29.368,0.689c5.166-1.054,13.807,1.927,16.826-2.395
				c2.337-3.345,2.898-18.683,3.021-22.762c1.28-42.556,2.56-85.113,3.84-127.669C253.599,112.966,266.399,90.167,267.283,62.61z"/>
			<g>
				<g>
					<path style="fill:#263238;" d="M231.361,131.719c-0.007-0.017,0.221-0.131,0.661-0.333c0.435-0.212,1.101-0.47,1.921-0.882
						c1.662-0.776,4.022-2.005,6.778-3.777c5.504-3.498,12.524-9.568,17.733-18.134c5.214-8.567,7.378-17.593,7.955-24.088
						c0.306-3.262,0.313-5.923,0.238-7.755c-0.011-0.918-0.088-1.628-0.1-2.111c-0.022-0.483-0.026-0.738-0.008-0.74
						c0.018-0.002,0.056,0.25,0.112,0.731c0.046,0.482,0.155,1.191,0.198,2.111c0.137,1.836,0.187,4.51-0.074,7.798
						c-0.486,6.545-2.611,15.675-7.876,24.326c-5.261,8.65-12.391,14.734-17.981,18.174c-2.8,1.743-5.198,2.928-6.892,3.651
						c-0.837,0.385-1.516,0.614-1.965,0.795C231.608,131.654,231.367,131.736,231.361,131.719z"/>
				</g>
				<g>
					<path style="fill:#263238;" d="M249.122,288.693c-0.008,0.003-0.065-0.122-0.168-0.369c-0.11-0.272-0.257-0.637-0.446-1.103
						c-0.189-0.487-0.439-1.085-0.7-1.804c-0.25-0.728-0.537-1.562-0.859-2.498c-1.253-3.772-2.704-9.359-3.786-16.388
						c-2.221-14.08-2.26-33.753-3.111-55.385c-0.722-21.66-1.175-41.275-1.287-55.475c-0.068-7.1-0.067-12.846-0.05-16.816
						c0.018-1.963,0.032-3.498,0.042-4.572c0.01-0.503,0.018-0.896,0.024-1.189c0.008-0.268,0.017-0.405,0.026-0.405
						s0.018,0.137,0.027,0.405c0.007,0.293,0.016,0.686,0.028,1.189c0.013,1.073,0.032,2.608,0.056,4.571
						c0.051,3.998,0.125,9.734,0.216,16.812c0.206,14.196,0.717,33.804,1.439,55.462c0.852,21.637,0.833,41.303,2.955,55.348
						c1.033,7.016,2.425,12.599,3.615,16.381c0.304,0.94,0.575,1.777,0.812,2.508c0.255,0.712,0.473,1.318,0.652,1.818
						c0.168,0.474,0.299,0.845,0.397,1.121C249.09,288.558,249.13,288.689,249.122,288.693z"/>
				</g>
				<g>
					<path style="fill:#455A64;" d="M168.837,289.237c0,0-0.013-0.216-0.013-0.637c0.003-0.44,0.008-1.061,0.013-1.87
						c0.013-1.643,0.053-4.067,0.125-7.188c0.146-6.241,0.416-15.272,1-26.421c0.573-11.148,1.464-24.414,2.818-39.113
						c0.694-7.348,1.427-15.06,2.445-23.032c1.029-7.965,2.403-16.201,4.714-24.421c2.28-8.223,5.547-15.99,9.817-22.831
						c4.295-6.836,9.567-12.619,14.82-17.799c5.27-5.182,10.558-9.796,15.38-14.242c4.84-4.427,9.193-8.717,12.854-12.92
						c3.654-4.204,6.659-8.271,8.935-12.066c2.27-3.797,3.883-7.27,4.914-10.209c1.047-2.934,1.617-5.292,1.944-6.899
						c0.147-0.794,0.259-1.405,0.339-1.837c0.079-0.414,0.133-0.624,0.133-0.624s-0.018,0.215-0.08,0.632
						c-0.068,0.435-0.163,1.049-0.288,1.849c-0.294,1.617-0.834,3.991-1.856,6.947c-1.005,2.961-2.598,6.463-4.855,10.291
						c-2.262,3.826-5.259,7.924-8.907,12.158c-3.654,4.232-8.008,8.552-12.839,12.996c-4.814,4.465-10.089,9.089-15.336,14.266
						c-5.231,5.176-10.467,10.939-14.725,17.729c-4.233,6.795-7.477,14.514-9.747,22.701c-2.3,8.183-3.675,16.394-4.709,24.346
						c-1.023,7.957-1.766,15.669-2.473,23.011c-1.38,14.689-2.308,27.947-2.928,39.089c-0.631,11.142-0.956,20.169-1.165,26.407
						c-0.096,3.105-0.171,5.523-0.222,7.184c-0.028,0.808-0.05,1.429-0.065,1.868C168.859,289.021,168.837,289.237,168.837,289.237z
						"/>
				</g>
				<g>
					<path style="fill:#455A64;" d="M183.17,283.345c0,0-0.011-0.209-0.006-0.616c0.008-0.426,0.02-1.025,0.035-1.805
						c0.043-1.586,0.082-3.926,0.111-6.94c0.069-6.028-0.034-14.749-0.188-25.529c-0.109-10.774-0.296-23.637,0.906-37.863
						c0.649-7.102,1.623-14.547,3.328-22.129c0.393-1.902,0.909-3.794,1.383-5.712c0.55-1.897,1.058-3.824,1.7-5.726
						c0.585-1.92,1.302-3.811,1.987-5.728c0.765-1.886,1.493-3.802,2.368-5.67c3.318-7.561,7.707-14.387,12.414-20.559
						c4.73-6.169,9.752-11.736,14.558-16.998c4.809-5.261,9.415-10.226,13.492-15.072c4.097-4.827,7.618-9.57,10.547-14.083
						c2.928-4.514,5.231-8.82,6.927-12.743c1.705-3.921,2.793-7.45,3.534-10.364c0.344-1.465,0.66-2.764,0.825-3.912
						c0.198-1.142,0.377-2.107,0.441-2.897c0.089-0.774,0.158-1.37,0.207-1.792c0.05-0.404,0.088-0.61,0.088-0.61
						s-0.003,0.208-0.035,0.614c-0.037,0.424-0.089,1.022-0.156,1.8c-0.047,0.794-0.21,1.764-0.392,2.911
						c-0.15,1.154-0.451,2.46-0.781,3.934c-0.714,2.931-1.777,6.483-3.464,10.431c-1.677,3.95-3.967,8.285-6.885,12.827
						c-2.92,4.541-6.435,9.311-10.527,14.161c-4.071,4.868-8.67,9.849-13.468,15.117c-4.794,5.269-9.8,10.834-14.507,16.985
						c-4.686,6.155-9.044,12.94-12.345,20.462c-0.871,1.857-1.595,3.764-2.357,5.641c-0.682,1.907-1.397,3.789-1.98,5.701
						c-0.64,1.893-1.147,3.812-1.696,5.702c-0.473,1.91-0.988,3.794-1.382,5.689c-1.706,7.553-2.687,14.976-3.348,22.06
						c-1.225,14.191-1.078,27.044-1.016,37.817c0.106,10.778,0.153,19.506,0.022,25.535c-0.06,3.015-0.132,5.355-0.209,6.941
						c-0.038,0.779-0.067,1.378-0.087,1.804C183.195,283.137,183.17,283.345,183.17,283.345z"/>
				</g>
				<g>
					<path style="fill:#455A64;" d="M169.585,155.941c-0.009-0.001-0.005-0.107,0.012-0.314c0.022-0.235,0.05-0.537,0.086-0.917
						c0.082-0.806,0.185-1.998,0.479-3.509c0.519-3.028,1.586-7.391,3.78-12.451c0.508-1.282,1.199-2.553,1.847-3.909
						c0.728-1.315,1.449-2.706,2.323-4.071c1.694-2.76,3.685-5.605,6.036-8.389c2.339-2.792,4.993-5.558,7.952-8.196
						c2.951-2.649,6.219-5.14,9.647-7.559c6.869-4.828,13.681-9.011,19.484-13.363c5.822-4.316,10.601-8.829,14.006-13.121
						c3.428-4.28,5.48-8.259,6.627-11.093c0.557-1.426,0.956-2.549,1.171-3.328c0.113-0.364,0.203-0.653,0.273-0.878
						c0.064-0.197,0.102-0.297,0.111-0.295c0.009,0.002-0.011,0.106-0.059,0.308c-0.057,0.229-0.131,0.523-0.224,0.894
						c-0.183,0.79-0.553,1.928-1.084,3.373c-1.094,2.872-3.112,6.909-6.527,11.248c-3.391,4.351-8.175,8.921-14.007,13.276
						c-5.81,4.39-12.623,8.59-19.471,13.405c-3.419,2.411-6.672,4.888-9.608,7.515c-2.945,2.616-5.589,5.357-7.924,8.123
						c-2.347,2.757-4.337,5.575-6.037,8.308c-0.877,1.352-1.601,2.728-2.335,4.031c-0.653,1.343-1.35,2.601-1.866,3.871
						c-2.224,5.011-3.34,9.335-3.918,12.34c-0.324,1.5-0.459,2.684-0.574,3.484c-0.057,0.377-0.102,0.677-0.137,0.91
						C169.616,155.838,169.594,155.942,169.585,155.941z"/>
				</g>
			</g>
		</g>
		<g>
			<path style="fill:#FFBE9D;" d="M172.483,400.992l67.68-87l29.82,7.871c0,0-30.703,69.056-48.27,102.461
				c-8.653,16.453-31.783,43.428-43.767,51.042c-11.984,7.613-20.952,9.159-30.957,3.678s-16.463-16.475-16.463-16.475
				L172.483,400.992L172.483,400.992z"/>
			<g>
				<g>
					<path style="fill:#FFBE9D;" d="M285.156,329.978c0,0-4.518-1.076-5.809-7.746c-1.291-6.67-2.481-33.78-2.481-33.78
						l1.006-75.022c0,0-0.246-5.231,7.284-4.585l-0.196,7.285l3.629-0.403c0,0,1.085,19.152,2.161,28.403
						c1.076,9.252,4.088,32.058,7.1,39.804c3.012,7.746,10.662,30.058,10.662,30.058"/>
					<g>
						<path style="fill:#EB996E;" d="M308.512,313.992c0,0-0.07-0.155-0.186-0.467c-0.119-0.33-0.286-0.791-0.503-1.39
							c-0.441-1.244-1.082-3.052-1.908-5.382c-1.668-4.685-4.041-11.514-7.171-19.972c-0.789-2.102-1.691-4.317-2.293-6.728
							c-0.645-2.395-1.165-4.924-1.689-7.55c-1.021-5.258-1.919-10.932-2.771-16.949c-0.833-6.016-1.691-12.376-2.217-19.043
							c-0.555-6.662-1.018-13.605-1.441-20.769l0.285,0.241c-1.136,0.126-2.379,0.265-3.629,0.404l-0.294,0.033l0.008-0.296
							c0.061-2.301,0.128-4.782,0.195-7.285l0.237,0.266c-1.323-0.089-2.723-0.067-4.024,0.375
							c-1.303,0.417-2.401,1.439-2.794,2.771c-0.148,0.479-0.199,0.94-0.187,1.456l-0.021,1.551
							c-0.014,1.032-0.028,2.061-0.042,3.087c-0.028,2.051-0.056,4.089-0.083,6.112c-0.056,4.046-0.11,8.032-0.164,11.95
							c-0.11,7.834-0.217,15.391-0.318,22.59c-0.105,7.198-0.205,14.039-0.298,20.441c-0.043,3.199-0.085,6.289-0.125,9.259
							c0.142,2.967,0.279,5.815,0.409,8.533c0.286,5.436,0.574,10.352,0.895,14.663c0.164,2.155,0.32,4.161,0.512,6.002
							c0.189,1.84,0.37,3.526,0.712,4.998c0.67,2.969,2.193,4.93,3.443,5.895c0.623,0.497,1.165,0.785,1.535,0.956
							c0.372,0.17,0.573,0.236,0.573,0.236s-0.212-0.031-0.594-0.187c-0.38-0.157-0.937-0.432-1.578-0.922
							c-1.287-0.95-2.866-2.927-3.575-5.93c-0.362-1.49-0.558-3.178-0.762-5.02c-0.207-1.843-0.377-3.849-0.556-6.005
							c-0.349-4.313-0.662-9.229-0.972-14.666c-0.141-2.72-0.289-5.569-0.443-8.537c0.03-2.973,0.062-6.066,0.095-9.268
							c0.078-6.403,0.162-13.243,0.25-20.44c0.092-7.199,0.188-14.756,0.288-22.589c0.051-3.917,0.103-7.904,0.156-11.949
							c0.027-2.023,0.054-4.061,0.081-6.112c0.014-1.026,0.027-2.055,0.041-3.087l0.021-1.551c-0.015-0.519,0.045-1.102,0.209-1.616
							c0.433-1.497,1.705-2.666,3.119-3.111c1.414-0.478,2.874-0.493,4.242-0.402l0.244,0.016l-0.007,0.249
							c-0.068,2.502-0.135,4.983-0.198,7.285l-0.286-0.263c1.249-0.138,2.493-0.276,3.629-0.401l0.269-0.03l0.016,0.271
							c0.418,7.159,0.872,14.101,1.417,20.757c0.515,6.658,1.359,13.005,2.177,19.022c0.837,6.013,1.717,11.685,2.717,16.935
							c0.513,2.621,1.022,5.147,1.654,7.531c0.588,2.397,1.467,4.582,2.252,6.705c3.09,8.48,5.413,15.326,7.027,20.03
							c0.79,2.342,1.403,4.16,1.824,5.411c0.198,0.606,0.35,1.072,0.459,1.405C308.473,313.827,308.512,313.992,308.512,313.992z"/>
					</g>
				</g>
				<g>
					<path style="fill:#FFBE9D;" d="M240.163,313.992c0,0,15.542-30.343,22.344-57.126c6.996-27.545,7.971-49.787,7.971-49.787
						s5.996-0.237,6.233,5.927c0,0,4.841,0.474,4.673,9.957c-0.168,9.483,0,12.328,0,12.328s2.203,6.405,2.203,15.474
						c0,8.535-1.976,26.893-4.03,42.611c-0.924,7.072-5.543,25.424-9.573,28.743c-4.03,3.319-7.475,5.328-7.475,5.328"/>
					<g>
						<path style="fill:#EB996E;" d="M262.507,327.448c0,0,0.134-0.097,0.405-0.272c0.285-0.188,0.682-0.45,1.199-0.79
							c1.047-0.707,2.584-1.771,4.48-3.267c0.952-0.75,2.027-1.562,2.757-2.853c0.745-1.262,1.461-2.699,2.085-4.309
							c1.3-3.199,2.449-6.987,3.57-11.225c2.414-8.46,3.284-18.994,4.639-30.749c0.612-5.886,1.221-12.105,1.563-18.605
							c0.397-6.475-0.039-13.341-2.063-20.003l-0.013-0.041l-0.001-0.027c-0.132-3.852-0.069-7.746-0.014-11.711
							c0.03-1.969-0.035-3.955-0.572-5.855c-0.28-0.937-0.651-1.859-1.226-2.645c-0.573-0.773-1.338-1.434-2.239-1.736
							c-0.132-0.039-0.28-0.081-0.392-0.095l-0.225-0.03l-0.01-0.22c-0.072-1.587-0.588-3.205-1.776-4.206
							c-1.146-1.021-2.738-1.46-4.186-1.472l0.249-0.248c-0.456,7.854-1.402,15.439-2.506,22.714
							c-1.128,7.271-2.469,14.223-3.977,20.775c-2.949,13.132-7.004,24.52-10.726,33.87c-3.708,9.368-7.113,16.735-9.496,21.791
							c-1.207,2.521-2.16,4.467-2.827,5.774c-0.33,0.64-0.584,1.132-0.764,1.483c-0.176,0.332-0.278,0.495-0.278,0.495
							s0.073-0.179,0.233-0.518c0.17-0.355,0.409-0.854,0.72-1.504c0.634-1.344,1.556-3.298,2.742-5.812
							c2.328-5.079,5.681-12.463,9.342-21.839c3.676-9.361,7.684-20.734,10.6-33.845c1.492-6.544,2.819-13.487,3.936-20.747
							c1.093-7.26,2.032-14.845,2.483-22.66l0.014-0.25l0.235,0.002c1.598,0.014,3.264,0.472,4.552,1.601
							c1.32,1.113,1.88,2.903,1.951,4.575l-0.235-0.249c0.192,0.025,0.339,0.071,0.502,0.118c1.038,0.348,1.875,1.084,2.498,1.924
							c0.623,0.852,1.013,1.827,1.306,2.807c0.559,1.979,0.62,4.026,0.59,6.008c-0.056,3.954-0.121,7.867,0.006,11.673l-0.013-0.068
							c2.052,6.77,2.472,13.683,2.065,20.193c-0.353,6.519-0.976,12.739-1.604,18.628c-0.633,5.889-1.313,11.443-1.979,16.613
							c-0.566,5.191-1.68,9.923-2.782,14.173c-1.146,4.244-2.32,8.033-3.651,11.239c-0.639,1.612-1.372,3.057-2.139,4.328
							c-0.214,0.305-0.424,0.603-0.629,0.895c-0.214,0.284-0.485,0.518-0.716,0.769c-0.496,0.464-1.015,0.835-1.489,1.213
							c-1.919,1.478-3.475,2.52-4.54,3.203c-0.533,0.341-0.945,0.59-1.225,0.753C262.658,327.378,262.507,327.448,262.507,327.448z"
							/>
					</g>
				</g>
				<g>
					<path style="fill:#EB996E;" d="M281.61,235.725c-0.039,0.059-0.374-0.395-1.237-0.628c-0.876-0.218-2.217,0.344-3.291,1.565
						l0.042-0.114c0.009,1.853,0.019,4.069,0.031,6.543c-0.05,2.498,0.145,5.284-0.024,8.224
						c-0.251,5.586-1.323,10.564-2.359,14.064c-0.508,1.756-1.026,3.142-1.386,4.097c-0.384,0.947-0.612,1.462-0.646,1.449
						c-0.034-0.013,0.13-0.553,0.455-1.518c0.301-0.972,0.762-2.37,1.223-4.128c0.939-3.505,1.944-8.45,2.193-13.989
						c0.168-2.908-0.01-5.687,0.069-8.194c0.035-2.476,0.066-4.694,0.092-6.549l0.001-0.069l0.042-0.045
						c1.171-1.266,2.64-1.82,3.603-1.522c0.46,0.151,0.773,0.362,0.945,0.537C281.539,235.619,281.622,235.713,281.61,235.725z"/>
				</g>
				<g>
					<path style="fill:#EB996E;" d="M277,213.063c0,0.021-0.262,0.043-0.77,0.055c-0.504,0.025-1.266-0.014-2.211,0.149l0.098-0.125
						c0.179,2.152,0.406,5.482,0.337,9.574c-0.059,4.091-0.398,8.936-1.092,14.084c-0.974,7.321-2.483,13.847-3.778,18.502
						c-0.635,2.332-1.229,4.197-1.656,5.479c-0.206,0.592-0.375,1.078-0.511,1.47c-0.122,0.334-0.195,0.507-0.212,0.501
						c-0.017-0.005,0.022-0.189,0.112-0.533c0.111-0.399,0.249-0.894,0.417-1.497c0.367-1.298,0.906-3.175,1.494-5.514
						c1.201-4.668,2.647-11.183,3.618-18.477c0.691-5.129,1.059-9.951,1.167-14.025c0.118-4.075-0.037-7.394-0.131-9.547
						l-0.005-0.112l0.103-0.014c0.994-0.134,1.747-0.053,2.253-0.039C276.738,213.022,277,213.042,277,213.063z"/>
				</g>
				<g>
					<path style="fill:#EB996E;" d="M281.061,219.085c-0.057-0.029,0.042-0.394,0.379-0.897c0.333-0.502,0.934-1.116,1.748-1.566
						c0.816-0.447,1.657-0.626,2.259-0.639c0.605-0.015,0.967,0.096,0.96,0.16c-0.002,0.155-1.466,0.088-2.968,0.936
						C281.919,217.893,281.193,219.166,281.061,219.085z"/>
				</g>
			</g>
			<path style="fill:#FFBE9D;" d="M283.576,327.864c0,0,11.249,80.887,27.431,116.157c16.182,35.27,32.82,47.475,48.755,32.501
				c15.935-14.974,13.839-25.111,13.839-25.111s-2.616-22.335-15.725-34.498c-13.109-12.164-19.873-29.783-19.873-29.783
				s-35.589-88.784-35.947-88.58l-19.353,7.049L283.576,327.864z"/>
		</g>
	</g>
</g>
</svg>
