<?xml version="1.0" encoding="utf-8"?>
<!-- Generator: Adobe Illustrator 27.5.0, SVG Export Plug-In . SVG Version: 6.00 Build 0)  -->
<svg version="1.1" xmlns="http://www.w3.org/2000/svg" xmlns:xlink="http://www.w3.org/1999/xlink" x="0px" y="0px"
	 viewBox="0 0 500 500" style="enable-background:new 0 0 500 500;" xml:space="preserve">
<g id="BACKGROUND">
	<rect style="fill:#D2DDFD;" width="500" height="500"/>
</g>
<g id="OBJECTS">
	<g>
		<g>
			<path style="fill:#C0D1FC;" d="M126.121,103.834c-28.161,9.815-53.655,33.047-60.912,62.529
				C53.678,213.209,87.471,261.877,66.8,307.43c-7.088,15.619-21.874,24.143-32.187,37.418c-7.355,9.467-12.904,20.71-13.737,32.669
				c-2.34,33.592,30.152,70.187,58.55,84.409c40.877,20.471,96.245,18.526,138.868,5.02c22.354-7.083,42.646-21.04,66.281-23.92
				c20.053-2.443,38.271,4.994,57.336,9.597c37.46,9.043,86.354,7.659,110.266-27.484c10.165-14.939,14.134-33.402,14.342-51.47
				c0.32-27.776-5.178-57.472-15.421-83.274c-9.271-23.354-23.431-45.526-28.008-70.532c-4.955-27.07,0.036-54.922,1.191-82.089
				c1.329-31.276-2.713-66.124-30.141-85.744c-34.301-24.537-88.429-13.511-121.97,6.001
				c-22.026,12.814-41.497,28.684-66.999,33.852c-25.27,5.121-51.661,3.223-76.432,11.079
				C127.865,103.24,126.992,103.531,126.121,103.834z"/>
			<g>
				<g>
					<path style="fill:#99AFFF;" d="M281.461,63.847c-13.602,1.921-27.656,0.655-41.17-1.391
						c-14.011-2.122-27.934-5.339-41.314-10.033c-1.705-0.598-2.501,2.088-0.802,2.684c13.609,4.775,27.769,8.005,42.021,10.15
						c13.789,2.075,28.021,3.282,41.893,1.322C283.876,66.325,283.234,63.596,281.461,63.847L281.461,63.847z"/>
				</g>
				<g>
					<path style="fill:#99AFFF;" d="M282.983,86.714c-8.5,16.865-31.437-20.432-31.437-20.432S289.37,74.041,282.983,86.714z"/>
				</g>
				<g>
					<path style="fill:#99AFFF;" d="M274.55,41.225c-10.331-15.81-28.957,23.817-28.957,23.817S282.313,53.105,274.55,41.225z"/>
				</g>
				<g>
					<path style="fill:#99AFFF;" d="M250.637,34.816c-12.406-14.24-25.408,27.571-25.408,27.571S259.96,45.517,250.637,34.816z"/>
				</g>
				<g>
					<path style="fill:#99AFFF;" d="M230.863,27.582c-13.915-12.769-22.178,30.23-22.178,30.23S241.319,37.177,230.863,27.582z"/>
				</g>
				<g>
					<path style="fill:#99AFFF;" d="M257.225,92.307c-13.553,13.153-23.015-29.599-23.015-29.599S267.409,82.423,257.225,92.307z"/>
				</g>
				<g>
					<path style="fill:#99AFFF;" d="M302.326,62.103c4.214,18.41-37.244,4.32-37.244,4.32S299.16,48.269,302.326,62.103z"/>
				</g>
				<g>
					<path style="fill:#99AFFF;" d="M231.272,91.483c-15.707,10.487-17.287-33.27-17.287-33.27S243.074,83.602,231.272,91.483z"/>
				</g>
			</g>
			<g>
				<g>
					<g>
						<path style="fill:#99AFFF;" d="M445.33,391.277c-18.437,2.407-33.957-0.036-34.665-5.455
							c-0.707-5.42,13.665-11.764,32.102-14.171s34.309,2.733,34.665,5.455C477.775,379.731,463.767,388.871,445.33,391.277z"/>
						<path style="fill:#99AFFF;" d="M420.377,354.219c0.884,18.573-2.826,33.839-8.285,34.099
							c-5.46,0.26-10.602-14.586-11.485-33.158c-0.883-18.572,5.544-33.968,8.286-34.099
							C411.536,320.935,419.494,335.647,420.377,354.219z"/>
						<path style="fill:#99AFFF;" d="M422.024,424.538c-18.437,2.407-33.957-0.036-34.664-5.456
							c-0.707-5.42,13.665-11.764,32.102-14.171c18.437-2.407,34.309,2.733,34.664,5.455
							C454.469,412.992,440.461,422.131,422.024,424.538z"/>
						<path style="fill:#99AFFF;" d="M394.633,386.308c3.639,18.234,2.245,33.882-3.115,34.952
							c-5.36,1.07-12.656-12.844-16.296-31.078c-3.64-18.233,0.422-34.415,3.115-34.952
							C380.933,354.711,390.993,368.074,394.633,386.308z"/>
						<path style="fill:#99AFFF;" d="M393.324,462.063c-18.587,0.482-33.77-3.558-33.912-9.021
							c-0.142-5.464,14.812-10.284,33.399-10.765c18.587-0.481,33.841,6.277,33.912,9.021
							C426.791,453.944,411.911,461.581,393.324,462.063z"/>
						<path style="fill:#99AFFF;" d="M370.045,421.198c1.729,18.513-1.281,33.933-6.723,34.441
							c-5.442,0.508-11.255-14.087-12.984-32.6c-1.729-18.513,3.99-34.186,6.723-34.441
							C359.696,388.351,368.316,402.685,370.045,421.198z"/>
						<path style="fill:#99AFFF;" d="M366.62,497.847c-18.588,0.481-33.77-3.557-33.912-9.021
							c-0.142-5.464,14.812-10.283,33.399-10.765c18.587-0.482,33.84,6.277,33.911,9.021
							C400.087,489.729,385.207,497.366,366.62,497.847z"/>
						<path style="fill:#99AFFF;" d="M342.916,458.67c1.729,18.513-1.281,33.933-6.723,34.441
							c-5.442,0.508-11.255-14.088-12.984-32.601c-1.729-18.513,3.989-34.186,6.723-34.441
							C332.568,425.823,341.187,440.157,342.916,458.67z"/>
						<path style="fill:#99AFFF;" d="M443.496,351.005c-7.271,17.113-17.242,29.254-22.273,27.116
							c-5.03-2.137-3.215-17.743,4.056-34.856c7.27-17.113,19.746-28.19,22.273-27.117
							C449.988,317.184,450.767,333.892,443.496,351.005z"/>
						<g>
							<path style="fill:#99AFFF;" d="M432.217,350.953c-30.483,47.403-63.574,93.009-99.182,136.693
								c-2.44,2.993,2.312,6.638,4.747,3.65c35.608-43.684,68.699-89.29,99.182-136.693
								C439.036,351.381,434.305,347.706,432.217,350.953L432.217,350.953z"/>
						</g>
					</g>
				</g>
			</g>
			<g>
				<g>
					<g>
						<path style="fill:#99AFFF;" d="M81.011,399.384c18.585,0.582,33.789-3.376,33.96-8.839
							c0.171-5.463-14.756-10.363-33.341-10.945c-18.584-0.582-33.874,6.094-33.96,8.839
							C47.588,391.085,62.427,398.802,81.011,399.384z"/>
						<path style="fill:#99AFFF;" d="M102.198,360.051c0.948,18.569,6.141,33.397,11.599,33.118
							c5.459-0.279,9.115-15.558,8.168-34.127c-0.948-18.569-8.858-33.258-11.6-33.118
							C107.722,326.059,101.25,341.482,102.198,360.051z"/>
						<path style="fill:#99AFFF;" d="M107.476,430.191c18.584,0.582,33.788-3.376,33.959-8.839
							c0.171-5.463-14.756-10.363-33.34-10.945c-18.585-0.581-33.874,6.094-33.96,8.839
							C74.053,421.892,88.891,429.609,107.476,430.191z"/>
						<path style="fill:#99AFFF;" d="M130.974,389.452c-1.828,18.503,1.099,33.939,6.538,34.477
							c5.439,0.537,11.331-14.027,13.16-32.53c1.829-18.503-3.805-34.207-6.538-34.477
							C141.499,356.661,132.803,370.948,130.974,389.452z"/>
						<path style="fill:#99AFFF;" d="M139.728,464.711c18.545-1.349,33.257-6.862,32.86-12.313
							c-0.397-5.451-15.751-8.777-34.296-7.428c-18.544,1.349-33.059,9.575-32.86,12.313
							C105.625,459.923,121.184,466.06,139.728,464.711z"/>
						<path style="fill:#99AFFF;" d="M158.875,421.754c0.101,18.593,4.613,33.642,10.078,33.612
							c5.466-0.029,9.815-15.126,9.715-33.72c-0.101-18.593-7.333-33.628-10.079-33.612
							C165.942,388.049,158.774,403.161,158.875,421.754z"/>
						<path style="fill:#99AFFF;" d="M169.822,497.695c18.545-1.349,33.257-6.862,32.86-12.313
							c-0.397-5.451-15.751-8.777-34.296-7.427c-18.544,1.349-33.059,9.575-32.859,12.313
							C135.719,492.908,151.278,499.044,169.822,497.695z"/>
						<path style="fill:#99AFFF;" d="M189.557,456.376c0.101,18.593,4.613,33.642,10.078,33.613
							c5.466-0.03,9.815-15.127,9.715-33.72c-0.101-18.593-7.333-33.627-10.079-33.613
							C196.625,422.671,189.457,437.782,189.557,456.376z"/>
						<path style="fill:#99AFFF;" d="M78.875,359.126c8.919,16.315,20.036,27.416,24.832,24.794
							c4.796-2.622,1.454-17.973-7.465-34.288c-8.919-16.315-22.423-26.111-24.832-24.794
							C69.088,326.108,69.956,342.811,78.875,359.126z"/>
						<g>
							<path style="fill:#99AFFF;" d="M90.094,357.966c34.997,44.174,72.414,86.305,112.147,126.274
								c2.722,2.739-1.648,6.833-4.365,4.1c-39.732-39.969-77.149-82.1-112.147-126.274
								C83.351,359.062,87.697,354.94,90.094,357.966L90.094,357.966z"/>
						</g>
					</g>
				</g>
			</g>
			<path style="fill:#99AFFF;" d="M463.342,292.348l-0.021-1.415c-0.109,0.002-5.199,0.004-11.841-2.531
				c-0.982-19.016-25.26-24.09-25.26-24.09c-7.323,14.461,14.337,30.455,24.373,25.25
				C457.704,292.35,463.227,292.35,463.342,292.348z"/>
			<path style="fill:#99AFFF;" d="M432.88,69.206l-0.021-1.415c-0.109,0.002-5.199,0.004-11.841-2.531
				c-0.982-19.016-25.26-24.09-25.26-24.09c-7.323,14.461,14.337,30.456,24.373,25.25C427.242,69.208,432.764,69.208,432.88,69.206z
				"/>
			<path style="fill:#99AFFF;" d="M74.811,306.086l-0.392,1.36c-0.105-0.03-5.016-1.37-12.09-0.669
				c-5.944,18.09-30.702,16.608-30.702,16.608c-3.267-15.877,21.835-25.619,30.151-17.959
				C69.372,304.603,74.7,306.054,74.811,306.086z"/>
			<path style="fill:#99AFFF;" d="M482.441,451.763l-0.255,0.885c-0.068-0.02-3.266-0.892-7.872-0.436
				c-3.87,11.779-19.991,10.814-19.991,10.814c-2.127-10.338,14.218-16.681,19.632-11.694
				C478.899,450.798,482.369,451.743,482.441,451.763z"/>
			<path style="fill:#99AFFF;" d="M23.658,443.838l1.123-0.458c0.035,0.086,1.743,4.103,5.972,8.492
				c15.332-5.609,27.485,11.842,27.485,11.842c-8.95,10.632-28.84-1.087-28.102-10.753C25.549,448.286,23.695,443.93,23.658,443.838
				z"/>
			<path style="fill:#99AFFF;" d="M381.667,86.173l-0.392,1.36c-0.105-0.03-5.016-1.37-12.09-0.669
				c-5.944,18.09-30.702,16.607-30.702,16.607c-3.267-15.877,21.835-25.619,30.151-17.959
				C376.228,84.691,381.556,86.142,381.667,86.173z"/>
			<path style="fill:#99AFFF;" d="M107.806,81.738l-1.362,0.385c-0.03-0.105-1.486-4.983-5.816-10.62
				C82.127,76.008,70.313,54.2,70.313,54.2c11.758-11.158,33.286,5.014,31.173,16.121C106.193,76.336,107.775,81.627,107.806,81.738
				z"/>
			<g>
				<polygon style="fill:#FFFFFF;" points="120.773,307.736 113.33,312.417 108.649,319.86 104.968,312.417 96.525,307.736 
					104.968,303.055 108.649,295.612 112.33,303.055 				"/>
				<polygon style="fill:#FFFFFF;" points="127.694,291.535 124.088,293.803 121.82,297.41 120.036,293.803 115.946,291.535 
					120.036,289.267 121.82,285.661 123.603,289.267 				"/>
			</g>
			<polygon style="fill:#FFFFFF;" points="409.187,271.508 401.744,276.189 397.063,283.632 393.383,276.189 384.939,271.508 
				393.383,266.828 397.063,259.384 400.744,266.828 			"/>
			<polygon style="fill:#FFFFFF;" points="402.713,316.077 393.829,321.664 388.242,330.548 383.849,321.664 373.771,316.077 
				383.849,310.491 388.242,301.607 392.635,310.491 			"/>
			<polygon style="fill:#FFFFFF;" points="416.108,255.308 412.502,257.576 410.234,261.182 408.451,257.576 404.36,255.308 
				408.451,253.04 410.234,249.434 412.017,253.04 			"/>
			<g>
				<g>
					<path style="fill:#FD3B84;" d="M184.217,128.348c-2.502,0-4.718,1.222-6.086,3.101c-1.368-1.879-3.584-3.101-6.086-3.101
						c-4.156,0-7.525,3.369-7.525,7.525c0,6.324,13.611,16.521,13.611,16.521s13.611-10.197,13.611-16.521
						C191.743,131.718,188.373,128.348,184.217,128.348z"/>
				</g>
			</g>
			<g>
				<g>
					<path style="fill:#FD3B84;" d="M104.548,243.508c-2.924,0-5.514,1.428-7.113,3.624c-1.599-2.196-4.189-3.624-7.113-3.624
						c-4.858,0-8.796,3.938-8.796,8.796c0,7.391,15.909,19.309,15.909,19.309s15.908-11.918,15.908-19.309
						C113.343,247.446,109.405,243.508,104.548,243.508z"/>
				</g>
			</g>
			<g>
				<g>
					<path style="fill:#FD3B84;" d="M379.004,152.479c-2.149,0-4.052,1.049-5.227,2.663c-1.175-1.613-3.078-2.663-5.227-2.663
						c-3.57,0-6.463,2.894-6.463,6.463c0,5.431,11.69,14.189,11.69,14.189s11.69-8.758,11.69-14.189
						C385.467,155.372,382.573,152.479,379.004,152.479z"/>
				</g>
			</g>
			<g>
				<g>
					<path style="fill:#FD3B84;" d="M397.624,120.897c-1.377,0-2.596,0.672-3.349,1.706c-0.753-1.034-1.972-1.706-3.349-1.706
						c-2.287,0-4.141,1.854-4.141,4.141c0,3.48,7.49,9.092,7.49,9.092s7.491-5.612,7.491-9.092
						C401.765,122.751,399.911,120.897,397.624,120.897z"/>
				</g>
			</g>
			<g>
				<g>
					<path style="fill:#FD3B84;" d="M369.656,112.199c-1.377,0-2.596,0.673-3.349,1.706c-0.753-1.034-1.972-1.706-3.349-1.706
						c-2.287,0-4.141,1.854-4.141,4.141c0,3.48,7.49,9.092,7.49,9.092s7.491-5.612,7.491-9.092
						C373.797,114.053,371.943,112.199,369.656,112.199z"/>
				</g>
			</g>
			<g>
				<g>
					<path style="fill:#FD3B84;" d="M152.224,99c-2.346,0-4.424,1.146-5.707,2.908c-1.283-1.762-3.361-2.908-5.707-2.908
						c-3.898,0-7.057,3.16-7.057,7.057c0,5.93,12.764,15.493,12.764,15.493s12.764-9.563,12.764-15.493
						C159.281,102.16,156.122,99,152.224,99z"/>
				</g>
			</g>
			<g>
				<g>
					<path style="fill:#FD3B84;" d="M193.091,87.524c-1.346,0-2.539,0.658-3.275,1.669c-0.736-1.011-1.928-1.669-3.275-1.669
						c-2.237,0-4.05,1.813-4.05,4.05c0,3.403,7.324,8.89,7.324,8.89s7.325-5.487,7.325-8.89
						C197.141,89.337,195.328,87.524,193.091,87.524z"/>
				</g>
			</g>
			<g>
				<defs>
					<rect id="SVGID_1_" width="500" height="500"/>
				</defs>
				<clipPath id="SVGID_00000144331696265566984980000002500923671018246530_">
					<use xlink:href="#SVGID_1_"  style="overflow:visible;"/>
				</clipPath>
				<g style="clip-path:url(#SVGID_00000144331696265566984980000002500923671018246530_);">
					<g>
						<path style="fill:#99AFFF;" d="M99.088,207.615c-12.806-18.1-29.855-33.2-47.223-46.802
							c-18.006-14.102-37.201-26.889-57.529-37.401c-2.591-1.34-0.317-5.249,2.264-3.915c20.677,10.692,40.149,23.743,58.449,38.103
							c17.705,13.893,34.881,29.268,47.942,47.728C104.673,207.707,100.757,209.974,99.088,207.615L99.088,207.615z"/>
					</g>
					<g>
						<path style="fill:#99AFFF;" d="M127.625,184.081c10.392-28.656-58.802-14.288-58.802-14.288S119.817,205.614,127.625,184.081z
							"/>
					</g>
					<g>
						<path style="fill:#99AFFF;" d="M64.872,224.549c-30.004,5.376-4.097-60.375-4.097-60.375S87.419,220.51,64.872,224.549z"/>
					</g>
					<g>
						<path style="fill:#99AFFF;" d="M30.868,203.567c-30.458,1.201,4.239-60.365,4.239-60.365S53.756,202.665,30.868,203.567z"/>
					</g>
					<g>
						<path style="fill:#99AFFF;" d="M0.477,188.359c-30.402-2.2,10.939-59.517,10.939-59.517S23.323,190.012,0.477,188.359z"/>
					</g>
					<g>
						<path style="fill:#99AFFF;" d="M105.669,147.642c0.438-30.479-60.24,5.751-60.24,5.751S105.34,170.545,105.669,147.642z"/>
					</g>
					<g>
						<path style="fill:#99AFFF;" d="M120.145,234.046c26.283-15.438-36.168-48.516-36.168-48.516S100.395,245.647,120.145,234.046z
							"/>
					</g>
					<g>
						<path style="fill:#99AFFF;" d="M75.963,118.08c-5.078-30.056-58.209,16.542-58.209,16.542S79.779,140.665,75.963,118.08z"/>
					</g>
				</g>
				<g style="clip-path:url(#SVGID_00000144331696265566984980000002500923671018246530_);">
					<g>
						<path style="fill:#99AFFF;" d="M409.188,216.097c13.87-15.316,31.33-27.382,48.918-38.028
							c18.234-11.036,37.422-20.723,57.404-28.179c2.546-0.95,0.88-4.821-1.657-3.875c-20.325,7.584-39.798,17.484-58.333,28.726
							c-17.933,10.877-35.541,23.184-49.687,38.804C404.01,215.559,407.38,218.094,409.188,216.097L409.188,216.097z"/>
					</g>
					<g>
						<path style="fill:#99AFFF;" d="M385.413,191.136c-6.414-27.673,56.001-6.652,56.001-6.652S390.233,211.931,385.413,191.136z"
							/>
					</g>
					<g>
						<path style="fill:#99AFFF;" d="M438.953,235.587c27.16,8.325,10.534-55.402,10.534-55.402S418.544,229.331,438.953,235.587z"
							/>
					</g>
					<g>
						<path style="fill:#99AFFF;" d="M472.758,219.972c28.046,4.513,2.82-56.324,2.82-56.324S451.683,216.581,472.758,219.972z"/>
					</g>
					<g>
						<path style="fill:#99AFFF;" d="M502.575,209.295c28.374,1.36-3.473-56.287-3.473-56.287S481.253,208.273,502.575,209.295z"/>
					</g>
					<g>
						<path style="fill:#99AFFF;" d="M409.797,159.875c2.999-28.248,55.092,12.049,55.092,12.049S407.543,181.102,409.797,159.875z"
							/>
					</g>
					<g>
						<path style="fill:#99AFFF;" d="M386.754,238.201c-22.594-17.219,38.882-40.848,38.882-40.848S403.731,251.14,386.754,238.201z
							"/>
					</g>
					<g>
						<path style="fill:#99AFFF;" d="M440.583,135.841c8.055-27.241,52.008,21.807,52.008,21.807S434.53,156.311,440.583,135.841z"
							/>
					</g>
				</g>
			</g>
		</g>
		<g>
			<g>
				<path style="fill:#0F0F0F;" d="M256.511,129.981c-9.411,3.583-18.05,9.113-24.978,16.399
					c-5.66,5.952-11.042,12.35-18.465,16.195c-19.196,9.944-43.434,3.946-61.528,16.898c-22.398,16.032-19.569,52.486-5.272,72.71
					c11.161,15.788,28.811,25.75,47.376,30.15c19.633,4.653,35.499,12.365,49.694,27.147c19.85,20.671,43.344,36.543,73.116,35.943
					c8.156-0.164,16.511-1.615,23.445-5.914c14.767-9.157,21.67-26.891,22.356-43.651c0.809-19.779-10.509-37.165-13.068-56.388
					c-2.747-20.634,6.096-41.069,2.303-61.661c-5.014-27.223-29.868-46.537-56.116-51.461
					C282.499,123.933,268.842,125.286,256.511,129.981z"/>
				<path style="fill:none;stroke:#111111;stroke-miterlimit:10;" d="M347.626,167.745c7.618,16.044,11.093,35.562,9.703,54.498
					c-0.851,11.585-3.427,23.553-0.663,34.587c1.193,4.764,3.314,8.988,5.141,13.375c4.556,10.942,7.37,23.399,7.007,35.926
					c-0.363,12.527-4.103,25.082-11.023,33.499"/>
				<path style="fill:none;stroke:#111111;stroke-miterlimit:10;" d="M241.529,146.568c-13.522,15.849-39.866,13.614-58.519,15.181
					c-25.878,2.174-50.359,21.269-53.028,48.092c-1.609,16.168,4.236,33.971,11.923,48.023c4.066,7.433,13.518,25.297,24.493,19.358
					"/>
				<path style="fill:none;stroke:#111111;stroke-miterlimit:10;" d="M256.951,131.223c-6.375,3.848-13.649,5.737-20.847,7.365
					c-6.976,1.578-14.768,2.572-21.066,6.088c-5.75,3.21-10.586,8.092-13.638,13.937c-2.849,5.457-3.993,12.185-10.083,15.12"/>
			</g>
			<g>
				<g>
					<g>
						<path style="fill:#FD3B84;" d="M203.558,278.336c0,0,4.833,4.979,14.699,5.31l60.066-0.327l10.313-4.983
							c0,0,25.946,43.404,36.139,127.047C330.132,449.333,348.929,500,348.929,500H185.621V299.333l17.933-21.003"/>
						<g>
							<path style="fill:#FCBFB9;" d="M185.465,292.806v131.407c0,0-9.489,31.302-34.815,36.747
								C150.65,460.96,99.905,259.409,185.465,292.806z"/>
							<path style="fill:#EF8E89;" d="M140.634,313.087l44.831,33.542v8.028l-46.652-34.904
								C139.342,317.431,139.948,315.207,140.634,313.087z"/>
						</g>
						<path style="fill:#FD3B84;" d="M203.554,278.33c-57.708-39.13-67.133,31.616-67.133,31.616l49.064,36.709l10.765-34.146
							L203.554,278.33z"/>
						<g>
							<path style="fill:#FFA399;" d="M306.791,292.806v131.407c0,0,9.489,31.302,34.815,36.747
								C341.606,460.96,392.351,259.409,306.791,292.806z"/>
							<path style="fill:#EF8E89;" d="M351.637,313.087l-44.831,33.542v8.028l46.652-34.904
								C352.929,317.431,352.323,315.207,351.637,313.087z"/>
							<path style="fill:#F4B3B0;" d="M182.296,397.094l110.758,11.848c22.798-1.611,43.179,14.026,47.602,36.448
								c0.058,0.294,1.382,5.611,1.645,11.362c0.307,6.702-5.152,12.079-11.628,10.381c-21.634-5.672-76.047-25.387-152.511-52.868
								L182.296,397.094z"/>
							<g>
								<polygon style="fill:#EFA3A3;" points="138.023,382.161 128.511,389.927 139.868,414.314 144.97,415.921 								"/>
								<path style="fill:#F4B3B0;" d="M135.837,382.161l16.429-5.783c0.977-0.344,2.063-0.147,2.857,0.517l5.35,4.478
									l21.824,15.721l-4.134,17.172c0,0-13.813,3.747-29.033,0.845l-6.346,0.811L135.837,382.161z"/>
							</g>
						</g>
					</g>
					<path style="fill:#FD3B84;" d="M288.701,278.33c57.708-39.13,67.133,31.616,67.133,31.616l-49.064,36.709l-10.765-34.146
						L288.701,278.33z"/>
				</g>
				<g>
					<g>
						<polygon style="fill:#F7B1AD;" points="356.806,348.3 366.318,356.066 354.961,380.453 349.859,382.061 						"/>
						<path style="fill:#FCBFB9;" d="M358.993,348.3l-16.429-5.783c-0.977-0.344-2.063-0.147-2.857,0.517l-5.35,4.478
							l-21.824,15.721l4.134,17.172c0,0,13.813,3.747,29.033,0.845l6.346,0.811L358.993,348.3z"/>
					</g>
					<path style="fill:#FCBFB9;" d="M314.528,362.377l-126.335,41.221c-22.62,3.262-39.221,22.867-38.785,45.718
						c0.006,0.3-0.16,5.776,0.803,11.453c1.122,6.615,7.597,10.711,13.566,7.678c19.938-10.133,86.496-45.694,155.389-88.772
						L314.528,362.377z"/>
				</g>
			</g>
			<g>
				<path style="fill:#FFB1A5;" d="M288.636,278.336l-10.313,4.983l1.345-44.756l-48.561-2.487l-12.85,47.569l-14.699-5.31
					c0,0-10.563,54.311,49.525,59.912C253.083,338.247,295.977,334.535,288.636,278.336z"/>
				<g>
					<path style="fill:#EF8E89;" d="M238.949,201.162c-4.358,6.113-12.846,7.535-18.959,3.177
						c-6.112-4.358-7.535-12.846-3.177-18.959c4.358-6.113,12.846-7.536,18.959-3.178
						C241.884,186.561,243.307,195.049,238.949,201.162z"/>
				</g>
				<path style="fill:#FFB1A5;" d="M328.034,204.484c-17.023,67.588-64.415,68.465-70.015,67.627
					c-2.553-0.382-5.1-0.911-7.425-2.033c-45.883-22.146-12.91-103.077-12.91-103.077s17.67-32.447,59.409-15.564
					C297.094,151.436,337.835,165.573,328.034,204.484z"/>
				<path style="fill:#EF8E89;" d="M258.026,272.097c-2.553-0.382-5.1-0.911-7.425-2.033c-11.737-5.665-18.306-15.181-21.595-26.201
					l-2.001,7.406c3.452,10.266,9.928,19.073,21.033,24.433c2.325,1.122,4.871,1.651,7.424,2.033
					c2.308,0.345,11.714,0.395,23.166-4.391l0.141-4.684C268.433,272.482,260.169,272.417,258.026,272.097z"/>
				<g>
					<path style="fill:#EF8E89;" d="M320.416,225.379c-1.698-1.717-2.47-4.127-3.047-6.472c-4-16.25,1.696-42.805-19.758-48.332
						c-7.741-1.995-15.869-0.746-23.703-0.079c-9.497,0.809-19.434,0.831-28.324-3.063c-2.037-0.892-4.065-2.134-5.722-3.665
						c-1.086,1.514-1.627,2.494-1.627,2.494s-0.674,1.656-1.693,4.549c1.631,1.474,3.601,2.673,5.582,3.541
						c8.891,3.895,18.827,3.872,28.324,3.063c7.834-0.667,15.962-1.916,23.703,0.079c21.453,5.527,15.758,32.082,19.758,48.332
						c0.577,2.345,1.349,4.755,3.047,6.472c0.206,0.208,0.408,0.382,0.611,0.555c1.186-2.19,2.332-4.503,3.432-6.945
						C320.806,225.742,320.613,225.578,320.416,225.379z"/>
					<path style="fill:#0F0F0F;" d="M231.925,160.714c-0.307,3.133-0.615,6.265-0.922,9.398c-0.462,4.702-0.865,9.41-1.334,14.111
						c-0.234,2.351-0.485,4.7-0.767,7.045c-0.066,0.546-0.95,5.725,0.037,5.348c0.663-0.253,3.896-5.522,4.625-6.593
						c1.383-2.032,2.754-4.072,4.099-6.129c2.751-4.207,5.39-8.491,7.754-12.928c3.346-6.28,6.426-12.922,7.92-19.916
						c0.027-0.126,0.053-0.251,0.079-0.377L231.925,160.714z"/>
					<path style="fill:#1E1E1E;" d="M325.754,227.652c3.141-1.568,5.514-6.596,7.017-9.365c9.181-16.913,12.543-37.147,4.701-55.253
						c0,0-15.806-29.58-55.703-31.738c-9.553-0.517-19.183,1.729-27.567,6.326c-6.501,3.565-18.612,10.673-18.655,19.257
						c-0.026,5.211,4.712,9.202,9.485,11.293c8.891,3.894,18.827,3.872,28.324,3.063c7.834-0.667,15.962-1.916,23.703,0.079
						c21.453,5.527,15.758,32.082,19.758,48.332c0.577,2.345,1.349,4.755,3.047,6.472
						C322.05,228.328,324.019,228.518,325.754,227.652z"/>
				</g>
				<g>
					<g>
						<path style="fill:#EF8E89;" d="M283.677,240.357c-2.536,4.263-1.136,9.775,3.127,12.311c4.263,2.536,9.775,1.136,12.311-3.127
							c2.536-4.263,1.136-9.775-3.127-12.311C291.725,234.694,286.214,236.093,283.677,240.357z"/>
						<g>
							<path style="fill:#EF8E89;" d="M233.227,220.458c-2.536,4.263-1.136,9.775,3.127,12.311
								c4.263,2.536,9.775,1.136,12.311-3.127c2.536-4.263,1.136-9.775-3.127-12.311
								C241.275,214.795,235.763,216.195,233.227,220.458z"/>
						</g>
					</g>
					<g>
						<g>
							<path style="fill:#282828;" d="M310.116,218.475c0,0-11.358-15.145-25.677-6.394
								C284.439,212.081,296.869,206.36,310.116,218.475z"/>
							<path style="fill:#282828;" d="M242.642,193.726c0,0,18.13-5.448,24.46,10.094
								C267.102,203.82,260.494,191.837,242.642,193.726z"/>
						</g>
					</g>
					<g>
						<path style="fill:#EF8E89;" d="M271.886,247.581c0,0-14.503,10.916-18.242-6.374L271.886,247.581z"/>
						<path style="fill:#FFFFFF;" d="M252.481,236.412c0.254,4.913,3.232,9.497,8.059,11.568c4.796,2.056,10.13,1.081,13.861-2.071
							L252.481,236.412z"/>
						<polygon style="fill:#EF8E89;" points="272.848,245.236 265.845,240.447 264.519,240.28 262.565,238.867 253.961,237.053 
													"/>
					</g>
					<g>
						<polygon style="fill:#EF8E89;" points="266.706,231.245 273.664,233.01 272.3,223.84 270.555,224.098 271.53,230.648 
							267.139,229.534 						"/>
					</g>
					<path style="fill:#282828;" d="M300.878,228.496c0,0-4.315,1.257-14.646-6.044
						C286.232,222.452,290.676,232.708,300.878,228.496z"/>
					<path style="fill:#282828;" d="M261.448,213.352c0,0-4.459,0.568-13.523-8.256C247.924,205.096,250.714,215.92,261.448,213.352
						z"/>
				</g>
				<path style="fill:#FFFFFF;" d="M225.288,205.804c0,2.584-2.095,4.68-4.679,4.68c-2.584,0-4.68-2.095-4.68-4.68
					c0-2.584,2.095-4.679,4.68-4.679C223.192,201.125,225.288,203.22,225.288,205.804z"/>
			</g>
		</g>
	</g>
</g>
</svg>
