<?xml version="1.0" encoding="utf-8"?>
<!-- Generator: Adobe Illustrator 27.5.0, SVG Export Plug-In . SVG Version: 6.00 Build 0)  -->
<svg version="1.1" xmlns="http://www.w3.org/2000/svg" xmlns:xlink="http://www.w3.org/1999/xlink" x="0px" y="0px"
	 viewBox="0 0 500 500" style="enable-background:new 0 0 500 500;" xml:space="preserve">
<g id="Background_Simple">
	<g>
		<path style="fill:#C6FF00;" d="M434.016,190.62c-2.626-6.67-5.872-13.073-9.833-19.101C406.783,145.034,374.561,127.452,347,114
			c-84-41-154,4-193,50s-85,70-90,120s24,105,104,114c79.999,9,142.998-51.998,196.999-45
			C447.516,363.693,454.992,243.893,434.016,190.62z"/>
		<path style="opacity:0.7;fill:#FFFFFF;" d="M434.016,190.62c-2.626-6.67-5.872-13.073-9.833-19.101
			C406.783,145.034,374.561,127.452,347,114c-84-41-154,4-193,50s-85,70-90,120s24,105,104,114c79.999,9,142.998-51.998,196.999-45
			C447.516,363.693,454.992,243.893,434.016,190.62z"/>
	</g>
</g>
<g id="Plants">
	<g>
		<path style="fill:#C6FF00;" d="M241.865,205.554c-9.568-6.584-23.919-7.681-23.919-7.681c21.049-3.292,41.141,3.292,41.141,3.292
			s-13.394-9.875-22.962-9.875c-9.568,0-24.876-1.097-24.876-1.097c5.741-6.583,26.789-14.264,26.789-14.264s-15.308,0-22.006,1.097
			c-6.697,1.097-8.611,8.778-8.611,8.778s-1.913-4.389-16.265-7.681c-14.352-3.292-18.179,7.681-18.179,7.681s8.611,0,13.395,0
			c4.784,0,11.481,6.583,11.481,6.583s-15.308,0-21.049,3.292c-4.94,2.833-11.284,14.58-12.961,17.808
			c4.733-24.397,11.297-44.927,16.714-59.413c0.126-0.095,0.26-0.202,0.382-0.289c9.439-6.742,13.484-10.788,13.484-10.788
			l16.181,26.969l-1.348-22.924c0,0,13.484,4.045,17.53,8.091c4.045,4.045,16.181,17.53,16.181,17.53s-5.394-20.227-12.136-26.969
			c-6.742-6.742-18.878-14.833-18.878-14.833s14.833,0,20.227,2.697c5.394,2.697,21.575,13.484,21.575,13.484
			s-10.788-18.878-18.878-22.924c-8.091-4.045-29.666-4.045-29.666-4.045s9.439-8.091,16.181-8.091c6.742,0,18.878,0,18.878,0
			s-5.394-13.484-25.621-9.439c-20.227,4.045-22.923,9.439-22.923,9.439s-2.697-9.439-12.136-10.787
			c-9.439-1.349-31.014-1.349-31.014-1.349s29.666,9.439,37.756,17.53c0,0-21.575,1.349-35.059,1.349s-32.363,12.136-32.363,12.136
			s28.317-8.091,57.983-4.045c0,0-20.226,1.348-33.711,9.439c-13.484,8.091-26.969,26.969-26.969,26.969
			s12.136-12.136,28.317-16.181c16.181-4.045,39.105-9.439,39.105-9.439s-22.923,18.878-25.62,28.317
			c-2.697,9.439-10.788,25.62-10.788,25.62s19.334-24.701,30.2-34.802c-8.989,24.8-20.351,64.747-21.753,110.889
			c-3.991-16.358-15.659-50.223-46.166-67.186c5.777,1.578,14.109,3.874,20.825,5.799c11.481,3.292,20.092,13.167,20.092,13.167
			s-9.568-15.362-19.135-21.945c-9.568-6.584-23.919-7.681-23.919-7.681c21.049-3.292,41.141,3.292,41.141,3.292
			s-13.395-9.876-22.962-9.876s-24.876-1.097-24.876-1.097c5.741-6.584,26.789-14.264,26.789-14.264s-15.308,0-22.006,1.097
			c-6.697,1.097-8.611,8.778-8.611,8.778s-1.913-4.389-16.265-7.681c-14.352-3.292-18.179,7.681-18.179,7.681s8.611,0,13.395,0
			c4.784,0,11.481,6.583,11.481,6.583s-15.308,0-21.049,3.292c-5.741,3.292-13.395,18.653-13.395,18.653s11.481-8.778,15.308-10.973
			c3.827-2.194,14.351-2.194,14.351-2.194s-8.611,6.584-13.395,12.07c-4.784,5.486-8.611,21.945-8.611,21.945
			s8.611-10.973,11.481-14.264c2.87-3.292,12.438-6.584,12.438-6.584l-0.957,18.654l11.481-21.945c0,0,2.87,3.292,9.568,8.778
			c6.698,5.486,23.919,30.723,23.919,30.723s-5.741-13.167-7.654-20.848c-1.576-6.327-12.871-17.846-16.811-21.717
			c39.016,18.299,49.318,64.363,51.205,75.015h-16.16l3.558,31.333h28.466l3.558-31.333h-16.732
			c0.99-6.379,4.577-25.432,13.98-42.729c-0.489,1.819-0.768,3.008-0.768,3.008s8.611-10.973,11.481-14.264
			c2.87-3.292,12.438-6.584,12.438-6.584l-0.957,18.653l11.481-21.945c0,0,2.87,3.292,9.568,8.778
			c6.697,5.486,23.919,30.723,23.919,30.723s-5.741-13.167-7.654-20.848c-1.913-7.681-18.178-23.042-18.178-23.042
			s16.265,4.389,27.746,7.681C252.389,217.624,261,227.5,261,227.5S251.432,212.138,241.865,205.554z M157.786,264.703
			c0.719-18.055,2.961-35.101,5.943-50.614c1.81-1.378,11.523-8.742,14.988-10.729c3.827-2.195,14.351-2.195,14.351-2.195
			s-8.611,6.584-13.395,12.07c-2.068,2.372-3.956,6.795-5.435,11.053C165.182,237.924,160.271,253.947,157.786,264.703z"/>
		<path style="opacity:0.5;fill:#FFFFFF;" d="M241.865,205.554c-9.568-6.584-23.919-7.681-23.919-7.681
			c21.049-3.292,41.141,3.292,41.141,3.292s-13.394-9.875-22.962-9.875c-9.568,0-24.876-1.097-24.876-1.097
			c5.741-6.583,26.789-14.264,26.789-14.264s-15.308,0-22.006,1.097c-6.697,1.097-8.611,8.778-8.611,8.778
			s-1.913-4.389-16.265-7.681c-14.352-3.292-18.179,7.681-18.179,7.681s8.611,0,13.395,0c4.784,0,11.481,6.583,11.481,6.583
			s-15.308,0-21.049,3.292c-4.94,2.833-11.284,14.58-12.961,17.808c4.733-24.397,11.297-44.927,16.714-59.413
			c0.126-0.095,0.26-0.202,0.382-0.289c9.439-6.742,13.484-10.788,13.484-10.788l16.181,26.969l-1.348-22.924
			c0,0,13.484,4.045,17.53,8.091c4.045,4.045,16.181,17.53,16.181,17.53s-5.394-20.227-12.136-26.969
			c-6.742-6.742-18.878-14.833-18.878-14.833s14.833,0,20.227,2.697c5.394,2.697,21.575,13.484,21.575,13.484
			s-10.788-18.878-18.878-22.924c-8.091-4.045-29.666-4.045-29.666-4.045s9.439-8.091,16.181-8.091c6.742,0,18.878,0,18.878,0
			s-5.394-13.484-25.621-9.439c-20.227,4.045-22.923,9.439-22.923,9.439s-2.697-9.439-12.136-10.787
			c-9.439-1.349-31.014-1.349-31.014-1.349s29.666,9.439,37.756,17.53c0,0-21.575,1.349-35.059,1.349s-32.363,12.136-32.363,12.136
			s28.317-8.091,57.983-4.045c0,0-20.226,1.348-33.711,9.439c-13.484,8.091-26.969,26.969-26.969,26.969
			s12.136-12.136,28.317-16.181c16.181-4.045,39.105-9.439,39.105-9.439s-22.923,18.878-25.62,28.317
			c-2.697,9.439-10.788,25.62-10.788,25.62s19.334-24.701,30.2-34.802c-8.989,24.8-20.351,64.747-21.753,110.889
			c-3.991-16.358-15.659-50.223-46.166-67.186c5.777,1.578,14.109,3.874,20.825,5.799c11.481,3.292,20.092,13.167,20.092,13.167
			s-9.568-15.362-19.135-21.945c-9.568-6.584-23.919-7.681-23.919-7.681c21.049-3.292,41.141,3.292,41.141,3.292
			s-13.395-9.876-22.962-9.876s-24.876-1.097-24.876-1.097c5.741-6.584,26.789-14.264,26.789-14.264s-15.308,0-22.006,1.097
			c-6.697,1.097-8.611,8.778-8.611,8.778s-1.913-4.389-16.265-7.681c-14.352-3.292-18.179,7.681-18.179,7.681s8.611,0,13.395,0
			c4.784,0,11.481,6.583,11.481,6.583s-15.308,0-21.049,3.292c-5.741,3.292-13.395,18.653-13.395,18.653s11.481-8.778,15.308-10.973
			c3.827-2.194,14.351-2.194,14.351-2.194s-8.611,6.584-13.395,12.07c-4.784,5.486-8.611,21.945-8.611,21.945
			s8.611-10.973,11.481-14.264c2.87-3.292,12.438-6.584,12.438-6.584l-0.957,18.654l11.481-21.945c0,0,2.87,3.292,9.568,8.778
			c6.698,5.486,23.919,30.723,23.919,30.723s-5.741-13.167-7.654-20.848c-1.576-6.327-12.871-17.846-16.811-21.717
			c39.016,18.299,49.318,64.363,51.205,75.015h-16.16l3.558,31.333h28.466l3.558-31.333h-16.732
			c0.99-6.379,4.577-25.432,13.98-42.729c-0.489,1.819-0.768,3.008-0.768,3.008s8.611-10.973,11.481-14.264
			c2.87-3.292,12.438-6.584,12.438-6.584l-0.957,18.653l11.481-21.945c0,0,2.87,3.292,9.568,8.778
			c6.697,5.486,23.919,30.723,23.919,30.723s-5.741-13.167-7.654-20.848c-1.913-7.681-18.178-23.042-18.178-23.042
			s16.265,4.389,27.746,7.681C252.389,217.624,261,227.5,261,227.5S251.432,212.138,241.865,205.554z M157.786,264.703
			c0.719-18.055,2.961-35.101,5.943-50.614c1.81-1.378,11.523-8.742,14.988-10.729c3.827-2.195,14.351-2.195,14.351-2.195
			s-8.611,6.584-13.395,12.07c-2.068,2.372-3.956,6.795-5.435,11.053C165.182,237.924,160.271,253.947,157.786,264.703z"/>
	</g>
</g>
<g id="Cat">
	<g>
		<g>
			<defs>
				<path id="XMLID_1_" d="M298.073,217.075c7.184-11.985,9.789-26.839,6.03-40.286c-3.937-14.082-15.162-26.178-29.255-30.077
					c-15.994-4.425-33.074,1.664-47.364,10.102c-14.29,8.438-27.213,19.32-42.459,25.876c-4.382,1.884-9.501,3.373-13.8,1.307
					c-13.811-6.637,7.287-18.582,11.996-21.466c11.789-7.219,24.203-13.417,37.06-18.495c18.464-7.292,38.418-12.314,58.102-9.73
					c19.683,2.584,39.041,13.933,47.107,32.072c6.492,14.6,5.076,31.394,2.628,47.184c-0.783,5.053-1.802,10.394-5.258,14.163
					c-5.152,5.619-13.914,5.868-21.418,4.519c-2.78-0.5-5.896-1.443-7.08-4.008c-1.442-3.123,0.785-6.599,2.66-9.483
					C297.383,218.201,297.733,217.641,298.073,217.075z"/>
			</defs>
			<use xlink:href="#XMLID_1_"  style="overflow:visible;fill:#C6FF00;"/>
			<clipPath id="XMLID_00000011718538738660671950000002551908409056358073_">
				<use xlink:href="#XMLID_1_"  style="overflow:visible;"/>
			</clipPath>
			<path style="clip-path:url(#XMLID_00000011718538738660671950000002551908409056358073_);fill:#FFFFFF;" d="M192.895,156.922
				c-3.266,1.796-6.494,3.662-9.673,5.609c-4.709,2.884-25.807,14.828-11.996,21.466c4.299,2.066,9.418,0.577,13.8-1.307
				c6.604-2.84,12.771-6.492,18.803-10.405C201.886,163.361,197.496,158.965,192.895,156.922z"/>
			<use xlink:href="#XMLID_1_"  style="overflow:visible;fill:none;stroke:#263238;stroke-width:1.5;stroke-miterlimit:10;"/>
		</g>
		<g>
			<defs>
				<path id="XMLID_7_" d="M298.073,217.075c7.184-11.985,9.789-26.839,6.03-40.286c-3.937-14.082-15.162-26.178-29.255-30.077
					c-15.994-4.425-33.074,1.664-47.364,10.102c-14.29,8.438-27.213,19.32-42.459,25.876c-4.382,1.884-9.501,3.373-13.8,1.307
					c-13.811-6.637,7.287-18.582,11.996-21.466c11.789-7.219,24.203-13.417,37.06-18.495c18.464-7.292,38.418-12.314,58.102-9.73
					c19.683,2.584,39.041,13.933,47.107,32.072c6.492,14.6,5.076,31.394,2.628,47.184c-0.783,5.053-1.802,10.394-5.258,14.163
					c-5.152,5.619-13.914,5.868-21.418,4.519c-2.78-0.5-5.896-1.443-7.08-4.008c-1.442-3.123,0.785-6.599,2.66-9.483
					C297.383,218.201,297.733,217.641,298.073,217.075z"/>
			</defs>
			<use xlink:href="#XMLID_7_"  style="overflow:visible;fill:#C6FF00;"/>
			<clipPath id="XMLID_00000183947398914033577140000008432384559742111894_">
				<use xlink:href="#XMLID_7_"  style="overflow:visible;"/>
			</clipPath>
			<g style="clip-path:url(#XMLID_00000183947398914033577140000008432384559742111894_);">
				<path style="fill:#263238;" d="M293.879,147.255c-3.063,5.949,0.039,7.436,0.039,7.436s-0.298-2.474,1.594-6.865
					c1.892-4.391,5.206-5.558,5.206-5.558S296.942,141.306,293.879,147.255z"/>
				<path style="fill:#263238;" d="M277.372,140.289c-2.125,5.246,0.388,6.743,0.388,6.743s-0.353-2.257,0.925-6.147
					c1.278-3.89,3.83-4.788,3.83-4.788S279.497,135.043,277.372,140.289z"/>
				<path style="fill:#263238;" d="M258.24,138.141c-2.125,5.246,0.388,6.742,0.388,6.742s-0.353-2.257,0.925-6.146
					c1.278-3.89,3.83-4.788,3.83-4.788S260.365,132.894,258.24,138.141z"/>
				<path style="fill:#263238;" d="M314.752,154.311c0,0-2.748-3.401-9.593-0.477c-6.845,2.924-5.065,6.305-5.065,6.305
					s1.428-2.293,6.148-4.704C310.961,153.025,314.752,154.311,314.752,154.311z"/>
				<path style="fill:#263238;" d="M311.548,166.587c4.536-2.74,8.409-1.727,8.409-1.727s-2.983-3.197-9.603,0.207
					c-6.619,3.404-4.604,6.649-4.604,6.649S307.012,169.327,311.548,166.587z"/>
				<path style="fill:#263238;" d="M314.969,178.022c-8.977,2.194-7.801,6.799-7.801,6.799s2.343-2.561,8.643-4.567
					c6.3-2.006,10.459,0.41,10.459,0.41S323.946,175.828,314.969,178.022z"/>
				<path style="fill:#263238;" d="M314.857,198.759c-9.059,1.825-8.072,6.474-8.072,6.474s2.446-2.463,8.823-4.209
					c6.377-1.746,10.434,0.838,10.434,0.838S323.916,196.935,314.857,198.759z"/>
			</g>
			<path style="clip-path:url(#XMLID_00000183947398914033577140000008432384559742111894_);fill:#FFFFFF;" d="M192.895,156.922
				c-3.266,1.796-6.494,3.662-9.673,5.609c-4.709,2.884-25.807,14.828-11.996,21.466c4.299,2.066,9.418,0.577,13.8-1.307
				c6.604-2.84,12.771-6.492,18.803-10.405C201.886,163.361,197.496,158.965,192.895,156.922z"/>
			<use xlink:href="#XMLID_7_"  style="overflow:visible;fill:none;stroke:#263238;stroke-width:1.5;stroke-miterlimit:10;"/>
		</g>
		<path style="fill:#263238;" d="M281.968,339.569c0,0,42.15,3.735,33.079,7.47c-9.07,3.735-16.006,2.134-52.287,6.936
			c-36.281,4.802-88.568,4.802-112.577,4.802s-30.412,4.268-16.54,4.268s42.15,0,97.105,2.134
			c54.955,2.134,120.047,14.939,153.126,1.601c33.08-13.339,1.067-25.077,1.067-25.077s12.805-2.668,2.134-6.936
			c-10.671-4.268-51.753-8.537-70.961-11.204c-19.207-2.668-29.878,3.201-16.54,3.201c13.339,0,76.297,6.402,68.293,11.738
			c-8.003,5.335-46.952-0.534-59.757-3.201C295.307,332.633,278.767,335.301,281.968,339.569z"/>
		<g>
			<g>
				<defs>
					<path id="XMLID_2_" d="M327.665,317.801c0,0,3.39,16.643,8.63,25.581s15.718,8.321,17.259,1.233
						c1.541-7.089-5.548-16.026-7.397-22.807c-1.849-6.78-1.541-18.8-1.541-18.8S327.049,301.466,327.665,317.801z"/>
				</defs>
				<use xlink:href="#XMLID_2_"  style="overflow:visible;fill:#C6FF00;"/>
				<clipPath id="XMLID_00000075867461362280263960000010454648591591800499_">
					<use xlink:href="#XMLID_2_"  style="overflow:visible;"/>
				</clipPath>
				<path style="clip-path:url(#XMLID_00000075867461362280263960000010454648591591800499_);fill:#FFFFFF;" d="M333.347,337.188
					c0.898,2.246,1.884,4.379,2.948,6.194c5.239,8.938,15.718,8.321,17.259,1.233c1.142-5.254-2.454-11.522-5.146-17.176
					C341.789,328.017,336.18,331.833,333.347,337.188z"/>
				<use xlink:href="#XMLID_2_"  style="overflow:visible;fill:none;stroke:#263238;stroke-width:1.5;stroke-miterlimit:10;"/>
			</g>
			<path style="fill:none;stroke:#263238;stroke-width:1.5;stroke-linecap:round;stroke-miterlimit:10;" d="M342.459,338.45
				c0,0,4.315,5.548,3.082,11.095"/>
			<path style="fill:none;stroke:#263238;stroke-width:1.5;stroke-linecap:round;stroke-miterlimit:10;" d="M347.698,336.293
				c0,0,6.472,3.39,4.007,11.095"/>
		</g>
		<path style="fill:#C6FF00;stroke:#263238;stroke-width:1.5;stroke-miterlimit:10;" d="M317.803,326.43
			c0,0-8.938,9.246-18.492,12.02c-9.554,2.774-19.108,2.157-17.876-2.157c1.233-4.315,5.548-5.856,11.095-5.856
			s16.951-11.404,16.951-11.404S321.809,311.329,317.803,326.43z"/>
		<g>
			<g>
				<defs>
					<path id="XMLID_3_" d="M209.933,281.125c0,0-13.253,6.164-15.718,12.944c-2.466,6.78-3.699,14.177-3.699,14.177
						s-16.643,7.705-29.279,12.02c-12.636,4.315-25.581,5.856-32.977,11.095c-7.397,5.239-7.705,11.095-3.39,15.41
						c4.315,4.315,12.944,2.774,15.718,1.233c2.774-1.541,9.246-7.705,17.876-9.246c8.63-1.541,34.518,3.698,49.62,0.616
						c15.102-3.082,28.046-8.013,31.436-8.013c3.39,0,16.951,1.849,25.889-4.007c8.938-5.856,3.082-32.978-3.698-46.23
						S219.179,276.502,209.933,281.125z"/>
				</defs>
				<use xlink:href="#XMLID_3_"  style="overflow:visible;fill:#C6FF00;"/>
				<clipPath id="XMLID_00000034789447788083351650000001774316500746929059_">
					<use xlink:href="#XMLID_3_"  style="overflow:visible;"/>
				</clipPath>
				<path style="clip-path:url(#XMLID_00000034789447788083351650000001774316500746929059_);fill:#FFFFFF;" d="M241.361,305.532
					c-5.351-8.858-9.737-25.498-18.25-28.758c-5.698,1.374-10.529,3.026-13.179,4.351c0,0-1.387,0.646-3.343,1.746
					c-3.149,3.609-2.986,7.526,0.154,9.968c5.193,4.039,23.656,25.386,18.463,23.655c-0.715-0.238-1.528-0.673-2.419-1.256
					c-5.579-3.647-14.192-13.068-20.66-16.053c-7.501-3.462,6.924,15.578,6.924,21.348c0,5.77-5.77,0.577-10.962-5.77
					c-5.193-6.347-6.347-0.577-3.462,5.77c2.885,6.347-1.154,9.231-13.27,9.231s-26.54,0.577-26.54,0.577s-0.596-4.362-3.626-7.099
					c-9.087,2.419-17.504,4.274-22.931,8.118c-7.397,5.239-7.705,11.095-3.39,15.41c4.315,4.315,12.944,2.774,15.718,1.233
					c2.774-1.541,9.246-7.705,17.876-9.246c8.63-1.541,34.518,3.698,49.62,0.616c15.102-3.082,28.046-8.013,31.436-8.013
					c3.158,0,15.138,1.598,23.989-2.916C259.934,325.564,246.924,314.741,241.361,305.532z"/>
				<use xlink:href="#XMLID_3_"  style="overflow:visible;fill:none;stroke:#263238;stroke-width:1.5;stroke-miterlimit:10;"/>
			</g>
			<circle style="fill:#263238;" cx="128.26" cy="339.375" r="2.466"/>
			<circle style="fill:#263238;" cx="138.43" cy="338.142" r="4.623"/>
			<circle style="fill:#263238;" cx="132.266" cy="344.922" r="2.466"/>
			<circle style="fill:#263238;" cx="138.43" cy="344.922" r="2.466"/>
		</g>
		<g>
			<defs>
				<path id="XMLID_5_" d="M230.89,308.555c14.177,15.41,24.656,22.19,39.141,24.04c14.485,1.849,33.286,0,47.771-6.164
					c14.485-6.164,17.876-10.171,17.876-10.171s2.774-1.233,9.862-5.856c7.089-4.623,20.033-18.184,23.423-35.751
					c2.92-15.13,0.52-31.907-7.259-45.282c-9.048-15.557-25.557-23.529-43.276-23.837c-10.773-0.187-20.751,3.686-29.597,9.636
					c-16.951,11.403-20.958,21.266-20.958,21.266h-17.567c0,0-8.63-3.39-24.348,12.636"/>
			</defs>
			<use xlink:href="#XMLID_5_"  style="overflow:visible;fill:#C6FF00;"/>
			<clipPath id="XMLID_00000154388195605365752770000005939917967455692200_">
				<use xlink:href="#XMLID_5_"  style="overflow:visible;"/>
			</clipPath>
			<path style="clip-path:url(#XMLID_00000154388195605365752770000005939917967455692200_);fill:#FFFFFF;" d="M357.331,278.992
				c-1.154-10.962-6.924,1.154-8.655,5.193c-3.409,7.955-1.731-19.04-6.923-25.387c-5.193-6.347,1.154,15.578-0.577,23.079
				c-1.731,7.501-0.577-5.193-4.616-12.693c-4.039-7.5,1.731,9.808-6.924,19.617c-8.655,9.809-24.233,0.577-24.233,0.577
				c7.233,20.494-12.12,36.228-24.536,43.892c12.264,0.057,25.858-2.126,36.934-6.839c14.485-6.164,17.876-10.171,17.876-10.171
				s2.774-1.233,9.862-5.856c1.579-1.029,3.455-2.525,5.444-4.387C355.819,296.349,358.14,286.678,357.331,278.992z"/>
			<use xlink:href="#XMLID_5_"  style="overflow:visible;fill:none;stroke:#263238;stroke-width:1.5;stroke-miterlimit:10;"/>
		</g>
		<path style="fill:#FFFFFF;" d="M214.864,287.597c0,0,10.479,16.026,28.046,20.033c17.567,4.007,21.882-20.341,20.341-32.977
			c-1.541-12.636-7.089-12.328-9.246-9.554c-2.157,2.774-12.328,11.095-22.499,13.253
			C221.336,280.509,213.323,282.05,214.864,287.597z"/>
		<g>
			<path style="fill:#C6FF00;stroke:#263238;stroke-width:1.5;stroke-miterlimit:10;" d="M201.199,219.195
				c0,0-6.103-1.017-10.171-0.678c-4.069,0.339-12.206,4.068-15.935,4.747c-3.73,0.678-2.034,2.034,2.712,7.459
				s15.935,8.815,15.935,8.815L201.199,219.195z"/>
			<g>
				<defs>
					<path id="XMLID_6_" d="M259.854,258.863c0,0-5.764,14.579-14.579,19.326c-8.815,4.747-16.952,4.747-16.952,4.747
						s-6.103,5.764-17.291,6.442c-11.188,0.678-17.969-9.493-17.969-12.884c0-3.39,0-9.154,0-9.154s-7.12-8.815-6.781-13.562
						c0.339-4.747,0.678-26.106,12.884-34.582c12.206-8.476,24.072-7.459,33.565-5.425c9.493,2.034,20.004,13.562,23.394,20.343
						c3.39,6.781,3.39,15.257,3.39,15.257"/>
				</defs>
				<use xlink:href="#XMLID_6_"  style="overflow:visible;fill:#C6FF00;"/>
				<clipPath id="XMLID_00000134213391906591257240000012979954336266675362_">
					<use xlink:href="#XMLID_6_"  style="overflow:visible;"/>
				</clipPath>
				<path style="clip-path:url(#XMLID_00000134213391906591257240000012979954336266675362_);fill:#FFFFFF;" d="M211.936,273.799
					l-5.193-8.654c0,0-1.154-10.385-6.924-16.155c-5.77-5.77-1.86,18.024-1.86,18.024s-3.347,0.76-4.898,1.915
					c0,1.954,0,5.29,0,7.565c0,3.39,6.781,13.562,17.969,12.884c5.017-0.304,9.002-1.631,11.882-3.002
					C221.102,277.505,211.936,273.799,211.936,273.799z"/>
				
					<path style="clip-path:url(#XMLID_00000134213391906591257240000012979954336266675362_);fill:none;stroke:#263238;stroke-width:2;stroke-linecap:round;stroke-miterlimit:10;" d="
					M210.321,269.997c0,0,3.41-6.82,12.361-1.705"/>
				
					<path style="clip-path:url(#XMLID_00000134213391906591257240000012979954336266675362_);fill:none;stroke:#263238;stroke-width:2;stroke-linecap:round;stroke-miterlimit:10;" d="
					M191.566,261.046c0,0,3.41-2.131,4.262,3.836"/>
				
					<path style="clip-path:url(#XMLID_00000134213391906591257240000012979954336266675362_);fill:none;stroke:#263238;stroke-linecap:round;stroke-miterlimit:10;" d="
					M200.944,283.638c0,0,2.131,3.836,5.541,5.115"/>
				<path style="clip-path:url(#XMLID_00000134213391906591257240000012979954336266675362_);fill:#263238;" d="M214.244,247.836
					c0,0,2.308,8.077,13.847,9.808c11.539,1.731,15.441-2.873,11.759-6.918C236.169,246.682,216.552,247.836,214.244,247.836z"/>
				
					<path style="clip-path:url(#XMLID_00000134213391906591257240000012979954336266675362_);fill:#C6FF00;stroke:#263238;stroke-width:1.5;stroke-miterlimit:10;" d="
					M239.85,250.726c0,0-9.493,2.712-16.952,2.712s-10.849-6.442-12.545-8.476c-1.695-2.034,6.781-9.493,16.952-7.459
					C237.477,239.538,239.85,250.726,239.85,250.726z"/>
				<path style="clip-path:url(#XMLID_00000134213391906591257240000012979954336266675362_);fill:#263238;" d="M203.959,283.469
					c0.838-0.733,0.974-1.941-0.611-2.466c-2.129-0.705-5.574-1.561-4.861,0.576c0.563,1.689,2.267,2.56,3.978,2.486
					C203.045,284.04,203.576,283.805,203.959,283.469z"/>
				<path style="clip-path:url(#XMLID_00000134213391906591257240000012979954336266675362_);fill:#263238;" d="M250.016,269.184
					c0,0-2.308,1.731-9.231,1.731s-12.116-0.577-12.116-0.577s8.655,2.885,13.27,3.462
					C246.554,274.376,250.016,269.184,250.016,269.184z"/>
				<path style="clip-path:url(#XMLID_00000134213391906591257240000012979954336266675362_);fill:#263238;" d="M243.092,277.261
					c0,0-4.039,3.462-8.655,1.731c-4.616-1.731-10.385-4.616-10.385-4.616S238.477,278.415,243.092,277.261z"/>
				<path style="clip-path:url(#XMLID_00000134213391906591257240000012979954336266675362_);fill:#263238;" d="M215.975,225.334
					c0,0-9.808,4.039-10.962,15.001c-1.154,10.962,0,17.309,0,17.309S207.32,235.719,215.975,225.334z"/>
				<path style="clip-path:url(#XMLID_00000134213391906591257240000012979954336266675362_);fill:#263238;" d="M200.397,227.065
					c0,0-5.812,2.444-6.656,12.473c-0.844,10.029-0.844,16.952-0.844,16.952S195.781,235.143,200.397,227.065z"/>
				<use xlink:href="#XMLID_6_"  style="overflow:visible;fill:none;stroke:#263238;stroke-width:1.5;stroke-miterlimit:10;"/>
			</g>
			<g>
				<path style="fill:none;stroke:#263238;stroke-width:0.5;stroke-linecap:round;stroke-miterlimit:10;" d="M193.062,276.494
					c0,0-15.182-4.307-24.12-4.615"/>
				<path style="fill:none;stroke:#263238;stroke-width:0.5;stroke-linecap:round;stroke-miterlimit:10;" d="M193.29,278.968
					c0,0-20.958-1.849-30.82,0"/>
				<path style="fill:none;stroke:#263238;stroke-width:0.5;stroke-linecap:round;stroke-miterlimit:10;" d="M194.831,281.125
					c0,0-24.964,1.233-32.361,3.698"/>
			</g>
			<g>
				<path style="fill:none;stroke:#263238;stroke-width:0.5;stroke-linecap:round;stroke-miterlimit:10;" d="M214.864,286.364
					c0,0,1.849,14.177,2.774,24.04"/>
				<path style="fill:none;stroke:#263238;stroke-width:0.5;stroke-linecap:round;stroke-miterlimit:10;" d="M216.405,283.591
					c0,0,10.171,15.718,10.171,23.423"/>
				<path style="fill:none;stroke:#263238;stroke-width:0.5;stroke-linecap:round;stroke-miterlimit:10;" d="M220.103,282.666
					c0,0,12.02,10.171,14.485,19.417"/>
			</g>
		</g>
		<path style="fill:none;stroke:#263238;stroke-width:1.5;stroke-linecap:round;stroke-miterlimit:10;" d="M335.678,316.26
			c0,0,16.951-13.869,14.485-44.689"/>
		<g>
			<g>
				<defs>
					<path id="XMLID_4_" d="M281.127,280.2c0,0,10.479,0.308,23.731,7.397c13.253,7.089,26.505,10.479,26.505,18.184
						c0,7.705-27.43,23.732-40.682,33.594c-13.253,9.862-23.731,19.417-32.977,21.882c-9.246,2.466-21.266,2.774-22.807-3.39
						s6.472-7.705,11.095-8.321s12.328-2.466,12.328-2.466l15.718-15.102c0,0-17.876-1.233-26.197-15.718"/>
				</defs>
				<use xlink:href="#XMLID_4_"  style="overflow:visible;fill:#C6FF00;"/>
				<clipPath id="XMLID_00000057136862198899141820000002929314764332731280_">
					<use xlink:href="#XMLID_4_"  style="overflow:visible;"/>
				</clipPath>
				<g style="clip-path:url(#XMLID_00000057136862198899141820000002929314764332731280_);">
					<path style="fill:#263238;" d="M256.939,325.149c0,0,10.385-1.154,16.155-10.385c5.77-9.232,7.501-20.771,7.501-20.771
						s0,13.27-4.039,21.925C272.517,324.572,256.939,325.149,256.939,325.149z"/>
					<path style="fill:#263238;" d="M289.249,288.8c0,0,5.77,11.539,0.577,20.771c-5.193,9.231-13.27,13.27-13.27,13.27
						S291.557,308.994,289.249,288.8z"/>
					<path style="fill:#263238;" d="M271.94,340.15l8.655,5.77C280.595,345.92,280.018,338.419,271.94,340.15z"/>
					<path style="fill:#263238;" d="M280.018,331.496l8.654,5.77C288.672,337.265,288.095,329.765,280.018,331.496z"/>
					<path style="fill:#263238;" d="M295.596,321.687l8.654,5.77C304.251,327.457,303.674,319.956,295.596,321.687z"/>
					<path style="fill:#263238;" d="M304.827,313.033l8.655,5.77C313.482,318.802,312.905,311.302,304.827,313.033z"/>
					<path style="fill:#FFFFFF;" d="M262.76,353.975c-0.586-2.772-4.146-4.865-7.356-6.225c-2.665,0.593-6.603,1.421-9.412,1.796
						c-4.623,0.616-12.636,2.157-11.095,8.321s13.561,5.856,22.807,3.39c2.155-0.575,4.38-1.547,6.688-2.806
						C263.747,357.185,263.145,355.794,262.76,353.975z"/>
					<path style="fill:#FFFFFF;" d="M299.635,313.033c4.039-5.77-1.154,2.308-13.27,9.808c-12.116,7.501-29.425,2.308-29.425,2.308
						s-0.205,0.134-0.552,0.36c8.318,5.822,17.651,6.469,17.651,6.469l-7.071,6.793
						C279.884,334.001,295.848,318.443,299.635,313.033z"/>
				</g>
				<use xlink:href="#XMLID_4_"  style="overflow:visible;fill:none;stroke:#263238;stroke-width:1.5;stroke-miterlimit:10;"/>
			</g>
			<path style="fill:none;stroke:#263238;stroke-width:1.5;stroke-linecap:round;stroke-miterlimit:10;" d="M274.038,331.978
				c0,0,25.272-4.931,28.354-26.197"/>
			<path style="fill:none;stroke:#263238;stroke-width:1.5;stroke-linecap:round;stroke-miterlimit:10;" d="M234.897,357.867
				c0,0,2.466-4.623,6.164-5.239"/>
			<path style="fill:none;stroke:#263238;stroke-width:1.5;stroke-linecap:round;stroke-miterlimit:10;" d="M238.904,361.257
				c0,0,1.849-6.78,7.397-6.78"/>
		</g>
		<g>
			<path style="fill:#263238;" d="M275.979,238.604c0,0,17.309,1.731,30.002,14.424c12.693,12.693,15.001,36.349,15.001,30.002
				s-3.462-23.656-10.962-32.887C302.52,240.912,281.172,235.719,275.979,238.604z"/>
			<path style="fill:#263238;" d="M262.491,245.28c0,0,13.926,1.393,24.138,11.605c10.212,10.212,12.069,29.244,12.069,24.138
				c0-5.106-2.785-19.032-8.82-26.459C283.844,247.137,266.669,242.959,262.491,245.28z"/>
			<path style="fill:#263238;" d="M286.942,228.796c0,0,17.309,1.731,30.002,14.424c12.693,12.693,15.001,36.349,15.001,30.002
				c0-6.347-3.462-23.656-10.962-32.887C313.482,231.104,292.134,225.911,286.942,228.796z"/>
			<path style="fill:#263238;" d="M301.366,212.064c0,0,17.309,1.731,30.002,14.424c12.693,12.693,15.001,36.349,15.001,30.002
				c0-6.347-3.462-23.656-10.962-32.887C327.906,214.372,306.558,209.179,301.366,212.064z"/>
		</g>
	</g>
</g>
<g id="Ball">
	<g>
		<ellipse style="fill:#263238;" cx="134.92" cy="369.335" rx="12.005" ry="5.602"/>
		<g>
			<circle style="fill:#C6FF00;stroke:#263238;stroke-width:1.5;stroke-miterlimit:10;" cx="130.725" cy="356.634" r="16.335"/>
			<path style="fill:#FFFFFF;" d="M130.081,349.223c0,2.518-1.965,4.559-4.39,4.559s-4.39-2.041-4.39-4.559
				c0-2.518,1.965-4.559,4.39-4.559S130.081,346.705,130.081,349.223z"/>
		</g>
	</g>
</g>
</svg>
