<?xml version="1.0" encoding="utf-8"?>
<!-- Generator: Adobe Illustrator 27.5.0, SVG Export Plug-In . SVG Version: 6.00 Build 0)  -->
<svg version="1.1" xmlns="http://www.w3.org/2000/svg" xmlns:xlink="http://www.w3.org/1999/xlink" x="0px" y="0px"
	 viewBox="0 0 500 500" style="enable-background:new 0 0 500 500;" xml:space="preserve">
<g id="BACKGROUND">
	<rect style="fill:#FFFFFF;stroke:#000000;stroke-miterlimit:10;" width="100%" />
</g>
<g id="OBJECTS">
	<g>
		<path style="fill:#96DBBF;" d="M364.041,394.283H87.416c-3.087,0-4.282,4.052-1.665,5.691
			c12.082,7.567,43.43,12.959,80.202,12.959c11.454,0,11.338,7.491,11.338,13.427c0,10.974,27.787,19.87,62.064,19.87
			c17.255,0,32.857-2.256,44.102-5.896c8.684-2.811,17.825-4.404,27.091-4.499c41.025-0.422,77.901-10.969,77.901-25.662
			c0-3.5-2.187-6.836-6.147-9.876C377.087,396.294,370.614,394.283,364.041,394.283z"/>
		<g>
			<path style="fill:#96DBBF;" d="M87.094,380.063c-0.328-3.867-0.861-7.774-1.507-11.622c-0.688-3.846-1.536-7.664-2.683-11.374
				c-1.141-3.705-2.6-7.325-4.652-10.555c-2.039-3.201-4.745-6.108-8.536-7.46c1.982,0.215,3.934,1.003,5.615,2.17
				c1.69,1.167,3.125,2.671,4.353,4.301c1.226,1.637,2.237,3.413,3.095,5.244c0.865,1.829,1.623,3.704,2.254,5.613
				c0.627,1.91,1.192,3.839,1.656,5.788c0.452,1.952,0.841,3.915,1.175,5.885c0.672,3.946,1.078,7.902,1.191,11.928L87.094,380.063z
				"/>
		</g>
		<g>
			<path style="fill:#39AE96;" d="M91.807,271.288c7.491,5.395,17.883,28.636,3.783,123.449h3.964
				c10.767-72.73,8.857-116.536-5.56-126.709c-5.733-4.046-11.116-1.248-11.342-1.128l1.835,3.469
				C84.63,270.295,88.067,268.594,91.807,271.288z"/>
		</g>
		<path style="fill:#55C7A6;" d="M57.732,268.168l-7.027-1.09c-0.558,0.709-1.109,1.443-1.64,2.23
			c-2.077,3.078-3.645,7.26-4.825,11.979l0,0c5.173-1.618,10.785-1.005,15.487,1.692l0,0c1.083,0.621,1.27,2.106,0.376,2.977
			l-0.812,0.79l0,0c-3.523,1.874-8.704-1.915-12.836-0.238l0,0c-2.243,0.91-3.851,2.943-4.172,5.343
			c-0.526,3.935-0.877,7.95-1.107,11.804l7.364-1.088c1.946-0.288,3.325,1.851,2.26,3.505l0,0c-0.344,0.534-0.895,0.901-1.521,1.014
			l0,0c-4.919,0.882-8.493,5.165-8.496,10.162c-0.004,6.255,0.223,10.463,0.223,10.463s2.44,0.2,6.326,0.321
			c3.838,0.119,7.148-2.676,7.689-6.477l0.521-3.656c0.185-1.299,1.557-2.063,2.759-1.538l0,0c0.933,0.408,1.405,1.456,1.094,2.425
			l-2.992,9.306c4.179-0.077,8.851-0.314,13.539-0.843c0,0,0.5-14.303,4.148-14.033c3.319,0.246,1.851,13.181,1.851,13.181
			c3.993-0.697,7.844-1.657,11.249-2.966c0,0,1.316-10.338-1.744-14.5l0,0c-0.484-0.536-0.545-1.331-0.149-1.934l0,0
			c0.475-0.724,1.441-0.934,2.173-0.473l0,0c1.628,1.026,2.929,2.494,3.751,4.234l3.956,8.371
			c5.511-3.856,9.169-8.399,11.406-13.062l-1.554-3.29c-1.661-3.514-5.314-5.643-9.19-5.356h0c-2.508,0.186-4.25-2.451-3.094-4.685
			l0,0c0.834-1.613,2.838-2.216,4.423-1.331l0,0c4.277,2.386,7.882,5.814,10.479,9.965l0.486,0.776
			c2.032-6.439,1.611-12.797-0.137-17.592c0,0-19.272-0.201-18.925-5.088c0.258-3.632,14.46-1.752,14.46-1.752
			c-7.416-6.974-19.956-9.083-19.956-9.083c-1.427-12.856-17.306-16.793-29.573-5.194l6.392,2.326
			c2.438,0.887,4.334,2.842,5.146,5.306l0.764,2.32l-1.206-1.302C63.156,269.988,60.56,268.607,57.732,268.168z M65.799,310.538
			c1.179,0.016,2.111,1.798,2.081,3.979c-0.03,2.181-1.01,3.937-2.189,3.921c-1.179-0.016-2.111-1.798-2.081-3.979
			C63.639,312.277,64.619,310.522,65.799,310.538z M58.72,293.492c1.13,0.742,1.68,1.902,1.227,2.593
			c-0.453,0.69-1.736,0.648-2.867-0.093c-1.13-0.742-1.68-1.902-1.227-2.593C56.306,292.709,57.589,292.751,58.72,293.492z
			 M70.418,273.979c-0.32-1.314,0.211-2.571,1.187-2.809c0.975-0.238,2.026,0.634,2.346,1.948c0.32,1.313-0.211,2.571-1.187,2.809
			C71.789,276.165,70.739,275.293,70.418,273.979z"/>
		<path style="fill:#55C7A6;" d="M161.77,311.4c-2.291-2.611-4.861-4.991-7.651-7.106c-2.801-2.098-5.831-3.93-9.059-5.364
			c-3.233-1.417-6.642-2.488-10.145-3.081c-0.872-0.173-1.758-0.248-2.638-0.376c-0.883-0.1-1.77-0.144-2.656-0.217l-2.665-0.06
			l-2.717,0.161c-3.619,0.385-7.185,1.52-10.368,3.323c-3.191,1.795-5.984,4.222-8.318,6.974c-2.344,2.753-4.232,5.835-5.795,9.035
			c-3.067,6.44-4.884,13.332-5.921,20.263c-0.999,6.943-1.33,13.945-1.145,20.908c0.184,6.965,0.847,13.899,1.903,20.76
			c0.926,6.094,2.128,12.137,3.568,18.117h3.882c-1.39-6.197-2.606-12.428-3.509-18.7c-0.954-6.738-1.619-13.511-1.841-20.289
			c-0.209-6.776,0.088-13.559,1.018-20.229c0.977-6.649,2.581-13.228,5.37-19.249c1.412-2.992,3.118-5.83,5.176-8.358
			c2.057-2.525,4.494-4.718,7.266-6.35c2.766-1.638,5.861-2.696,9.073-3.104l2.425-0.192l2.49-0.019
			c0.828,0.045,1.66,0.06,2.487,0.128c0.824,0.096,1.656,0.139,2.475,0.277c3.287,0.478,6.531,1.308,9.651,2.514
			c3.104,1.239,6.114,2.772,8.927,4.639c2.826,1.85,5.478,3.986,7.948,6.333c2.457,2.359,4.776,4.897,6.777,7.697
			C166.137,316.803,164.059,314.006,161.77,311.4z"/>
		<g>
			<path style="fill:#96DBBF;" d="M90.758,394.737l-0.735-41.859c-0.025-1.428,0.734-2.642,2.03-3.246
				c1.296-0.604,2.713-0.403,3.79,0.535l2.221-2.55c-2.084-1.815-4.935-2.216-7.438-1.05c-2.505,1.167-4.031,3.608-3.982,6.37
				l0.734,41.8H90.758z"/>
		</g>
		<path style="fill:#55C7A6;" d="M92.663,362.754c-0.559-2.11-8.733,0-8.733,0c-0.172-6.402,3.24-15.277,13.142-13.771
			c0,0,5.59-9.729,19.235-4.006c-2.575,1.815-7.604,3.826-4.996,5.261c1.098,0.604,3.219-0.186,5.194-1.134
			c2.883-1.383,6.417-0.297,7.812,2.58c1.834,3.781,1.872,8.649,0.993,13.67c-2.712-0.708-10.294-3.207-11.151-1.32
			c-0.712,1.566,9.837,6.934,9.837,6.934c-0.383,1.331-0.807,2.648-1.257,3.934c0,0-4.926-5.402-6.16-4.036
			c-1.401,1.55,5.258,6.494,5.258,6.494c-3.004,7.823-6.587,13.948-6.587,13.948s-4.731-2.613-10.356-5.963
			c0,0,2.683-10.416,0-10.919c-2.332-0.437-3.437,8.845-3.437,8.845c-6.105-3.739-12.355-7.879-14.346-10.268
			c-0.01-0.012-0.021-0.025-0.031-0.037c-1.924-2.344-0.976-5.918,1.821-7.088C90.977,365.01,92.958,363.869,92.663,362.754z"/>
		<g>
			<path style="fill:#96DBBF;" d="M110.58,370.827c-0.873-1.981-1.855-3.909-2.89-5.798c-1.043-1.885-2.144-3.732-3.339-5.505
				c-1.204-1.765-2.47-3.476-3.854-5.053c-1.396-1.562-2.892-3.003-4.5-4.185l-0.027-0.02c-0.755-0.554-0.917-1.615-0.363-2.37
				c0.554-0.754,1.615-0.917,2.37-0.363c0.059,0.043,0.121,0.096,0.172,0.145c3.373,3.25,5.689,7.083,7.664,10.996
				c0.98,1.964,1.845,3.97,2.643,5.995C109.245,366.699,109.971,368.747,110.58,370.827z"/>
		</g>
		<path style="fill:#FFEBB4;" d="M440.651,207.604c-17.176-18.717-25.866-43.376-24.885-68.761c0.032-0.829,0.048-1.662,0.048-2.498
			c0-39.476-35.903-71.477-80.193-71.477c-10.51,0-20.546,1.803-29.742,5.081c-28.75,10.248-59.214,14.409-89.639,11.982
			c-5.605-0.447-11.302-0.677-17.075-0.677c-83.559,0-151.296,48.086-151.296,107.402c0,59.317,67.738,107.402,151.296,107.402
			c1.213,0,2.422-0.01,3.628-0.03c33.5-0.56,65.819,11.075,92.581,31.233c17.706,13.337,40.857,21.416,66.202,21.416
			c55.684,0,100.824-38.984,100.824-87.072C462.4,241.2,454.267,222.441,440.651,207.604z"/>
		<g>
			<g>
				<path style="fill:#55C7A6;" d="M395.064,385.937l-3.511-1.692c48.931-101.543,45.21-131.012,38.636-139.54
					c-3.372-4.374-7.927-3.548-7.973-3.539l-0.743-3.826c0.283-0.055,6.98-1.27,11.803,4.986
					C441.976,253.611,442.408,287.688,395.064,385.937z"/>
			</g>
			<path style="fill:#55C7A6;" d="M407.171,317.885c-0.774-2.395-10.053,0.542-10.053,0.542c-0.595-7.36,2.393-14.916,13.884-13.796
				c0,0,6.222-14.417,22.284-8.675c-2.851,2.249-8.516,4.876-5.425,6.366c1.301,0.627,3.694-0.413,5.909-1.627
				c3.233-1.771,7.368-0.74,9.152,2.485c2.345,4.239,2.691,9.84,1.99,15.675c-3.166-0.647-12.048-3.053-12.919-0.828
				c-0.722,1.847,11.754,7.373,11.754,7.373c-0.358,1.556-0.765,3.098-1.203,4.607c0,0-6.005-5.913-7.341-4.264
				c-1.517,1.871,6.456,7.15,6.456,7.15c-2.973,9.192-6.718,16.464-6.718,16.464s-5.607-2.714-12.291-6.223
				c0,0,2.443-12.157-0.677-12.57c-2.711-0.358-3.408,10.395-3.408,10.395c-7.26-3.926-14.711-8.304-17.151-10.931
				c-0.013-0.014-0.025-0.027-0.038-0.041c-2.36-2.578-1.491-6.752,1.657-8.272C405.37,320.587,407.579,319.15,407.171,317.885z"/>
			<path style="fill:#96DBBF;" d="M345.526,359.942l-3.126,6.642c0.54,0.76,1.106,1.519,1.731,2.274
				c2.443,2.953,6.129,5.724,10.459,8.267l0,0c-0.096-5.594,2.146-10.975,6.185-14.846l0,0c0.931-0.892,2.456-0.645,3.058,0.495
				l0.546,1.034l0,0c0.83,4.035-4.431,8.064-3.973,12.644l0,0c0.248,2.487,1.793,4.671,4.077,5.688
				c3.744,1.666,7.618,3.184,11.369,4.534l1.067-7.61c0.282-2.011,2.802-2.754,4.129-1.217l0,0c0.429,0.496,0.632,1.149,0.561,1.801
				l0,0c-0.558,5.128,2.643,9.915,7.591,11.374c6.193,1.826,10.428,2.826,10.428,2.826s0.909-2.359,2.16-6.172
				c1.236-3.766-0.569-7.859-4.176-9.502l-3.469-1.581c-1.232-0.561-1.59-2.143-0.72-3.18l0,0c0.676-0.805,1.851-0.968,2.72-0.377
				l8.345,5.673c1.141-4.161,2.266-8.857,3.107-13.655c0,0-14.021-4.66-12.691-8.195c1.21-3.215,13.594,2.005,13.594,2.005
				c0.473-4.158,0.643-8.252,0.338-12.005c0,0-9.856-4.314-14.869-2.495l0,0c-0.672,0.323-1.477,0.153-1.959-0.415l0,0
				c-0.579-0.681-0.505-1.699,0.165-2.29v0c1.49-1.314,3.323-2.175,5.286-2.482l9.443-1.481c-2.214-6.581-5.649-11.527-9.616-15.101
				l-3.711,0.582c-3.964,0.621-7.137,3.619-7.981,7.542l0,0c-0.546,2.539-3.665,3.496-5.541,1.7l0,0
				c-1.355-1.296-1.368-3.456-0.03-4.769l0,0c3.608-3.541,8.053-6.113,12.922-7.477l0.91-0.255
				c-5.785-3.887-12.206-5.322-17.464-4.987c0,0-5.811,19.029-10.55,17.262c-3.522-1.314,2.476-14.832,2.476-14.832
				c-9.067,5.314-14.807,17.12-14.807,17.12c-13.149-2.33-21.672,12.25-13.756,27.778l4.165-5.654
				c1.588-2.156,4.077-3.465,6.754-3.552l2.52-0.082l-1.641,0.816C348.907,355.1,346.784,357.27,345.526,359.942z M389.839,364.291
				c0.359-1.163,2.395-1.567,4.547-0.902c2.152,0.665,3.605,2.147,3.246,3.31c-0.359,1.163-2.395,1.567-4.547,0.902
				C390.933,366.936,389.48,365.454,389.839,364.291z M370.895,366.338c1.064-0.904,2.373-1.109,2.925-0.46
				c0.552,0.65,0.137,1.909-0.927,2.812c-1.064,0.904-2.373,1.109-2.925,0.46C369.416,368.501,369.831,367.242,370.895,366.338z
				 M354.976,349.069c-1.394-0.065-2.485-0.958-2.436-1.993c0.049-1.035,1.218-1.822,2.612-1.756
				c1.394,0.065,2.485,0.958,2.436,1.993C357.539,348.349,356.37,349.135,354.976,349.069z"/>
			<path style="fill:#96DBBF;" d="M393.536,229.949l-7.369-3.592c-0.857,0.591-1.713,1.212-2.566,1.898
				c-3.335,2.683-6.485,6.756-9.391,11.552l0,0c6.248-0.022,12.222,2.563,16.482,7.133l0,0c0.982,1.053,0.682,2.752-0.599,3.407
				l-1.163,0.594l0,0c-4.518,0.865-8.936-5.071-14.058-4.63l0,0c-2.78,0.24-5.243,1.931-6.413,4.465
				c-1.918,4.155-3.672,8.458-5.236,12.625l8.481,1.307c2.242,0.345,3.032,3.17,1.296,4.629v0c-0.561,0.471-1.293,0.688-2.02,0.599
				l0,0c-5.718-0.702-11.112,2.799-12.816,8.302c-2.133,6.888-3.314,11.601-3.314,11.601s2.62,1.05,6.859,2.506
				c4.186,1.437,8.784-0.516,10.673-4.518l1.818-3.849c0.646-1.367,2.417-1.743,3.562-0.755l0,0c0.889,0.767,1.053,2.082,0.38,3.043
				l-6.461,9.232c4.629,1.337,9.855,2.666,15.2,3.678c0,0,5.417-15.584,9.344-14.045c3.572,1.4-2.446,15.148-2.446,15.148
				c4.636,0.591,9.204,0.844,13.399,0.561c0,0,4.967-10.94,3.013-16.565v0c-0.351-0.755-0.148-1.651,0.493-2.181l0,0
				c0.769-0.636,1.905-0.538,2.555,0.219l0,0c1.444,1.684,2.378,3.744,2.691,5.94l1.509,10.567
				c7.382-2.371,12.958-6.132,17.008-10.506l-0.593-4.152c-0.633-4.436-3.932-8.024-8.3-9.027l0,0
				c-2.826-0.649-3.847-4.145-1.814-6.213l0,0c1.468-1.493,3.88-1.475,5.325,0.039l0,0c3.899,4.083,6.703,9.086,8.152,14.542
				l0.271,1.021c4.429-6.401,6.129-13.548,5.835-19.424c0,0-21.159-6.779-19.113-12.043c1.521-3.913,16.523,2.991,16.523,2.991
				c-5.796-10.205-18.89-16.795-18.89-16.795c2.802-14.646-13.347-24.386-30.806-15.784l6.249,4.737
				c2.383,1.807,3.806,4.606,3.862,7.595l0.053,2.815l-0.886-1.844C398.891,233.798,396.501,231.394,393.536,229.949z
				 M388.003,279.362c1.293,0.419,1.713,2.698,0.938,5.091c-0.775,2.393-2.452,3.993-3.745,3.574
				c-1.293-0.419-1.713-2.698-0.938-5.091C385.033,280.543,386.71,278.943,388.003,279.362z M386.006,258.178
				c0.993,1.201,1.203,2.667,0.469,3.273c-0.734,0.606-2.133,0.124-3.126-1.078c-0.993-1.201-1.203-2.667-0.469-3.273
				C383.614,256.494,385.014,256.977,386.006,258.178z M405.532,240.667c0.094-1.556,1.107-2.76,2.263-2.69
				c1.155,0.07,2.015,1.388,1.921,2.944c-0.094,1.556-1.107,2.76-2.263,2.69C406.297,243.54,405.437,242.222,405.532,240.667z"/>
			<g>
				<path style="fill:#55C7A6;" d="M384.473,272.607c2.013-3.764,4.351-7.359,6.871-10.825c2.524-3.465,5.284-6.773,8.287-9.877
					c3.014-3.092,6.287-5.969,9.882-8.472c1.797-1.252,3.688-2.383,5.642-3.421c1.967-1.015,4.02-1.887,6.136-2.627
					c1.017-0.356,2.13,0.18,2.486,1.197c0.356,1.017-0.18,2.13-1.197,2.486c-0.045,0.016-0.09,0.03-0.135,0.042l-0.043,0.012
					c-1.957,0.524-3.895,1.173-5.787,1.973c-1.881,0.824-3.734,1.745-5.525,2.8c-3.582,2.108-6.952,4.635-10.113,7.421
					c-3.153,2.797-6.115,5.839-8.868,9.071C389.358,265.619,386.765,269.009,384.473,272.607z"/>
			</g>
		</g>
		<path style="fill:#96DBBF;" d="M126.838,325.397l-1.102,7.809c0.795,0.609,1.617,1.208,2.498,1.785
			c3.444,2.257,8.105,3.932,13.356,5.169l0,0c-1.872-5.711-1.278-11.945,1.641-17.199l0,0c0.673-1.21,2.316-1.441,3.296-0.462
			l0.888,0.888l0,0c2.131,3.878-1.991,9.682-0.069,14.238l0,0c1.044,2.474,3.322,4.226,5.988,4.545
			c4.371,0.523,8.829,0.852,13.106,1.049l-1.318-8.149c-0.348-2.154,2.002-3.715,3.852-2.559l0,0
			c0.598,0.374,1.013,0.979,1.147,1.671l0,0c1.053,5.441,5.856,9.339,11.398,9.267c6.936-0.09,11.599-0.406,11.599-0.406
			s0.185-2.709,0.26-7.02c0.074-4.257-3.076-7.885-7.299-8.428l-4.062-0.522c-1.443-0.185-2.312-1.695-1.747-3.036l0,0
			c0.438-1.041,1.593-1.581,2.672-1.25l10.364,3.176c-0.149-4.633-0.482-9.81-1.141-15.001c0,0-15.868-0.337-15.624-4.387
			c0.222-3.684,14.588-2.253,14.588-2.253c-0.833-4.418-1.957-8.673-3.459-12.429c0,0-11.484-1.302-16.053,2.154l0,0
			c-0.587,0.545-1.467,0.625-2.143,0.195l0,0c-0.81-0.515-1.057-1.584-0.557-2.403l0,0c1.113-1.821,2.722-3.286,4.638-4.224
			l9.223-4.514c-4.359-6.053-9.453-10.04-14.658-12.45l-3.624,1.774c-3.872,1.895-6.177,5.978-5.8,10.272l0,0
			c0.244,2.779-2.653,4.75-5.148,3.502l0,0c-1.801-0.901-2.5-3.113-1.543-4.885l0,0c2.581-4.779,6.327-8.828,10.892-11.772
			l0.854-0.551c-7.171-2.155-14.215-1.592-19.506,0.418c0,0,0.069,21.374-5.355,21.063c-4.032-0.232-2.161-16.008-2.161-16.008
			c-7.621,8.33-9.77,22.267-9.77,22.267c-14.235,1.778-18.359,19.445-5.311,32.872l2.482-7.124c0.947-2.716,3.086-4.849,5.806-5.787
			l2.561-0.883l-1.425,1.357C128.773,319.355,127.282,322.255,126.838,325.397z M173.699,315.81c0-1.308,1.961-2.368,4.381-2.368
			c2.419,0,4.381,1.06,4.381,2.368c0,1.308-1.961,2.368-4.381,2.368C175.661,318.178,173.699,317.117,173.699,315.81z
			 M154.905,323.918c0.805-1.265,2.084-1.891,2.856-1.4s0.745,1.915-0.06,3.18c-0.805,1.265-2.084,1.891-2.856,1.4
			C154.073,326.606,154.099,325.183,154.905,323.918z M133.089,311.241c-1.452,0.375-2.854-0.195-3.132-1.273
			c-0.279-1.078,0.673-2.256,2.124-2.631s2.854,0.195,3.133,1.273C135.492,309.689,134.541,310.866,133.089,311.241z"/>
		<g>
			<path style="fill:#39AE96;" d="M61.143,305.843c0.707-3.634,1.729-7.21,2.93-10.727c1.212-3.515,2.654-6.96,4.334-10.309
				c1.712-3.333,3.72-6.53,6.022-9.55c2.357-2.983,5.107-5.686,8.21-8.032c0.746-0.564,1.807-0.417,2.371,0.329
				s0.416,1.807-0.329,2.371c-0.033,0.025-0.066,0.048-0.099,0.07l-0.066,0.043c-2.954,1.907-5.705,4.205-8.15,6.857
				c-2.395,2.692-4.57,5.621-6.483,8.738c-1.882,3.134-3.559,6.41-5.021,9.79C63.411,298.805,62.124,302.276,61.143,305.843z"/>
		</g>
		<path style="fill:#DC1428;" d="M92.181,272.778H74.51c-2.954,0-5.349-2.395-5.349-5.349v-59.736c0-2.954,2.395-5.349,5.349-5.349
			h17.671c2.954,0,5.349,2.395,5.349,5.349v59.736C97.53,270.383,95.135,272.778,92.181,272.778z"/>
		<g>
			<rect x="169.492" y="124.725" style="fill:#C8A06E;" width="7.49" height="26.365"/>
			<rect x="169.492" y="124.725" style="fill:#DCBE82;" width="4.737" height="26.365"/>
			<rect x="238.166" y="124.725" style="fill:#C8A06E;" width="7.49" height="26.365"/>
			<rect x="238.166" y="124.725" style="fill:#DCBE82;" width="4.738" height="26.365"/>
			<rect x="107.818" y="152.426" style="fill:#FFD00B;" width="152.063" height="242.32"/>
			<rect x="107.818" y="152.426" style="fill:#FA870A;" width="152.063" height="10.408"/>
			
				<rect x="259.882" y="152.426" transform="matrix(-1 -1.224647e-16 1.224647e-16 -1 621.1105 547.1728)" style="fill:#FA870A;" width="101.347" height="242.32"/>
			<rect x="98.008" y="144.847" style="fill:#FFFFFF;" width="173.601" height="12.484"/>
			
				<rect x="271.609" y="144.847" transform="matrix(-1 -1.224647e-16 1.224647e-16 -1 639.2503 302.179)" style="fill:#97F4EC;" width="96.032" height="12.484"/>
			<rect x="98.008" y="253.744" style="fill:#FFFFFF;" width="173.601" height="12.484"/>
			
				<rect x="271.609" y="253.744" transform="matrix(-1 -1.224647e-16 1.224647e-16 -1 639.2503 519.9726)" style="fill:#97F4EC;" width="96.032" height="12.484"/>
			<g>
				<rect x="123.024" y="175.342" style="fill:#97F4EC;" width="121.356" height="69.702"/>
				<polygon style="fill:#78E9E1;" points="123.024,175.342 123.024,182.188 234.423,182.188 234.423,245.044 244.38,245.044 
					244.38,175.342 				"/>
				<linearGradient id="SVGID_1_" gradientUnits="userSpaceOnUse" x1="123.024" y1="210.1931" x2="187.4233" y2="210.1931">
					<stop  offset="0" style="stop-color:#FFFFFF"/>
					<stop  offset="1" style="stop-color:#FFFFFF;stop-opacity:0"/>
				</linearGradient>
				<polygon style="fill:url(#SVGID_1_);" points="149.162,245.044 123.024,245.044 161.285,175.342 187.423,175.342 				"/>
				
					<linearGradient id="SVGID_00000052067577527743351090000009716483179833926554_" gradientUnits="userSpaceOnUse" x1="158.3419" y1="210.1931" x2="208.0254" y2="210.1931">
					<stop  offset="0" style="stop-color:#FFFFFF"/>
					<stop  offset="1" style="stop-color:#FFFFFF;stop-opacity:0"/>
				</linearGradient>
				<polygon style="fill:url(#SVGID_00000052067577527743351090000009716483179833926554_);" points="169.764,245.044 
					158.342,245.044 196.603,175.342 208.025,175.342 				"/>
				
					<rect x="123.024" y="175.342" style="fill:none;stroke:#FFFFFF;stroke-width:2.9432;stroke-miterlimit:10;" width="121.356" height="69.702"/>
				
					<line style="fill:none;stroke:#FFFFFF;stroke-width:2.9432;stroke-miterlimit:10;" x1="123.024" y1="210.193" x2="244.38" y2="210.193"/>
				
					<line style="fill:none;stroke:#FFFFFF;stroke-width:2.9432;stroke-miterlimit:10;" x1="161.968" y1="175.342" x2="161.968" y2="245.044"/>
				
					<line style="fill:none;stroke:#FFFFFF;stroke-width:2.9432;stroke-miterlimit:10;" x1="205.173" y1="175.342" x2="205.173" y2="245.044"/>
			</g>
			<g>
				<rect x="123.024" y="299.936" style="fill:#97F4EC;" width="121.356" height="93.731"/>
				<polygon style="fill:#78E9E1;" points="123.024,299.936 123.024,306.781 234.423,306.781 234.423,394.164 244.38,394.164 
					244.38,299.936 				"/>
				
					<linearGradient id="SVGID_00000080204403603250934000000004915086254719088792_" gradientUnits="userSpaceOnUse" x1="123.024" y1="346.2091" x2="187.4233" y2="346.2091">
					<stop  offset="0" style="stop-color:#FFFFFF"/>
					<stop  offset="1" style="stop-color:#FFFFFF;stop-opacity:0"/>
				</linearGradient>
				<polygon style="fill:url(#SVGID_00000080204403603250934000000004915086254719088792_);" points="123.024,392.483 
					136.759,392.483 187.423,299.936 161.285,299.936 123.024,369.826 				"/>
				
					<linearGradient id="SVGID_00000047051958037609222460000017680571218985826192_" gradientUnits="userSpaceOnUse" x1="145.9383" y1="346.2091" x2="208.0254" y2="346.2091">
					<stop  offset="0" style="stop-color:#FFFFFF"/>
					<stop  offset="1" style="stop-color:#FFFFFF;stop-opacity:0"/>
				</linearGradient>
				<polygon style="fill:url(#SVGID_00000047051958037609222460000017680571218985826192_);" points="157.361,392.483 
					145.938,392.483 196.603,299.936 208.025,299.936 				"/>
				
					<rect x="123.024" y="299.936" style="fill:none;stroke:#FFFFFF;stroke-width:2.9432;stroke-miterlimit:10;" width="121.356" height="93.731"/>
				
					<line style="fill:none;stroke:#FFFFFF;stroke-width:2.9432;stroke-miterlimit:10;" x1="201.231" y1="299.936" x2="201.231" y2="394.164"/>
				<polyline style="fill:none;stroke:#FFFFFF;stroke-width:2.9432;stroke-miterlimit:10;" points="201.231,349.909 
					211.707,349.909 211.707,354.887 				"/>
				<path style="fill:#78E9E1;" d="M233.587,338.443h-22.911c-0.462,0-0.836-0.374-0.836-0.836v-9.531
					c0-0.461,0.374-0.836,0.836-0.836h22.911c0.462,0,0.836,0.374,0.836,0.836v9.531
					C234.423,338.069,234.049,338.443,233.587,338.443z"/>
				<path style="fill:#FFFFFF;" d="M233.225,337.462h-22.187c-0.661,0-1.198-0.536-1.198-1.198v-8.807
					c0-0.661,0.536-1.198,1.198-1.198h22.187c0.661,0,1.198,0.536,1.198,1.198v8.807
					C234.423,336.925,233.887,337.462,233.225,337.462z"/>
				
					<text transform="matrix(1 0 0 1 212.29 334.6152)" style="fill:#41A0D7; font-family:'BreeSerif-Regular'; font-size:7.8484px;">OPEN</text>
			</g>
			<g>
				<circle style="fill:#FFFFFF;" cx="101.415" cy="301.967" r="7.833"/>
				<circle style="fill:#FA2D14;" cx="117.08" cy="301.967" r="7.833"/>
				<circle style="fill:#FFFFFF;" cx="132.698" cy="301.967" r="7.833"/>
				<circle style="fill:#FA2D14;" cx="148.364" cy="301.967" r="7.833"/>
				<circle style="fill:#FFFFFF;" cx="164.029" cy="301.967" r="7.833"/>
				<circle style="fill:#FA2D14;" cx="179.695" cy="301.967" r="7.833"/>
				<circle style="fill:#FFFFFF;" cx="195.36" cy="301.967" r="7.833"/>
				<circle style="fill:#FA2D14;" cx="211.026" cy="301.967" r="7.833"/>
				<path style="fill:#FA2D14;" d="M93.606,301.967h30.343v-30.343C107.191,271.624,93.606,285.209,93.606,301.967z"/>
				<rect x="123.949" y="271.624" style="fill:#FA2D14;" width="125.276" height="30.343"/>
				<path style="fill:#FFFFFF;" d="M109.247,301.967h30.343l15.105-30.343h-15.105C122.833,271.624,109.247,285.209,109.247,301.967
					z"/>
				<path style="fill:#FA2D14;" d="M124.913,301.967h30.343v-30.343C138.498,271.624,124.913,285.209,124.913,301.967z"/>
				<path style="fill:#FFFFFF;" d="M140.533,301.967h30.343l15.688-30.343h-15.688C154.118,271.624,140.533,285.209,140.533,301.967
					z"/>
				<path style="fill:#FA2D14;" d="M156.22,301.967h30.343v-30.343C169.805,271.624,156.22,285.209,156.22,301.967z"/>
				<path style="fill:#FFFFFF;" d="M171.888,301.967h30.343l15.663-30.343h-15.663C185.474,271.624,171.888,285.209,171.888,301.967
					z"/>
				<path style="fill:#FA2D14;" d="M187.551,301.967h30.343v-30.343C201.136,271.624,187.551,285.209,187.551,301.967z"/>
				<path style="fill:#FFFFFF;" d="M203.193,301.967h30.343l15.689-30.343h-15.689C216.778,271.624,203.193,285.209,203.193,301.967
					z"/>
				<path style="fill:#DC1428;" d="M218.882,301.967h30.343v-30.343C232.467,271.624,218.882,285.209,218.882,301.967z"/>
			</g>
			<rect x="112.859" y="242.555" style="fill:#FFFFFF;" width="133.181" height="5.599"/>
			<g>
				<path style="fill:#DC1428;" d="M251.111,130.119h-92.028c-2.984,0-5.402-2.419-5.402-5.402V83.022
					c0-2.984,2.419-5.402,5.402-5.402h92.028c2.984,0,5.402,2.419,5.402,5.402v41.694
					C256.514,127.7,254.095,130.119,251.111,130.119z"/>
				<path style="fill:#FA2D14;" d="M246.893,130.119h-92.028c-2.984,0-5.402-2.419-5.402-5.402V83.022
					c0-2.984,2.419-5.402,5.402-5.402h92.028c2.984,0,5.402,2.419,5.402,5.402v41.694
					C252.295,127.7,249.877,130.119,246.893,130.119z"/>
				
					<text transform="matrix(0.8599 0 0 1 163.6719 114.4253)" style="fill:#FFFFFF; font-family:'BreeSerif-Regular'; font-size:35.5244px;">SHOP</text>
			</g>
		</g>
		<path style="fill:#FA2D14;" d="M88.256,272.778H70.585c-2.954,0-5.349-2.395-5.349-5.349v-59.736c0-2.954,2.395-5.349,5.349-5.349
			h17.671c2.954,0,5.349,2.395,5.349,5.349v59.736C93.606,270.383,91.211,272.778,88.256,272.778z"/>
		
			<text transform="matrix(1 0 0 1 80.0264 207.6382)" style="fill:#FFFFFF; font-family:'BreeSerif-Regular'; font-size:14.7158px;glyph-orientation-vertical:0;writing-mode:tb;">OPEN</text>
	</g>
	<g>
		<path style="fill:#281923;" d="M323.031,225.853c0,0-0.665,8.438-2.766,13.282c-2.1,4.844,1.556,9.405,5.134,7.513
			c3.579-1.891,13.008-3.899,20.865-1.786c7.857,2.112,14.143-8.297,8.713-12.264c-5.43-3.967-10.177-2.084-13.88-12.111
			C339.147,215.205,324.283,217.538,323.031,225.853z"/>
		<path style="fill:#DC1428;" d="M322.517,273.499c0,0,12.642-13.991,13.536-20.222c1.314-9.162-6.441-13.972-13.37-5.181
			c-6.929,8.791-19.125,32.472-16.922,34.674C310.114,287.121,322.517,273.499,322.517,273.499z"/>
		<path style="fill:#FFB49B;" d="M286.574,288.808l-1.883,0.883c-1.065,0.499-2.277,0.589-3.403,0.245
			c-1.296-0.395-2.916-0.806-3.24-0.509c-0.453,0.416,1.822,1.373,1.782,1.77c-0.057,0.568-4.772,1.596-4.49,2.386
			c0.206,0.575,4.148-0.64,4.148-0.64s-2.142,0.948-1.917,1.505c0.404,0.999,2.595-0.42,2.595-0.42s-2.575,1.163-2.187,1.726
			c0.389,0.563,2.554-0.663,2.554-0.663s-2.741,1.487-2.429,1.981c0.313,0.494,4.499-1.951,4.499-1.951l5.403-3.46L286.574,288.808z
			"/>
		<path style="fill:#281923;" d="M342.46,225.806c0,5.716-4.276,10.35-9.55,10.35c-5.275,0-9.55-4.634-9.55-10.35
			c0-14.509,4.276-10.35,9.55-10.35C338.184,215.456,342.46,220.09,342.46,225.806z"/>
		<path style="fill:#281923;" d="M342.46,225.806c0,5.716-4.276,10.35-9.55,10.35c-5.275,0-9.55-4.634-9.55-10.35
			c0-14.509,4.276-10.35,9.55-10.35C338.184,215.456,342.46,220.09,342.46,225.806z"/>
		<path style="fill:#FA2D14;" d="M333.054,297.77c0,0-14.622-22.459-13.101-32.524c0.938-6.205,0.788-22.568,12.714-23.14
			c7.953-0.382,19.958-0.028,20.369,15.292c0.104,3.884-1.163,9.079-2.443,13.27c-1.482,4.854-0.986,10.095,1.425,14.561
			l2.491,4.615C353.02,293.637,341.674,301.936,333.054,297.77z"/>
		<path style="fill:#FFA587;" d="M334.389,248.656L334.389,248.656c2.305-0.111,4.083-2.069,3.972-4.373l-1.674-13.769l-4.299,0.402
			l-2.221,12.895c-0.184,1.066-0.018,2.196,0.607,3.08C331.569,248.018,332.907,248.727,334.389,248.656z"/>
		<path style="fill:#F5876E;" d="M337.283,235.426l-0.591-4.864l-1.081,0.052l-3.224,0.301l-1.838,10.671
			c0.052-0.001,0.102,0.008,0.154,0.006l0,0C333.766,241.444,336.264,238.582,337.283,235.426z"/>
		<path style="fill:#FFB49B;" d="M329.569,239.439L329.569,239.439c3.653-0.176,9.238-4.952,9.062-8.605
			c0,0,0.346-5.617-0.767-7.294c-1.932-2.912-9.762-3.953-12.137-2.192c-2.072,1.537-1.221,10.247-1.221,10.247
			C324.682,235.248,327.972,239.516,329.569,239.439z"/>
		<path style="fill:#FFA587;" d="M337.865,223.54c-0.498-0.75-1.391-1.374-2.478-1.86c0.063,0.48,0.138,0.962,0.209,1.443
			c0.016,0.096,0.039,0.192,0.053,0.288c0.018,0.123,0.027,0.246,0.042,0.369c0.127,0.849,0.249,1.708,0.337,2.602
			c0.257,2.605-0.075,5.186-1.209,7.561c-1.089,2.281-3.568,4.057-6.106,4.205c-0.426,0.025-0.857-0.012-1.287-0.073
			c0.784,0.857,1.572,1.391,2.143,1.364c3.653-0.176,9.238-4.952,9.062-8.605C338.631,230.834,338.977,225.217,337.865,223.54z"/>
		<path style="fill:#FFA587;" d="M340.384,228.567c0.057,1.178-1.134,2.193-2.659,2.267l-0.205-4.268
			C339.044,226.493,340.327,227.389,340.384,228.567z"/>
		<path style="fill:#FA2D14;" d="M323.784,247.809c0,0-8.791,16.992-7.027,21.804c1.764,4.812,12.595,3.493,12.595,3.493
			L323.784,247.809z"/>
		<path style="fill:#FFA587;" d="M344.422,243.331c0,3.577-8.139,10.69-12.264,10.69c-4.125,0-7.468-2.9-7.468-6.478
			s5.741-5.946,9.866-5.946C342.133,241.597,344.422,243.331,344.422,243.331z"/>
		<path style="fill:#F5876E;" d="M333.26,246.693c0,0,0.918-2.052,1.783-1.812c0.864,0.241,4.714,0.401,4.714,0.401
			s-3.916,0.337-4.565,0.89C334.543,246.726,333.019,247.164,333.26,246.693z"/>
		<path style="fill:#F5876E;" d="M331.186,246.693c0,0-0.918-2.052-1.783-1.812c-0.864,0.241-3.949,0.478-3.949,0.478
			s3.152,0.26,3.8,0.813C329.903,246.726,331.427,247.164,331.186,246.693z"/>
		<path style="fill:#F5876E;" d="M338.682,227.443c0,0,0.733,0.691,0.573,1.255c-0.16,0.563-0.656,1.098-0.89,0.884
			c-0.233-0.214-0.149-0.247,0.317-0.884C339.148,228.061,338.682,227.443,338.682,227.443z"/>
		<path style="fill:#DC1428;" d="M320.007,272.399c0,0,5.564-1.52,8.77-0.808c1.925,0.428,4.322,1.524,5.929,2.332
			c1.494,0.751,0.463,3.09-1.068,2.418c-0.185-0.081-0.38-0.189-0.585-0.328c-2.2-1.493-6.579-3.226-12.909-2.399L320.007,272.399z"
			/>
		<path style="fill:#FFB49B;" d="M394.219,260.838l1.776-1.083c1.005-0.612,1.748-1.573,2.084-2.701
			c0.386-1.298,0.938-2.876,1.366-2.982c0.597-0.148,0.138,2.277,0.491,2.463c0.505,0.266,3.966-3.097,4.469-2.425
			c0.366,0.489-2.825,3.104-2.825,3.104s1.441-0.91,1.781-0.415c0.61,0.889-1.251,1.579-1.251,1.579s1.541-1.009,1.796-0.374
			c0.255,0.635-1.785,1.151-1.785,1.151s2.091-0.518,2.33,0.015c0.239,0.533-2.775,1.842-2.775,1.842l-5.868,2.593L394.219,260.838z
			"/>
		<path style="fill:#FFB49B;" d="M372.056,278.071c5.231-0.732,18.484-9.881,18.484-9.881s0.316-0.22,0.838-0.602l0,0l6.179-4.755
			l-2.204-2.687c0,0-20.563,5.447-25.645,8.572C361.524,273.752,364.364,279.147,372.056,278.071z"/>
		<path style="fill:#281923;" d="M337.134,219.53c-2.745-0.855-12.801-0.535-12.801-0.535s1.822,3.398,6.216,5.561
			c1.203,0.592,2.658,1.013,4.053,1.311c1.44,0.308,2.586,1.396,2.916,2.831l0,0l0.055-0.362c0.162-1.064,1.107-1.828,2.182-1.774h0
			C339.756,226.562,339.879,220.386,337.134,219.53z"/>
		<g>
			<path style="fill:#FFB49B;" d="M349.505,408.54c0,0-0.16,4.064,0,6.363c0.16,2.299,0.962,3.957,0.214,4.812
				c-0.749,0.855-3.529-1.016-7.432,0.855c-1.919,0.92-5.019,0.361-5.454,0c-1.137-0.945,2.192-2.139,3.957-2.246
				c1.764-0.107,4.759-4.224,5.454-9.464L349.505,408.54z"/>
			<path style="fill:#281923;" d="M349.712,414.572c-0.842,1.551-2.412,2.689-4.715,2.689c-0.888,0-1.665-0.171-2.336-0.466
				c-0.789,0.897-1.574,1.433-2.209,1.471c-1.875,0.114-5.414,1.382-4.205,2.387c0.462,0.384,3.859,1.191,5.9,0.213
				c4.148-1.989,7-0.213,7.795-1.123c0.796-0.909-0.057-2.671-0.227-5.114C349.714,414.611,349.714,414.59,349.712,414.572z"/>
			<path style="fill:#FFB49B;" d="M334.23,339.588c-2.401,0.065-0.622,7.779,1.221,17.367c4.28,20.027,11.375,31.901,10.74,52.257
				c0.067,0.3,3.223,1.613,3.259,1.272c4.036-20.666,7.238-41.205,3.622-54.769C348.129,335.854,339.698,339.441,334.23,339.588z"/>
			<rect x="345.61" y="418.649" style="fill:#281923;" width="4.668" height="2.217"/>
		</g>
		<g>
			<path style="fill:#FFB49B;" d="M414.84,366.686c0,0,3.277,2.408,5.272,3.562c1.995,1.154,3.817,1.418,4.107,2.517
				c0.29,1.099-2.817,2.355-3.452,6.637c-0.312,2.106-2.51,4.361-3.053,4.519c-1.42,0.413-0.545-3.014,0.354-4.536
				c0.899-1.522-0.836-6.308-4.789-9.817L414.84,366.686z"/>
			<path style="fill:#281923;" d="M419.954,369.891c0.814,1.566,0.877,3.504-0.412,5.412c-0.497,0.736-1.073,1.284-1.693,1.674
				c0.301,1.156,0.306,2.106-0.017,2.654c-0.956,1.617-1.885,5.26-0.376,4.82c0.577-0.168,3.148-2.531,3.479-4.769
				c0.674-4.551,3.742-5.919,3.434-7.088c-0.308-1.168-2.245-1.448-4.365-2.675C419.987,369.911,419.97,369.9,419.954,369.891z"/>
			<path style="fill:#FFB49B;" d="M359.625,338.099c-1.291,2.026-1.578,7.303,4.603,11.355c18.991,7.665,32.802,8.433,49.314,20.354
				c0.286,0.113,3.141-1.768,2.879-1.989c-14.865-14.914-30.092-29.065-43.355-33.661
				C365.087,332.436,362.564,333.485,359.625,338.099z"/>
			
				<rect x="420.927" y="373.151" transform="matrix(0.5598 -0.8286 0.8286 0.5598 -123.8035 515.4697)" style="fill:#281923;" width="4.668" height="2.217"/>
		</g>
		<path style="fill:#DC1428;" d="M353.035,257.398c-0.1-3.724-0.894-6.549-2.14-8.707c0.388,4.892,3.422,6.672,2.027,11.378
			c-1.154,3.892-6.681,10.705-8.057,14.515c-1.099,3.043-2.307,6.728-1.437,9.82c0.387,1.374,1.267,2.426,2.631,3.186
			c1.84,1.025,3.82,1.786,5.839,2.376c0.72,0.211,1.457,0.402,2.203,0.569c0.177-0.247,0.325-0.482,0.407-0.69l-2.491-4.615
			c-2.41-4.466-2.907-9.707-1.425-14.561C351.872,266.477,353.139,261.282,353.035,257.398z"/>
		<path style="fill:#FA2D14;" d="M324.793,280.751c0,0-6.419,24.223-2.879,48.126c3.54,23.903,7.455,23.903,7.455,23.903
			s50.021-5.694,57.904-23.903c7.883-18.209-25.905-49.572-41.995-49.76C329.189,278.929,324.793,280.751,324.793,280.751z"/>
		<path style="fill:#FA2D14;" d="M363.31,260.225c0,0-11.91-14.683-17.961-16.418c-0.183-0.053-0.366-0.096-0.549-0.138v18.667
			c9.51,8.014,23.195,17.295,25.16,15.847C374.916,274.532,363.31,260.225,363.31,260.225z"/>
		<path style="fill:#FFB49B;" d="M313.166,281.627c-3.738,3.732-26.264,10.741-26.264,10.741l-1.402-3.107
			c0,0,17.235-14.785,22.967-16.44C310.72,272.17,315.692,279.103,313.166,281.627z"/>
		<g>
			<path style="fill:#49999D;" d="M420.151,270.481l-17-1.11c-2.695-0.176-4.736-2.503-4.56-5.198l0.439-6.719
				c0.176-2.695,2.503-4.736,5.197-4.56l16.999,1.11L420.151,270.481z M401.593,263.361c-0.051,0.781,0.211,1.551,0.727,2.14
				c0.517,0.589,1.246,0.948,2.027,0.999l13.058,0.852l0.692-10.603l-13.057-0.852c-1.627-0.106-3.033,1.127-3.139,2.754
				L401.593,263.361z"/>
		</g>
		<path style="fill:#54B5B7;" d="M448.708,249.127l-1.943,29.76c-0.069,1.053-0.978,1.85-2.03,1.782l-34.175-2.231
			c-1.053-0.069-1.85-0.978-1.782-2.03l1.943-29.76c0.069-1.053,0.978-1.85,2.03-1.781l34.175,2.231
			C447.979,247.166,448.776,248.075,448.708,249.127z"/>
		<g>
			<path style="fill:#97F4EC;" d="M408.936,262.155c-2.085,1.716-5.166,1.417-6.882-0.668l-4.279-5.199
				c-1.716-2.085-1.417-5.167,0.669-6.882l13.154-10.825l10.492,12.75L408.936,262.155z M401.091,251.038
				c-1.259,1.036-1.44,2.897-0.404,4.156l3,3.645c1.036,1.259,2.897,1.44,4.156,0.404l10.104-8.315l-6.751-8.205L401.091,251.038z"
				/>
		</g>
		<g>
			<path style="fill:#49999D;" d="M256.514,296.022l13.518-10.368c2.143-1.643,5.212-1.239,6.855,0.904l4.098,5.343
				c1.643,2.143,1.239,5.212-0.904,6.855l-13.517,10.367L256.514,296.022z M275.164,289.148c-0.477-0.621-1.181-1.028-1.957-1.13
				c-0.776-0.102-1.562,0.108-2.183,0.585l-10.383,7.964l6.467,8.431l10.382-7.964c1.294-0.992,1.538-2.846,0.546-4.14
				L275.164,289.148z"/>
		</g>
		<path style="fill:#54B5B7;" d="M249.106,330.902l-18.151-23.664c-0.642-0.837-0.484-2.036,0.353-2.678l27.175-20.843
			c0.837-0.642,2.036-0.484,2.678,0.353l18.151,23.664c0.642,0.837,0.484,2.036-0.353,2.678l-27.175,20.843
			C250.947,331.897,249.748,331.739,249.106,330.902z"/>
		<g>
			<path style="fill:#97F4EC;" d="M270.436,294.894c0.438-2.665,2.952-4.47,5.617-4.033l6.645,1.091
				c2.665,0.438,4.47,2.952,4.033,5.617l-2.761,16.81l-16.294-2.676L270.436,294.894z M283.662,298.086
				c0.264-1.609-0.826-3.128-2.435-3.392l-4.658-0.765c-1.609-0.264-3.128,0.826-3.392,2.435l-2.12,12.912l10.485,1.723
				L283.662,298.086z"/>
		</g>
		<path style="fill:#FFB49B;" d="M403.03,258.814c0,0-1.971,0.588-1.66,1.102c0.311,0.514,2.519-0.047,3.092-0.416
			C405.036,259.13,404.69,258.391,403.03,258.814z"/>
		<path style="fill:#FFB49B;" d="M402.698,257.645c0,0-1.969,0.715-1.658,1.229c0.311,0.514,2.519-0.047,3.092-0.416
			C404.705,258.089,404.358,257.223,402.698,257.645z"/>
		<path style="fill:#FFB49B;" d="M402.467,256.517c0,0-2.083,0.224-1.903,0.798c0.18,0.573,2.457,0.555,3.102,0.334
			C404.31,257.427,404.179,256.503,402.467,256.517z"/>
		<path style="fill:#FFB49B;" d="M399.395,256.928c0,0,0.509-2.032-0.091-2.061c-0.6-0.029-1.37,2.114-1.385,2.795
			C397.904,258.344,398.816,258.54,399.395,256.928z"/>
		<path style="fill:#FFB49B;" d="M280.431,289.879c0,0-2.241-1.914-2.729-1.576c-0.488,0.338,1.106,2.209,2.902,2.804
			C282.4,291.702,280.431,289.879,280.431,289.879z"/>
		<path style="fill:#FFB49B;" d="M279.797,294.459c0,0-1.529,0.474-1.935,0.672c-0.836,0.408-0.341,1.294,1.011,0.904
			C280.226,295.646,281.499,294.311,279.797,294.459z"/>
		<path style="fill:#FFB49B;" d="M278.873,293.265c0,0-1.394,0.788-1.748,1.068c-0.73,0.577-0.058,1.337,1.18,0.669
			C279.544,294.334,280.505,292.76,278.873,293.265z"/>
		<path style="fill:#FFB49B;" d="M279.233,295.917c0,0-1.342,0.2-1.707,0.313c-0.753,0.234-0.453,1.04,0.73,0.888
			C279.439,296.967,280.677,296.014,279.233,295.917z"/>
		<path style="fill:#FFFFFF;" d="M435.46,210.395l18.881,22.944c0.69,0.838,0.569,2.076-0.269,2.766l-33.488,27.557
			c-0.838,0.689-2.076,0.569-2.766-0.269l-18.881-22.944c-0.689-0.838-0.569-2.076,0.269-2.766l33.488-27.557
			C433.533,209.436,434.771,209.557,435.46,210.395z"/>
		<path style="fill:#FFFFFF;" d="M284.595,351.305l-29.322-4.815c-1.071-0.176-1.796-1.186-1.62-2.257l7.028-42.795
			c0.176-1.071,1.186-1.796,2.257-1.62l29.322,4.815c1.071,0.176,1.796,1.186,1.62,2.257l-7.028,42.795
			C286.676,350.755,285.665,351.48,284.595,351.305z"/>
	</g>
</g>
</svg>
