<?xml version="1.0" encoding="utf-8"?>
<!-- Generator: Adobe Illustrator 27.5.0, SVG Export Plug-In . SVG Version: 6.00 Build 0)  -->
<svg version="1.1" id="Capa_1" xmlns="http://www.w3.org/2000/svg" xmlns:xlink="http://www.w3.org/1999/xlink" x="0px" y="0px"
	 viewBox="0 0 2122 2122" style="enable-background:new 0 0 2122 2122;" xml:space="preserve" >
<g id="BACKGROUND">
	<rect style="fill:#E1E1E1;" width="750" height="500"/>
</g>
<g>
	<path style="fill:#E1E1E1;" d="M571.563,1048.03c12.541-31.41,3.191-55.995,6.646-87.23c-6.276,56.772-42.329,103.654-78.816,144.516
		c-36.492,40.862-76.302,81.593-93.817,135.462c-9.033,27.8-11.513,57.566-12.136,87.132
		c21.793-75.866,73.227-141.942,127.98-202.782C541.707,1102.581,559.923,1077.202,571.563,1048.03z"/>
	<polygon style="fill:#E1E1E1;" points="955.441,739.641 955.46,739.658 955.45,739.634 955.441,739.634 	"/>
	<path style="fill:#E1E1E1;" d="M859.831,1336.673c-33.477,23.443-70.921,48.476-105.418,70.711
		C788.914,1385.149,826.358,1360.117,859.831,1336.673L859.831,1336.673z"/>
	<polygon style="fill:#E1E1E1;" points="1197.813,811.358 1197.891,811.353 1197.721,811.353 	"/>
	<path style="fill:#E1E1E1;" d="M1123.298,435.368c-0.004-0.002-0.009-0.004-0.012-0.005c-70.378,10.764-140.474,22.947-210.544,32.503
		C982.812,458.317,1052.915,446.132,1123.298,435.368z"/>
	<path style="fill:#E1E1E1;" d="M710.123,1435.386C710.123,1435.387,710.123,1435.387,710.123,1435.386
		c6.758-4.181,13.795-8.581,21.079-13.185C723.922,1426.802,716.879,1431.206,710.123,1435.386z"/>
	<path style="fill:#E1E1E1;" d="M1630.792,662.591c-0.005-36.908-11.371-72.288-38.783-97.915c9.551,12.94,13.205,30.615,13.205,49.912
		c-0.005,41.121-16.229,89.52-26.475,114.604c-13.384,32.758-29.238,64.667-36.468,99.535c-2.149,10.338-3.133,20.341-3.138,30.048
		c0.005,29.304,9.08,55.908,22.689,80.866c-2.144-11.054-3.328-22.315-3.328-33.602c-0.005-7.688,0.521-15.381,1.608-23.018
		c7.099-49.795,34.382-92.685,53.457-138.26C1624.37,718.934,1630.792,690.345,1630.792,662.591z"/>
	<path style="fill:#E1E1E1;" d="M893.472,481.113c0.097-1.598,0.263-3.211,0.395-4.818c0.156-1.981,0.273-3.954,0.482-5.946
		c-0.209,1.99-0.351,3.968-0.511,5.949C893.706,477.904,893.57,479.512,893.472,481.113z"/>
	<path style="fill:#E1E1E1;" d="M896.946,544.375c0.2,1.228,0.424,2.451,0.638,3.676c-0.209-1.221-0.4-2.446-0.599-3.669l-0.005-0.041
		c-0.141-0.865-0.292-1.727-0.424-2.594c0.132,0.863,0.244,1.727,0.385,2.589L896.946,544.375z"/>
	<path style="fill:#E1E1E1;" d="M930.042,660.525l0.005,0.003c-0.223-0.637-0.445-1.275-0.668-1.913c-0.003,0-0.004,0-0.005-0.001
		C929.597,659.251,929.82,659.889,930.042,660.525z"/>
	<path style="fill:#EB9F9B;" d="M1395.289,700.189l0.083-0.034c4.74-1.581,9.851-2.414,14.987-2.414
		c11.008,0,22.114,3.887,29.911,12.442c0.202-3.211,0.355-6.4,0.355-9.513c0-5.047-0.268-9.951-0.809-14.658
		c-1.335-11.598-5.199-19.101-10.534-23.727c-5.335-4.628-12.209-6.428-19.712-6.431h-0.015c-0.142,1.351-0.287,2.703-0.428,4.054
		v-0.005c-0.107,0.597-0.439,0.855-0.887,1.328c-0.454,0.441-1.072,0.955-1.808,1.528c-1.476,1.143-3.43,2.517-5.437,3.891
		c-4,2.738-8.283,5.52-9.203,6.295c-4.059,3.381-9.369,6.565-12.565,10.477c-6.563,8.009-11.323,19.201-15.81,29.983
		c-0.763,1.833-1.519,3.62-2.276,5.414c-0.87,2.869-1.754,5.764-2.57,8.537C1368.802,716.698,1380.8,707.439,1395.289,700.189z"/>
	<path style="fill:#D97F8F;" d="M809.504,856.845c-0.241-0.68-0.485-1.355-0.714-2.045c-0.643-1.985-1.267-3.963-1.88-5.951
		c0.009,1.345,0.048,2.689,0.044,4.034c-0.009,1.097-0.06,2.226-0.104,3.35l0.143-0.027
		C807.826,856.427,808.663,856.636,809.504,856.845z"/>
	<path style="fill:#EB9F9B;" d="M929.374,658.613c-0.116-0.02-0.224-0.043-0.34-0.064h-0.01c-11.98-2.141-24.943-3.944-38.554-5.113
		c1.247,2.752,2.499,5.509,3.753,8.243c6.631,14.47,13.096,31.281,18.806,49.439c0.042,0.134,0.079,0.275,0.122,0.41
		c13.403,3.768,27.812,11.894,42.29,28.112v-0.007h0.009c6.709-0.164,21.983,0.292,35.995,6.66
		c18.611,8.46,7.547-39.997-13.793-60.353c-10.484-10.005-29.135-19.062-47.605-25.413l-0.005-0.003
		C929.82,659.889,929.597,659.251,929.374,658.613z"/>
	<path style="fill:#EB9F9B;" d="M849.609,544.185c7.82,32.634,20.765,64.381,34.592,95.345c10.266-1.039,21.997-1.701,35.288-1.701
		c0.882,0,1.78,0.003,2.68,0.009c-0.119-0.344-0.237-0.688-0.356-1.032c-0.901-2.648-1.792-5.298-2.685-7.953l-0.877-2.624
		c-1.023-3.089-2.037-6.18-3.031-9.277l-0.277-0.858c-1.048-3.276-2.071-6.558-3.074-9.844c-0.331-1.072-0.643-2.146-0.97-3.218
		c-0.667-2.241-1.334-4.485-1.983-6.731c-0.375-1.291-0.741-2.582-1.101-3.876c-0.59-2.092-1.164-4.19-1.73-6.287
		c-0.351-1.309-0.702-2.617-1.048-3.927c-0.609-2.348-1.193-4.704-1.773-7.059c-0.248-1.016-0.507-2.027-0.75-3.045
		c-0.775-3.267-1.511-6.544-2.207-9.83c-0.234-1.099-0.443-2.202-0.667-3.301c-0.463-2.283-0.916-4.568-1.34-6.857
		c-0.248-1.355-0.482-2.712-0.716-4.068c-0.214-1.225-0.438-2.448-0.638-3.676l-0.005-0.039c-0.141-0.862-0.253-1.727-0.385-2.589
		c-0.214-1.377-0.419-2.753-0.614-4.131c-0.322-2.261-0.604-4.529-0.877-6.799c-0.141-1.186-0.302-2.37-0.424-3.559
		c-0.365-3.377-0.682-6.76-0.93-10.158c-0.063-0.853-0.088-1.713-0.146-2.568c-0.171-2.631-0.312-5.266-0.404-7.912
		c-0.049-1.296-0.063-2.597-0.093-3.898c-0.049-2.268-0.073-4.541-0.063-6.819c0.005-1.345,0.019-2.692,0.044-4.039
		c0.049-2.39,0.136-4.787,0.253-7.191c0.058-1.186,0.097-2.368,0.171-3.559c0.097-1.6,0.234-3.208,0.365-4.816
		c0.161-1.981,0.302-3.959,0.511-5.949c6.13-0.792,12.259-1.647,18.393-2.483c70.07-9.555,140.166-21.738,210.544-32.503
		c-24.982-10.135-48.683-19.753-48.683-19.753l-0.307-0.268l-0.034-0.06c-12.93,2.975-170.533,39.236-231.128,53.181
		c-0.196,2.873-0.363,5.738-0.458,8.586v0.003c-0.083,2.326-0.117,4.648-0.117,6.97c0,19.038,2.519,37.776,6.709,56.248l-0.005,0.28
		l-0.122,0.526l-0.331,0.419l-0.346,0.173l-0.117,0.054c0.173,0.681,0.346,1.362,0.515,2.044l0.04-0.052L849.609,544.185z"/>
	<path style="fill:#EB9F9B;" d="M809.504,856.845c0.133,0.033,0.264,0.068,0.397,0.101l0.438,0.402
		c5.775,16.827,12.687,32.487,20.21,46.843c31.089-46.122,1.124-116.804-32.575-169.303c-2.251-0.94-3.659-1.569-3.659-1.569
		l2.456-0.319c-11.567-17.825-23.479-33.452-33.427-45.16c28.058,48.723,43.191,104.789,43.566,161.008
		c0.614,1.988,1.237,3.966,1.88,5.951C809.019,855.49,809.263,856.166,809.504,856.845z"/>
	<path style="fill:#FCDCD2;" d="M1270.831,506.708c-3.149-7.452-5.316-12.475-5.927-13.886
		c-5.795-2.352-70.11-28.443-123.964-50.297c-5.125-2.078-10.422-4.227-15.698-6.369v0.001l-0.02-0.007l-0.015-0.007
		c-0.64-0.259-1.274-0.517-1.911-0.775c-70.383,10.764-140.486,22.949-210.556,32.497c-6.134,0.836-12.263,1.691-18.393,2.483
		c-0.209,1.993-0.326,3.966-0.482,5.946c-0.132,1.607-0.297,3.22-0.395,4.818c-0.073,1.191-0.112,2.373-0.171,3.559
		c-0.117,2.404-0.205,4.801-0.253,7.191c-0.024,1.347-0.039,2.694-0.044,4.039c-0.01,2.278,0.014,4.551,0.063,6.819
		c0.029,1.301,0.044,2.602,0.093,3.898c0.092,2.646,0.233,5.281,0.404,7.912c0.058,0.855,0.083,1.715,0.146,2.568
		c0.248,3.398,0.565,6.782,0.93,10.158c0.122,1.189,0.283,2.373,0.424,3.559c0.273,2.27,0.555,4.538,0.877,6.799
		c0.195,1.378,0.4,2.755,0.614,4.131c0.132,0.867,0.283,1.73,0.424,2.594l0.005,0.041c0.2,1.223,0.39,2.448,0.599,3.669
		c0.234,1.357,0.468,2.714,0.716,4.068c0.424,2.29,0.877,4.575,1.34,6.857c0.224,1.099,0.433,2.202,0.667,3.301
		c0.696,3.286,1.432,6.563,2.207,9.83c0.243,1.018,0.502,2.029,0.75,3.045c0.58,2.356,1.164,4.711,1.773,7.059
		c0.346,1.311,0.697,2.619,1.048,3.927c0.565,2.097,1.14,4.195,1.73,6.287c0.36,1.294,0.726,2.585,1.101,3.876
		c0.648,2.246,1.315,4.49,1.983,6.731c0.327,1.072,0.639,2.146,0.97,3.218c1.003,3.286,2.026,6.568,3.074,9.844l0.277,0.858
		c0.994,3.096,2.008,6.188,3.031,9.277l0.877,2.624c0.892,2.655,1.784,5.306,2.685,7.953c0.118,0.345,0.237,0.688,0.356,1.032
		c0.073,0,0.145,0,0.22,0c12.326,0.09,25.905,0.738,40.818,2.183l0.102,0.02c0.068,0.024,30.217,8.097,43.06,38.431l-0.132,0.682
		l-0.677,0.139c-0.005,0-1.949-0.787-5.589-2.1c-3.639-1.315-8.969-3.15-15.713-5.24c-13.411-4.156-32.427-9.311-54.88-13.338
		c0.223,0.638,0.445,1.277,0.668,1.913c18.47,6.35,37.121,15.408,47.605,25.413c21.34,20.356,32.404,68.814,13.793,60.353
		c-14.012-6.368-29.287-6.823-35.995-6.66l0.01,0.024c3.698,4.144,7.396,8.858,11.084,14.115
		c30.183-5.495,64.127-8.589,100.053-8.589c30.051,0,58.704,2.163,84.916,6.058c38.105-52.326,77.291-43.186,99.854-39.783
		c26.65,4.017,53.042-7.116,53.042-7.116l-9.306,12.268c7.615-1.479,33.632-8.39,33.632-8.39
		c-3.951,12.126-19.742,23.408-19.742,23.408l12.974,1.69c0,0-28.205,12.692-41.062,11.564l-0.122-0.014v0.47
		c-0.351,3.109-1.072,6.19-1.998,9.245l0.171-0.363c-1.618,14.638-7.191,25.51-14.748,33.635
		c17.739,11.759,27.849,25.266,27.849,39.639c0,43.011-90.348,78.287-205.529,81.973c-4.4,8.623-16.97,30.075-33.286,30.075
		c-17.252,0.003-29.365-22.643-33.462-31.55c-21.086-1.627-41.135-4.299-59.619-7.929l-0.098-0.022
		c-0.2,0.743-0.36,1.491-0.565,2.232c-0.331,1.198-0.716,2.385-1.067,3.581c-2.621,8.923-5.798,17.703-9.496,26.251
		c-0.824,1.905-1.622,3.82-2.495,5.698c-0.935,2.005-1.954,3.964-2.948,5.934c-0.979,1.929-1.954,3.856-2.987,5.751
		c-1.048,1.92-2.144,3.803-3.25,5.681c-1.101,1.873-2.227,3.725-3.386,5.554c-1.164,1.832-2.348,3.647-3.571,5.435
		c-1.223,1.788-2.49,3.535-3.771,5.277c-1.286,1.737-2.562,3.478-3.902,5.167c-1.345,1.691-2.752,3.316-4.161,4.95
		c-1.398,1.632-2.767,3.291-4.224,4.862c-1.491,1.605-3.07,3.113-4.619,4.653c-1.239,1.233-2.452,2.495-3.717,3.698
		c15.704,11.089,35.59,24.025,55.975,36.838l0.292,0.529v0.39c25.647,16.112,52.024,32,71.844,43.763
		c20.146,11.929,44.999,11.929,65.081,0c22.718-13.466,53.994-32.329,82.928-50.753v-0.395l0.287-0.526
		c33.603-21.405,63.97-42.214,73.719-52.993c19.308-21.291,41.345-52.39,57.881-91.15c3.152-7.403,6.095-15.138,8.819-23.101
		c1.9-5.557,3.707-11.198,5.335-16.982c1.856-6.694,3.645-13.186,5.301-19.61c5.754-22.108,10.726-43.104,17.019-66.618l0.014-0.125
		c2.202-8.17,4.584-16.697,7.196-25.623l0.146-0.253c0.263-0.278,0.559-0.529,0.824-0.805c0.816-2.773,1.701-5.669,2.57-8.537
		c-1.463,3.463-2.93,6.853-4.447,9.963l-0.633,0.346l-0.536-0.482c-9.344-41.51-23.459-81.944-41.968-120.258
		c-15.818-32.763-27.647-67.5-41.79-101.046l-0.636-0.316L1270.831,506.708z M1107.124,982.05c-2.485,0.207-5.228,0.078-8.083-0.168
		c-5.121,11.233-18.407,32.114-46.12,30.507c-25.481-1.481-38.548-18.159-43.167-33.328c-5.32,0.723-9.067,1.189-10.129,0.881
		c-4.867-1.405-3.527-7.191-3.527-7.191c3.084,0.339,7.406,0.553,12.297,0.702l-0.029-0.146c0,0,46.533-40.083,93.344,1.671
		c0,0-0.312,1.045-0.906,2.67c8.863-1.52,16.331-5.805,16.331-5.805S1121.224,980.866,1107.124,982.05z M1282.344,652.81
		l-0.658,0.453c-9.759-0.867-19.43-1.254-28.925-1.254c-21.756,0-42.57,2.038-61.374,4.989
		c14.544,14.04,11.006,40.514,11.006,40.514c-38.353,0.853-65.993,42.294-65.993,42.294c-39.365-23.357-34.425-47.162-22.587-63.554
		c-5.295,1.856-8.224,3.037-8.234,3.04l-0.677-0.139l-0.132-0.682c12.833-30.334,42.986-38.407,43.055-38.431l0.097-0.02
		c16.103-1.559,30.679-2.202,43.771-2.202c61.554,0,90.246,14.224,90.328,14.266L1282.344,652.81z"/>
	<path style="fill:#EB9F9B;" d="M1114.632,675.965c-0.29,0.101-0.543,0.191-0.819,0.288c-11.838,16.392-16.778,40.197,22.587,63.554
		c0,0,27.64-41.442,65.993-42.294c0,0,3.537-26.474-11.006-40.514c-0.141,0.022-0.292,0.039-0.433,0.061
		C1156.025,662.576,1128.196,671.244,1114.632,675.965z"/>
	<path style="fill:#D97F8F;" d="M959.972,1257.825c-1.398,1.985-3.435,4.312-6.051,6.96c-5.212,5.279-12.723,11.833-22.003,19.335
		c79.099,73.118,200.743,62.339,286.987,5.266c-16.802-13.231-29.013-24.006-34.164-30.864c-1.72-2.307-2.694-4.153-2.714-5.729
		v-227.259c-28.934,18.423-60.211,37.287-82.928,50.753c-20.083,11.929-44.935,11.929-65.081,0
		c-19.82-11.764-46.197-27.651-71.844-43.763v220.27C962.159,1254.208,961.365,1255.835,959.972,1257.825z"/>
	<path style="fill:#A9A6CC;" d="M1218.906,1289.386c-86.245,57.073-207.889,67.852-286.987-5.266
		c-0.029,0.024-0.053,0.044-0.083,0.068c-18.231,14.734-43.308,33.14-71.167,52.66l-0.512,0.093l-0.326-0.268
		c-33.472,23.443-70.916,48.476-105.418,70.711c47.821,61.377,94.054,123.836,139.514,186.782c0.322,0.174,0.639,0.36,0.96,0.532
		l0.233-0.269l0.77-0.141l0.405,0.063c62.811,33.221,131.727,52.794,202.538,52.794c45.622-0.003,92.034-8.124,138.134-25.968v0
		l0.029-0.012c88.322-31.172,172.383-86.967,226.807-167.041c-15.428-9.095-34.105-20.59-54.465-33.502
		c-58.28-36.965-130.071-85.335-177.145-120.991l-0.004-0.006c-4.62-3.494-9.007-6.878-13.112-10.103
		C1219.016,1289.475,1218.964,1289.432,1218.906,1289.386z"/>
	<path style="fill:#FCE4E5;" d="M731.202,1422.202c-7.284,4.604-14.321,9.004-21.079,13.185
		c48.757,64.375,112.923,120.545,183.803,158.779c-45.46-62.946-91.693-125.405-139.514-186.782
		C746.482,1412.496,738.722,1417.449,731.202,1422.202z"/>
	<path style="fill:#E36C6D;" d="M1022.057,977.438c-4.614,0.563-8.799,1.147-12.302,1.622c4.619,15.169,17.686,31.846,43.167,33.328
		c27.713,1.607,40.999-19.274,46.12-30.507c-3.82-0.331-7.932-0.943-12.312-1.717
		C1080.005,983.421,1051.811,994.992,1022.057,977.438z"/>
	<path style="fill:#E36C6D;" d="M1091.562,977.969c3.084,0.392,6.241,0.193,9.243-0.321c0.594-1.625,0.906-2.67,0.906-2.67
		c-46.811-41.754-93.344-1.671-93.344-1.671l0.029,0.146c13.471,0.407,31.405,0.299,40.721,0.779
		C1062.792,974.936,1079.362,976.42,1091.562,977.969z"/>
	<path style="fill:#FFFFFF;" d="M1086.729,980.164c-10.947-1.937-23.435-4.58-36.623-4.663c-9.516-0.061-19.479,0.891-28.049,1.937
		C1051.811,994.992,1080.005,983.421,1086.729,980.164z"/>
	<path style="fill:#EB9F9B;" d="M967.251,821.597c0-5.64-0.195-11.252-0.565-16.843c-6.799,2.232-19.039,5.498-34.144,6.312
		c0,0,0,0.001,0,0.002c0.468,6.992,0.716,13.951,0.716,20.843c0.005,55.871-16.211,107.237-62.398,132.567
		c2.086,2.475,4.159,4.894,6.194,7.141c4.96,5.486,15.352,13.644,28.794,23.106c0.019,0.013,0.04,0.028,0.059,0.041
		c1.265-1.203,2.479-2.465,3.717-3.698c1.549-1.54,3.128-3.047,4.619-4.653c1.456-1.571,2.826-3.23,4.224-4.862
		c1.408-1.634,2.816-3.259,4.161-4.95c1.34-1.688,2.616-3.43,3.902-5.167c1.282-1.742,2.548-3.489,3.771-5.277
		c1.223-1.788,2.407-3.603,3.571-5.435c1.159-1.829,2.285-3.681,3.386-5.554c1.106-1.878,2.202-3.761,3.25-5.681
		c1.033-1.895,2.007-3.822,2.987-5.751c0.994-1.971,2.013-3.929,2.948-5.934c0.872-1.878,1.671-3.793,2.495-5.698
		c3.698-8.548,6.874-17.328,9.496-26.251c0.351-1.196,0.735-2.382,1.067-3.581c0.205-0.741,0.366-1.489,0.565-2.232l0.098,0.022
		C967.119,873.687,969.506,846.515,967.251,821.597z"/>
	<path style="fill:#F9CBC0;" d="M976.162,777.875c1.325,7.622,0.585,15.937-3.61,24.741c0,0-2.134,0.914-5.866,2.139
		c0.37,5.591,0.565,11.203,0.565,16.843c2.256,24.918-0.132,52.09-7.089,78.467c18.484,3.63,38.533,6.302,59.619,7.929
		c-1.003-2.178-1.544-3.561-1.544-3.561s36.804-12.477,70.007,1.481c0,0-0.614,1.391-1.715,3.554
		c115.181-3.686,205.529-38.962,205.529-81.973c0-14.373-10.109-27.881-27.849-39.639c-20.048,21.571-54.158,23.537-66.319,23.498
		l-0.078,0.005l-0.092-0.005c-2.719-0.012-4.331-0.119-4.331-0.119l0.492-0.046c-28.589,0.736-50.148-8.572-50.148-8.572
		c-4.117-8.651-5.233-16.699-4.385-24.066c-5.072,4.478-8.307,7.508-8.307,7.508c6.719-13.89,13.579-25.349,20.473-34.816
		c-26.212-3.895-54.864-6.058-84.916-6.058c-35.927,0-69.87,3.094-100.053,8.589c6.295,8.972,12.555,19.591,18.694,32.285
		C985.238,786.057,981.653,782.703,976.162,777.875z"/>
	<path style="fill:#F29697;" d="M1018.237,904.432c0,0,0.541,1.384,1.544,3.561c4.097,8.906,16.21,31.552,33.462,31.55
		c16.317,0,28.886-21.452,33.286-30.075c1.101-2.163,1.715-3.554,1.715-3.554C1055.041,891.955,1018.237,904.432,1018.237,904.432z
		 M1029.234,915.36c0,0,12.268,0.848,15.089,14.244L1029.234,915.36z M1063.216,929.604c2.821-13.396,15.089-14.244,15.089-14.244
		L1063.216,929.604z"/>
	<path style="fill:#35241A;" d="M1029.234,915.36l15.089,14.244C1041.502,916.208,1029.234,915.36,1029.234,915.36z"/>
	<path style="fill:#35241A;" d="M1063.216,929.604l15.089-14.244C1078.305,915.36,1066.037,916.208,1063.216,929.604z"/>
	<path style="fill:#FFFFFF;" d="M1245.068,764.104c0,18.436-10.563,34.353-25.949,42.144c40.268-13.367,57.866-47.937,59.669-51.664
		c0.925-3.055,1.647-6.136,1.998-9.245v-0.47c-6.812-0.629-24.049-4.989-43.542-6.721
		C1242.173,745.6,1245.068,754.523,1245.068,764.104z"/>
	<path style="fill:#FFFFFF;" d="M1150.792,768.749c-4.307,3.576-8.243,6.979-11.444,9.8c-0.848,7.367,0.268,15.416,4.385,24.066
		c0,0,21.559,9.308,50.148,8.572l0.2-0.017C1171.255,809.382,1153.004,791.451,1150.792,768.749z"/>
	<path style="fill:#8D6145;" d="M1194.081,811.17c9.169-0.672,17.505-2.424,25.037-4.923c15.386-7.79,25.949-23.707,25.949-42.144
		c0-9.581-2.894-18.504-7.825-25.956c-17.773-1.581-37.398-0.977-52.76,6.736c-9.997,5.021-23.006,14.992-33.69,23.866
		C1153.004,791.451,1171.255,809.382,1194.081,811.17z M1197.365,744.927c1.69-3.04,4.901-5.121,8.629-5.121
		c5.481,0,9.924,4.443,9.924,9.925c0,1.839-0.536,3.54-1.403,5.016c1.569,2.786,2.538,5.961,2.538,9.388
		c0,10.631-8.619,19.25-19.25,19.25c-10.631,0-19.25-8.619-19.25-19.25C1178.554,753.653,1186.938,745.168,1197.365,744.927z"/>
	<path style="fill:#332319;" d="M1197.803,783.385c10.631,0,19.25-8.619,19.25-19.25c0-3.427-0.97-6.602-2.538-9.388
		c-1.73,2.923-4.882,4.906-8.521,4.906c-5.481,0-9.92-4.443-9.92-9.922c0-1.752,0.492-3.374,1.291-4.804
		c-10.427,0.241-18.811,8.726-18.811,19.208C1178.554,774.766,1187.172,783.385,1197.803,783.385z"/>
	<path style="fill:#FFFFFF;" d="M1205.993,759.653c3.64,0,6.792-1.983,8.521-4.906c0.867-1.476,1.403-3.177,1.403-5.016
		c0-5.482-4.443-9.925-9.924-9.925c-3.727,0-6.938,2.08-8.629,5.121c-0.799,1.43-1.291,3.052-1.291,4.804
		C1196.074,755.209,1200.512,759.653,1205.993,759.653z"/>
	<path style="fill:#332319;" d="M1139.348,778.549c3.201-2.821,7.137-6.224,11.444-9.8c10.684-8.875,23.693-18.846,33.69-23.866
		c15.362-7.712,34.987-8.317,52.76-6.736c19.494,1.732,36.731,6.093,43.542,6.721l0.122,0.014
		c12.857,1.128,41.062-11.564,41.062-11.564l-12.974-1.69c0,0,15.79-11.282,19.742-23.408c0,0-26.017,6.911-33.632,8.39
		l9.306-12.268c0,0-26.392,11.133-53.042,7.116c-22.563-3.403-61.749-12.543-99.854,39.783
		c-6.894,9.467-13.754,20.926-20.473,34.816C1131.041,786.057,1134.276,783.027,1139.348,778.549z"/>
	<path style="fill:#332319;" d="M1219.119,806.247c-7.532,2.5-15.868,4.251-25.037,4.923l-0.2,0.017l-0.492,0.046
		c0,0,1.612,0.107,4.331,0.119h0.17c12.161,0.039,46.271-1.927,66.319-23.498c7.557-8.124,13.13-18.996,14.748-33.635l-0.171,0.363
		C1276.985,758.311,1259.386,792.881,1219.119,806.247z"/>
	<path style="fill:#FFFFFF;" d="M972.552,802.615c4.195-8.804,4.935-17.118,3.61-24.741c-3.055-2.687-6.689-5.817-10.67-9.123
		c-1.873,19.191-15.227,34.936-33.094,40.446c0.005,0.061,0.012,0.122,0.017,0.183c0.039,0.555,0.093,1.117,0.127,1.686
		c15.105-0.814,27.345-4.08,34.144-6.312C970.417,803.529,972.552,802.615,972.552,802.615z"/>
	<path style="fill:#8D6145;" d="M936.727,748.267l1.257,0.127c-2.143-1.313-4.234-2.528-6.187-3.51
		c-3.296-1.655-6.828-2.909-10.463-3.955c0.339,1.376,0.675,2.753,1.001,4.137c0.024,0.102,0.043,0.208,0.066,0.31
		c3.391,0.708,6.44,2.274,8.918,4.508C932.878,748.869,934.729,748.267,936.727,748.267z"/>
	<path style="fill:#8D6145;" d="M965.492,768.752c-6.314-5.245-13.428-10.85-20.268-15.615c0.887,1.484,1.427,3.201,1.427,5.055
		c0,5.274-4.126,9.544-9.325,9.861c-1.041,5.03-4.103,9.252-8.237,12.005c0.017,0.112,0.04,0.222,0.057,0.334
		c1.437,9.586,2.559,19.212,3.252,28.806C950.265,803.687,963.618,787.943,965.492,768.752z"/>
	<path style="fill:#332319;" d="M937.326,768.052l-0.599,0.061c-5.481,0-9.925-4.443-9.925-9.922c0-3.484,1.803-6.536,4.517-8.307
		c-2.479-2.234-5.527-3.8-8.918-4.508c2.663,11.358,4.918,22.973,6.688,34.681C933.223,777.304,936.285,773.083,937.326,768.052z"/>
	<path style="fill:#FFFFFF;" d="M931.319,749.884c-2.714,1.771-4.517,4.823-4.517,8.307c0,5.478,4.444,9.922,9.925,9.922
		l0.599-0.061c5.199-0.316,9.325-4.587,9.325-9.861c0-1.854-0.541-3.571-1.427-5.055c-2.475-1.722-4.892-3.306-7.24-4.743
		l-1.257-0.127C934.729,748.267,932.878,748.869,931.319,749.884z"/>
	<path style="fill:#332319;" d="M913.151,711.529c2.933,9.362,5.653,19.078,8.093,29.03c0.03,0.123,0.059,0.247,0.09,0.369
		c3.635,1.046,7.167,2.299,10.463,3.955c1.954,0.982,4.044,2.197,6.187,3.51c2.348,1.437,4.765,3.021,7.24,4.743
		c6.84,4.765,13.954,10.37,20.268,15.615c3.981,3.306,7.615,6.436,10.67,9.123c5.491,4.828,9.077,8.182,9.077,8.182
		c-6.138-12.694-12.399-23.313-18.694-32.285c-3.688-5.257-7.386-9.971-11.084-14.115l-0.019-0.017
		C940.963,723.423,926.554,715.297,913.151,711.529z"/>
	<path style="fill:#332319;" d="M797.974,734.888c-0.4-0.626-0.799-1.267-1.203-1.888l-2.456,0.319
		C794.316,733.319,795.723,733.948,797.974,734.888z"/>
	<path style="fill:#5D3A2B;" d="M1147.923,640.021l-0.097,0.02c-0.068,0.024-30.222,8.097-43.055,38.431l0.132,0.682l0.677,0.139
		c0.01-0.003,2.939-1.183,8.234-3.04c0.275-0.097,0.529-0.187,0.819-0.288c13.564-4.721,41.393-13.389,76.321-18.906
		c0.141-0.022,0.292-0.039,0.433-0.061c18.804-2.951,39.618-4.989,61.374-4.989c9.496,0,19.167,0.387,28.925,1.254l0.658-0.453
		l-0.322-0.726c-0.083-0.041-28.775-14.266-90.328-14.266C1178.602,637.819,1164.025,638.462,1147.923,640.021z"/>
	<path style="fill:#5D3A2B;" d="M884.201,639.53c0.061,0.136,0.119,0.272,0.18,0.408c1.871,4.185,3.747,8.361,5.642,12.517
		c0.148,0.328,0.298,0.654,0.447,0.982c13.611,1.169,26.574,2.972,38.554,5.113h0.01c0.116,0.021,0.224,0.043,0.34,0.064
		c0.001,0,0.003,0.001,0.005,0.001c22.453,4.027,41.469,9.182,54.88,13.338c6.743,2.09,12.074,3.925,15.713,5.24
		c3.64,1.313,5.584,2.1,5.589,2.1l0.677-0.139l0.132-0.682c-12.843-30.334-42.992-38.407-43.06-38.431l-0.102-0.02
		c-14.914-1.444-28.492-2.092-40.818-2.183c-0.074,0-0.146,0-0.22,0c-0.9-0.006-1.797-0.009-2.68-0.009
		C906.198,637.829,894.466,638.491,884.201,639.53z"/>
	<path style="fill:#332319;" d="M1100.805,977.648c-3.001,0.514-6.158,0.713-9.243,0.321c-12.2-1.549-28.77-3.033-42.446-3.737
		c-9.316-0.48-27.25-0.373-40.721-0.779c-4.891-0.149-9.213-0.363-12.297-0.702c0,0-1.34,5.786,3.527,7.191
		c1.062,0.307,4.809-0.158,10.129-0.881c3.503-0.475,7.688-1.06,12.302-1.622c8.57-1.045,18.533-1.998,28.049-1.937
		c13.188,0.083,25.676,2.726,36.623,4.663c4.38,0.774,8.492,1.386,12.312,1.717c2.855,0.246,5.598,0.375,8.083,0.168
		c14.1-1.184,10.012-10.207,10.012-10.207S1109.667,976.128,1100.805,977.648z"/>
	<path style="fill:#45261C;" d="M649.137,1424.688c6.519,12.102,11.125,24.476,14.325,37.031c6.995-3.919,15.158-8.673,24.27-14.138
		C675.067,1439.2,662.17,1431.513,649.137,1424.688z"/>
	<path style="fill:#45261C;" d="M565.512,1732.482c-3.902-17.937-5.685-36.643-5.685-55.464c0-40.146,8.112-80.816,21.179-115.681
		l0.146-0.365c0.046-0.124,0.097-0.243,0.144-0.366c-5.75-7.922-11.827-15.688-18.312-23.254c0,74.129-16.96,160.913-67.703,216.484
		c-0.17,0.048-0.343,0.083-0.513,0.131l-0.019,0.198l0.702,0.271c15.004-4.294,28.962-12.551,40.009-24.514
		c-6.006,16.488-12.011,32.977-18.021,49.467l0.336,0.787c19.091,8.258,38.919,14.077,59.079,17.713
		c-0.01-0.07-0.02-0.143-0.029-0.213C573.429,1773.946,569.663,1751.586,565.512,1732.482z"/>
	<path style="fill:#45261C;" d="M860.157,1336.941l0.512-0.093c27.859-19.52,52.935-37.927,71.167-52.66
		c0.029-0.023,0.054-0.044,0.083-0.068c9.28-7.502,16.791-14.056,22.003-19.335c2.616-2.648,4.653-4.974,6.051-6.96
		c1.393-1.991,2.187-3.618,2.202-5.033v-220.66l-0.292-0.529c-20.385-12.813-40.271-25.749-55.975-36.838
		c-0.018-0.013-0.039-0.028-0.059-0.041c-13.442-9.462-23.834-17.62-28.794-23.106c-2.034-2.247-4.107-4.666-6.194-7.141
		c46.187-25.33,62.403-76.696,62.398-132.567c0-6.891-0.248-13.851-0.716-20.843c0,0,0-0.001,0-0.002
		c-0.034-0.57-0.088-1.132-0.127-1.686c-0.004-0.061-0.012-0.122-0.017-0.183c-0.693-9.594-1.815-19.22-3.252-28.806
		c-0.017-0.112-0.04-0.222-0.057-0.334c-1.77-11.707-4.026-23.323-6.688-34.681c-0.023-0.102-0.041-0.208-0.066-0.31
		c-0.326-1.384-0.663-2.761-1.001-4.137c-0.03-0.123-0.059-0.246-0.09-0.369c-2.44-9.953-5.16-19.668-8.093-29.03
		c-0.042-0.134-0.08-0.275-0.122-0.41c-5.71-18.158-12.175-34.97-18.806-49.439c-1.254-2.734-2.505-5.491-3.753-8.243
		c-0.149-0.328-0.299-0.654-0.447-0.982c-1.895-4.156-3.771-8.331-5.642-12.517c-0.061-0.136-0.119-0.272-0.18-0.408
		c-13.827-30.964-26.772-62.712-34.592-95.345l-0.707-0.471l-0.04,0.052c0.047,0.189,0.097,0.375,0.143,0.564
		c11.011,118.253,108.297,231.257,51.971,350.168c-22.217,44.441-80.19,76.906-133.968,75.525
		c-9.369-4.47-17.987-13.515-24.638-21.092c-3.922-4.463-12.994-24.344-17.301-25.973c31.069,11.761,81.807,13.435,103.683-16.046
		c0.507-0.687,0.926-1.411,1.408-2.11c0.138-0.201,0.253-0.41,0.39-0.611c-7.523-14.356-14.435-30.016-20.21-46.843l-0.438-0.402
		c-0.133-0.033-0.264-0.068-0.397-0.101c-0.841-0.209-1.678-0.419-2.511-0.639l-0.143,0.027c-0.008,0.193-0.011,0.383-0.018,0.577
		c-0.575,16.136-4.341,33.771-18.3,41.203c-8.521,4.54-18.797,3.946-28.336,2.479c-25.243-3.878-50.051-13.941-70.446-29.201
		c-8.356,61.174-11.81,121.72,12.409,182.263c21.306,68.185,64.516,125.427,104.999,185.786c2.465,4.409,5.004,8.777,7.664,13.035
		c16.205,27.551,31.562,55.515,45.491,83.961c-0.159,0.111-0.324,0.224-0.482,0.336l0,0L860.157,1336.941z"/>
	<path style="fill:#45261C;" d="M1738.251,1590.516c-2.544,0-5.083-0.073-7.614-0.214c-78.072-4.361-148.364-74.802-154.188-157.772
		c-16.337,12.675-27.454,33.049-30.007,54.567c-0.372,3.131-0.562,6.286-0.562,9.444c0,9.247,1.637,18.524,5.16,27.325l-0.282,0.779
		l-0.804-0.185c-32.873-46.051-79.001-92.241-79.592-151.699c-21.551,13.035-41.838,29.246-60.247,47.775l-0.779,0.085
		c20.36,12.912,39.038,24.407,54.465,33.502c0.131-0.194,0.277-0.379,0.409-0.574l0.016-0.021l-0.001-0.001l0.585-0.823l0.38-0.246
		l0.823-0.176l0.448,0.071c12.526,7.357,22.782,13.035,29.773,16.431c47.021,22.962,88.054,116.344,88.141,207.02
		c0,18.838-1.783,37.562-5.686,55.51c-0.819,3.756-1.617,7.679-2.402,11.678c-0.012,0.065-0.026,0.134-0.038,0.199
		c3.63-0.49,7.353-1.198,11.258-2.299c26.056-7.349,57.749-24.555,74.635-45.912l0.122-0.526l-0.336-0.424
		c-10.037-4.838-21.578-7.608-31.372-13.803c-3.503-2.193-8.809-8.838-13.885-15.082c-2.548-3.125-5.057-6.156-7.323-8.519
		c-0.958-0.99-1.852-1.831-2.707-2.548c6.855,1.409,13.932,2.124,21.148,2.124c47.595-0.017,100.575-29.016,125.695-66.772
		l-0.448,0.275C1748.093,1590.251,1743.162,1590.516,1738.251,1590.516z"/>
	<path style="fill:#45261C;" d="M1429.281,662.284c5.335,4.626,9.199,12.129,10.534,23.727c0.541,4.707,0.809,9.61,0.809,14.658
		c0,3.114-0.153,6.302-0.355,9.513c0.342,0.377,0.716,0.708,1.046,1.103l0.142,0.446c-4.21,57.447-41.34,127.805-117.988,146.445
		l-0.609-0.188l-0.127-0.621c-2.723,7.964-5.666,15.698-8.819,23.101c-16.536,38.76-38.572,69.858-57.881,91.15
		c-9.749,10.779-40.117,31.588-73.719,52.993l-0.287,0.526v227.654c0.02,1.576,0.994,3.422,2.714,5.729
		c5.151,6.858,17.363,17.633,34.164,30.864c0.058,0.046,0.111,0.089,0.169,0.135c4.105,3.225,8.492,6.609,13.112,10.103l-0.24-0.432
		l0.161-0.475c32.609-36.475,66.381-72.6,92.49-112.937l-0.002-0.001c10.071-16.777,20.097-33.53,25.822-51.081l0.078-0.159
		c25.32-37.366,36.136-79.766,36.136-123.113c0-53.279-16.351-107.983-42.173-156.397l-0.03-0.533l0.395-0.358
		c65.481-20.109,134.821-82.648,134.753-143.059c-0.005-18.842-6.696-37.495-22.348-54.729
		c-12.129-12.125-27.435-21.855-44.529-30.295c-1.03,9.749-2.061,19.498-3.087,29.246c-0.019,0.185-0.039,0.369-0.058,0.553h0.015
		C1417.072,655.856,1423.947,657.656,1429.281,662.284z"/>
	<path style="fill:#D97F8F;" d="M1323.469,858.177c76.648-18.641,113.778-88.999,117.988-146.445l-0.142-0.446
		c-0.33-0.395-0.704-0.726-1.046-1.103c-7.796-8.555-18.902-12.442-29.911-12.442c-5.135,0-10.247,0.833-14.987,2.414l-0.083,0.034
		c-14.49,7.25-26.487,16.509-36.72,27.164c-0.265,0.276-0.561,0.527-0.824,0.805l-0.146,0.253
		c-2.612,8.926-4.994,17.452-7.196,25.623l-0.014,0.125c-6.293,23.513-11.265,44.509-17.019,66.618
		c-1.656,6.424-3.444,12.916-5.301,19.61c-1.627,5.783-3.435,11.425-5.335,16.982l0.127,0.621L1323.469,858.177z"/>
	<path style="fill:#5D3A2B;" d="M562.983,1537.352c6.485,7.566,12.561,15.332,18.312,23.254
		c16.459-43.525,40.544-77.943,66.672-90.655c4.024-1.954,9.228-4.728,15.225-8.085l0.015-0.008l0.131-0.073v0.001
		c0.04-0.022,0.084-0.047,0.123-0.069c-3.2-12.554-7.806-24.928-14.325-37.031c13.033,6.825,25.93,14.512,38.595,22.893
		c0.09-0.054,0.175-0.103,0.264-0.157l0.263-0.154c6.319-3.8,13.042-7.893,20.146-12.282l0.439-0.083l0.824,0.154l0.39,0.243
		l0.029,0.039v0c0.012,0.016,0.024,0.031,0.036,0.046c6.756-4.181,13.799-8.585,21.079-13.185c7.52-4.752,15.28-9.706,23.211-14.817
		c34.497-22.235,71.94-47.268,105.418-70.711c0.158-0.112,0.324-0.225,0.482-0.336c-13.929-28.446-29.286-56.409-45.491-83.961
		c-2.66-4.258-5.199-8.626-7.664-13.035c-40.482-60.358-83.693-117.6-104.999-185.786c-24.219-60.543-20.765-121.089-12.409-182.263
		c20.395,15.26,45.203,25.323,70.446,29.201c9.539,1.467,19.815,2.061,28.336-2.479c13.958-7.433,17.724-25.067,18.3-41.203
		c0.007-0.194,0.01-0.384,0.018-0.577c0.044-1.124,0.095-2.253,0.104-3.35c0.004-1.345-0.035-2.69-0.044-4.034
		c-0.375-56.219-15.508-112.285-43.566-161.008c9.949,11.708,21.861,27.335,33.427,45.16c0.404,0.621,0.804,1.262,1.203,1.888
		c33.699,52.499,63.664,123.181,32.575,169.303c-0.137,0.201-0.253,0.411-0.39,0.611c-0.482,0.699-0.901,1.423-1.408,2.11
		c-21.876,29.481-72.614,27.807-103.683,16.046c4.307,1.629,13.379,21.51,17.301,25.973c6.65,7.576,15.269,16.622,24.638,21.092
		c53.778,1.381,111.751-31.084,133.968-75.525c56.326-118.911-40.96-231.915-51.971-350.168c-0.045-0.189-0.095-0.376-0.143-0.564
		c-0.169-0.682-0.342-1.363-0.515-2.044l-0.024,0.011l-0.268,0.061c-71.138,0.292-144.146,24.302-204.526,58.833l-0.045,0.013
		c-3.797,2.171-7.529,4.391-11.229,6.643c-0.668,0.407-1.33,0.826-2.013,1.245c-4.599,2.838-9.14,5.713-13.549,8.658l-0.248,0.097
		l-0.506,0.083l-0.492-0.131l-0.4-0.322l-0.166-0.207c-22.451-44.984-49.778-103.815-97.388-128.562l-0.069-0.057
		c-31.06,49.216-51.862,105.314-51.858,163.214c0.01,52.584,17.057,104.002,41.179,150.726
		c12.244,23.71,26.378,46.558,35.947,71.466c14.592,37.99,17.729,92.224,1.559,130.18c-10.1,23.712-26.797,43.15-43.186,62.173
		c-42.553,49.381-85.701,100.229-110.801,162.341c-32.029,79.264-30.407,173.635,2.821,252.132c1.316,4.743,2.748,9.52,4.316,14.333
		c13.579,41.586,35.849,79.607,46.154,122.309c10.3,42.702,5.272,94.609-26.767,121.384c21.891,18.183,51.48,23.043,77.982,15.624
		c0.17-0.047,0.343-0.082,0.513-0.131C546.023,1698.266,562.983,1611.481,562.983,1537.352z M393.439,1327.91
		c0.624-29.567,3.104-59.333,12.136-87.132c17.516-53.869,57.325-94.599,93.817-135.462c36.487-40.862,72.54-87.744,78.816-144.516
		c-3.454,31.235,5.895,55.82-6.646,87.23c-11.639,29.172-29.856,54.551-50.144,77.099
		C466.666,1185.969,415.232,1252.045,393.439,1327.91z"/>
	<path style="fill:#714734;" d="M614.881,616.706l0.166,0.207l0.4,0.322l0.492,0.131l0.506-0.083l0.248-0.097
		c4.409-2.945,8.95-5.82,13.549-8.658c0.682-0.419,1.345-0.838,2.013-1.245c3.7-2.252,7.432-4.472,11.229-6.643l0.045-0.013
		c60.38-34.531,133.389-58.54,204.526-58.833l0.268-0.061l0.024-0.011l0.117-0.054l0.346-0.173l0.331-0.419l0.122-0.526l0.005-0.28
		c-4.19-18.472-6.709-37.211-6.709-56.248c0-2.321,0.034-4.643,0.117-6.97v-0.003l-0.194,0.429l-0.634,0.604l-0.443,0.173
		c-59.557-1.13-118.512-9.177-176.269-27.702l-0.101-0.011c-5.453-1.748-10.882-3.589-16.307-5.526v0.001
		c-25.081-8.382-39.693-32.161-45.647-59.917l0.01-0.312l0.175-0.582l0.166-0.27c-24.984,24.005-48.531,49.388-69.179,77.264
		c-6.036,8.151-11.776,16.568-17.238,25.169l-0.087,0.237l-0.083,0.497l0.136,0.492l0.287,0.353l-0.005-0.005l0.029,0.036
		l0.13,0.107l0.069,0.057C565.102,512.891,592.43,571.721,614.881,616.706z"/>
	<path style="fill:#5D3A2B;" d="M603.091,384.789l-0.01,0.312c5.954,27.756,20.565,51.534,45.647,59.917v-0.001
		c5.425,1.938,10.854,3.779,16.307,5.526l0.101,0.011c57.757,18.524,116.711,26.572,176.269,27.702l0.443-0.173l0.634-0.604
		l0.194-0.429c0.095-2.848,0.262-5.713,0.458-8.586c-0.351,0.081-0.743,0.171-1.087,0.25l-0.54-0.136l-0.219-0.516
		c0.745-10.295,2.207-20.678,4.638-31.162c8.59-36.965,30.066-61.389,57.189-74.541c11.182-5.428,24.029-7.825,37.7-7.825
		c45.725,0.017,100.741,26.75,134.29,57.617l0.146,0.198c0.258,0.563,0.468,1.145,0.468,1.776l-0.034,0.434l-0.477,0.506
		c0,0-0.389,0.09-0.945,0.218l0.034,0.06l0.307,0.268c0,0,23.702,9.618,48.683,19.753c0.003,0.001,0.008,0.003,0.012,0.005
		c0.637,0.258,1.272,0.516,1.911,0.775l0.015,0.007l0.02,0.007v-0.001c5.276,2.142,10.573,4.291,15.698,6.369l-0.302-0.253
		l-0.38-0.636l0.068-0.741l0.497-0.553l0.336-0.195c28.194-5.702,56.321-11.625,84.307-17.415l0.053-0.008
		c70.25-11.721,119.644-55.751,151.085-113.137l0.023-0.132c0.302-0.55,0.604-1.057,0.867-1.547l0.195-0.217l0.458-0.319
		l0.551-0.083l0.526,0.175l0.249,0.151c-11.954-11.898-26.859-26.227-41.086-35.053c-31.633-26.021-65.64-49.279-94.1-71.22
		c-14.304-11.013-29.817-22.258-47.069-27.349l-0.249-0.019l-0.492,0.058l-0.234,0.078c-0.105,0.06-0.201,0.131-0.306,0.191
		c0.367,0.102,0.739,0.184,1.105,0.291l0.443,0.526l-0.307,0.614c-38.418,21.984-68.891,54.926-90.692,93.293
		c-10.187,42.081-19.326,83.834-27.213,126.444l-0.672,0.506l-0.565-0.624c0.005-1.272,0.015-2.54,0.015-3.808
		c0-95.834-29.276-191.064-97.301-257.113l-0.068-0.819l0.799-0.178c0.648,0.354,1.306,0.727,1.955,1.083
		c-0.475-0.467-0.906-0.966-1.385-1.431l-0.073-0.058l-0.136-0.098l-0.059-0.039c-0.789-0.436-1.598-0.889-2.397-1.325
		c-18.368-9.985-39.367-19.42-59.927-19.432c-7.552,0-15.045,1.284-22.271,4.305c-13.135,5.483-23.254,15.905-32.843,25.958
		c-10.771,11.314-22.055,22.739-33.435,34.305l-0.431-0.524l-0.663-0.2l-0.658,0.197l-0.297,0.197
		c-43.82,52.341-97.028,95.974-149.325,140.109c-25.851,21.823-51.664,43.978-76.107,67.452l-0.166,0.27L603.091,384.789z"/>
	<path style="fill:#714734;" d="M1378.7,307.291l-0.551,0.083l-0.458,0.319l-0.195,0.217c-0.263,0.489-0.565,0.996-0.867,1.547
		l-0.023,0.132c-31.441,57.386-80.836,101.415-151.085,113.137l-0.053,0.008c-27.985,5.791-56.112,11.713-84.307,17.415
		l-0.336,0.195l-0.497,0.553l-0.068,0.741l0.38,0.636l0.302,0.253c53.854,21.853,118.168,47.945,123.964,50.297
		c0.611,1.411,2.778,6.434,5.927,13.886l0.297,0.314l0.636,0.316c-0.04-0.096-0.079-0.193-0.12-0.289v-0.008l-0.244-0.582
		l0.024-0.516l0.405-0.324c16.828-4.229,34.173-6.434,51.439-6.434c8.463,0,16.906,0.529,25.262,1.61
		c3.635,0.47,7.245,1.043,10.84,1.722c22.348,4.229,43.859,12.56,63.157,25.428l0.017,0.041c0.429,0.285,0.896,0.579,1.354,0.862
		c-0.015-4.325-0.09-8.652-0.197-12.975l-0.005-0.006c-0.219-8.385-0.507-16.741-0.507-25.008c0-22.764,2.222-44.885,14.547-64.979
		l0.001-0.005c1.847-3.013,3.844-6.007,6.193-8.938l0.112-0.11c8.692-6.514,18.134-14.477,28.078-21.079l0.785,0.073l0.414,0.407
		l-0.005-0.003c0.106,0.103,0.209,0.209,0.317,0.311l0.039-0.428l-0.185-0.504l-0.151-0.234
		c-25.052-24.29-50.592-48.09-76.828-71.113c-4.131-3.622-10.08-9.72-17.033-16.641l-0.249-0.151L1378.7,307.291z"/>
	<path style="fill:#5D3A2B;" d="M1754.484,1586.896c-27.006-17.415-50.884-43.266-55.683-74.942l0,0
		c-0.638-4.194-0.931-8.359-0.931-12.497c-0.019-34.96,20.959-68.185,34.207-101.869c10.928-27.824,15.703-56.621,15.698-85.598
		c-0.005-89.152-45.125-179.985-95.157-249.829c-17.379-24.25-38.791-48.432-58.324-73.85c-8.163-24.492-12.005-51.73-12.005-75.658
		c0-9.837,0.648-19.115,1.915-27.41c10.343-68.536,68.959-111.332,80.989-179.559c1.301-7.425,1.914-14.87,1.914-22.312
		c-0.024-70.207-54.387-139.905-97.949-188.124c-30.711-33.976-62.666-66.814-95.527-98.712c-0.107-0.103-0.211-0.208-0.317-0.311
		l0.005,0.003l-0.414-0.407l-0.785-0.073c-9.944,6.602-19.386,14.565-28.078,21.079l-0.112,0.11
		c-2.349,2.931-4.346,5.924-6.193,8.938l-0.001,0.005c-12.325,20.094-14.547,42.215-14.547,64.979
		c0,8.268,0.287,16.623,0.507,25.008l0.005,0.006c0.107,4.323,0.182,8.65,0.197,12.975c-0.458-0.283-0.925-0.577-1.354-0.862
		l-0.017-0.041c-19.299-12.867-40.809-21.198-63.157-25.428c-3.596-0.68-7.206-1.252-10.84-1.722
		c-8.356-1.082-16.799-1.61-25.262-1.61c-17.267,0-34.611,2.205-51.439,6.434l-0.405,0.324l-0.024,0.516l0.244,0.582v0.008
		c0.04,0.096,0.079,0.193,0.12,0.289c14.143,33.546,25.972,68.282,41.79,101.046c18.509,38.314,32.624,78.748,41.968,120.258
		l0.536,0.482l0.633-0.346c1.518-3.11,2.984-6.5,4.447-9.963c0.757-1.794,1.514-3.58,2.276-5.414
		c4.487-10.782,9.247-21.973,15.81-29.983c3.196-3.912,8.507-7.096,12.565-10.477c0.921-0.775,5.203-3.557,9.203-6.295
		c2.007-1.374,3.961-2.748,5.437-3.891c0.736-0.573,1.354-1.087,1.808-1.528c0.448-0.472,0.779-0.731,0.887-1.328v0.005
		c0.141-1.351,0.286-2.703,0.428-4.054c0.02-0.184,0.039-0.369,0.058-0.553c1.026-9.748,2.057-19.497,3.087-29.246
		c17.094,8.44,32.399,18.171,44.529,30.295c15.653,17.234,22.343,35.887,22.348,54.729c0.068,60.412-69.272,122.95-134.753,143.059
		l-0.395,0.358l0.03,0.533c25.822,48.414,42.173,103.118,42.173,156.397c0,43.347-10.816,85.747-36.136,123.113l-0.078,0.159
		c-5.725,17.551-15.751,34.304-25.822,51.081l0.002,0.001c-26.108,40.336-59.88,76.462-92.49,112.937l-0.161,0.475l0.24,0.432
		l0.004,0.006c47.074,35.656,118.865,84.026,177.145,120.991l0.779-0.085c18.409-18.529,38.697-34.74,60.247-47.775
		c0.591,59.459,46.718,105.648,79.592,151.699l0.804,0.185l0.282-0.779c-3.523-8.802-5.16-18.078-5.16-27.325
		c0-3.158,0.19-6.313,0.562-9.444c2.553-21.518,13.67-41.892,30.007-54.567c5.824,82.97,76.116,153.411,154.188,157.772
		c2.531,0.141,5.069,0.214,7.614,0.214c4.911,0,9.842-0.266,14.787-0.809l0.448-0.275c0.351-0.526,0.799-1.069,1.189-1.676
		L1754.484,1586.896z M1558.494,906.04c0,11.287,1.184,22.548,3.328,33.602c-13.609-24.959-22.684-51.562-22.689-80.866
		c0.005-9.708,0.989-19.71,3.138-30.048c7.23-34.867,23.084-66.777,36.468-99.535c10.246-25.084,26.47-73.483,26.475-114.604
		c0-19.297-3.654-36.972-13.205-49.912c27.412,25.627,38.778,61.006,38.783,97.915c0,27.754-6.422,56.343-17.233,82.17
		c-19.075,45.576-46.358,88.465-53.457,138.26C1559.016,890.659,1558.49,898.352,1558.494,906.04z"/>
	<path style="fill:#507BBD;" d="M1578.689,1731.315c3.902-17.948,5.686-36.672,5.686-55.51
		c-0.087-90.677-41.12-184.058-88.141-207.02c-6.991-3.396-17.247-9.074-29.773-16.431l-0.448-0.071l-0.823,0.176l-0.38,0.246
		l-0.585,0.823l0.001,0.001l-0.016,0.021c-0.132,0.195-0.278,0.379-0.409,0.574c-54.424,80.074-138.485,135.87-226.807,167.041
		l-0.029,0.012v0c-46.1,17.844-92.512,25.966-138.134,25.968c-70.811,0-139.727-19.573-202.538-52.794l-0.405-0.063l-0.77,0.141
		l-0.233,0.269c0.207,0.111,0.411,0.231,0.618,0.342c0.726,0.387,1.422,0.794,2.114,1.159l0.117,0.08l0.214,0.185l0.102,0.107
		c3.328,4.616,6.139,8.553,9.174,12.794c1.194,1.664,2.387,3.325,3.581,4.989c93.802,130.582,185.164,263.588,279.888,392.847
		l0.122,0.317l0.048,0.651l-0.292,0.582l-0.555,0.341l-0.326,0.093h355.556l0.424-0.171l0.619-0.582l0.195-0.412
		c3.667-54.125,13.607-182.776,29.765-264.829c0.012-0.065,0.026-0.134,0.038-0.199
		C1577.072,1738.994,1577.871,1735.072,1578.689,1731.315z"/>
	<path style="fill:#8598CD;" d="M1190.573,2008.752l0.292-0.582l-0.048-0.651l-0.122-0.317
		c-94.724-129.259-186.085-262.265-279.888-392.847c-1.194-1.664-2.387-3.325-3.581-4.989c-3.035-4.241-5.847-8.178-9.174-12.794
		l-0.102-0.107l-0.214-0.185l-0.117-0.08c-0.692-0.365-1.388-0.772-2.114-1.159c-0.207-0.111-0.411-0.231-0.618-0.342
		c-0.321-0.173-0.638-0.359-0.96-0.532c-70.88-38.234-135.046-94.404-183.803-158.779c0,0,0,0,0,0
		c-0.013-0.015-0.024-0.031-0.036-0.046v0l-0.029-0.039l-0.39-0.243l-0.824-0.154l-0.439,0.083
		c-7.103,4.39-13.827,8.482-20.146,12.282l-0.263,0.154c-0.09,0.054-0.174,0.103-0.264,0.157
		c-9.112,5.465-17.275,10.219-24.27,14.138c-0.039,0.022-0.083,0.047-0.123,0.069v-0.001l-0.131,0.073l-0.015,0.008
		c-5.997,3.357-11.201,6.131-15.225,8.085c-26.128,12.712-50.213,47.129-66.672,90.655c-0.046,0.123-0.097,0.243-0.144,0.366
		l-0.146,0.365c-13.067,34.865-21.179,75.534-21.179,115.681c0,18.821,1.783,37.527,5.685,55.464
		c4.151,19.104,7.918,41.464,11.313,65.194c0.01,0.07,0.019,0.142,0.029,0.213c10.862,76.092,17.79,166.337,20.774,210.133
		l0.2,0.414l0.624,0.582l0.424,0.168h590.815l0.326-0.093L1190.573,2008.752z"/>
	<path style="fill:#45261C;" d="M980.683,133.615l0.068,0.819c68.025,66.049,97.301,161.279,97.301,257.113
		c0,1.267-0.01,2.536-0.015,3.808l0.565,0.624l0.672-0.506c7.887-42.609,17.026-84.363,27.213-126.444
		c21.801-38.367,52.274-71.309,90.692-93.293l0.307-0.614l-0.443-0.526c-0.365-0.108-0.738-0.189-1.105-0.291
		c-5.137-1.43-10.413-2.338-15.86-2.459l-1.291-0.015c-12.117,0.003-23.985,3.715-34.82,9.011
		c-20.161,9.852-32.936,23.062-41.463,38.424c-32.878-35.251-76.922-61.667-119.067-84.745c-0.649-0.356-1.307-0.728-1.955-1.083
		L980.683,133.615z"/>
	<path style="fill:#45261C;" d="M1075.207,415.064l0.477-0.506l0.034-0.434c0-0.631-0.209-1.213-0.468-1.776l-0.146-0.198
		c-33.549-30.867-88.565-57.6-134.29-57.617c-13.671,0-26.519,2.397-37.7,7.825c-27.123,13.152-48.599,37.576-57.189,74.541
		c-2.431,10.484-3.893,20.867-4.638,31.162l0.219,0.516l0.54,0.136c0.344-0.079,0.736-0.169,1.087-0.25
		c60.594-13.945,218.197-50.207,231.128-53.181C1074.818,415.154,1075.207,415.064,1075.207,415.064z"/>
</g>
</svg>
