<?xml version="1.0" encoding="utf-8"?>
<!-- Generator: Adobe Illustrator 27.5.0, SVG Export Plug-In . SVG Version: 6.00 Build 0)  -->
<svg version="1.1" id="Capa_1" xmlns="http://www.w3.org/2000/svg" xmlns:xlink="http://www.w3.org/1999/xlink" x="0px" y="0px"
	 viewBox="0 0 2122 2122" style="enable-background:new 0 0 2122 2122;" xml:space="preserve">
<g>
	<path style="fill:none;" d="M1057.383,747.585c3.282-2.146,6.455-4.054,9.36-5.513
		C1063.838,743.531,1060.665,745.439,1057.383,747.585z"/>
	<path style="fill:none;" d="M1033.053,765.938c2.823-2.345,5.813-4.764,8.862-7.15
		C1038.865,761.174,1035.876,763.593,1033.053,765.938z"/>
	<polygon style="fill:none;" points="1080.149,808.542 1079.978,808.542 1080.071,808.547 	"/>
	<path style="fill:none;" d="M1076.336,808.359h0.002c-22.823-1.789-41.073-19.722-43.285-42.421
		C1035.265,788.637,1053.515,806.574,1076.336,808.359z"/>
	<path style="fill:#F0815F;" d="M595.063,690.705l0.039-0.009c5.057-0.918,9.925-1.355,14.614-1.355
		c5.622,0,10.958,0.698,16.09,1.866c-0.895-5.766-1.512-11.585-1.695-17.433c-0.016-0.505-0.043-1.046-0.066-1.587
		c-11.425-4.057-22.722-9.324-33.006-15.953c-0.188-0.121-0.366-0.256-0.553-0.378c-7.903,4.148-13.757,12.461-15.459,27.272
		c-1.135,9.882-1.04,20.627,0.203,31.743C578.626,703.032,583.993,693.477,595.063,690.705z"/>
	<path style="fill:#F39978;" d="M948.86,742.389c30.043,0,58.689,2.163,84.903,6.056c37.118-50.984,75.248-43.64,98.058-40.078
		c-16.828-10.056-32.767-21.128-47.819-32.909c1.846,10.265,0.647,19.242,0.647,19.242c-38.353,0.853-65.99,42.294-65.99,42.294
		c-36.453-21.629-34.918-43.656-25.096-59.817c-2.19,0.816-3.389,1.299-3.389,1.299c12.69-30.034,42.643-38.071,42.643-38.071
		c3.384-0.329,6.68-0.604,9.927-0.853c-101.829-98.01-152.151-218.706-152.151-218.706l-81.518,37.245
		c-7.357,44.526-26.582,113.342-48.012,182.733c21.301-2.75,50.097-3.986,86.916-0.419c0,0,29.951,8.036,42.643,38.071
		c0,0-33.042-13.388-80.278-21.423c19.096,6.37,38.706,15.715,49.567,26.076c21.337,20.353,32.404,68.813,13.79,60.353
		c-14.022-6.372-29.31-6.826-36.007-6.66c3.7,4.143,7.403,8.858,11.094,14.117C878.948,745.476,912.909,742.389,948.86,742.389z"/>
	<path style="fill:#F39978;" d="M1201.484,741.544c-4.314-1.55-8.568-3.201-12.792-4.892c-8.694,3.052-19.052,5.988-25.525,5.42
		l-0.122-0.015v0.47c-0.348,3.104-1.069,6.185-1.998,9.235l0.168-0.353c-1.617,14.641-7.196,25.515-14.75,33.64
		c17.746,11.759,27.866,25.269,27.866,39.644c0,43.001-90.36,78.28-205.544,81.966c-4.399,8.624-16.974,30.073-33.289,30.073
		c-17.233,0.003-29.337-22.597-33.449-31.523c-102.054-7.868-178.66-40.923-178.66-80.516c0-11.642,6.658-22.712,18.602-32.748
		c-8.994-6.741-16.472-16.175-20.243-29.396c-11.97,35.717-22.698,66.747-30.287,88.408c0.086,0.262,0.157,0.538,0.243,0.8
		c0.196,0.589,0.409,1.179,0.618,1.769c0.021,0.005,0.041,0.011,0.062,0.016l0.273,0.146l0.446,0.404l0.168,0.258
		c16.896,49.316,43.642,88.624,66.565,114.005c10.665,11.82,46.847,36.122,84.638,59.871l0.214,0.226l0.292,0.528l0.078,0.302v0.78
		c25.462,15.995,51.585,31.744,71.252,43.443c20.146,11.929,44.999,11.929,65.079,0c22.545-13.396,53.517-32.094,82.273-50.394
		v-0.789l0.076-0.3l0.287-0.526l0.212-0.227c33.596-21.398,64.01-42.261,73.628-52.916c19.25-21.223,41.223-52.233,57.719-90.807
		l0.008-0.038l0.039-0.129c0.917-2.152,1.778-4.382,2.659-6.583C1212.584,803.362,1205.582,758.836,1201.484,741.544z
		 M989.381,979.239c-2.443,0.205-5.137,0.083-7.942-0.156c-4.95,9.376-18.219,27.476-46.277,26.105
		c-26.015-1.245-39.053-15.873-43.399-28.904c-5.189,0.704-8.836,1.15-9.883,0.848c-4.865-1.406-3.525-7.191-3.525-7.191
		c3.542,0.387,8.702,0.616,14.514,0.765c9.795-6.112,50.324-27.776,91.069,2.87c0,0-0.144,0.434-0.446,1.176
		c8.67-1.583,15.9-5.72,15.9-5.72S1003.484,978.055,989.381,979.239z"/>
	<path style="fill:#F39978;" d="M1157.391,708.81l1.184-0.151c-22.212-15.603-44.336-34.39-65.698-54.826
		c-5.764,0.672-11.369,1.457-16.818,2.312C1105.581,680.443,1133.489,697.244,1157.391,708.81z"/>
	<path style="fill:#F39978;" d="M1056.056,638.718c7.386-0.356,14.373-0.509,20.986-0.499
		C1013.079,573.67,957.78,498.117,930.18,458.339c-6.07-7.715-11.249-14.739-15.418-20.742
		C958.138,530.727,1008.413,594.791,1056.056,638.718z"/>
	<path style="fill:#D6645E;" d="M930.18,458.339c27.6,39.778,82.899,115.331,146.863,179.879
		c61.082,0.083,89.532,14.185,89.532,14.185c-25.71-2.282-50.835-1.245-73.698,1.43c21.362,20.436,43.486,39.223,65.698,54.826
		c16.034-2.058,28.095-7.128,28.095-7.128l-9.306,12.268c7.613-1.481,33.63-8.39,33.63-8.39
		c-3.949,12.127-19.742,23.408-19.742,23.408l12.974,1.691c0,0-6.957,3.13-15.535,6.143c4.224,1.691,8.478,3.342,12.792,4.892
		c4.098,17.292,11.101,61.818-3.195,129.255c2.147-5.367,4.225-10.825,6.153-16.454l0.168-0.258l0.441-0.405l0.272-0.146
		c0.01-0.002,0.019-0.005,0.028-0.007c1.773-5.215,3.48-10.494,5.009-15.924c8.337-29.779,14.167-55.871,22.315-86.273l0.019-0.144
		c5.498-20.414,12.038-42.837,21.079-69.554c-72.938-27.648-132.406-60.059-180.327-92.563
		c-19.518-13.266-37.074-26.546-52.889-39.544C978.756,515.166,949.507,482.905,930.18,458.339z"/>
	<path style="fill:#D6645E;" d="M789.02,427.354c-0.22,0.321-0.514,0.849-0.823,1.498c-0.636,1.33-1.359,3.162-2.049,5.035
		c-1.383,3.773-2.594,7.612-2.916,8.431l-0.003,0.003c-8.285,20.706-16.168,41.698-23.188,62.848
		c-19.944,60.068-40.914,120.438-69.822,177.028c-4.292,8.392-8.739,16.733-12.842,25.2c8.296,2.162,21.082,5.435,26.057,6.403
		l-9.306-12.268c0,0,26.392,11.133,53.042,7.116c20.728-3.125,55.471-11.087,90.523,28.176c6.697-0.166,21.986,0.287,36.007,6.66
		c18.614,8.46,7.547-40-13.79-60.353c-10.86-10.361-30.471-19.705-49.567-26.076c-28.297-4.813-61.688-7.708-96.122-4.65
		c0,0,15.079-7.477,46.841-11.579c21.43-69.391,40.655-138.207,48.012-182.733l81.518-37.245c0,0,50.321,120.697,152.151,218.706
		c4.57-0.351,9.009-0.626,13.311-0.836c-47.643-43.927-97.918-107.991-141.294-201.121c-7.944-11.439-12.576-19.45-14.413-22.793
		l-0.007-0.01l-0.024-0.046l0.003,0.005l-0.502-0.933l-110.621,13.32L789.02,427.354z"/>
	<path style="fill:#D6645E;" d="M719.584,751.409c0,0,0.212,0.463,0.643,1.306c-1.186-3.51-2.012-7.076-2.434-10.662l-0.161,0.019
		c-12.857,1.128-41.06-11.564-41.06-11.564l12.974-1.691c0,0-9.055-6.531-15.165-14.97c-2.195,4.841-4.272,9.717-5.997,14.717
		c-1.725,4.98-3.082,12.309-3.625,19.583c-0.047,0.633-0.037,1.244-0.073,1.875c8.336,30.961,14.252,57.435,22.714,87.581
		l0.003,0.002c1.248,4.555,2.628,8.977,4.057,13.351c7.588-21.661,18.317-52.691,30.287-88.408
		C720.763,759.098,720.025,755.395,719.584,751.409z"/>
	<path style="fill:#D6645E;" d="M1018.66,736.995c0,0,27.637-41.442,65.99-42.294c0,0,1.199-8.977-0.647-19.242
		c15.052,11.781,30.991,22.852,47.819,32.909c0.609,0.095,1.218,0.192,1.805,0.28c8.203,1.235,16.373,1.031,23.764,0.163
		c-23.902-11.566-51.81-28.368-81.332-52.665c-41.16,6.465-72.526,17.325-82.495,21.033
		C983.742,693.339,982.208,715.366,1018.66,736.995z"/>
	<path style="fill:#CCA6A7;" d="M654.439,1416.841c2.648,3.145,5.335,6.251,8.056,9.316c0.955,1.074,1.9,2.149,2.86,3.206
		c3.452,3.815,6.948,7.578,10.516,11.262l0.005,0.005l0.279,0.296c3.646,3.755,7.369,7.425,11.134,11.046
		c1.113,1.07,2.246,2.124,3.379,3.191c2.743,2.587,5.513,5.14,8.317,7.654c1.25,1.123,2.497,2.244,3.752,3.35
		c3.32,2.914,6.677,5.776,10.073,8.592c0.626,0.519,1.22,1.045,1.824,1.54c3.881,3.184,7.827,6.283,11.808,9.335
		c1.432,1.101,2.892,2.178,4.346,3.267c2.707,2.029,5.433,4.027,8.183,5.992c1.612,1.155,3.221,2.305,4.843,3.435
		c3.018,2.102,6.071,4.158,9.137,6.188c1.255,0.828,2.483,1.681,3.722,2.484c3.998,2.592,8.044,5.108,12.119,7.576
		c1.822,1.103,3.671,2.178,5.513,3.262c2.555,1.498,5.12,2.979,7.703,4.431c2.003,1.128,4.007,2.246,6.022,3.343
		c2.645,1.437,5.313,2.831,7.987,4.217c2.492,1.291,4.985,2.577,7.493,3.822c3.435,1.705,6.889,3.381,10.363,5.001
		c2.256,1.053,4.534,2.061,6.814,3.079c2.302,1.031,4.606,2.047,6.923,3.04c2.412,1.03,4.828,2.051,7.255,3.043
		c2.239,0.916,4.497,1.795,6.755,2.677c4.148,1.622,8.316,3.182,12.509,4.685c2.365,0.848,4.716,1.71,7.084,2.516
		c2.687,0.916,5.401,1.779,8.115,2.651c2.01,0.643,4.019,1.284,6.034,1.9c2.78,0.85,5.562,1.678,8.356,2.48
		c1.908,0.543,3.825,1.06,5.742,1.583c6.127,1.666,12.283,3.22,18.47,4.638c0.836,0.193,1.649,0.402,2.46,0.582
		c3.023,0.677,6.064,1.291,9.111,1.907c1.791,0.363,3.579,0.728,5.367,1.067c3.038,0.58,6.083,1.133,9.133,1.654
		c1.698,0.287,3.406,0.551,5.115,0.824c10.421,1.654,20.901,2.957,31.423,3.895c1.72,0.154,3.438,0.312,5.157,0.446
		c3.128,0.243,6.258,0.456,9.393,0.638c1.713,0.097,3.43,0.171,5.152,0.251c2.925,0.136,5.859,0.124,8.788,0.204
		c-69.298-97.34-154.829-187.049-258.692-245.796c-0.158,0.11-0.31,0.219-0.468,0.329c-0.867,0.606-1.759,1.218-2.621,1.817
		l-0.326,0.112l-0.662,0.031l-0.336-0.08c-0.174-0.098-0.345-0.205-0.519-0.303c-30.052,20.903-62.814,42.807-93.57,62.711
		c3.265,4.248,6.616,8.413,10.016,12.53C652.702,1414.792,653.575,1415.811,654.439,1416.841z"/>
	<path style="fill:#B65454;" d="M916.31,1073.509c-19.667-11.7-45.79-27.448-71.252-43.443v219.923
		c-0.029,1.664-0.914,3.381-2.351,5.44c-1.454,2.051-3.544,4.426-6.217,7.125c-5.342,5.394-13.018,12.068-22.499,19.713
		c-18.859,15.207-44.861,34.234-73.654,54.348c103.864,58.747,189.394,148.456,258.692,245.796c1.88,0.052,3.76,0.103,5.642,0.131
		c10.708-39.107,30.06-73.912,54.801-105.328c-0.091-0.236-0.198-0.467-0.288-0.703c-3.937-10.275-7.179-20.833-9.793-31.506
		c-6.843-27.983-9.698-56.338-9.698-84.828c0-55.284,10.743-111.076,23.968-165.703v-171.358
		c-28.755,18.3-59.727,36.999-82.273,50.394C961.308,1085.438,936.456,1085.438,916.31,1073.509z"/>
	<path style="fill:#CCA6A7;" d="M1011.577,1582.702c19.32,0,38.689-1.223,57.982-3.732l0.526-0.073
		c5.169-0.68,10.331-1.427,15.486-2.287c1.004-0.17,2.015-0.375,3.043-0.555c4.368-0.76,8.731-1.542,13.079-2.434
		c2.187-0.448,4.375-0.977,6.582-1.464c3.228-0.714,6.453-1.391,9.654-2.176c3.948-0.965,7.886-2.038,11.822-3.126
		c-19.871-14.9-38.059-32.247-51.807-53.159c-7.517-11.439-13.542-23.742-18.472-36.483
		c-24.741,31.416-44.093,66.222-54.801,105.328C1006.974,1582.577,1009.272,1582.702,1011.577,1582.702z"/>
	<path style="fill:#B65454;" d="M1340.263,1884.002H1281.8v138.948h124.971c-11.113-62.021-35.972-105.209-66.306-138.733
		C1340.399,1884.144,1340.33,1884.076,1340.263,1884.002z"/>
	<path style="fill:#FCE4E5;" d="M615.168,1418.295c-37.204,23.572-68.732,42.359-84.407,49.945
		c-55.803,27.106-104.317,157.4-81.783,261.186c9.213,42.217,16.502,100.139,21.937,153.953h198.981
		C669.745,1724.668,666.902,1566.559,615.168,1418.295z"/>
	<path style="fill:#AE3738;" d="M891.764,976.284c4.346,13.031,17.384,27.659,43.399,28.904
		c28.058,1.372,41.328-16.728,46.277-26.105c-13.379-1.133-30.54-6.275-49.077-6.392
		C917.601,972.598,901.764,974.93,891.764,976.284z"/>
	<path style="fill:#AE3738;" d="M915.61,970.725c-1.571,0.044-3.125,0.161-4.682,0.263c7.949,0.088,15.445,0.176,20.446,0.434
		c5.279,0.273,10.989,0.662,16.711,1.125c-4.214-0.444-8.433-0.838-12.658-1.159C928.799,970.856,922.239,970.525,915.61,970.725z"
		/>
	<path style="fill:#D14C4C;" d="M915.61,970.725c6.628-0.2,13.189,0.131,19.817,0.663c4.224,0.321,8.443,0.716,12.658,1.159
		c9.106,0.736,18.243,1.661,25.732,2.611c3.235,0.412,6.548,0.164,9.676-0.407c0.302-0.743,0.446-1.176,0.446-1.176
		c-40.745-30.646-81.274-8.982-91.069-2.87c5.693,0.144,12.003,0.214,18.058,0.282C912.485,970.885,914.039,970.769,915.61,970.725z
		"/>
	<path style="fill:#EF7F6F;" d="M1080.071,808.547l-0.093-0.004c-2.719-0.013-4.331-0.12-4.331-0.12l0.489-0.046
		c-28.592,0.735-50.146-8.573-50.146-8.573c-4.095-8.599-4.93-16.909-3.773-24.597c-5.401,4.753-8.916,8.039-8.916,8.039
		c6.716-13.884,13.571-25.338,20.462-34.802c-26.214-3.893-54.86-6.056-84.903-6.056c-35.951,0-69.912,3.087-100.07,8.551
		c6.3,8.977,12.562,19.6,18.709,32.307c0,0-3.438-3.216-8.748-7.893c1.021,7.311,0.095,15.265-3.941,23.747
		c0,0-17.663,7.617-42.202,8.525c-1.034,0.264-2.071,0.517-3.131,0.712c-1.63,0.302-3.286,0.509-4.967,0.644h-0.095
		c-1.444-0.106-2.831-0.284-4.235-0.441c-11.021-0.01-38.281-1.675-58.189-16.594c-11.944,10.036-18.602,21.106-18.602,32.748
		c0,39.593,76.607,72.648,178.66,80.516c-1.009-2.192-1.555-3.588-1.555-3.588s36.804-12.478,70.01,1.481
		c0,0-0.614,1.391-1.718,3.557c115.184-3.686,205.544-38.965,205.544-81.966c0-14.375-10.119-27.886-27.866-39.644
		c-20.053,21.566-54.156,23.532-66.317,23.493L1080.071,808.547z"/>
	<path style="fill:#EC6568;" d="M900.495,901.621c0,0,0.546,1.396,1.555,3.588c4.112,8.926,16.216,31.525,33.449,31.523
		c16.315,0,28.889-21.449,33.289-30.073c1.104-2.166,1.718-3.557,1.718-3.557C937.299,889.144,900.495,901.621,900.495,901.621z
		 M911.493,912.549c0,0,12.268,0.846,15.087,14.244L911.493,912.549z M945.476,926.793c2.819-13.398,15.087-14.244,15.087-14.244
		L945.476,926.793z"/>
	<path style="fill:#35241A;" d="M911.493,912.549l15.087,14.244C923.762,913.395,911.493,912.549,911.493,912.549z"/>
	<path style="fill:#35241A;" d="M945.476,926.793l15.087-14.244C960.563,912.549,948.295,913.395,945.476,926.793z"/>
	<path style="fill:#FFFFFF;" d="M1127.323,761.293c0,18.436-10.56,34.35-25.942,42.141c40.297-13.376,57.89-47.987,59.666-51.671
		c0.929-3.05,1.649-6.131,1.998-9.235v-0.47c-6.814-0.629-24.049-4.989-43.544-6.721
		C1124.431,742.788,1127.323,751.712,1127.323,761.293z"/>
	<path style="fill:#FFFFFF;" d="M1025.99,799.804c0,0,21.554,9.308,50.146,8.573l0.2-0.017
		c-22.821-1.786-41.072-19.722-43.283-42.421c-4.052,3.364-7.747,6.551-10.836,9.269
		C1021.06,782.895,1021.895,791.205,1025.99,799.804z"/>
	<path style="fill:#2A110C;" d="M1080.061,780.574c10.633,0,19.252-8.619,19.252-19.25c0-3.43-0.972-6.602-2.543-9.391
		c-1.725,2.926-4.874,4.909-8.516,4.909c-5.481,0-9.924-4.444-9.924-9.922c0-1.752,0.492-3.374,1.291-4.804
		c-9.12,0.211-16.68,6.734-18.428,15.383c-0.249,1.236-0.381,2.515-0.381,3.825C1060.811,771.955,1069.428,780.574,1080.061,780.574
		z"/>
	<path style="fill:#FFFFFF;" d="M1088.253,756.842c3.642,0,6.792-1.983,8.516-4.909c0.872-1.476,1.406-3.177,1.406-5.013
		c0-5.481-4.441-9.925-9.922-9.925c-3.729,0-6.938,2.08-8.634,5.121c-0.799,1.43-1.291,3.052-1.291,4.804
		C1078.329,752.398,1082.772,756.842,1088.253,756.842z"/>
	<path style="fill:#2A110C;" d="M1133.627,708.647c-0.587-0.088-1.196-0.185-1.805-0.28c-22.811-3.562-60.94-10.907-98.058,40.078
		c-6.891,9.464-13.746,20.918-20.462,34.802c0,0,3.515-3.286,8.916-8.039c3.089-2.719,6.784-5.905,10.836-9.269
		c2.823-2.345,5.813-4.763,8.862-7.15c5.138-4.021,10.438-7.915,15.468-11.203c3.282-2.146,6.455-4.054,9.36-5.513
		c15.357-7.713,34.987-8.317,52.758-6.736c19.496,1.732,36.731,6.093,43.544,6.721l0.122,0.015
		c6.473,0.568,16.831-2.368,25.525-5.42c8.578-3.013,15.535-6.143,15.535-6.143l-12.974-1.691c0,0,15.793-11.281,19.742-23.408
		c0,0-26.017,6.909-33.63,8.39l9.306-12.268c0,0-12.061,5.07-28.095,7.128l-1.184,0.151
		C1150,709.678,1141.83,709.882,1133.627,708.647z"/>
	<path style="fill:#2A110C;" d="M1101.381,803.434c-1.884,0.626-3.819,1.204-5.803,1.731c-5.954,1.579-12.363,2.691-19.24,3.195
		h-0.003l-0.2,0.017l-0.489,0.046c0,0,1.613,0.107,4.331,0.12h0.171c12.161,0.039,46.263-1.927,66.317-23.493
		c7.554-8.124,13.133-18.999,14.75-33.64l-0.168,0.353C1159.272,755.446,1141.678,790.057,1101.381,803.434z"/>
	<path style="fill:#2A110C;" d="M1042.745,639.553c-3.247,0.248-6.543,0.524-9.927,0.853c0,0-29.954,8.036-42.643,38.071
		c0,0,1.199-0.482,3.389-1.299c9.969-3.708,41.335-14.568,82.495-21.033c5.449-0.855,11.055-1.639,16.818-2.312
		c22.862-2.675,47.988-3.712,73.698-1.43c0,0-28.45-14.102-89.532-14.185c-6.614-0.009-13.6,0.144-20.986,0.499
		C1051.754,638.927,1047.315,639.203,1042.745,639.553z"/>
	<path style="fill:#FFFFFF;" d="M776.147,802.211c-13.913-8.366-23.296-23.484-23.296-40.919c0-9.534,2.853-18.412,7.688-25.876
		c-19.144,1.774-35.998,6.004-42.745,6.636c0.422,3.586,1.247,7.152,2.434,10.662C723.598,759.288,740.544,788.963,776.147,802.211z
		"/>
	<path style="fill:#FFFFFF;" d="M812.607,807.625c24.539-0.908,42.202-8.525,42.202-8.525c4.037-8.482,4.962-16.436,3.941-23.747
		c-2.969-2.616-6.55-5.698-10.44-8.94C846.178,786.463,831.698,802.751,812.607,807.625z"/>
	<path style="fill:#2A110C;" d="M809.063,755.38c0-3.254,1.609-6.088,4.028-7.897c-3.299-2.948-7.591-4.788-12.352-4.788
		c-10.29,0.019-18.609,8.339-18.628,18.629c0.019,10.287,8.339,18.607,18.628,18.626c8.92,0.003,16.362-6.28,18.185-14.654
		C813.471,765.262,809.063,760.838,809.063,755.38z"/>
	<path style="fill:#FFFFFF;" d="M818.972,746.082c-1.868,0.003-3.593,0.563-5.052,1.513l-0.76-0.059
		c-0.022-0.02-0.048-0.033-0.07-0.052c-2.419,1.809-4.028,4.643-4.028,7.897c0,5.458,4.408,9.882,9.86,9.916
		c0.014-0.063,0.041-0.119,0.054-0.182l0.572-0.497c4.87-0.297,8.736-4.3,8.736-9.238c0-1.735-0.504-3.337-1.34-4.738l0.087-0.613
		c-2.16-1.494-4.276-2.879-6.339-4.153l-0.51,0.328L818.972,746.082z"/>
	<path style="fill:#2A110C;" d="M760.778,734.993l0.465-0.278c4.919-0.439,9.983-0.709,15.064-0.709
		c13.328,0.003,26.777,1.861,38.029,7.508c1.978,0.994,4.083,2.219,6.236,3.537l0.265,0.731l-0.145,0.093
		c2.062,1.275,4.178,2.66,6.339,4.153l0.023-0.162l0.782-0.056c6.862,4.779,13.983,10.392,20.307,15.647l0.224,0.541
		c-0.014,0.14-0.043,0.275-0.058,0.415c3.89,3.242,7.471,6.324,10.44,8.94c5.311,4.677,8.748,7.893,8.748,7.893
		c-6.146-12.707-12.409-23.33-18.709-32.307c-3.691-5.259-7.394-9.974-11.094-14.117c-35.052-39.262-69.795-31.301-90.523-28.176
		c-26.65,4.017-53.042-7.116-53.042-7.116l9.306,12.268c-4.975-0.968-17.761-4.241-26.057-6.403
		c-0.036,0.074-0.075,0.146-0.111,0.221c-0.891,1.849-1.752,3.72-2.607,5.593c-0.096,0.211-0.183,0.426-0.278,0.638
		c6.11,8.439,15.165,14.97,15.165,14.97l-12.974,1.691c0,0,28.202,12.692,41.06,11.564l0.161-0.019
		c6.747-0.632,23.601-4.862,42.745-6.636C760.626,735.281,760.689,735.128,760.778,734.993z"/>
	<path style="fill:#2A110C;" d="M779.221,804.026l-0.085-0.036c-1.039-0.526-1.995-1.18-2.988-1.778
		c-35.603-13.248-52.549-42.923-55.92-49.496c-0.431-0.843-0.643-1.306-0.643-1.306c0.441,3.985,1.179,7.688,2.163,11.14
		c3.771,13.22,11.25,22.655,20.243,29.396c19.908,14.919,47.168,16.585,58.189,16.594
		C792.623,807.689,785.619,806.148,779.221,804.026z"/>
	<path style="fill:#2A110C;" d="M847.981,640.406c-36.819-3.567-65.615-2.331-86.916,0.419
		c-31.761,4.102-46.841,11.579-46.841,11.579c34.434-3.057,67.824-0.163,96.122,4.65c47.235,8.034,80.278,21.423,80.278,21.423
		C877.932,648.442,847.981,640.406,847.981,640.406z"/>
	<path style="fill:#2A110C;" d="M983.494,974.751c-3.128,0.57-6.441,0.819-9.676,0.407c-7.489-0.95-16.626-1.875-25.732-2.611
		c-5.722-0.463-11.432-0.853-16.711-1.125c-5.001-0.258-12.497-0.346-20.446-0.434c-6.056-0.068-12.365-0.139-18.058-0.282
		c-5.812-0.149-10.972-0.378-14.514-0.765c0,0-1.34,5.785,3.525,7.191c1.047,0.302,4.694-0.144,9.883-0.848
		c10-1.354,25.837-3.685,40.599-3.593c18.536,0.117,35.698,5.259,49.077,6.392c2.804,0.239,5.498,0.36,7.942,0.156
		c14.103-1.184,10.013-10.207,10.013-10.207S992.164,973.168,983.494,974.751z"/>
	<path style="fill:#681F1F;" d="M1076.338,808.359L1076.338,808.359c6.878-0.504,13.286-1.616,19.241-3.195
		c1.985-0.526,3.919-1.105,5.803-1.731c15.381-7.79,25.942-23.705,25.942-42.141c0-9.581-2.892-18.504-7.822-25.956
		c-17.771-1.581-37.401-0.977-52.758,6.736c-2.905,1.459-6.078,3.367-9.36,5.513c-5.03,3.288-10.33,7.182-15.468,11.203
		c-3.049,2.386-6.039,4.805-8.862,7.15C1035.265,788.637,1053.514,806.571,1076.338,808.359z M1061.192,757.499
		c1.748-8.649,9.307-15.172,18.428-15.383c1.696-3.04,4.904-5.121,8.634-5.121c5.481,0,9.922,4.444,9.922,9.925
		c0,1.837-0.534,3.537-1.406,5.013c1.572,2.789,2.543,5.961,2.543,9.391c0,10.631-8.619,19.25-19.252,19.25
		c-10.633,0-19.25-8.619-19.25-19.25C1060.811,760.014,1060.943,758.735,1061.192,757.499z"/>
	<path style="fill:#681F1F;" d="M848.31,766.414c0.015-0.14,0.044-0.274,0.058-0.415l-0.224-0.541
		c-6.324-5.255-13.445-10.867-20.307-15.647l-0.782,0.056l-0.11,0.775c0.836,1.401,1.34,3.003,1.34,4.738
		c0,4.938-3.866,8.94-8.736,9.238l-0.572,0.497c-0.013,0.062-0.04,0.119-0.054,0.182c-1.823,8.374-9.264,14.656-18.185,14.654
		c-10.29-0.019-18.609-8.339-18.628-18.626c0.019-10.29,8.339-18.609,18.628-18.629c4.761,0,9.053,1.84,12.352,4.788
		c0.022,0.02,0.048,0.033,0.07,0.052l0.76,0.059c1.459-0.95,3.184-1.511,5.052-1.513l1.211,0.122l0.51-0.328l0.145-0.093
		l-0.265-0.731c-2.153-1.318-4.258-2.543-6.236-3.537c-11.252-5.647-24.702-7.505-38.029-7.508c-5.081,0-10.146,0.27-15.064,0.709
		l-0.465,0.278c-0.089,0.135-0.152,0.288-0.24,0.424c-4.834,7.465-7.688,16.342-7.688,25.876c0,17.434,9.383,32.553,23.296,40.919
		c0.994,0.598,1.95,1.252,2.988,1.778l0.085,0.036c6.398,2.122,13.402,3.663,20.959,4.514c1.403,0.158,2.791,0.336,4.235,0.441
		h0.095c1.681-0.134,3.337-0.341,4.967-0.644c1.059-0.195,2.097-0.448,3.131-0.712C831.698,802.751,846.178,786.463,848.31,766.414z
		"/>
	<path style="fill:#B65454;" d="M1232.675,751.332c-8.148,30.402-13.978,56.494-22.315,86.273c-1.53,5.43-3.237,10.709-5.009,15.924
		c75.605-18.381,112.326-87.924,116.503-144.747c0.096-1.346,0.152-2.686,0.207-4.031c-23.761-7.155-46.362-14.813-67.754-22.91
		c-0.18-0.068-0.354-0.138-0.533-0.206c-9.042,26.717-15.581,49.139-21.079,69.554L1232.675,751.332z"/>
	<path style="fill:#B65454;" d="M616.461,808.698l0.626-0.156l0.616,0.19l0.283,0.18c7.474,8.372,15.986,16.032,25.539,22.704
		c13.977,9.763,30.194,17.378,48.796,21.91c-0.21-0.59-0.422-1.18-0.618-1.769c-0.086-0.262-0.157-0.538-0.243-0.8
		c-1.429-4.374-2.809-8.796-4.057-13.351l-0.003-0.002c-8.461-30.146-14.377-56.621-22.714-87.581
		c-0.093,1.66-0.193,3.329-0.193,4.933c0,4.51,0.392,8.699,1.247,11.888l-0.007,0.346l-0.198,0.633l-0.502,0.431l-0.66,0.097
		l-0.343-0.046c-16.293-7.276-19.447-23.247-26.134-37.313c-5.786-12.251-9.779-25.327-11.949-38.697
		c-0.059-0.361-0.088-0.727-0.144-1.089c-5.132-1.168-10.468-1.866-16.09-1.866c-4.689,0-9.556,0.436-14.614,1.355l-0.039,0.009
		c-11.07,2.772-16.436,12.327-19.833,24.167c-0.144,0.502-0.307,0.982-0.444,1.492l-0.017,0.239
		c3.823,31.352,17.222,65.547,41.142,92.725l0.098-0.174L616.461,808.698z"/>
	<path style="fill:#194051;" d="M1340.263,1884.002c-41.42-45.684-93.109-73.318-134.139-105.515
		c-26.95-21.138-35.5-50.085-35.491-77.99v-0.059h0c0.03-44.166,21.053-85.851,24.523-92.464c-0.375-0.241-0.835-0.532-1.429-0.905
		c-1.52-0.948-3.698-2.297-6.331-3.915c-5.264-3.232-12.334-7.547-19.547-11.951c-14.453-8.83-29.381-17.956-31.791-19.664
		c-1.668-1.184-3.281-2.412-4.896-3.605c-0.475-0.353-0.938-0.725-1.411-1.08c-3.936,1.088-7.874,2.161-11.822,3.126
		c-3.201,0.785-6.426,1.462-9.654,2.176c-2.207,0.487-4.395,1.016-6.582,1.464c-4.349,0.891-8.711,1.674-13.079,2.434
		c-1.028,0.18-2.039,0.385-3.043,0.555c-5.155,0.86-10.317,1.608-15.486,2.287l-0.526,0.073
		c-19.293,2.509-38.663,3.732-57.982,3.732c-2.305,0-4.603-0.125-6.906-0.16c-1.881-0.028-3.761-0.079-5.642-0.131
		c-2.929-0.08-5.863-0.068-8.788-0.204c-1.722-0.08-3.439-0.154-5.152-0.251c-3.135-0.183-6.266-0.395-9.393-0.638
		c-1.72-0.134-3.438-0.292-5.157-0.446c-10.521-0.938-21.001-2.241-31.423-3.895c-1.71-0.273-3.418-0.536-5.115-0.824
		c-3.05-0.521-6.095-1.074-9.133-1.654c-1.788-0.339-3.576-0.704-5.367-1.067c-3.047-0.616-6.088-1.23-9.111-1.907
		c-0.811-0.18-1.625-0.39-2.46-0.582c-6.188-1.418-12.344-2.972-18.47-4.638c-1.917-0.524-3.834-1.04-5.742-1.583
		c-2.794-0.801-5.576-1.63-8.356-2.48c-2.015-0.617-4.024-1.257-6.034-1.9c-2.714-0.872-5.427-1.735-8.115-2.651
		c-2.368-0.806-4.719-1.668-7.084-2.516c-4.193-1.503-8.361-3.062-12.509-4.685c-2.259-0.882-4.517-1.761-6.755-2.677
		c-2.427-0.992-4.843-2.012-7.255-3.043c-2.316-0.994-4.621-2.01-6.923-3.04c-2.281-1.018-4.558-2.026-6.814-3.079
		c-3.474-1.62-6.928-3.296-10.363-5.001c-2.509-1.245-5.001-2.531-7.493-3.822c-2.675-1.386-5.342-2.779-7.987-4.217
		c-2.015-1.097-4.02-2.215-6.022-3.343c-2.582-1.452-5.147-2.933-7.703-4.431c-1.842-1.084-3.691-2.159-5.513-3.262
		c-4.076-2.468-8.122-4.984-12.119-7.576c-1.24-0.804-2.468-1.656-3.722-2.484c-3.067-2.03-6.12-4.086-9.137-6.188
		c-1.622-1.13-3.23-2.28-4.843-3.435c-2.75-1.966-5.476-3.963-8.183-5.992c-1.454-1.089-2.914-2.166-4.346-3.267
		c-3.98-3.052-7.927-6.151-11.808-9.335c-0.604-0.494-1.198-1.021-1.824-1.54c-3.396-2.816-6.753-5.679-10.073-8.592
		c-1.255-1.105-2.502-2.227-3.752-3.35c-2.804-2.514-5.574-5.067-8.317-7.654c-1.133-1.067-2.266-2.122-3.379-3.191
		c-3.765-3.621-7.488-7.291-11.134-11.046l-0.279-0.296l-0.005-0.005c-3.569-3.683-7.065-7.447-10.516-11.262
		c-0.96-1.057-1.905-2.132-2.86-3.206c-2.721-3.065-5.408-6.17-8.056-9.316c-0.865-1.03-1.737-2.048-2.589-3.079
		c-3.4-4.117-6.752-8.282-10.016-12.53c-0.009-0.012-0.021-0.025-0.03-0.037l-0.054-0.061l-0.005-0.005l-0.782-0.08
		c-1.514,0.988-3.103,1.981-4.634,2.979l0.829,0.141c156.858,201.364,296.835,414.165,447.471,618.411l0.053,0.65l-0.555,0.344
		h197.049l0.441-0.182l0.183-0.441v-138.948H1340.263z"/>
	<path style="fill:#247868;" d="M1084.629,2022.58c-150.636-204.246-290.614-417.047-447.471-618.411l-0.829-0.141h-0.001
		c-7.14,4.604-14.129,9.072-20.95,13.398l-0.256,0.731c0.016,0.046,0.031,0.092,0.047,0.138
		c51.734,148.265,54.577,306.373,54.728,465.084h1.895v139.571h-0.624l0.183,0.441l0.441,0.182h412.336l0.555-0.344
		L1084.629,2022.58z"/>
	<path style="fill:#52191A;" d="M709.766,1322.191l0.183-0.699l0.55-0.465l0.348-0.144c2.872-0.244,5.645-0.665,8.324-1.25
		c18.745-4.099,32.879-16.282,42.716-32.394c1.401-2.297,2.716-4.68,3.939-7.126c2.451-4.894,4.543-10.056,6.285-15.379
		c4.346-13.306,6.49-27.632,6.49-41.354v-0.022c0-9.812-1.093-19.308-3.239-27.903l-0.001,0
		c-35.32-126.212-105.403-237.244-133.766-362.538l0.029-0.368l0.261-0.658l0.587-0.395l0.704,0.008l0.348,0.112
		c-9.554-6.672-18.066-14.331-25.539-22.704l-0.283-0.18l-0.616-0.19l-0.626,0.156l-0.453,0.456l-0.098,0.174l-0.065,0.116
		c-18.314,73.859-42.249,147.196-46.022,223.425c-0.292,5.932-0.441,11.861-0.441,17.778c0,59.793,15.201,118.424,50.477,167.661
		c14.565,20.297,23.44,44.555,40.863,63.337c14.553,15.659,31.54,29.43,49.537,41.515l-0.234-0.295L709.766,1322.191z"/>
	<path style="fill:#301015;" d="M736.259,1338.904l0.662-0.031l0.326-0.112c0.863-0.599,1.754-1.211,2.621-1.817
		c0.158-0.11,0.31-0.219,0.468-0.329c28.793-20.114,54.795-39.141,73.654-54.348c9.481-7.644,17.157-14.319,22.499-19.713
		c2.673-2.699,4.763-5.074,6.217-7.125c1.437-2.059,2.322-3.776,2.351-5.44v-220.704l-0.078-0.302l-0.292-0.528l-0.214-0.226
		c-37.79-23.749-73.973-48.051-84.638-59.871c-22.923-25.381-49.669-64.689-66.565-114.005l-0.168-0.258l-0.446-0.404l-0.273-0.146
		c-0.021-0.005-0.041-0.011-0.062-0.016c-18.602-4.533-34.819-12.148-48.796-21.91l-0.348-0.112l-0.704-0.008l-0.587,0.395
		l-0.261,0.658l-0.029,0.368c28.363,125.294,98.446,236.326,133.766,362.538l0.001,0c2.146,8.595,3.239,18.092,3.239,27.903v0.022
		c0,13.722-2.144,28.048-6.49,41.354c-1.742,5.323-3.834,10.485-6.285,15.379c-1.223,2.446-2.538,4.828-3.939,7.126
		c-9.837,16.112-23.971,28.295-42.716,32.394c-2.68,0.585-5.452,1.006-8.324,1.25l-0.348,0.144l-0.55,0.465l-0.183,0.699
		l0.259,0.675l0.234,0.295c8.212,5.514,16.653,10.55,25.145,15.36c0.173,0.098,0.345,0.205,0.519,0.303L736.259,1338.904z"/>
	<path style="fill:#681F1F;" d="M598.52,313.902l0.524-0.1l0.519,0.134l0.246,0.127c1.82,1.537,3.571,3.133,5.262,4.777
		c1.688,1.647,3.308,3.345,4.867,5.096c3.118,3.496,5.978,7.191,8.594,11.06c2.612,3.866,4.98,7.903,7.111,12.078
		c5.325,10.443,9.167,21.771,11.681,33.542c1.508,7.063,2.533,14.285,3.116,21.572c0.39,4.862,0.578,9.749,0.578,14.64
		c0,13.857-1.556,27.716-4.384,40.977c3.079-0.325,6.157-0.619,9.234-0.831c2.102-0.151,4.178-0.217,6.232-0.312
		c1.498-0.066,3.023-0.178,4.577-0.221c2.013-0.056,4.02-0.073,6.017-0.073c0.924,0,1.846,0.003,2.768,0.01h0.171
		c0.441,0,0.914-0.012,1.405-0.012l0.336,0.002c3.401,0.049,6.789,0.173,10.139,0.363l0.443,0.017h0.012
		c5.742,0.336,11.413,0.933,17.031,1.678c8.236,1.096,16.36,2.594,24.28,4.616c0.284,0.072,0.604,0.145,0.916,0.217
		c12.217-29.318,23.102-59.004,32.063-88.848l0.005-0.017l0.015-0.044c0.026-0.073,2.65-6.888,7.321-17.319
		c-7.415-12.217-13.805-24.9-19.58-36.452l-0.029-0.065l-0.047-0.127l-0.017-0.063c-2.69-10.745-4.295-21.493-4.928-32.171
		c-0.21-3.559-0.312-7.111-0.312-10.653c0-8.758,0.633-17.457,1.834-26.056c5.209-37.272,21.094-72.711,42.466-103.447l0.109-0.122
		l0.256-0.212l0.161-0.059l-0.015-0.031c0.001,0,0.002-0.001,0.003-0.001l-0.005,0.001c-87.342,39.452-141.091,91.16-181.59,166.855
		l0.183-0.21L598.52,313.902z"/>
	<path style="fill:#52191A;" d="M779.511,147.605l-0.161,0.059l-0.256,0.212l-0.109,0.122
		c-21.372,30.735-37.257,66.175-42.466,103.447c-1.201,8.599-1.834,17.299-1.834,26.056c0,3.542,0.102,7.093,0.312,10.653
		c0.633,10.677,2.239,21.425,4.928,32.171l0.017,0.063l0.047,0.127l0.029,0.065c5.775,11.553,12.165,24.235,19.58,36.452
		c0.045-0.102,0.084-0.191,0.13-0.294v0.005l0.127-0.295l0.003-0.005c1.24-2.757,2.619-5.744,4.126-8.925l0.024-0.051v0.003
		c0.726-1.537,1.484-3.118,2.276-4.731l0.195-0.402c1.545-3.155,3.194-6.443,4.948-9.82l0.402-0.775
		c0.855-1.644,1.735-3.303,2.638-4.984l0.292-0.538c0.843-1.569,1.713-3.145,2.592-4.724l0.4-0.718l0.003-0.004l-0.001-0.001
		c0.921-1.644,1.866-3.296,2.823-4.943l0.003-0.005l-0.001,0l0.626-1.074v-0.003c0.991-1.683,1.99-3.374,3.018-5.064l-0.002,0.004
		l0.061-0.102l0.005-0.007c0.999-1.632,2.02-3.262,3.052-4.884l0.733-1.155v-0.003c1.025-1.601,2.065-3.191,3.128-4.77l0.003-0.004
		l-0.001,0l0.665-0.982c0.952-1.4,1.917-2.794,2.892-4.173l0.633-0.897l0.01-0.012c1.087-1.524,2.189-3.021,3.308-4.496l0.003-0.009
		l0.879-1.155l0.026-0.029c1.128-1.482,2.276-2.952,3.443-4.387l0.013-0.014l0.403-0.486l0.004,0
		c1.077-1.314,2.163-2.592,3.256-3.844l0.914-1.047l0.008-0.007l-0.001-0.001c1.172-1.321,2.361-2.611,3.557-3.863l0.01-0.01
		l0.872-0.892c1.082-1.106,2.17-2.183,3.274-3.228h0l0.667-0.641l0.01-0.009c1.241-1.158,2.491-2.255,3.747-3.309l0.01-0.009
		l0.999-0.831l0.02-0.012c1.265-1.035,2.54-2.038,3.839-2.976v0l0.01-0.008l0.02-0.012l0.575-0.4c1.177-0.833,2.356-1.61,3.54-2.346
		l0.952-0.59l0.049-0.026l0.009-0.005l0,0c1.295-0.768,2.595-1.478,3.907-2.127l0.022-0.01l0.935-0.438
		c1.226-0.576,2.462-1.097,3.705-1.557l0,0l0.009-0.004c0.001,0,0.003-0.001,0.004-0.001l0,0l0.526-0.207l0.01-0.005l0.046-0.017
		c1.375-0.485,2.75-0.868,4.12-1.195l0.028-0.011l1.016-0.229l0.055-0.006c1.366-0.288,2.749-0.519,4.149-0.645l0.027-0.003
		l0.024-0.002l0.653-0.032v0.002c0.744-0.052,1.49-0.077,2.236-0.077c0.526,0,1.053,0.012,1.569,0.034l0.867,0.034l0.054,0.005
		l0.02,0.003l-0.001,0.002c1.404,0.1,2.803,0.298,4.203,0.583l0.046,0.012h0.003l0.921,0.217c1.354,0.317,2.719,0.713,4.092,1.219
		l0-0.001l0.304,0.1l0.03,0.01l0.027,0.01c1.459,0.56,2.901,1.257,4.333,2.019l0.011,0.008l0.942,0.513l0.026,0.012
		c1.413,0.807,2.829,1.705,4.245,2.735l0.001-0.002l0.015,0.01l0.036,0.027l0.627,0.486l0.026,0.015
		c1.299,0.984,2.597,2.063,3.89,3.235l-0.003-0.003l0.731,0.655l0.034,0.034l0,0c1.4,1.309,2.786,2.754,4.165,4.291l0.001-0.001
		l0.007,0.008l0.03,0.031l0.894,1.026v0.003c1.432,1.652,2.862,3.393,4.295,5.33l0.115,0.28l0.085,0.577l-0.029,0.297l-0.071,0.203
		l0.001,0.002c-0.078,0.224-0.242,0.709-0.453,1.359l-0.048,0.151c-0.117,0.363-0.251,0.791-0.397,1.271l-0.002,0l-0.001,0.005
		c-0.149,0.485-0.314,1.026-0.485,1.617l-0.003,0.001l-0.002,0.018c-0.173,0.587-0.358,1.23-0.546,1.917l-0.005,0.012l-0.008,0.026
		l-0.009,0.027c-0.19,0.686-0.388,1.423-0.597,2.21l0,0l-0.005,0.022l-0.001,0l-0.004,0.032c-2.599,9.9-6.163,27.294-6.163,47.912
		c0,5.425,0.248,11.075,0.823,16.87c1.686,17.006,6.241,35.233,15.683,52.785c10.58,3.282,21.283,5.157,32.052,5.885
		c3.647,0.246,7.298,0.363,10.957,0.363c9.011,0,18.049-0.711,27.079-1.961c9.028-1.247,18.049-3.033,27.018-5.177
		c8.97-2.146,17.888-4.648,26.714-7.332c8.806-2.677,17.516-5.533,26.099-8.395c61.797-28.518,106.544-102.027,106.529-172.782
		v-0.034c0-2.463-0.056-4.921-0.166-7.376c-0.107-2.453-0.27-4.901-0.492-7.342l0.036-0.277l0.195-0.507l0.395-0.375l0.524-0.163
		l0.275-0.022c0.001,0,0.002,0.001,0.003,0.001l0-0.001c-9.206-1.369-18.96-2.095-29.321-2.095c-9.603,0-19.752,0.661-30.439,1.975
		c-0.936-4.991-5.733-26.88-21.702-48.937c-18.1-25.038-50.716-50.085-107.878-50.073h-0.041c-20.928,0-45.14,3.337-73.145,11.22
		c-42.17,11.839-78.722,24.725-110.801,39.226c-0.001,0.001-0.001,0.001-0.003,0.001L779.511,147.605z"/>
	<path style="fill:#681F1F;" d="M1152.548,196.277l-0.524,0.163l-0.395,0.375l-0.195,0.507l-0.036,0.277
		c0.222,2.441,0.385,4.889,0.492,7.342c0.11,2.456,0.166,4.914,0.166,7.376v0.034c0.014,70.755-44.732,144.264-106.529,172.782
		c-8.583,2.861-17.293,5.718-26.099,8.395c-8.826,2.685-17.744,5.187-26.714,7.332c-8.969,2.144-17.99,3.929-27.018,5.177
		c-9.031,1.25-18.068,1.961-27.079,1.961c-3.659,0-7.31-0.117-10.957-0.363c-10.769-0.727-21.472-2.602-32.052-5.885
		c0.041,0.076,0.074,0.153,0.115,0.228l0.099,0.197l0.006,0.01l0.019,0.034c0.843,1.557,1.705,3.104,2.624,4.633
		c0.994,1.661,2.002,3.308,3.082,4.938l0.1,0.294l0.046,0.604l-0.253,0.553l-0.49,0.358l-0.292,0.115l-0.424,0.051l-0.422,0.051
		l0.502,0.933l-0.003-0.005l0.024,0.046l0.007,0.01c1.838,3.343,6.469,11.354,14.413,22.793c4.169,6.003,9.348,13.027,15.418,20.742
		c19.328,24.565,48.576,56.827,90.378,91.188l-0.212-0.349l-0.166-0.752l0.046-0.405c31.951-66.348,107.885-114.762,180.044-114.794
		c12.256,0,24.393,1.46,36.195,4.418c-2.589-9.17-4.242-18.782-4.902-28.603c-0.238-3.51-0.356-7.045-0.356-10.59
		c0.002-13.315,1.652-26.777,4.836-39.708c5.732-23.274,16.422-44.826,31.432-60.655c3.337-3.515,6.884-6.75,10.641-9.656
		l0.234-0.115l0.495-0.119l0.494,0.09l0.417,0.28l0.092,0.076l0.002,0.002l0.088,0.11c-27.449-43.639-64.264-83.172-127.113-92.501
		c-0.001,0-0.002-0.001-0.003-0.001L1152.548,196.277z"/>
	<path style="fill:#52191A;" d="M1279.849,288.645l-0.092-0.076l-0.417-0.28l-0.494-0.09l-0.495,0.119l-0.234,0.115
		c-3.757,2.906-7.303,6.141-10.641,9.656c-15.011,15.83-25.701,37.381-31.432,60.655c-3.184,12.93-4.833,26.392-4.836,39.708
		c0,3.545,0.117,7.079,0.356,10.59c0.661,9.821,2.313,19.433,4.902,28.603c-11.802-2.958-23.939-4.418-36.195-4.418
		c-72.158,0.032-148.092,48.446-180.044,114.794l-0.046,0.405l0.166,0.752l0.212,0.349c15.815,12.999,33.371,26.278,52.889,39.544
		l-0.253-0.365l-0.205-0.809l0.393-0.736l0.782-0.287l0.443,0.005c52.993,20.892,126.19,47.337,154.777,47.313h0.066
		c3.89,0.005,6.908-0.514,8.775-1.462l0,0c0.943-0.49,1.592-1.03,2.01-1.661c0.419-0.631,0.634-1.374,0.645-2.346v-0.005
		c0.003-1.44-0.563-3.401-1.878-5.825c-25.927-48.068-57.072-109.096-59.6-114.158l-0.041-0.451l0.236-0.814l0.728-0.439
		l0.831,0.178l0.383,0.251c0.207,0.297,0.567,0.807,1.062,1.508c6.679,9.457,38.263,53.756,66.194,82.355
		c3.101,3.177,6.161,6.161,9.133,8.88c3.949,3.629,7.759,6.777,11.306,9.286c5.871,4.171,11.043,6.551,14.792,6.536h0.063
		c2.451-0.027,4.239-0.85,5.771-2.885c2.292-3.074,4.336-7.937,6.093-14.046c0.704-2.446,1.364-5.086,1.98-7.9
		c0.31-1.408,0.609-2.855,0.894-4.341c0.58-2.972,1.114-6.098,1.613-9.34c0.994-6.485,1.832-13.452,2.533-20.636
		c0.351-3.596,0.668-7.243,0.952-10.916c2.305-29.41,2.675-60.446,2.675-77.286c0-7.929-0.083-12.675-0.083-12.711l0.132-0.383
		l0.48-0.616l0.762-0.181l0.706,0.339l0.288,0.285c0.012,0.027,1.045,2.188,2.954,6.18c1.271,2.659,2.96,6.187,4.952,10.35
		c-2.834-26.188-6-51.842-9.524-75.212c-6.411-42.556-13.985-77.681-22.582-95.018l-0.063-0.265l-0.01-0.538l0.061-0.278
		l0.254-0.683l-0.042-0.102l0.002-0.48l0.097-0.229l0.09-0.212l0.343-0.336l0.35-0.14c-0.303-0.586-0.603-1.184-0.925-1.721
		c-1.605-2.673-3.245-5.33-4.904-7.968l-0.088-0.11L1279.849,288.645z"/>
	<path style="fill:#52191A;" d="M624.044,672.188c0.023,0.541,0.05,1.082,0.066,1.587l0.027-0.198l0.112-0.375l0.085-0.178
		c44.059-63.284,77.912-135.715,93.415-209.033l0.1-0.227l0.277-0.399l0.417-0.261l0.482-0.075l0.251,0.012
		c-7.92-2.022-16.044-3.52-24.28-4.616c-5.618-0.745-11.289-1.342-17.031-1.678h-0.012l-0.443-0.017
		c-3.35-0.19-6.738-0.314-10.139-0.363l-0.336-0.002c-0.492,0-0.965,0.012-1.405,0.012h-0.171c-0.921-0.008-1.844-0.01-2.768-0.01
		c-1.998,0-4.005,0.017-6.017,0.073c-1.554,0.044-3.079,0.156-4.577,0.221c-2.054,0.095-4.129,0.161-6.232,0.312
		c-3.076,0.212-6.155,0.506-9.234,0.831c2.828-13.261,4.384-27.121,4.384-40.977c0-4.891-0.188-9.778-0.578-14.64
		c-0.582-7.286-1.608-14.509-3.116-21.572c-2.514-11.771-6.356-23.099-11.681-33.542c-2.131-4.175-4.499-8.212-7.111-12.078
		c-2.616-3.868-5.476-7.564-8.594-11.06c-1.559-1.752-3.179-3.449-4.867-5.096c-1.691-1.644-3.442-3.24-5.262-4.777l-0.246-0.127
		l-0.519-0.134l-0.524,0.1l-0.434,0.316l-0.183,0.21c-8.432,15.778-11.976,33.096-18.107,49.6
		c-12.626,34.003-19.997,67.106-28.09,102.073c-5.618,24.275-8.463,49.196-8.463,74.115c0,13.403,0.824,26.809,2.483,40.114
		c1.51,12.114,3.751,24.368,8.799,35.654c7.506,16.76,20.585,29.846,35.961,39.872c0.188,0.122,0.365,0.257,0.553,0.378
		C601.323,662.864,612.62,668.131,624.044,672.188z"/>
	<path style="fill:#301015;" d="M668.385,728.564c1.725-5,3.802-9.875,5.997-14.717c0.096-0.212,0.182-0.427,0.278-0.638
		c0.855-1.873,1.715-3.744,2.607-5.593c0.035-0.074,0.075-0.146,0.111-0.221c4.102-8.466,8.55-16.807,12.842-25.2
		c28.909-56.589,49.878-116.96,69.822-177.028c7.021-21.15,14.904-42.141,23.188-62.848l0.003-0.003
		c0.322-0.819,1.533-4.658,2.916-8.431c0.689-1.873,1.413-3.705,2.049-5.035c0.309-0.649,0.603-1.177,0.823-1.498l0.176-0.215
		l110.621-13.32l0.422-0.051l0.424-0.051l0.292-0.115l0.49-0.358l0.253-0.553l-0.046-0.604l-0.1-0.294
		c-1.08-1.63-2.088-3.277-3.082-4.938c-0.918-1.53-1.781-3.077-2.624-4.633l-0.019-0.034l-0.006-0.01l-0.099-0.197
		c-0.041-0.076-0.074-0.153-0.115-0.228c-9.442-17.552-13.997-35.779-15.683-52.785c-0.575-5.795-0.823-11.445-0.823-16.87
		c0-20.619,3.564-38.012,6.163-47.912l0.004-0.032l0.001,0l0.005-0.022l0,0c0.209-0.786,0.407-1.524,0.597-2.21l0.009-0.027
		l0.008-0.026l0.005-0.012c0.188-0.687,0.373-1.33,0.546-1.917l0.002-0.018l0.003-0.001c0.171-0.592,0.336-1.133,0.485-1.617
		l0.001-0.005l0.002,0c0.146-0.48,0.28-0.909,0.397-1.271l0.048-0.151c0.212-0.651,0.375-1.135,0.453-1.359l-0.001-0.002
		l0.071-0.203l0.029-0.297l-0.085-0.577l-0.115-0.28c-1.432-1.937-2.862-3.678-4.295-5.33v-0.003l-0.894-1.026l-0.03-0.031
		l-0.007-0.008l-0.001,0.001c-1.378-1.537-2.765-2.981-4.165-4.291l0,0l-0.034-0.034l-0.731-0.655l0.003,0.003
		c-1.294-1.172-2.592-2.251-3.89-3.235l-0.026-0.015l-0.627-0.486l-0.036-0.027l-0.015-0.01l-0.001,0.002
		c-1.416-1.029-2.832-1.927-4.245-2.735l-0.026-0.012l-0.942-0.513l-0.011-0.008c-1.432-0.762-2.874-1.459-4.333-2.019l-0.027-0.01
		l-0.03-0.01l-0.304-0.1l0,0.001c-1.374-0.505-2.738-0.901-4.092-1.219l-0.921-0.217h-0.003l-0.046-0.012
		c-1.399-0.285-2.799-0.482-4.203-0.583l0.001-0.002l-0.02-0.003l-0.054-0.005l-0.867-0.034c-0.516-0.022-1.043-0.034-1.569-0.034
		c-0.747,0-1.492,0.025-2.236,0.077v-0.002l-0.653,0.032l-0.024,0.002l-0.027,0.003c-1.4,0.126-2.783,0.356-4.149,0.645
		l-0.055,0.006l-1.016,0.229l-0.028,0.011c-1.37,0.328-2.745,0.71-4.12,1.195l-0.046,0.017l-0.01,0.005l-0.526,0.207l0,0
		c-0.001,0-0.003,0.001-0.004,0.001l-0.009,0.004l0,0c-1.243,0.46-2.479,0.981-3.705,1.557l-0.935,0.438l-0.022,0.01
		c-1.312,0.649-2.612,1.359-3.907,2.127l0,0l-0.009,0.005l-0.049,0.026l-0.952,0.59c-1.184,0.736-2.363,1.513-3.54,2.346l-0.575,0.4
		l-0.02,0.012l-0.01,0.008v0c-1.298,0.938-2.573,1.941-3.839,2.976l-0.02,0.012l-0.999,0.831l-0.01,0.009
		c-1.256,1.053-2.506,2.151-3.747,3.309l-0.01,0.009l-0.667,0.641h0c-1.104,1.045-2.192,2.122-3.274,3.228l-0.872,0.892l-0.01,0.01
		c-1.196,1.252-2.385,2.543-3.557,3.863l0.001,0.001l-0.008,0.007l-0.914,1.047c-1.093,1.251-2.179,2.53-3.256,3.844l-0.004,0
		l-0.403,0.486l-0.013,0.014c-1.167,1.436-2.315,2.906-3.443,4.387l-0.026,0.029l-0.879,1.155l-0.003,0.009
		c-1.119,1.475-2.221,2.972-3.308,4.496l-0.01,0.012l-0.633,0.897c-0.975,1.379-1.939,2.772-2.892,4.173l-0.665,0.982l0.001,0
		l-0.003,0.004c-1.062,1.579-2.102,3.169-3.128,4.77v0.003l-0.733,1.155c-1.033,1.622-2.054,3.252-3.052,4.884l-0.005,0.007
		l-0.061,0.102l0.002-0.004c-1.028,1.69-2.027,3.381-3.018,5.064v0.003l-0.626,1.074l0.001,0l-0.003,0.005
		c-0.957,1.647-1.902,3.298-2.823,4.943l0.001,0.001l-0.003,0.004l-0.4,0.718c-0.879,1.578-1.749,3.155-2.592,4.724l-0.292,0.538
		c-0.904,1.681-1.783,3.34-2.638,4.984l-0.402,0.775c-1.754,3.377-3.403,6.665-4.948,9.82l-0.195,0.402
		c-0.792,1.613-1.55,3.194-2.276,4.731v-0.003l-0.024,0.051c-1.508,3.181-2.887,6.168-4.126,8.925l-0.003,0.005l-0.127,0.295v-0.005
		c-0.046,0.103-0.085,0.192-0.13,0.294c-4.672,10.431-7.295,17.246-7.321,17.319l-0.015,0.044l-0.005,0.017
		c-8.961,29.844-19.846,59.531-32.063,88.848c-0.312-0.072-0.632-0.146-0.916-0.217l-0.251-0.012l-0.482,0.075l-0.417,0.261
		l-0.277,0.399l-0.1,0.227c-15.503,73.318-49.357,145.749-93.415,209.033l-0.085,0.178l-0.112,0.375l-0.027,0.198
		c0.183,5.848,0.801,11.667,1.695,17.433c0.056,0.362,0.085,0.727,0.144,1.089c2.17,13.369,6.163,26.446,11.949,38.697
		c6.687,14.066,9.841,30.036,26.134,37.313l0.343,0.046l0.66-0.097l0.502-0.431l0.198-0.633l0.007-0.346
		c-0.855-3.189-1.247-7.379-1.247-11.888c0-1.604,0.1-3.273,0.193-4.933c0.035-0.631,0.025-1.242,0.073-1.875
		C665.304,740.874,666.661,733.544,668.385,728.564z"/>
	<path style="fill:#301015;" d="M1679.235,1581.35c0-51.663-7.394-103.459-20.324-153.508
		c-14.173-54.865-35.113-108.38-66.026-155.954c-21.481-33.052-47.372-62.689-75.411-90.36
		c-24.716-24.39-51.099-47.247-77.603-69.564c-48.721-41.02-98.453-80.842-149.117-119.44
		c59.17-41.896,100.606-106.015,122.119-175.168c14.185-45.596,20.11-93.311,20.11-140.943c0-10.845-0.307-21.688-0.891-32.502
		c-2.797-51.345-23.968-105.289-42.193-153.069c-24.592-64.431-53.617-142.032-102.923-192.105l-0.005-0.005l-0.219-0.09
		l0.019-0.043l-0.431-0.185l-0.477-0.005l-0.094,0.038l-0.35,0.14l-0.343,0.336l-0.09,0.212l-0.097,0.229l-0.002,0.48l0.042,0.102
		l-0.254,0.683l-0.061,0.278l0.01,0.538l0.063,0.265c8.597,17.337,16.171,52.463,22.582,95.018
		c3.524,23.371,6.69,49.024,9.524,75.212c-1.992-4.163-3.681-7.691-4.952-10.35c-1.91-3.993-2.943-6.154-2.954-6.18l-0.288-0.285
		l-0.706-0.339l-0.762,0.181l-0.48,0.616l-0.132,0.383c0,0.036,0.083,4.782,0.083,12.711c0,16.84-0.371,47.876-2.675,77.286
		c-0.285,3.673-0.602,7.32-0.952,10.916c-0.701,7.184-1.54,14.151-2.533,20.636c-0.499,3.242-1.033,6.368-1.613,9.34
		c-0.285,1.486-0.584,2.933-0.894,4.341c-0.616,2.814-1.276,5.455-1.98,7.9c-1.757,6.109-3.8,10.972-6.093,14.046
		c-1.532,2.035-3.32,2.858-5.771,2.885h-0.063c-3.749,0.014-8.92-2.365-14.792-6.536c-3.547-2.509-7.357-5.657-11.306-9.286
		c-2.972-2.719-6.032-5.703-9.133-8.88c-27.932-28.599-59.515-72.899-66.194-82.355c-0.495-0.702-0.855-1.211-1.062-1.508
		l-0.383-0.251l-0.831-0.178l-0.728,0.439l-0.236,0.814l0.041,0.451c2.529,5.062,33.674,66.09,59.6,114.158
		c1.316,2.424,1.881,4.385,1.878,5.825v0.005c-0.012,0.972-0.226,1.715-0.645,2.346c-0.418,0.632-1.066,1.171-2.01,1.661l0,0
		c-1.866,0.948-4.884,1.467-8.775,1.462h-0.066c-28.587,0.024-101.783-26.421-154.777-47.313l-0.443-0.005l-0.782,0.287
		l-0.393,0.736l0.205,0.809l0.253,0.365c47.921,32.504,107.389,64.915,180.327,92.563c0.18,0.068,0.353,0.138,0.533,0.206
		c21.393,8.097,43.993,15.754,67.754,22.91c-0.055,1.344-0.111,2.684-0.207,4.031c-4.177,56.824-40.898,126.367-116.503,144.747
		c-0.009,0.003-0.019,0.005-0.028,0.007l-0.272,0.146l-0.441,0.405l-0.168,0.258c-1.928,5.63-4.005,11.088-6.153,16.454
		c-0.881,2.202-1.741,4.432-2.659,6.583l-0.039,0.129l-0.008,0.038c-16.496,38.574-38.469,69.584-57.719,90.807
		c-9.618,10.655-40.032,31.518-73.628,52.916l-0.212,0.227l-0.287,0.526l-0.076,0.3v172.148c0.006-0.024,0.011-0.048,0.017-0.072
		l-0.002,0.005l0.02-0.073v-0.005c3.459-14.273,7.062-28.472,10.711-42.557l0.127-0.246l0.346-0.412l0.49-0.221l0.536,0.01
		l0.265,0.066c16.365,8.217,23.554,26.597,32.646,41.549c22.2,36.748,61.927,60.514,92.178,90.921
		c31.045,31.249,65.493,58.906,100.217,86.043c68.774,53.769,141.359,106.582,191.037,180.144
		c6.468,9.578,12.487,19.427,18.092,29.503c25.489,45.825,42.444,96.287,54.758,147.318c6.909,28.641,12.049,60.755,12.049,92.565
		c0,8.648-0.38,17.274-1.208,25.8c-1.381,14.212-4.01,28.149-8.2,41.459l-0.003,0.01l-0.044,0.131h0
		c-0.013,0.042-0.029,0.082-0.042,0.124c53.346-56.967,88.241-138.445,102.004-206.611
		C1676.202,1647.45,1679.235,1614.427,1679.235,1581.35z"/>
	<path style="fill:#52191A;" d="M1567.692,1886.409l0.044-0.131l0.003-0.01c4.19-13.311,6.818-27.247,8.2-41.459
		c0.828-8.526,1.208-17.152,1.208-25.8c0-31.81-5.14-63.924-12.049-92.565c-12.314-51.031-29.269-101.493-54.758-147.318
		c-5.605-10.075-11.625-19.924-18.092-29.503c-49.678-73.562-122.263-126.375-191.037-180.144
		c-34.724-27.137-69.172-54.794-100.217-86.043c-30.251-30.407-69.978-54.173-92.178-90.921
		c-9.091-14.952-16.28-33.332-32.646-41.549l-0.265-0.066l-0.536-0.01l-0.49,0.221l-0.346,0.412l-0.127,0.246
		c-3.649,14.085-7.252,28.285-10.711,42.557v0.005l-0.02,0.073l0.002-0.005c-0.005,0.024-0.011,0.048-0.017,0.072
		c-13.225,54.627-23.968,110.419-23.968,165.703c0,28.49,2.855,56.845,9.698,84.828c2.614,10.672,5.856,21.23,9.793,31.506
		c0.09,0.237,0.197,0.467,0.288,0.703c4.93,12.74,10.955,25.043,18.472,36.483c13.748,20.912,31.936,38.259,51.807,53.159
		c0.473,0.355,0.935,0.727,1.411,1.08c1.615,1.193,3.228,2.421,4.896,3.605c2.41,1.708,17.337,10.833,31.791,19.664
		c7.213,4.404,14.283,8.719,19.547,11.951c2.633,1.618,4.811,2.967,6.331,3.915c0.595,0.373,1.054,0.664,1.429,0.905
		c-3.47,6.612-24.492,48.298-24.523,92.464h0v0.059c-0.01,27.905,8.541,56.852,35.491,77.99
		c41.03,32.197,92.719,59.831,134.139,105.515c0.066,0.073,0.135,0.141,0.202,0.214c30.334,33.524,55.192,76.712,66.306,138.733
		c0.013,0.074,0.029,0.145,0.043,0.219l0.212,0.368l0.617,0.514l0.4,0.146h36.112l0.117-0.012l0.229-0.044l0.112-0.032
		c49.043-19.405,86.984-65.133,111.394-109.783c4.822-8.835,8.6-18.169,11.645-27.793
		C1567.663,1886.491,1567.678,1886.451,1567.692,1886.409L1567.692,1886.409z"/>
	<path style="fill:#F39978;" d="M671.791,1883.379H470.915c6.285,62.007,10.083,118.558,11.403,139.571h189.473V1883.379z"/>
</g>
</svg>
