<?xml version="1.0" encoding="utf-8"?>
<!-- Generator: Adobe Illustrator 27.5.0, SVG Export Plug-In . SVG Version: 6.00 Build 0)  -->
<svg version="1.1" id="Capa_1" xmlns="http://www.w3.org/2000/svg" xmlns:xlink="http://www.w3.org/1999/xlink" x="0px" y="0px"
	 viewBox="0 0 425.2 425.2" style="enable-background:new 0 0 425.2 425.2;" xml:space="preserve">
<g>
	<rect style="fill:#FFFFFF;" width="425.2" height="425.2"/>
	
		<linearGradient id="SVGID_1_" gradientUnits="userSpaceOnUse" x1="-35.2289" y1="305.6656" x2="-35.2289" y2="-96.6448" gradientTransform="matrix(1.2383 0.1271 0.1271 1.0678 242.9415 129.7916)">
		<stop  offset="0" style="stop-color:#E3ECC4"/>
		<stop  offset="0.3101" style="stop-color:#BBD9C8"/>
		<stop  offset="0.696" style="stop-color:#89C3CA"/>
		<stop  offset="0.8925" style="stop-color:#74BBCA"/>
	</linearGradient>
	<path style="fill:url(#SVGID_1_);" d="M70.88,393.355h282.762c17.638-15.954,32.876-35.176,44.716-57.378
		c54.861-102.864,16.164-230.606-86.431-285.32C209.337-4.056,81.696,34.978,26.837,137.843
		C-19.65,225.011,1.053,330.038,70.88,393.355z"/>
	<path style="fill:#658F38;" d="M400.888,364.857c-2.769-0.545-5.449-0.568-7.832-0.18c0.403-7.335-4.045-13.89-10.728-15.205
		c-0.311-0.059-0.621-0.09-0.93-0.128c-0.76-9.889-7.255-18.242-16.519-20.063c-9.344-1.837-18.596,3.545-22.997,12.551
		c-0.823-0.363-1.694-0.645-2.606-0.822c-6.546-1.29-13.015,2.884-15.54,9.578c-0.956-0.761-2.075-1.308-3.324-1.555
		c-4.596-0.902-9.138,2.52-10.145,7.646c-1.008,5.123,1.901,10.01,6.496,10.915c3.012,0.59,75.59,14.861,80.477,15.821
		c8.192,1.611,7.572,2.696,11.613-0.611C415.081,377.707,409.081,366.466,400.888,364.857z"/>
	<path style="fill:#658F38;" d="M120.26,364.69c-2.23,6.29-2.27,4.69-12.29,8.34c-5.98,2.18-94.76,34.51-98.45,35.85
		c-3.22,1.17-6.71,0.54-9.52-1.39v-20.75c0.4-0.22,0.82-0.41,1.26-0.57c1.53-0.55,3.11-0.69,4.66-0.49
		c-1.66-8.99,2.66-17.82,10.67-20.74c1.11-0.41,2.25-0.67,3.39-0.82c-1.13-12.75,5.43-24.75,16.86-28.91
		c11.33-4.13,23.95,0.72,31.31,11.03c0.36-0.16,0.72-0.34,1.1-0.47c8.18-2.98,17.37,1.25,21.77,9.54c2.35-2,5.3-3.75,8.68-4.98
		C109.73,346.68,123.71,355.01,120.26,364.69z"/>
	<path style="fill:#56792E;" d="M268.122,360.99c2.924-0.166,5.679,0.192,8.071,0.929c0.628-7.59,6.13-13.69,13.182-14.091
		c0.33-0.017,0.65-0.005,0.974,0.003c2.184-10.053,10.045-17.71,19.821-18.265c9.858-0.56,18.597,6.285,21.837,16.16
		c0.897-0.256,1.831-0.42,2.794-0.475c6.906-0.391,12.959,4.813,14.6,12.049c1.09-0.645,2.317-1.048,3.635-1.124
		c4.851-0.274,9.029,3.887,9.336,9.292c0.306,5.408-3.374,10.016-8.225,10.293c-3.178,0.178-79.757,4.519-84.915,4.813
		c-8.645,0.491-8.159,1.694-11.841-2.279C251.718,372.173,259.478,361.48,268.122,360.99z"/>
	<path style="fill:#56792E;" d="M86.314,362.284c2.685-0.393,5.262-0.29,7.533,0.195c-0.045-7.066,4.538-13.158,11.021-14.107
		c0.3-0.044,0.6-0.058,0.898-0.077c1.19-9.471,7.825-17.191,16.812-18.511c9.063-1.328,17.7,4.277,21.511,13.136
		c0.807-0.309,1.656-0.539,2.541-0.671c6.351-0.928,12.372,3.383,14.485,9.936c0.955-0.689,2.056-1.162,3.267-1.34
		c4.458-0.653,8.662,2.849,9.391,7.821c0.729,4.969-2.294,9.527-6.754,10.183c-2.921,0.427-73.327,10.747-78.068,11.441
		c-7.946,1.164-7.399,2.235-11.128-1.129C72.075,373.967,78.367,363.45,86.314,362.284z"/>
	<path style="fill:#658F38;" d="M0.001,403.788v21.41h425.196v-46.273c0,0-157.734-22.241-240.256-16.45
		C102.42,368.266,0.001,403.788,0.001,403.788z"/>
</g>
<ellipse style="fill:#A6CE88;" cx="255.321" cy="385.128" rx="31.698" ry="9.409"/>
<g>
	<g>
		<path style="fill:#F9BB8D;" d="M233.372,183.355c0,0-0.131,0.878-0.36,2.415c-0.241,1.52-0.602,3.679-1.116,6.269
			c-0.261,1.295-0.559,2.699-0.902,4.186c-0.352,1.488-0.753,3.061-1.227,4.699c-0.512,1.651-1.02,3.336-1.819,5.149
			c-0.184,0.446-0.377,0.896-0.646,1.381c-0.268,0.487-0.449,0.921-0.805,1.447l-0.539,0.779l-0.277,0.384l-0.139,0.19
			c-0.155,0.17,0.322-0.348-0.353,0.388l-0.015,0.013l-0.029,0.027l-0.059,0.054l-0.236,0.216l-0.142,0.126
			c-0.133,0.107-0.27,0.213-0.412,0.314c-0.532,0.389-1.3,0.798-1.642,0.88c-1.783,0.619-3.189,0.536-4.338,0.404
			c-1.172-0.144-2.194-0.395-3.139-0.686c-1.892-0.582-3.545-1.297-5.098-2.03c-3.088-1.478-5.746-3.042-7.994-4.424
			c-2.242-1.386-4.055-2.602-5.319-3.468c-1.271-0.892-1.997-1.401-1.997-1.401l3.719-5.395c0,0,0.695,0.434,1.912,1.193
			c1.24,0.756,3.033,1.822,5.213,3.012c2.176,1.185,4.754,2.51,7.506,3.647c1.369,0.562,2.795,1.074,4.137,1.404
			c0.67,0.171,1.311,0.273,1.826,0.303c0.531,0.061,0.885-0.078,0.705-0.048c0.078-0.017-0.348,0.118-0.506,0.306
			c-0.049,0.047-0.095,0.099-0.135,0.152c-0.003,0.009,0.063-0.063,0.092-0.091l0.224-0.228l0.056-0.057l0.028-0.028l0.014-0.014
			c-0.664,0.727-0.181,0.196-0.329,0.355l0.039-0.075l0.078-0.147c0.055-0.096,0.111-0.19,0.17-0.281
			c0.123-0.177,0.248-0.543,0.377-0.8c0.135-0.26,0.254-0.593,0.371-0.932c0.494-1.289,0.872-2.798,1.229-4.222
			c0.338-1.457,0.625-2.898,0.873-4.28c0.242-1.386,0.449-2.708,0.629-3.933c0.351-2.455,0.582-4.52,0.732-5.959
			c0.135-1.426,0.213-2.241,0.213-2.241L233.372,183.355z"/>
	</g>
	<g>
		<g>
			<path style="fill:#F9BB8D;" d="M266.573,230.604c0,0-0.752,1.974-2.067,5.428c-1.308,3.465-3.167,8.426-5.334,14.396
				c-2.165,5.969-4.648,12.948-7.146,20.44c-1.235,3.745-2.495,7.62-3.65,11.54c-1.185,3.945-2.243,7.861-2.911,11.643
				c-0.232,1.599-0.398,3.678-0.498,5.646c-0.079,2.01-0.134,4.035-0.122,6.073c0.002,4.067,0.136,8.123,0.325,12.055
				c0.386,7.869,0.983,15.251,1.555,21.572c0.574,6.323,1.136,11.593,1.547,15.276c0.427,3.67,0.67,5.768,0.67,5.768l-8.051,1.212
				c0,0-0.357-2.119-0.981-5.828c-0.607-3.701-1.442-8.988-2.351-15.357c-0.905-6.37-1.893-13.815-2.701-21.874
				c-0.402-4.032-0.756-8.217-0.979-12.533c-0.123-2.153-0.178-4.355-0.203-6.587c0.01-2.273,0.035-4.453,0.29-7.086l0.187-1.587
				l0.316-1.845c0.201-1.128,0.389-2.277,0.635-3.338c0.232-1.082,0.466-2.161,0.697-3.237c0.254-1.054,0.508-2.105,0.76-3.151
				c1.016-4.18,2.115-8.213,3.196-12.112c2.185-7.779,4.357-14.963,6.255-21.108c1.901-6.143,3.536-11.242,4.69-14.812
				c1.168-3.574,1.836-5.616,1.836-5.616L266.573,230.604z"/>
		</g>
	</g>
	<path style="fill:#7D4E24;" d="M277.042,142.697c-4.943,24.814-19.92,40.135-24.933,40.135c-5.012,0-24.018-21.729-26.225-44.826
		c-3.553-37.216,5.266-40.943,14.743-45.236c5.013-2.27,22.149-5.417,25.397,1.066C275.307,92.093,281.465,120.501,277.042,142.697z
		"/>
	<g>
		<g>
			<polygon style="fill:#DC9975;" points="189.663,189.677 189.153,194.979 192.176,196.989 192.176,188.816 185.323,181.814 
				184.231,182.551 			"/>
			<polygon style="fill:#DC9975;" points="189.726,192.909 191.179,190.502 184.33,183.504 183.229,184.239 			"/>
			<polygon style="fill:#DC9975;" points="189.411,191.672 189.983,189.528 183.141,185.945 182.465,186.759 			"/>
		</g>
		<polygon style="fill:#F9BB8D;" points="194.937,200.756 188.559,197.798 185.116,194.149 186.479,192.565 191.715,195.213 
			191.439,189.401 185.696,181.385 186.847,180.942 194.376,188.206 199.117,196.125 		"/>
	</g>
	<path style="fill:#973755;" d="M233.621,185.794l-1.995,8.919c0,0-8.617,0.032-11.328-4.846c1.479-7.803,0.356-22.499,11.328-27.77
		C238.133,158.972,233.621,185.794,233.621,185.794z"/>
	<g>
		<g>
			<path style="fill:#F9BB8D;" d="M281.909,182.321c0,0,0.328,3.482,0.73,8.69c0.201,2.607,0.422,5.65,0.611,8.93
				c0.094,1.641,0.18,3.341,0.248,5.08c0.065,1.743,0.115,3.517,0.1,5.368l-0.025,1.404l-0.095,1.524
				c-0.081,0.85-0.161,1.696-0.241,2.535c-0.182,1.717-0.271,3.3-0.4,4.883c-0.223,3.176-0.379,6.186-0.499,8.755
				c-0.101,2.575-0.184,4.721-0.242,6.223c-0.044,1.497-0.069,2.351-0.069,2.351l-6.553,0.046c0,0-0.027-0.875-0.077-2.405
				c-0.035-1.524-0.085-3.702-0.146-6.315c-0.039-2.619-0.07-5.661-0.045-8.965c0.029-1.656,0.027-3.423,0.102-5.102
				c0.029-0.859,0.059-1.725,0.089-2.595l0.015-1.063l-0.035-1.189c-0.059-1.607-0.182-3.29-0.319-4.944
				c-0.142-1.659-0.301-3.301-0.466-4.893c-0.33-3.185-0.684-6.168-0.999-8.724c-0.632-5.118-1.108-8.506-1.108-8.506
				L281.909,182.321z"/>
		</g>
	</g>
	<path style="fill:#973755;" d="M272.231,185.826l0.208,8.921c0,0,9.532,3.039,12.243-1.838c-1.48-7.803,0.514-25.508-10.461-30.778
		C267.715,159.007,272.231,185.826,272.231,185.826z"/>
	<g>
		<g>
			<path style="fill:#F9BB8D;" d="M266.481,216.949c0,0,0.605,9.315,1.334,23.275c0.361,6.984,0.758,15.133,1.082,23.892
				c0.166,4.378,0.301,8.911,0.393,13.539c0.071,4.652,0.156,9.305-0.06,14.268l-0.035,0.923l-0.063,0.92l-0.127,1.737
				c-0.084,1.158-0.17,2.314-0.252,3.468c-0.17,2.309-0.337,4.608-0.504,6.889c-0.319,4.559-0.68,9.059-1.034,13.414
				c-0.706,8.701-1.366,16.822-1.933,23.782c-1.164,13.898-1.94,23.163-1.94,23.163l-8.127-0.495c0,0,0.325-9.284,0.815-23.209
				c0.226-6.953,0.49-15.064,0.773-23.756c0.143-4.34,0.283-8.826,0.381-13.404c0.057-2.286,0.112-4.59,0.168-6.904
				c0.029-1.157,0.057-2.316,0.085-3.476l0.042-1.741l0.018-0.819l-0.007-0.819c0.009-4.327-0.261-8.965-0.524-13.451
				c-0.281-4.51-0.604-8.965-0.953-13.282c-0.689-8.633-1.426-16.703-2.08-23.618c-1.316-13.837-2.309-23.035-2.309-23.035
				L266.481,216.949z"/>
		</g>
	</g>
	<g>
		<path style="fill:#2B3235;" d="M270.946,374.134l-15.624-10.451c-0.619,2.043-2.518,7.031-0.78,9.695
			c4.329,6.636,6.236,8.179,7.615,9.567c6.674,6.734,16.014,3.539,16.605,0.509C279.352,380.425,274.024,377.991,270.946,374.134z"
			/>
		<path style="fill:#F9BB8D;" d="M255.322,363.683c0,0,5.499,9.343,8.413,12.824c2.918,3.476,11.836,3.422,7.211-2.373
			c-4.625-5.797-7.226-10.301-7.226-10.301S259.108,360.465,255.322,363.683z"/>
	</g>
	<path style="fill:#3B4449;" d="M272.439,290.443c0,0-3.75,1.719-19.241,2.037c-15.486,0.316-22.047-3.575-22.047-3.575
		s-1.711-46.54-1.354-54.452c0.357-7.909,6.426-17.678,6.426-17.678l34.143,0.859c0,0,4.936,9.519,5.126,16.438
		C275.762,244.061,272.439,290.443,272.439,290.443z"/>
	<path style="fill:#B53E60;" d="M236.223,216.776l-4.598-54.679l8.084-2.416l26.625-0.206l7.81,2.622l-3.778,55.702
		c0,0-5.826,2.46-17.323,2.46C242.401,220.258,236.223,216.776,236.223,216.776z"/>
	<path style="fill:#F9BB8D;" d="M239.709,159.681c0,0,6.223,10.041,12.766,10.041c6.539,0,13.859-10.246,13.859-10.246l-7.292-1.869
		l0.222-13.453l-12.195,0.577l-0.34,12.876L239.709,159.681z"/>
	<path style="fill:#EAD6D5;" d="M259.153,150.902l0.401-6.816h-14.163l0.742,6.864c0,0,3.863,4.98,7.762,4.464
		C257.794,154.901,259.153,150.902,259.153,150.902z"/>
	<path style="fill:#F9BB8D;" d="M272.37,119.088c0.277,3.532-0.363,16.043-0.908,19.269c-1.482,8.773-11.287,14.876-19.025,14.876
		c-7.739,0-16.553-5.453-18.371-14.876c-0.726-3.758-1.117-13.851-1.117-18.139c0-17.854,7.998-21.914,19.488-21.914
		C263.928,98.305,270.717,98.033,272.37,119.088z"/>
	<path style="fill:#683C11;" d="M238.772,121.443c0.365,0.3-0.011-1.116,4.079-1.387c1.146-0.075,4.243,0.626,4.208-0.025
		c-0.033-0.651,0.186-1.738-0.965-1.773c-1.749-0.055-4.113,0.297-5.359,0.968C239.055,120.132,238.403,121.143,238.772,121.443z"/>
	<path style="fill:#683C11;" d="M266.228,121.44c-0.38,0.3,0.007-1.116-4.274-1.394c-1.2-0.079-4.443,0.618-4.408-0.034
		c0.035-0.653-0.197-1.74,1.006-1.771c1.832-0.053,4.307,0.305,5.613,0.979C265.928,120.129,266.612,121.141,266.228,121.44z"/>
	<path style="fill:#F9BB8D;" d="M236.962,129.229c0,2.544-2.064,4.605-4.607,4.605c-2.543,0-4.604-2.061-4.604-4.605
		c0-2.543,2.061-4.605,4.604-4.605C234.899,124.623,236.962,126.685,236.962,129.229z"/>
	<path style="fill:#F9BB8D;" d="M277.042,129.229c0,2.544-2.063,4.605-4.603,4.605c-2.543,0-4.606-2.061-4.606-4.605
		c0-2.543,2.064-4.605,4.606-4.605C274.98,124.623,277.042,126.685,277.042,129.229z"/>
	<path style="fill:#7D4E24;" d="M268.254,100.128c0.08,0.166,4.641,6.916,5.775,15.413c0.828,6.192-3.242,14.499-3.738,14.73
		c2.641-13.592-7.072-11.975-6.508-21.237c-3.727-0.563-8.035,4.378-13.779,7.645c-9.495,5.393-12.311,0.716-14.346,5.12
		c-2.033,4.406-0.211,9.732-0.211,9.732s-3.596-5.138-3.822-11.312c-0.225-6.175-3.186-12.374,9.029-22.017
		C253.965,87.691,267.323,98.215,268.254,100.128z"/>
	<path style="fill:#432918;" d="M245.011,126.77c0,1.186-0.958,2.146-2.148,2.146c-1.184,0-2.145-0.96-2.145-2.146
		c0-1.185,0.961-2.146,2.145-2.146C244.053,124.623,245.011,125.585,245.011,126.77z"/>
	<path style="fill:#432918;" d="M264.084,126.77c0,1.186-0.958,2.146-2.146,2.146c-1.185,0-2.146-0.96-2.146-2.146
		c0-1.185,0.961-2.146,2.146-2.146C263.126,124.623,264.084,125.585,264.084,126.77z"/>
	<path style="fill:#FFFFFF;" d="M259.53,138.357c0,3.897-3.159,7.059-7.057,7.059c-3.898,0-7.061-3.162-7.061-7.059H259.53z"/>
	<path style="fill:#F6AE87;" d="M266.334,131.827c0,1.108-1.774,2.007-3.956,2.007c-2.185,0-3.958-0.899-3.958-2.007
		c0-1.109,1.773-2.008,3.958-2.008C264.56,129.819,266.334,130.717,266.334,131.827z"/>
	<path style="fill:#F6AE87;" d="M246.82,131.827c0,1.108-1.77,2.007-3.956,2.007c-2.184,0-3.955-0.899-3.955-2.007
		c0-1.109,1.771-2.008,3.955-2.008C245.049,129.819,246.82,130.717,246.82,131.827z"/>
	<path style="fill:#EAD6D5;" d="M254.781,131.298c0,0.179-0.778,0.324-1.738,0.324c-0.96,0-1.735-0.145-1.735-0.324
		c0-0.178,0.775-1.14,1.735-1.14C254.002,130.159,254.781,131.121,254.781,131.298z"/>
	<g>
		<path style="fill:#2B3235;" d="M238.407,374.001l10.428-15.64c1.355,1.651,5.021,5.529,4.436,8.657
			c-1.459,7.789-2.631,9.944-3.371,11.755c-3.584,8.776-13.436,9.401-15.144,6.83C233.051,383.031,237.04,378.743,238.407,374.001z"
			/>
		<path style="fill:#F9BB8D;" d="M248.834,358.362c0,0-1.502,10.736-2.859,15.069c-1.362,4.327-9.621,7.695-7.568,0.571
			c2.053-7.126,2.727-12.283,2.727-12.283S244.106,356.838,248.834,358.362z"/>
	</g>
	<g>
		<g>
			<polygon style="fill:#DC9975;" points="278.008,248.712 274.481,244.719 275.752,241.316 280.547,247.938 279.11,257.626 
				277.789,257.672 			"/>
			<polygon style="fill:#DC9975;" points="276.162,246.061 278.75,247.155 277.315,256.841 275.993,256.892 			"/>
			<polygon style="fill:#DC9975;" points="276.635,247.246 278.354,248.646 274.918,255.561 273.897,255.3 			"/>
		</g>
		<polygon style="fill:#F9BB8D;" points="275.777,236.648 272.35,242.786 271.702,247.762 273.733,248.245 276.422,243.026 
			279.606,247.895 279.662,257.755 280.856,257.438 282.688,247.138 281.879,237.941 		"/>
	</g>
</g>
<ellipse style="fill:#A6CE88;" cx="175.219" cy="384.958" rx="36.05" ry="10.321"/>
<g>
	<g>
		<g>
			<polygon style="fill:#DC9975;" points="147.984,246.819 151.508,242.826 150.238,239.424 145.444,246.044 146.877,255.731 
				148.201,255.778 			"/>
			<polygon style="fill:#DC9975;" points="149.829,244.167 147.239,245.261 148.676,254.95 149.999,254.999 			"/>
			<polygon style="fill:#DC9975;" points="149.357,245.352 147.639,246.753 151.071,253.667 152.098,253.407 			"/>
		</g>
		<polygon style="fill:#AEAEAE;" points="159.924,244.713 150.565,258.449 143.579,251.619 143.306,250.656 153.305,237.811 
			159.772,244.167 		"/>
		<polygon style="fill:#C6C6C6;" points="159.772,244.167 150.415,257.78 143.306,250.656 153.034,236.846 		"/>
		<polygon style="fill:#A6A6A5;" points="158.864,244.512 151.067,255.861 144.756,249.511 152.866,237.995 		"/>
		<polygon style="fill:#61B9D9;" points="158.598,244.603 151.094,255.522 145.022,249.412 152.829,238.333 		"/>
		<polygon style="fill:#58A7C3;" points="151.094,255.522 145.022,249.412 152.829,238.333 		"/>
		<polygon style="fill:#F9BB8D;" points="150.215,234.754 153.643,240.892 154.29,245.868 152.258,246.35 149.569,241.133 
			146.383,245.999 146.327,255.861 145.135,255.544 143.306,245.246 144.111,236.05 		"/>
	</g>
	<g>
		<g>
			<path style="fill:#9A2E24;" d="M154.52,181.633c0,0-0.492,3.379-1.148,8.487c-0.328,2.55-0.697,5.527-1.043,8.701
				c-0.172,1.587-0.339,3.222-0.488,4.873c-0.146,1.645-0.276,3.318-0.344,4.899l-0.041,1.165l0.006,1.013
				c0.023,0.872,0.048,1.741,0.071,2.602c0.061,1.675,0.05,3.461,0.069,5.125c0.004,3.318-0.047,6.364-0.105,8.988
				c-0.077,2.617-0.142,4.798-0.188,6.325c-0.059,1.534-0.095,2.411-0.095,2.411l-7.954-0.056c0,0-0.031-0.853-0.085-2.345
				c-0.068-1.5-0.167-3.643-0.284-6.213c-0.138-2.564-0.314-5.57-0.556-8.733c-0.139-1.575-0.238-3.139-0.433-4.86
				c-0.085-0.837-0.171-1.681-0.257-2.528l-0.104-1.573l-0.031-1.428c-0.024-1.877,0.019-3.661,0.076-5.413
				c0.061-1.748,0.14-3.454,0.227-5.1c0.174-3.29,0.381-6.339,0.57-8.952c0.377-5.217,0.69-8.71,0.69-8.71L154.52,181.633z"/>
		</g>
	</g>
	<path style="fill:#9A2E24;" d="M154.581,186.312l-1.842,7.484c0,0-7.511,1.01-10.221-3.867c0-8.063,0.077-24.456,11.051-29.726
		C160.077,157.079,154.581,186.312,154.581,186.312z"/>
	<g>
		<g>
			<path style="fill:#F9BB8D;" d="M192.61,215.329c0,0,0.203,9.307,0.507,23.268c0.126,6.98,0.254,15.124,0.321,23.866
				c0.037,4.371,0.049,8.893,0.027,13.501c-0.035,4.626-0.06,9.273-0.298,14.135l-0.04,0.906l-0.064,0.916l-0.127,1.736
				c-0.084,1.156-0.168,2.312-0.252,3.465c-0.169,2.307-0.336,4.605-0.504,6.884c-0.318,4.555-0.68,9.052-1.033,13.405
				c-0.707,8.695-1.366,16.81-1.932,23.766c-1.164,13.888-1.94,23.147-1.94,23.147l-8.127-0.496c0,0,0.325-9.277,0.815-23.193
				c0.227-6.948,0.49-15.054,0.773-23.739c0.143-4.337,0.283-8.82,0.383-13.395c0.055-2.285,0.111-4.587,0.168-6.9
				c0.027-1.156,0.056-2.314,0.084-3.474l0.042-1.74l0.019-0.822v-0.834c0.029-4.419-0.137-9.06-0.297-13.571
				c-0.174-4.529-0.375-8.999-0.598-13.329c-0.436-8.659-0.908-16.752-1.33-23.688c-0.895-13.866-1.492-23.111-1.492-23.111
				L192.61,215.329z"/>
		</g>
	</g>
	<g>
		<g>
			<path style="fill:#3B4449;" d="M199.116,220.468c0,0-0.448,8.682-1.12,21.704c-0.319,6.499-0.769,14.135-1.23,22.298
				c-0.463,8.163-0.958,16.87-1.453,25.577l-0.046,0.816l-0.064,0.877l-0.136,1.624c-0.092,1.082-0.182,2.163-0.272,3.242
				c-0.181,2.158-0.362,4.307-0.54,6.439c-0.346,4.259-0.721,8.466-1.102,12.545c-0.753,8.14-1.455,15.738-2.058,22.25
				c-1.239,12.992-2.065,21.653-2.065,21.653l-11.082-0.681c0,0,0.21-8.686,0.525-21.713c0.139-6.5,0.301-14.083,0.473-22.207
				c0.092-4.053,0.167-8.251,0.211-12.536c0.027-2.139,0.055-4.296,0.082-6.46c0.014-1.082,0.027-2.167,0.042-3.252l0.02-1.629
				v-1.563c-0.047-8.664-0.092-17.329-0.135-25.452c-0.045-8.123-0.068-15.686-0.152-22.218c-0.136-13.038-0.227-21.73-0.227-21.73
				L199.116,220.468z"/>
		</g>
	</g>
	<g>
		<path style="fill:#F0F0F0;" d="M194.883,374.134l-15.626-10.452c-0.452,1.496-1.987,9.499-1.987,9.499s-0.254,2.545,0.246,3.056
			c1.855,1.901,7.199,5.32,8.579,6.708c6.669,6.735,16.009,3.539,16.605,0.509c0.095-0.495,0-1.892,0-1.892
			S197.455,377.359,194.883,374.134z"/>
		<path style="fill:#A22D23;" d="M194.883,372.242c-4.626-5.798-7.225-10.301-7.225-10.301s-4.934,0.516-8.401-0.15
			c-0.616,2.044-3.294,10.754-1.44,12.655c1.855,1.9,6.898,5.217,8.278,6.607c6.669,6.733,16.009,3.538,16.605,0.509
			C203.287,378.533,197.959,376.098,194.883,372.242z"/>
		<path style="fill:#FFFFFF;" d="M197.981,375.329c-0.956,0.249-1.876,0.593-2.736,1.064c-3.166,1.734-4.764,3.868-6.073,7.011
			c6.161,3.665,13.021,0.741,13.528-1.842C203.114,379.424,200.586,377.582,197.981,375.329z"/>
		<g>
			<path style="fill:#782519;" d="M190.868,374.445c-0.033-0.042-0.074-0.089-0.121-0.142c-0.201-0.231-0.51-0.589-0.879-1.045
				c-0.064-0.073-0.123-0.147-0.19-0.229c-0.306-0.381-0.657-0.814-1.038-1.28c-0.162-0.199-0.324-0.399-0.497-0.618
				c-0.267-0.339-0.55-0.697-0.845-1.07c-0.102-0.128-0.208-0.257-0.311-0.387c-0.34-0.434-0.686-0.875-1.031-1.315
				c-0.141-0.19-0.29-0.372-0.43-0.563c-0.287-0.365-0.566-0.731-0.838-1.085c-0.224-0.29-0.439-0.581-0.65-0.86
				c-0.361-0.48-0.698-0.935-1.001-1.356c-1.038-1.436-1.678-2.439-1.436-2.426c3,0.192,6.057-0.128,6.057-0.128
				s0.261,0.433,0.766,1.207c0.21,0.324,0.459,0.709,0.759,1.152c0.034,0.066,0.081,0.129,0.128,0.194
				c0.271,0.407,0.577,0.863,0.914,1.356c0.15,0.218,0.307,0.448,0.468,0.678c0.253,0.36,0.517,0.739,0.792,1.126
				c0.11,0.154,0.217,0.305,0.334,0.46c0.297,0.42,0.608,0.86,0.949,1.308c0.066,0.096,0.135,0.197,0.211,0.291
				c0.262,0.367,0.539,0.733,0.826,1.112c0.107,0.15,0.224,0.298,0.336,0.446c0.238,0.319,0.488,0.645,0.742,0.97
				c0.08,0.109,0.154,0.219,0.216,0.319C196.653,375.09,192.883,376.668,190.868,374.445z"/>
			<path style="fill:#E5E5E5;" d="M189.183,364.3l-0.21,0.194l-1.418,1.356l-2.029,1.945c-0.287-0.365-0.566-0.731-0.838-1.085
				l0.901-0.86l1.424-1.356l1.411-1.347C188.634,363.472,188.883,363.857,189.183,364.3z"/>
			<path style="fill:#FFFFFF;" d="M190.225,365.851h-6.187c-0.361-0.48-0.698-0.935-1.001-1.356h6.273
				C189.583,364.902,189.888,365.358,190.225,365.851z"/>
			<path style="fill:#E5E5E5;" d="M191.485,367.655l-0.464,0.493h-0.011l-1.346,1.411h-0.01l-1.513,1.572
				c-0.267-0.339-0.55-0.697-0.845-1.07l0.398-0.421l1.355-1.408l1.642-1.702C190.946,366.889,191.209,367.268,191.485,367.655z"/>
			<path style="fill:#FFFFFF;" d="M192.768,369.422l-3.104,0.136h-0.01l-1.959,0.081l-0.709,0.035
				c-0.34-0.434-0.686-0.875-1.031-1.315l3.096-0.128l1.959-0.083h0.011l0.798-0.033
				C192.116,368.534,192.427,368.975,192.768,369.422z"/>
			<path style="fill:#E5E5E5;" d="M193.805,370.826l-0.457,0.514l-1.301,1.485l-1.301,1.478c-0.201-0.231-0.51-0.589-0.879-1.045
				l0.23-0.27h0.006l1.297-1.479l1.578-1.796C193.241,370.081,193.518,370.447,193.805,370.826z"/>
			<path style="fill:#FFFFFF;" d="M195.099,372.561l-3.052,0.264l-1.943,0.163h-0.006l-0.421,0.04
				c-0.306-0.381-0.657-0.814-1.038-1.28l2.762-0.239l1.947-0.17l0.793-0.068c0.238,0.319,0.488,0.645,0.742,0.97
				C194.963,372.351,195.038,372.46,195.099,372.561z"/>
		</g>
	</g>
	<g>
		<g>
			<path style="fill:#F9BB8D;" d="M175.213,216.162c0,0-0.805,9.219-1.865,23.079c-0.527,6.927-1.121,15.01-1.673,23.657
				c-0.28,4.324-0.537,8.787-0.759,13.308c-0.207,4.5-0.421,9.139-0.4,13.515l-0.002,0.828l0.018,0.823l0.043,1.74
				c0.027,1.16,0.056,2.318,0.084,3.475c0.056,2.313,0.111,4.616,0.167,6.901c0.098,4.576,0.239,9.06,0.382,13.398
				c0.283,8.688,0.547,16.795,0.773,23.746c0.489,13.919,0.816,23.199,0.816,23.199l-8.127,0.496c0,0-0.776-9.261-1.941-23.153
				c-0.565-6.958-1.226-15.075-1.932-23.773c-0.355-4.353-0.715-8.852-1.034-13.408c-0.166-2.28-0.334-4.579-0.502-6.886
				c-0.084-1.154-0.168-2.31-0.252-3.467l-0.127-1.736l-0.064-0.916l-0.036-0.914c-0.23-4.909-0.206-9.558-0.192-14.196
				c0.029-4.618,0.098-9.145,0.193-13.52c0.184-8.75,0.434-16.897,0.668-23.88c0.471-13.959,0.885-23.274,0.885-23.274
				L175.213,216.162z"/>
		</g>
	</g>
	<g>
		<g>
			<path style="fill:#3B4449;" d="M174.116,228.801c0,0-0.251,8.139-0.628,20.348c-0.157,6.097-0.341,13.21-0.538,20.831
				c-0.117,3.826-0.138,7.71-0.195,11.684c-0.025,1.986-0.051,3.987-0.078,5.997l-0.037,2.96l0.039,3.057
				c0.053,4.078,0.103,8.156,0.154,12.17c0.043,4.02,0.152,7.936,0.221,11.749c0.165,7.625,0.318,14.742,0.451,20.842
				c0.297,12.224,0.494,20.372,0.494,20.372l-11.082,0.682c0,0-0.775-8.126-1.939-20.316c-0.566-6.108-1.228-13.235-1.936-20.871
				c-0.344-3.821-0.699-7.77-1.059-11.782c-0.336-4.001-0.676-8.066-1.018-12.131l-0.255-3.048
				c-0.062-1.047-0.124-2.094-0.185-3.138c-0.119-2.05-0.237-4.092-0.354-6.118c-0.228-4.048-0.487-8.06-0.641-11.876
				c-0.343-7.664-0.663-14.816-0.937-20.948c-0.486-12.248-0.81-20.413-0.81-20.413L174.116,228.801z"/>
		</g>
	</g>
	<g>
		<path style="fill:#F0F0F0;" d="M157.063,374.134l15.623-10.452c0.453,1.496,1.988,9.499,1.988,9.499s0.25,2.545-0.246,3.056
			c-1.855,1.901-7.2,5.32-8.576,6.708c-6.676,6.735-16.014,3.539-16.604,0.509c-0.098-0.495,0-1.892,0-1.892
			S154.491,377.359,157.063,374.134z"/>
		<path style="fill:#A22D23;" d="M157.063,372.242c4.627-5.798,7.225-10.301,7.225-10.301s4.932,0.516,8.398-0.15
			c0.617,2.044,3.295,10.754,1.439,12.655c-1.855,1.9-6.898,5.217-8.273,6.607c-6.676,6.733-16.014,3.538-16.604,0.509
			C148.657,378.533,153.985,376.098,157.063,372.242z"/>
		<path style="fill:#FFFFFF;" d="M153.967,375.329c0.951,0.249,1.872,0.593,2.73,1.064c3.164,1.734,4.763,3.868,6.074,7.011
			c-6.162,3.665-13.021,0.741-13.523-1.842C148.829,379.424,151.359,377.582,153.967,375.329z"/>
		<g>
			<path style="fill:#782519;" d="M161.077,374.445c0.031-0.042,0.072-0.089,0.121-0.142c0.203-0.231,0.508-0.589,0.879-1.045
				c0.062-0.073,0.121-0.147,0.191-0.229c0.303-0.381,0.656-0.814,1.036-1.28c0.162-0.199,0.324-0.399,0.495-0.618
				c0.273-0.339,0.557-0.697,0.847-1.07c0.103-0.128,0.212-0.257,0.313-0.387c0.336-0.434,0.683-0.875,1.027-1.315
				c0.143-0.19,0.291-0.372,0.436-0.563c0.285-0.365,0.561-0.731,0.834-1.085c0.224-0.29,0.439-0.581,0.65-0.86
				c0.359-0.48,0.697-0.935,1.004-1.356c1.033-1.436,1.674-2.439,1.43-2.426c-2.998,0.192-6.053-0.128-6.053-0.128
				s-0.264,0.433-0.768,1.207c-0.21,0.324-0.46,0.709-0.758,1.152c-0.033,0.066-0.082,0.129-0.131,0.194
				c-0.27,0.407-0.575,0.863-0.913,1.356c-0.149,0.218-0.306,0.448-0.468,0.678c-0.251,0.36-0.516,0.739-0.792,1.126
				c-0.11,0.154-0.216,0.305-0.333,0.46c-0.297,0.42-0.609,0.86-0.949,1.308c-0.068,0.096-0.136,0.197-0.21,0.291
				c-0.265,0.367-0.543,0.733-0.827,1.112c-0.109,0.15-0.225,0.298-0.338,0.446c-0.236,0.319-0.488,0.645-0.738,0.97
				c-0.084,0.109-0.156,0.219-0.219,0.319C155.294,375.09,159.063,376.668,161.077,374.445z"/>
			<path style="fill:#E5E5E5;" d="M162.762,364.3l0.21,0.194l1.418,1.356l2.032,1.945c0.285-0.365,0.561-0.731,0.834-1.085
				l-0.903-0.86l-1.423-1.356l-1.41-1.347C163.31,363.472,163.06,363.857,162.762,364.3z"/>
			<path style="fill:#FFFFFF;" d="M161.718,365.851h6.188c0.359-0.48,0.697-0.935,1.004-1.356h-6.279
				C162.362,364.902,162.056,365.358,161.718,365.851z"/>
			<path style="fill:#E5E5E5;" d="M160.458,367.655l0.465,0.493h0.009l1.348,1.411h0.008l1.512,1.572
				c0.273-0.339,0.557-0.697,0.847-1.07l-0.399-0.421l-1.354-1.408l-1.642-1.702C160.999,366.889,160.735,367.268,160.458,367.655z"
				/>
			<path style="fill:#FFFFFF;" d="M159.176,369.422l3.104,0.136h0.008l1.959,0.081l0.713,0.035c0.336-0.434,0.683-0.875,1.027-1.315
				l-3.095-0.128l-1.96-0.083h-0.009l-0.798-0.033C159.829,368.534,159.516,368.975,159.176,369.422z"/>
			<path style="fill:#E5E5E5;" d="M158.139,370.826l0.455,0.514l1.303,1.485l1.301,1.478c0.203-0.231,0.508-0.589,0.879-1.045
				l-0.229-0.27h-0.009l-1.293-1.479l-1.58-1.796C158.702,370.081,158.423,370.447,158.139,370.826z"/>
			<path style="fill:#FFFFFF;" d="M156.844,372.561l3.053,0.264l1.942,0.163h0.009l0.42,0.04c0.303-0.381,0.656-0.814,1.036-1.28
				l-2.758-0.239l-1.952-0.17l-0.793-0.068c-0.236,0.319-0.488,0.645-0.738,0.97C156.979,372.351,156.907,372.46,156.844,372.561z"
				/>
		</g>
	</g>
	<path style="fill:#3B4449;" d="M197.598,249.583c0.648-6.622,1.925-13.893,1.828-17.402c-0.188-6.92-5.125-16.437-5.125-16.437
		l-34.141-0.861c0,0-6.068,9.769-6.426,17.678c-0.111,2.458,0.668,9.017,0.84,16.373c0,0,12.182,2.165,20.738,2.165
		C183.868,251.098,197.598,249.583,197.598,249.583z"/>
	<path style="fill:#EDEDED;" d="M153.034,231.896l3.717-28.429l-3.182-43.265l12.342-3.311h23.086l12.18,3.35l-3.58,46.276
		l2.369,25.605c0,0-8.198,3.163-22.859,3.163C162.581,235.285,153.034,231.896,153.034,231.896z"/>
	<path style="fill:#F9BB8D;" d="M165.911,156.893c0,0,3.957,5.76,10.499,5.76c6.538,0,11.611-5.76,11.611-5.76l-5.046-1.18
		l0.228-13.453l-12.198,0.576l-0.34,12.877L165.911,156.893z"/>
	<path style="fill:#EAD6D5;" d="M183.089,149.01l0.399-6.818h-14.162l0.743,6.865c0,0,3.862,4.979,7.762,4.464
		C181.729,153.008,183.089,149.01,183.089,149.01z"/>
	<path style="fill:#F9BB8D;" d="M196.305,117.195c0.281,3.533-0.363,16.043-0.904,19.269c-1.484,8.774-11.291,14.875-19.029,14.875
		c-7.74,0-16.547-5.452-18.368-14.875c-0.728-3.757-1.117-13.852-1.117-18.138c0-17.854,7.994-21.912,19.485-21.912
		C187.862,96.413,194.654,96.14,196.305,117.195z"/>
	<path style="fill:#391F00;" d="M162.706,119.55c0.367,0.301-0.008-1.116,4.08-1.387c1.148-0.076,4.243,0.627,4.207-0.026
		c-0.033-0.651,0.188-1.738-0.963-1.772c-1.752-0.055-4.373-0.045-5.617,0.625C162.73,117.897,162.34,119.249,162.706,119.55z"/>
	<path style="fill:#391F00;" d="M190.168,119.546c-0.385,0.301,0.004-1.116-4.278-1.394c-1.202-0.079-4.442,0.618-4.407-0.034
		c0.031-0.652-0.199-1.737,1.004-1.772c1.836-0.052,4.539,0,5.844,0.672C190.095,117.929,190.549,119.247,190.168,119.546z"/>
	<path style="fill:#F9BB8D;" d="M160.901,127.337c0,2.541-2.062,4.604-4.606,4.604c-2.544,0-4.606-2.063-4.606-4.604
		c0-2.545,2.063-4.606,4.606-4.606C158.839,122.731,160.901,124.793,160.901,127.337z"/>
	<path style="fill:#F9BB8D;" d="M200.979,127.337c0,2.541-2.061,4.604-4.604,4.604c-2.547,0-4.608-2.063-4.608-4.604
		c0-2.545,2.061-4.606,4.608-4.606C198.918,122.731,200.979,124.793,200.979,127.337z"/>
	<path style="fill:#391F00;" d="M196.376,98.607c0.121,0.135,3.676,6.748,3.59,15.813c-0.037,3.764-2.291,9.456-3.222,12.603
		c-0.519,1.761-2.286,0-2.286,0s1.74-2.269,1.33-5.259c-0.371-2.679-2.957-5.855-2.006-9.857c-3.728-0.564-5.428-0.107-13.644-0.616
		c-13.706-0.847-18.121-6.848-17.557-2.031c0.365,3.103-3.58,9.73-3.958,13.471c-0.339,3.354,0.81,6.905,0.81,6.905
		s-2.063,0.179-2.546-1.802c-1.058-4.32-3.342-6.937-3.685-9.426c-0.51-3.705-0.208-15.694,5.88-20.028
		C171.62,89.459,191.267,92.96,196.376,98.607z"/>
	<path style="fill:#683C11;" d="M196.376,98.607c4.543,6.103,4.604,15.569,4.604,15.569s-5.278-2.616-15.105-1.524
		c-18.899,2.099-32.88-9.938-26.792-14.272C158.077,89.779,188.915,88.593,196.376,98.607z"/>
	<path style="fill:#432918;" d="M168.95,124.877c0,1.185-0.962,2.146-2.149,2.146c-1.185,0-2.146-0.961-2.146-2.146
		c0-1.185,0.961-2.146,2.146-2.146C167.988,122.731,168.95,123.692,168.95,124.877z"/>
	<path style="fill:#432918;" d="M188.021,124.877c0,1.185-0.958,2.146-2.147,2.146c-1.182,0-2.143-0.961-2.143-2.146
		c0-1.185,0.961-2.146,2.143-2.146C187.063,122.731,188.021,123.692,188.021,124.877z"/>
	<path style="fill:#EAD6D5;" d="M176.629,139.584c-1.974,0-3.83-0.381-5.246-1.372c1.037,2.114,3.022,2.746,5.246,2.746
		c2.227,0,4.114-0.632,5.152-2.746C180.366,139.203,178.6,139.584,176.629,139.584z"/>
	<path style="fill:#EAD6D5;" d="M178.694,130.777c0,0.178-0.779,0.323-1.738,0.323c-0.958,0-1.736-0.145-1.736-0.323
		c0-0.179,0.778-1.142,1.736-1.142C177.915,129.636,178.694,130.599,178.694,130.777z"/>
	<path style="fill:#EAD6D5;" d="M186.444,120.264c-3.045,0-6.45,0.267-7.654,2.039c-1.622-0.99-3.561-1.001-5.193-0.028
		c-1.221-1.744-4.6-2.011-7.629-2.011c-5.891,0-8.881,1.227-8.881,3.646c0,2.369,1.771,7.333,7.238,7.557
		c0.371,0.017,0.726,0.026,1.072,0.026c5.809,0,8.492-2.217,8.658-7.15c0.062-0.029,0.121-0.064,0.18-0.101
		c1.195-0.807,2.676-0.807,3.873,0c0.08,0.051,0.162,0.092,0.248,0.128c0.174,4.914,2.859,7.122,8.657,7.122
		c0.347,0,0.704-0.009,1.073-0.026c5.467-0.224,7.235-5.188,7.235-7.557C195.322,121.491,192.334,120.264,186.444,120.264z
		 M165.397,129.814c-0.32,0-0.656-0.006-1.003-0.021c-4.674-0.193-5.628-4.689-5.628-5.883c0-0.951,1.893-1.968,7.201-1.968
		c6.429,0,6.429,1.436,6.429,1.909C172.396,127.532,171.226,129.814,165.397,129.814z M188.016,129.793
		c-0.346,0.015-0.679,0.021-1.003,0.021c-5.829,0-6.999-2.282-6.999-5.964c0-0.473,0-1.909,6.43-1.909c5.309,0,7.2,1.017,7.2,1.968
		C193.644,125.104,192.691,129.6,188.016,129.793z"/>
	<g>
		<g>
			<path style="fill:#C02B35;" d="M166.245,130.49c-0.344,0-0.703-0.008-1.074-0.022c-5.467-0.227-7.232-5.19-7.232-7.56
				c0-2.418,2.985-3.644,8.874-3.644c3.776,0,8.108,0.407,8.108,3.587C174.92,128.134,172.244,130.49,166.245,130.49z
				 M166.812,120.94c-5.306,0-7.196,1.016-7.196,1.967c0,1.195,0.953,5.691,5.625,5.885c0.348,0.013,0.682,0.019,1.004,0.019
				c5.826,0,6.998-2.281,6.998-5.961C173.243,122.377,173.243,120.94,166.812,120.94z"/>
		</g>
		<g>
			<path style="fill:#C02B35;" d="M179.186,122.85c0-3.18,4.334-3.587,8.105-3.587c5.892,0,8.877,1.226,8.877,3.644
				c0,2.37-1.768,7.333-7.233,7.56c-0.373,0.014-0.729,0.022-1.073,0.022C181.862,130.49,179.186,128.134,179.186,122.85z
				 M180.864,122.85c0,3.681,1.17,5.961,6.998,5.961c0.321,0,0.656-0.007,1.006-0.019c4.67-0.193,5.625-4.69,5.625-5.885
				c0-0.951-1.891-1.967-7.201-1.967C180.864,120.94,180.864,122.377,180.864,122.85z"/>
		</g>
		<path style="fill:#C02B35;" d="M180.397,123.227c-0.365,0.391-0.979,0.317-1.44,0.014c-1.196-0.807-2.679-0.807-3.875,0
			c-0.464,0.303-1.075,0.377-1.446-0.014l0,0c-0.363-0.387-0.174-1.319,0.551-1.804c1.746-1.178,3.916-1.178,5.664,0
			C180.571,121.908,180.764,122.842,180.397,123.227L180.397,123.227z"/>
	</g>
	<path style="fill:#782519;" d="M174.68,242.78v-52.868l-7.229-33.941l-13.883,4.232l1.451,44.353l-2.922,33.568
		C152.098,238.124,161.528,242.438,174.68,242.78z"/>
	<polygon style="fill:#9A2E24;" points="174.68,211.319 174.68,189.912 167.452,155.971 158.754,158.622 166.663,187.711 
		171.383,190.591 168.458,192.286 	"/>
	<path style="fill:#782519;" d="M179.122,242.525v-52.866l7.227-33.943l13.887,4.233l-1.453,44.353l2.925,33.568
		C201.706,237.87,192.273,242.184,179.122,242.525z"/>
	<polygon style="fill:#9A2E24;" points="179.122,211.064 179.122,189.659 186.348,155.716 195.045,158.367 187.142,187.456 
		182.419,190.336 185.347,192.031 	"/>
	<g>
		<polygon style="fill:#F9BB8D;" points="201.176,233.795 193.655,236.195 188.567,239.424 197.182,245.24 202.788,241.732 
			204.617,236.846 		"/>
	</g>
	
		<rect x="192.168" y="236.446" transform="matrix(0.61 -0.7924 0.7924 0.61 -116.8898 248.0566)" style="fill:#293033;" width="2.79" height="12.668"/>
	<g>
		<g>
			<path style="fill:#9A2E24;" d="M210.208,180.057c0,0,0.484,3.554,1.105,8.863c0.313,2.659,0.656,5.766,0.977,9.119
				c0.315,3.364,0.63,6.93,0.751,10.712c0.023,0.458,0.014,0.979,0.018,1.467c-0.001,0.498,0.013,0.965-0.028,1.557l-0.047,0.842
				l-0.012,0.21l-0.028,0.345l-0.048,0.325l-0.193,1.296c-0.158,0.914-0.362,2.025-0.57,2.918c-0.217,0.901-0.422,1.798-0.669,2.645
				c-0.46,1.719-0.985,3.319-1.494,4.829c-0.513,1.507-1.034,2.905-1.528,4.189c-0.993,2.563-1.9,4.65-2.555,6.11
				c-0.684,1.479-1.074,2.323-1.074,2.323l-7.273-3.223c0,0,0.292-0.784,0.803-2.157c0.505-1.405,1.208-3.432,1.947-5.878
				c0.365-1.223,0.748-2.549,1.109-3.95c0.355-1.4,0.719-2.878,0.998-4.388c0.163-0.759,0.271-1.517,0.396-2.286
				c0.115-0.78,0.177-1.376,0.262-2.182l0.094-1.306l0.023-0.328l0.002-0.02c-0.027,0.277-0.008,0.068-0.014,0.126l-0.001-0.03
				l-0.001-0.06l-0.002-0.119l-0.004-0.476c0.01-0.288-0.021-0.702-0.043-1.085c-0.027-0.393-0.033-0.757-0.078-1.18
				c-0.279-3.273-0.76-6.733-1.236-9.945c-0.482-3.223-0.979-6.242-1.423-8.828c-0.888-5.182-1.54-8.602-1.54-8.602L210.208,180.057
				z"/>
		</g>
	</g>
	<path style="fill:#9A2E24;" d="M199.031,185.528l2.145,9.299c0,0,7.75,1.072,10.458-3.806c-1.478-7.803,0.517-25.507-10.458-30.779
		C194.667,157.12,199.031,185.528,199.031,185.528z"/>
</g>
</svg>
