<?xml version="1.0" encoding="utf-8"?>
<!-- Generator: Adobe Illustrator 27.5.0, SVG Export Plug-In . SVG Version: 6.00 Build 0)  -->
<svg version="1.1" id="Capa_1" xmlns="http://www.w3.org/2000/svg" xmlns:xlink="http://www.w3.org/1999/xlink" x="0px" y="0px"
	 viewBox="0 0 430.879 423.034" style="enable-background:new 0 0 430.879 423.034;" xml:space="preserve">
<rect y="0" style="fill:#FFDE79;" width="430.879" height="423.034"/>
<g>
	
		<ellipse transform="matrix(0.9871 -0.1602 0.1602 0.9871 -29.2039 37.07)" style="opacity:0.6;fill:#FFFFFF;" cx="215.327" cy="199.673" rx="147.409" ry="147.409"/>
	
		<ellipse transform="matrix(0.9915 -0.1299 0.1299 0.9915 -34.0896 44.849)" style="opacity:0.6;fill:#FFFFFF;" cx="326.659" cy="283.673" rx="60.743" ry="60.742"/>
	
		<ellipse transform="matrix(0.9915 -0.1299 0.1299 0.9915 -14.0804 15.5322)" style="opacity:0.6;fill:#FFFFFF;" cx="111.992" cy="115.673" rx="60.743" ry="60.742"/>
	<g>
		<g>
			
				<polygon style="fill:#E6E7E8;stroke:#3B4063;stroke-width:1.7528;stroke-linecap:round;stroke-linejoin:round;stroke-miterlimit:10;" points="
				296.154,271.313 139.524,271.313 139.524,72.574 275.581,72.574 296.154,93.705 			"/>
			<path style="fill:#DCE6EB;" d="M288.478,85.944c-0.039,3.277,0.651,131.714,0.539,143.068
				c-0.055,5.456,0.444,25.459-1.123,29.595c-0.949,2.5-2.566,4.023-5.24,4.438c-4.123,0.64-99.661,0.49-143.13,0.518v7.75h156.63
				V93.705L288.478,85.944z"/>
			<g>
				<g>
					<path style="fill:#43486F;" d="M185.832,107.392c-0.002,0-0.002,0-0.002,0l-3.79-9.261c-0.218-0.532-0.735-0.879-1.311-0.879
						h-1.031c-0.572,0-1.092,0.347-1.311,0.879l-3.788,9.255c-0.002,0.004-0.005,0.009-0.005,0.013l-2.322,5.67
						c-0.297,0.723,0.049,1.55,0.775,1.846c0.174,0.072,0.355,0.106,0.534,0.106c0.558,0,1.086-0.332,1.312-0.88l1.957-4.782h6.727
						l1.958,4.782c0.296,0.725,1.124,1.07,1.848,0.774c0.725-0.296,1.07-1.123,0.772-1.846L185.832,107.392z M178.01,106.527
						l2.203-5.382l2.205,5.382H178.01z"/>
					<path style="fill:#43486F;" d="M202.227,97.461c-0.631-0.462-1.519-0.325-1.98,0.305l-4.378,5.971l-4.008-5.927
						c-0.438-0.648-1.318-0.817-1.967-0.379c-0.648,0.439-0.816,1.319-0.377,1.967l4.576,6.766l-4.889,6.67
						c-0.463,0.631-0.326,1.517,0.304,1.979c0.255,0.185,0.547,0.274,0.837,0.274c0.436,0,0.865-0.201,1.143-0.579l4.29-5.854
						l3.931,5.81c0.274,0.405,0.721,0.623,1.175,0.623c0.271,0,0.55-0.079,0.791-0.244c0.647-0.438,0.818-1.318,0.38-1.966
						l-4.498-6.648l4.975-6.787C202.994,98.81,202.855,97.924,202.227,97.461z"/>
					<path style="fill:#43486F;" d="M173.654,100.216c0.782,0,1.414-0.634,1.414-1.416c0-0.782-0.632-1.415-1.414-1.415h-9.849
						c-0.782,0-1.415,0.633-1.415,1.415c0,0.782,0.633,1.416,1.415,1.416h3.508v13.167c0,0.781,0.635,1.415,1.417,1.415
						c0.781,0,1.416-0.634,1.416-1.415v-13.167H173.654z"/>
				</g>
			</g>
			<g>
				<rect x="161.473" y="116.973" style="fill:#43486F;" width="107.584" height="2.054"/>
				<rect x="161.473" y="92.829" style="fill:#43486F;" width="107.584" height="2.054"/>
			</g>
			
				<polygon style="fill:#CDCFD0;stroke:#3B4063;stroke-width:1.7528;stroke-linecap:round;stroke-linejoin:round;stroke-miterlimit:10;" points="
				275.439,72.506 275.41,93.648 296.154,93.705 			"/>
			<g>
				<g>
					
						<rect x="153.354" y="232.83" style="fill:#8CC0E8;stroke:#3B4063;stroke-width:1.7528;stroke-linecap:round;stroke-linejoin:round;stroke-miterlimit:10;" width="127.732" height="6.823"/>
					<rect x="153.354" y="236.622" style="fill:#A6CADB;" width="127.732" height="3.031"/>
				</g>
				<g>
					
						<rect x="153.354" y="246.92" style="fill:#8CC0E8;stroke:#3B4063;stroke-width:1.7528;stroke-linecap:round;stroke-linejoin:round;stroke-miterlimit:10;" width="127.732" height="6.821"/>
					<rect x="153.354" y="250.806" style="fill:#A6CADB;" width="127.732" height="2.935"/>
				</g>
				<g>
					
						<rect x="154.051" y="132.221" style="fill:none;stroke:#3B4063;stroke-width:1.7528;stroke-linecap:round;stroke-linejoin:round;stroke-miterlimit:10;" width="126.336" height="92.294"/>
					
						<line style="fill:none;stroke:#3B4063;stroke-width:1.7528;stroke-linecap:round;stroke-linejoin:round;stroke-miterlimit:10;" x1="200.387" y1="137.698" x2="200.387" y2="224.635"/>
					
						<rect x="154.008" y="131.792" style="fill:#43486F;stroke:#3B4063;stroke-width:1.7528;stroke-linecap:round;stroke-linejoin:round;stroke-miterlimit:10;" width="126.422" height="10.928"/>
					<rect x="154.008" y="137.13" style="fill:#ADBCC5;" width="126.422" height="5.59"/>
					<g>
						
							<line style="fill:none;stroke:#3B4063;stroke-width:1.7528;stroke-linecap:round;stroke-linejoin:round;stroke-miterlimit:10;" x1="154.358" y1="157.873" x2="280.135" y2="157.873"/>
						
							<line style="fill:none;stroke:#3B4063;stroke-width:1.7528;stroke-linecap:round;stroke-linejoin:round;stroke-miterlimit:10;" x1="154.358" y1="174.3" x2="280.135" y2="174.3"/>
						
							<line style="fill:none;stroke:#3B4063;stroke-width:1.7528;stroke-linecap:round;stroke-linejoin:round;stroke-miterlimit:10;" x1="154.358" y1="190.727" x2="280.135" y2="190.727"/>
						
							<line style="fill:none;stroke:#3B4063;stroke-width:1.7528;stroke-linecap:round;stroke-linejoin:round;stroke-miterlimit:10;" x1="154.358" y1="207.155" x2="280.135" y2="207.155"/>
					</g>
				</g>
			</g>
		</g>
		<g>
			
				<rect x="119.053" y="204.875" style="fill:#E6E7E8;stroke:#3B4063;stroke-width:1.7528;stroke-linecap:round;stroke-linejoin:round;stroke-miterlimit:10;" width="195.561" height="159.694"/>
			<path style="fill:#CBDAE3;" d="M305.197,204.711c0.54,10.722,0.617,95.628,0.988,109.783c0.19,7.321,0.672,32.569-4.113,37.527
				c-4.611,4.773-17.316,3.559-25.441,3.339c-10.841-0.292-157.578-1.125-157.578-1.125v10.334h195.561V204.875L305.197,204.711z"/>
			
				<rect x="119.053" y="204.875" style="fill:#F05382;stroke:#3B4063;stroke-width:1.7528;stroke-linecap:round;stroke-linejoin:round;stroke-miterlimit:10;" width="195.561" height="47.824"/>
			<path style="fill:#E0D0D8;" d="M308.404,204.875c-0.299,4.836,0.711,27.327-2.316,32.083c-3.494,5.489-10.24,5.649-16.112,5.956
				c-11.625,0.606-125.577-0.066-170.923-0.203v9.987h195.561v-47.824H308.404z"/>
			<g>
				<g>
					<g>
						
							<path style="fill:#8CC0E8;stroke:#3B4063;stroke-width:1.7528;stroke-linecap:round;stroke-linejoin:round;stroke-miterlimit:10;" d="
							M139.272,210.256c-2.907-0.127-5.177-2.504-5.177-5.414c0-2.985,2.432-5.416,5.418-5.416c2.766,0,5.183,2.414,5.404,5.33
							h3.376c-0.227-4.734-4.21-8.705-8.78-8.705c-4.848,0-8.789,3.944-8.789,8.79c0,4.719,3.687,8.577,8.399,8.782
							c0.024,0.001,0.052,0.003,0.074,0.003c0.898,0,1.646-0.709,1.685-1.612C140.924,211.084,140.207,210.296,139.272,210.256z"/>
					</g>
				</g>
				<g>
					<g>
						
							<path style="fill:#8CC0E8;stroke:#3B4063;stroke-width:1.7528;stroke-linecap:round;stroke-linejoin:round;stroke-miterlimit:10;" d="
							M159.207,210.256c-2.902-0.127-5.176-2.504-5.176-5.414c0-2.985,2.43-5.416,5.416-5.416c2.764,0,5.185,2.414,5.404,5.33h3.375
							c-0.227-4.734-4.206-8.705-8.779-8.705c-4.848,0-8.792,3.944-8.792,8.79c0,4.719,3.691,8.577,8.402,8.782
							c0.026,0.001,0.052,0.003,0.074,0.003c0.897,0,1.651-0.709,1.682-1.612C160.855,211.084,160.139,210.296,159.207,210.256z"/>
					</g>
				</g>
				<g>
					<g>
						
							<path style="fill:#8CC0E8;stroke:#3B4063;stroke-width:1.7528;stroke-linecap:round;stroke-linejoin:round;stroke-miterlimit:10;" d="
							M179.139,210.256c-2.904-0.127-5.177-2.504-5.177-5.414c0-2.985,2.431-5.416,5.416-5.416c2.768,0,5.185,2.414,5.407,5.33
							h3.375c-0.229-4.734-4.209-8.705-8.782-8.705c-4.845,0-8.79,3.944-8.79,8.79c0,4.719,3.691,8.577,8.404,8.782
							c0.023,0.001,0.051,0.003,0.072,0.003c0.898,0,1.646-0.709,1.686-1.612C180.791,211.084,180.066,210.296,179.139,210.256z"/>
					</g>
				</g>
			</g>
			<g>
				<g>
					<g>
						
							<path style="fill:#8CC0E8;stroke:#3B4063;stroke-width:1.7528;stroke-linecap:round;stroke-linejoin:round;stroke-miterlimit:10;" d="
							M293.709,210.398c2.903-0.128,5.176-2.504,5.176-5.413c0-2.987-2.432-5.418-5.418-5.418c-2.766,0-5.183,2.415-5.404,5.331
							h-3.375c0.227-4.734,4.209-8.704,8.779-8.704c4.846,0,8.792,3.944,8.792,8.791c0,4.719-3.69,8.574-8.399,8.78
							c-0.029,0.002-0.053,0.003-0.079,0.003c-0.897,0-1.642-0.707-1.683-1.612C292.057,211.226,292.779,210.439,293.709,210.398z"
							/>
					</g>
				</g>
				<g>
					<g>
						
							<path style="fill:#8CC0E8;stroke:#3B4063;stroke-width:1.7528;stroke-linecap:round;stroke-linejoin:round;stroke-miterlimit:10;" d="
							M273.775,210.398c2.901-0.128,5.174-2.504,5.174-5.413c0-2.987-2.424-5.418-5.416-5.418c-2.767,0-5.183,2.415-5.404,5.331
							h-3.375c0.227-4.734,4.211-8.704,8.779-8.704c4.848,0,8.792,3.944,8.792,8.791c0,4.719-3.694,8.574-8.402,8.78
							c-0.024,0.002-0.052,0.003-0.076,0.003c-0.895,0-1.643-0.707-1.683-1.612C272.123,211.226,272.848,210.439,273.775,210.398z"
							/>
					</g>
				</g>
				<g>
					<g>
						
							<path style="fill:#8CC0E8;stroke:#3B4063;stroke-width:1.7528;stroke-linecap:round;stroke-linejoin:round;stroke-miterlimit:10;" d="
							M253.844,210.398c2.901-0.128,5.178-2.504,5.178-5.413c0-2.987-2.434-5.418-5.421-5.418c-2.767,0-5.186,2.415-5.407,5.331
							h-3.375c0.229-4.734,4.219-8.704,8.782-8.704c4.847,0,8.789,3.944,8.789,8.791c0,4.719-3.69,8.574-8.4,8.78
							c-0.024,0.002-0.052,0.003-0.073,0.003c-0.898,0-1.643-0.707-1.686-1.612C252.189,211.226,252.912,210.439,253.844,210.398z"
							/>
					</g>
				</g>
			</g>
			<g>
				<g>
					
						<rect x="131.449" y="269.232" style="fill:#8CC0E8;stroke:#3B4063;stroke-width:1.7528;stroke-linecap:round;stroke-linejoin:round;stroke-miterlimit:10;" width="19.799" height="17.487"/>
					
						<rect x="161.063" y="269.232" style="fill:#8CC0E8;stroke:#3B4063;stroke-width:1.7528;stroke-linecap:round;stroke-linejoin:round;stroke-miterlimit:10;" width="19.801" height="17.487"/>
					
						<rect x="190.676" y="269.232" style="fill:#8CC0E8;stroke:#3B4063;stroke-width:1.7528;stroke-linecap:round;stroke-linejoin:round;stroke-miterlimit:10;" width="19.803" height="17.487"/>
					
						<rect x="220.29" y="269.232" style="fill:#8CC0E8;stroke:#3B4063;stroke-width:1.7528;stroke-linecap:round;stroke-linejoin:round;stroke-miterlimit:10;" width="19.804" height="17.487"/>
					
						<rect x="249.91" y="269.232" style="fill:#8CC0E8;stroke:#3B4063;stroke-width:1.7528;stroke-linecap:round;stroke-linejoin:round;stroke-miterlimit:10;" width="19.799" height="17.487"/>
					
						<rect x="279.521" y="269.232" style="fill:#8CC0E8;stroke:#3B4063;stroke-width:1.7528;stroke-linecap:round;stroke-linejoin:round;stroke-miterlimit:10;" width="19.802" height="17.487"/>
				</g>
			</g>
			<g>
				<g>
					
						<rect x="131.449" y="298.952" style="fill:#8CC0E8;stroke:#3B4063;stroke-width:1.7528;stroke-linecap:round;stroke-linejoin:round;stroke-miterlimit:10;" width="19.799" height="17.488"/>
					
						<rect x="161.063" y="298.952" style="fill:#8CC0E8;stroke:#3B4063;stroke-width:1.7528;stroke-linecap:round;stroke-linejoin:round;stroke-miterlimit:10;" width="19.801" height="17.488"/>
					
						<rect x="190.676" y="298.952" style="fill:#8CC0E8;stroke:#3B4063;stroke-width:1.7528;stroke-linecap:round;stroke-linejoin:round;stroke-miterlimit:10;" width="19.803" height="17.488"/>
					
						<rect x="220.29" y="298.952" style="fill:#8CC0E8;stroke:#3B4063;stroke-width:1.7528;stroke-linecap:round;stroke-linejoin:round;stroke-miterlimit:10;" width="19.804" height="17.488"/>
					
						<rect x="249.91" y="298.952" style="fill:#8CC0E8;stroke:#3B4063;stroke-width:1.7528;stroke-linecap:round;stroke-linejoin:round;stroke-miterlimit:10;" width="19.799" height="17.488"/>
					
						<rect x="279.521" y="298.952" style="fill:#8CC0E8;stroke:#3B4063;stroke-width:1.7528;stroke-linecap:round;stroke-linejoin:round;stroke-miterlimit:10;" width="19.802" height="17.488"/>
				</g>
			</g>
			<g>
				<g>
					
						<rect x="131.364" y="329.636" style="fill:#8CC0E8;stroke:#3B4063;stroke-width:1.7528;stroke-linecap:round;stroke-linejoin:round;stroke-miterlimit:10;" width="19.799" height="17.486"/>
					
						<rect x="160.975" y="329.636" style="fill:#8CC0E8;stroke:#3B4063;stroke-width:1.7528;stroke-linecap:round;stroke-linejoin:round;stroke-miterlimit:10;" width="19.804" height="17.486"/>
					
						<rect x="190.591" y="329.636" style="fill:#8CC0E8;stroke:#3B4063;stroke-width:1.7528;stroke-linecap:round;stroke-linejoin:round;stroke-miterlimit:10;" width="19.802" height="17.486"/>
					
						<rect x="220.206" y="329.636" style="fill:#8CC0E8;stroke:#3B4063;stroke-width:1.7528;stroke-linecap:round;stroke-linejoin:round;stroke-miterlimit:10;" width="19.801" height="17.486"/>
					
						<rect x="249.824" y="329.636" style="fill:#8CC0E8;stroke:#3B4063;stroke-width:1.7528;stroke-linecap:round;stroke-linejoin:round;stroke-miterlimit:10;" width="19.799" height="17.486"/>
					
						<rect x="279.435" y="329.636" style="fill:#8CC0E8;stroke:#3B4063;stroke-width:1.7528;stroke-linecap:round;stroke-linejoin:round;stroke-miterlimit:10;" width="19.802" height="17.486"/>
				</g>
			</g>
			<g>
				<g>
					<rect x="131.449" y="279.273" style="fill:#CBDAE3;" width="19.799" height="7.446"/>
					<rect x="161.063" y="279.273" style="fill:#CBDAE3;" width="19.801" height="7.446"/>
					<rect x="190.676" y="279.273" style="fill:#CBDAE3;" width="19.803" height="7.446"/>
					<rect x="220.29" y="279.273" style="fill:#CBDAE3;" width="19.804" height="7.446"/>
					<rect x="249.91" y="279.273" style="fill:#CBDAE3;" width="19.799" height="7.446"/>
					<rect x="279.521" y="279.273" style="fill:#CBDAE3;" width="19.802" height="7.446"/>
				</g>
			</g>
			<g>
				<g>
					<rect x="131.449" y="308.897" style="fill:#CBDAE3;" width="19.799" height="7.543"/>
					<rect x="161.063" y="308.897" style="fill:#CBDAE3;" width="19.801" height="7.543"/>
					<rect x="190.676" y="308.897" style="fill:#CBDAE3;" width="19.803" height="7.543"/>
					<rect x="220.29" y="308.897" style="fill:#CBDAE3;" width="19.804" height="7.543"/>
					<rect x="249.91" y="308.897" style="fill:#CBDAE3;" width="19.799" height="7.543"/>
					<rect x="279.521" y="308.897" style="fill:#CBDAE3;" width="19.802" height="7.543"/>
				</g>
			</g>
			<g>
				<g>
					<rect x="131.364" y="339.512" style="fill:#CBDAE3;" width="19.799" height="7.61"/>
					<rect x="160.975" y="339.512" style="fill:#CBDAE3;" width="19.804" height="7.61"/>
					<rect x="190.591" y="339.512" style="fill:#CBDAE3;" width="19.802" height="7.61"/>
					<rect x="220.206" y="339.512" style="fill:#CBDAE3;" width="19.801" height="7.61"/>
					<rect x="249.824" y="339.512" style="fill:#CBDAE3;" width="19.799" height="7.61"/>
					<rect x="279.435" y="339.512" style="fill:#CBDAE3;" width="19.802" height="7.61"/>
				</g>
			</g>
		</g>
		<g>
			
				<rect x="317.958" y="178.356" transform="matrix(0.8717 -0.49 0.49 0.8717 -59.5289 185.1049)" style="fill:#43486F;stroke:#3B4063;stroke-width:1.7528;stroke-linecap:round;stroke-linejoin:round;stroke-miterlimit:10;" width="11.702" height="55.808"/>
			
				<rect x="323.578" y="176.885" transform="matrix(0.8717 -0.49 0.49 0.8717 -58.4724 186.1998)" style="fill:#ADBCC5;" width="5.697" height="55.808"/>
			<g>
				
					<path style="fill:#8CC0E8;stroke:#3B4063;stroke-width:1.7528;stroke-linecap:round;stroke-linejoin:round;stroke-miterlimit:10;" d="
					M324.446,142.521c8.601,15.302,3.167,34.68-12.136,43.28c-15.303,8.6-34.68,3.168-43.281-12.135
					c-8.6-15.303-3.166-34.681,12.137-43.281C296.469,121.785,315.846,127.218,324.446,142.521z"/>
				
					<path style="fill:#FFFFFF;stroke:#3B4063;stroke-width:1.7528;stroke-linecap:round;stroke-linejoin:round;stroke-miterlimit:10;" d="
					M316.068,147.229c6.001,10.676,2.21,24.195-8.467,30.195c-10.676,6-24.194,2.209-30.195-8.467
					c-6-10.676-2.209-24.196,8.469-30.196C296.55,132.761,310.068,136.553,316.068,147.229z"/>
			</g>
			<path style="fill:#A6CADB;" d="M281.166,130.385c-15.303,8.6-20.736,27.978-12.137,43.281
				c8.602,15.302,27.979,20.735,43.281,12.135c15.303-8.6,20.736-27.977,12.136-43.28
				C315.846,127.218,296.469,121.785,281.166,130.385z M310.228,182.096c-13.255,7.45-30.042,2.743-37.492-10.513
				c-7.45-13.256-2.743-30.043,10.513-37.493c13.258-7.451,30.043-2.743,37.492,10.513
				C328.19,157.86,323.484,174.645,310.228,182.096z"/>
			
				<rect x="308.258" y="189.504" transform="matrix(0.8718 -0.4899 0.4899 0.8718 -53.7058 179.4906)" style="fill:#8CC0E8;stroke:#3B4063;stroke-width:1.7528;stroke-linecap:round;stroke-linejoin:round;stroke-miterlimit:10;" width="15.523" height="5.666"/>
			
				<rect x="311.457" y="196.674" transform="matrix(0.8718 -0.4899 0.4899 0.8718 -56.0839 181.7758)" style="fill:#8CC0E8;stroke:#3B4063;stroke-width:1.7528;stroke-linecap:round;stroke-linejoin:round;stroke-miterlimit:10;" width="15.523" height="2.71"/>
		</g>
		<g>
			
				<rect x="113.633" y="290.901" style="fill:#8CC0E8;stroke:#3B4063;stroke-width:1.7528;stroke-linecap:round;stroke-linejoin:round;stroke-miterlimit:10;" width="112" height="73.907"/>
			
				<rect x="184.774" y="304.189" style="fill:#FFD03F;stroke:#3F4469;stroke-width:1.7528;stroke-linecap:round;stroke-linejoin:round;stroke-miterlimit:10;" width="27.208" height="18.226"/>
			<g>
				<g>
					<rect x="124.128" y="305.528" style="fill:#3B4063;" width="51.974" height="3.567"/>
					<rect x="124.128" y="311.561" style="fill:#3B4063;" width="51.974" height="3.572"/>
					<rect x="124.128" y="317.597" style="fill:#3B4063;" width="51.974" height="3.571"/>
				</g>
			</g>
			
				<rect x="113.486" y="334.429" style="fill:#FFD03F;stroke:#3F4469;stroke-width:1.7528;stroke-linecap:round;stroke-linejoin:round;stroke-miterlimit:10;" width="112.293" height="21.996"/>
			<path style="fill:#CBDAE3;" d="M216.762,290.901c0,0,2.639,51.608-4.492,58.143c-5.21,4.776-28.82,2.896-35.307,2.896
				l-63.33-0.667v13.535h112v-73.907H216.762z"/>
		</g>
		<g>
			
				<path style="fill:#FFD03F;stroke:#3F4469;stroke-width:1.7528;stroke-linecap:round;stroke-linejoin:round;stroke-miterlimit:10;" d="
				M149.35,321.772c0,23.227-18.828,42.053-42.049,42.053c-23.232,0-42.061-18.826-42.061-42.053
				c0-23.226,18.828-42.056,42.061-42.056C130.521,279.715,149.35,298.545,149.35,321.772z"/>
			<g>
				<path style="fill:#3F4469;" d="M139.203,321.769c0,17.624-14.285,31.91-31.902,31.91c-17.627,0-31.911-14.286-31.911-31.91
					c0-17.621,14.284-31.907,31.911-31.907C124.918,289.862,139.203,304.148,139.203,321.769z"/>
				<path style="fill:#FFD03F;" d="M108.404,318.448c-3.191-0.176-6.998-0.965-6.998-3.707c0-3.088,2.146-4.86,5.888-4.86
					c3.252,0,5.896,2.183,5.896,4.86h9.439c0-5.393-4.818-9.943-11.344-11.284v-3.581h-7.939v3.506
					c-6.863,1.194-11.385,5.532-11.385,11.359c0,5.857,6.168,9.983,15.712,10.518c4.614,0.256,5.517,1.553,5.517,3.706
					c0,2.189-2.719,4.858-5.896,4.858c-3.245,0-5.888-2.178-5.888-4.858h-9.445c0,5.405,4.842,9.967,11.385,11.297v3.4h7.939v-3.447
					c6.376-1.415,11.344-6.066,11.344-11.251C122.629,322.787,117.443,318.956,108.404,318.448z"/>
			</g>
			<path style="fill:#F4FBFE;" d="M134.494,289.722c-5.383-4.266-9.117-5.942-9.117-5.942s-45.354,63.996-48.148,67.368
				c1.94,1.985,5.139,4.422,7.434,5.996C86.211,354.561,134.494,289.722,134.494,289.722z"/>
			<path style="fill:#F4FBFE;" d="M141.742,297.703c0,0-1.222-2.36-4.002-5.384c0,0-46.176,62.609-48.979,66.866
				c4.146,2.089,5.917,2.438,5.917,2.438L141.742,297.703z"/>
		</g>
	</g>
	<g>
		<g>
			<g>
				
					<line style="fill:none;stroke:#3F4469;stroke-width:1.5;stroke-linecap:round;stroke-linejoin:round;stroke-miterlimit:10;" x1="79.632" y1="136.713" x2="83.146" y2="142.99"/>
				
					<line style="fill:none;stroke:#3F4469;stroke-width:1.5;stroke-linecap:round;stroke-linejoin:round;stroke-miterlimit:10;" x1="86.324" y1="148.665" x2="89.839" y2="154.942"/>
			</g>
			<g>
				
					<line style="fill:none;stroke:#3F4469;stroke-width:1.5;stroke-linecap:round;stroke-linejoin:round;stroke-miterlimit:10;" x1="76.179" y1="150.619" x2="82.456" y2="147.104"/>
				
					<line style="fill:none;stroke:#3F4469;stroke-width:1.5;stroke-linecap:round;stroke-linejoin:round;stroke-miterlimit:10;" x1="87.015" y1="144.552" x2="93.292" y2="141.037"/>
			</g>
		</g>
		<g>
			<g>
				
					<line style="fill:none;stroke:#3F4469;stroke-width:1.5;stroke-linecap:round;stroke-linejoin:round;stroke-miterlimit:10;" x1="322.529" y1="58" x2="326.045" y2="64.277"/>
				
					<line style="fill:none;stroke:#3F4469;stroke-width:1.5;stroke-linecap:round;stroke-linejoin:round;stroke-miterlimit:10;" x1="329.223" y1="69.952" x2="332.736" y2="76.229"/>
			</g>
			<g>
				
					<line style="fill:none;stroke:#3F4469;stroke-width:1.5;stroke-linecap:round;stroke-linejoin:round;stroke-miterlimit:10;" x1="319.076" y1="71.905" x2="325.353" y2="68.391"/>
				
					<line style="fill:none;stroke:#3F4469;stroke-width:1.5;stroke-linecap:round;stroke-linejoin:round;stroke-miterlimit:10;" x1="329.912" y1="65.838" x2="336.189" y2="62.323"/>
			</g>
		</g>
		<g>
			<g>
				
					<line style="fill:none;stroke:#3F4469;stroke-width:1.5;stroke-linecap:round;stroke-linejoin:round;stroke-miterlimit:10;" x1="369.863" y1="178.666" x2="373.378" y2="184.943"/>
				
					<line style="fill:none;stroke:#3F4469;stroke-width:1.5;stroke-linecap:round;stroke-linejoin:round;stroke-miterlimit:10;" x1="376.556" y1="190.618" x2="380.07" y2="196.895"/>
			</g>
			<g>
				
					<line style="fill:none;stroke:#3F4469;stroke-width:1.5;stroke-linecap:round;stroke-linejoin:round;stroke-miterlimit:10;" x1="366.41" y1="192.572" x2="372.688" y2="189.057"/>
				
					<line style="fill:none;stroke:#3F4469;stroke-width:1.5;stroke-linecap:round;stroke-linejoin:round;stroke-miterlimit:10;" x1="377.246" y1="186.505" x2="383.523" y2="182.99"/>
			</g>
		</g>
		<g>
			<g>
				
					<line style="fill:none;stroke:#3F4469;stroke-width:1.5;stroke-linecap:round;stroke-linejoin:round;stroke-miterlimit:10;" x1="329.864" y1="354" x2="333.378" y2="360.277"/>
				
					<line style="fill:none;stroke:#3F4469;stroke-width:1.5;stroke-linecap:round;stroke-linejoin:round;stroke-miterlimit:10;" x1="336.556" y1="365.952" x2="340.071" y2="372.229"/>
			</g>
			<g>
				
					<line style="fill:none;stroke:#3F4469;stroke-width:1.5;stroke-linecap:round;stroke-linejoin:round;stroke-miterlimit:10;" x1="326.411" y1="367.905" x2="332.688" y2="364.391"/>
				
					<line style="fill:none;stroke:#3F4469;stroke-width:1.5;stroke-linecap:round;stroke-linejoin:round;stroke-miterlimit:10;" x1="337.247" y1="361.838" x2="343.524" y2="358.323"/>
			</g>
		</g>
		<g>
			<g>
				
					<line style="fill:none;stroke:#3F4469;stroke-width:1.5;stroke-linecap:round;stroke-linejoin:round;stroke-miterlimit:10;" x1="85.134" y1="208.923" x2="87.28" y2="212.755"/>
				
					<line style="fill:none;stroke:#3F4469;stroke-width:1.5;stroke-linecap:round;stroke-linejoin:round;stroke-miterlimit:10;" x1="89.221" y1="216.219" x2="91.364" y2="220.051"/>
			</g>
			<g>
				
					<line style="fill:none;stroke:#3F4469;stroke-width:1.5;stroke-linecap:round;stroke-linejoin:round;stroke-miterlimit:10;" x1="83.026" y1="217.411" x2="86.858" y2="215.266"/>
				
					<line style="fill:none;stroke:#3F4469;stroke-width:1.5;stroke-linecap:round;stroke-linejoin:round;stroke-miterlimit:10;" x1="89.641" y1="213.708" x2="93.473" y2="211.563"/>
			</g>
		</g>
		<g>
			<g>
				
					<line style="fill:none;stroke:#3F4469;stroke-width:1.5;stroke-linecap:round;stroke-linejoin:round;stroke-miterlimit:10;" x1="200.073" y1="41.72" x2="202.219" y2="45.552"/>
				
					<line style="fill:none;stroke:#3F4469;stroke-width:1.5;stroke-linecap:round;stroke-linejoin:round;stroke-miterlimit:10;" x1="204.158" y1="49.016" x2="206.305" y2="52.848"/>
			</g>
			<g>
				
					<line style="fill:none;stroke:#3F4469;stroke-width:1.5;stroke-linecap:round;stroke-linejoin:round;stroke-miterlimit:10;" x1="197.965" y1="50.208" x2="201.797" y2="48.063"/>
				
					<line style="fill:none;stroke:#3F4469;stroke-width:1.5;stroke-linecap:round;stroke-linejoin:round;stroke-miterlimit:10;" x1="204.58" y1="46.505" x2="208.412" y2="44.359"/>
			</g>
		</g>
		<g>
			<g>
				
					<line style="fill:none;stroke:#3F4469;stroke-width:1.5;stroke-linecap:round;stroke-linejoin:round;stroke-miterlimit:10;" x1="358.073" y1="240.386" x2="360.219" y2="244.218"/>
				
					<line style="fill:none;stroke:#3F4469;stroke-width:1.5;stroke-linecap:round;stroke-linejoin:round;stroke-miterlimit:10;" x1="362.158" y1="247.682" x2="364.305" y2="251.514"/>
			</g>
			<g>
				
					<line style="fill:none;stroke:#3F4469;stroke-width:1.5;stroke-linecap:round;stroke-linejoin:round;stroke-miterlimit:10;" x1="355.965" y1="248.874" x2="359.797" y2="246.73"/>
				
					<line style="fill:none;stroke:#3F4469;stroke-width:1.5;stroke-linecap:round;stroke-linejoin:round;stroke-miterlimit:10;" x1="362.58" y1="245.171" x2="366.412" y2="243.026"/>
			</g>
		</g>
		<g>
			<g>
				
					<line style="fill:none;stroke:#3F4469;stroke-width:1.5;stroke-linecap:round;stroke-linejoin:round;stroke-miterlimit:10;" x1="68.32" y1="253.756" x2="70.466" y2="257.588"/>
				
					<line style="fill:none;stroke:#3F4469;stroke-width:1.5;stroke-linecap:round;stroke-linejoin:round;stroke-miterlimit:10;" x1="72.406" y1="261.052" x2="74.551" y2="264.884"/>
			</g>
			<g>
				
					<line style="fill:none;stroke:#3F4469;stroke-width:1.5;stroke-linecap:round;stroke-linejoin:round;stroke-miterlimit:10;" x1="66.213" y1="262.244" x2="70.045" y2="260.099"/>
				
					<line style="fill:none;stroke:#3F4469;stroke-width:1.5;stroke-linecap:round;stroke-linejoin:round;stroke-miterlimit:10;" x1="72.826" y1="258.541" x2="76.658" y2="256.396"/>
			</g>
		</g>
	</g>
</g>
</svg>
