<?xml version="1.0" encoding="utf-8"?>
<!-- Generator: Adobe Illustrator 27.5.0, SVG Export Plug-In . SVG Version: 6.00 Build 0)  -->
<svg version="1.1" xmlns="http://www.w3.org/2000/svg" xmlns:xlink="http://www.w3.org/1999/xlink" x="0px" y="0px"
	 viewBox="0 0 500 500" style="enable-background:new 0 0 500 500;" xml:space="preserve">
<g id="BACKGROUND">
	<rect style="fill:#FFFFFF;" width="500" height="500"/>
</g>
<g id="OBJECTS">
	<path style="opacity:0.55;fill:#DBCCFF;" d="M457.765,446.165c-4.509-7.145-9.658-13.332-10.864-21.995
		c-1.223-8.786,0.137-17.896,3.036-26.497c3.422-11.991,9.32-23.298,12.644-35.368c12.309-44.691-18.007-96.521-62.995-107.697
		c-29.408-7.306-65.214-0.655-86.174-22.539c-11.791-12.311-14.92-30.242-21.41-46.005c-14.306-34.748-47.986-60.751-85.224-65.797
		c-37.237-5.046-76.623,11.057-99.66,40.745c-23.036,29.688-28.853,71.839-14.717,106.657c4.741,11.678,11.693,23.469,9.943,35.951
		c-2.955,21.076-27.307,30.351-43.602,44.04c-28.052,23.567-32.629,70.212-9.692,98.782l411.329,4.493
		C459.613,449.306,458.743,447.714,457.765,446.165z"/>
	<g>
		<path style="fill:#F3725F;" d="M427.619,165.372L427.619,165.372c-1.71,0-3.109-1.399-3.109-3.108v-13.211
			c0-1.71,1.399-3.109,3.109-3.109l0,0c1.71,0,3.109,1.399,3.109,3.109v13.211C430.728,163.973,429.329,165.372,427.619,165.372z"/>
		<path style="fill:#F3725F;" d="M417.905,155.658L417.905,155.658c0-1.71,1.399-3.109,3.109-3.109h13.211
			c1.71,0,3.109,1.399,3.109,3.109l0,0c0,1.71-1.399,3.108-3.109,3.108h-13.211C419.304,158.766,417.905,157.367,417.905,155.658z"
			/>
	</g>
	<g>
		<path style="fill:#F3725F;" d="M180.972,89.439L180.972,89.439c-1.71,0-3.109-1.399-3.109-3.109V73.119
			c0-1.71,1.399-3.109,3.109-3.109l0,0c1.71,0,3.109,1.399,3.109,3.109V86.33C184.08,88.04,182.681,89.439,180.972,89.439z"/>
		<path style="fill:#F3725F;" d="M171.258,79.725L171.258,79.725c0-1.71,1.399-3.108,3.109-3.108h13.211
			c1.71,0,3.109,1.399,3.109,3.108l0,0c0,1.71-1.399,3.108-3.109,3.108h-13.211C172.656,82.833,171.258,81.435,171.258,79.725z"/>
	</g>
	<g>
		<path style="fill:#F3725F;" d="M37.722,394.248L37.722,394.248c-1.71,0-3.108-1.399-3.108-3.109v-13.211
			c0-1.71,1.399-3.109,3.108-3.109l0,0c1.71,0,3.109,1.399,3.109,3.109v13.211C40.831,392.849,39.432,394.248,37.722,394.248z"/>
		<path style="fill:#F3725F;" d="M28.008,384.534L28.008,384.534c0-1.71,1.399-3.108,3.109-3.108h13.211
			c1.71,0,3.108,1.399,3.108,3.108l0,0c0,1.71-1.399,3.108-3.108,3.108H31.117C29.407,387.642,28.008,386.244,28.008,384.534z"/>
	</g>
	<g>
		<g>
			<path style="fill:#8B7FF7;" d="M225.768,252.6l-160.786,0.144c-9.951,0.009-19.364-7.853-21.026-17.56l-13.745-80.277
				c-1.662-9.707,5.057-17.583,15.008-17.592l160.786-0.144c9.951-0.009,19.365,7.853,21.026,17.56l13.745,80.277
				C242.438,244.715,235.719,252.591,225.768,252.6z"/>
			<path style="fill:#2D1A14;" d="M103.822,162.594c6.669,6.171,14.477,11.058,23.04,13.447c10.357,2.89,20.538,2,29.889-0.667
				c2.109-0.602,5.001,0.736,5.917,2.988c3.277,8.059,8.608,15.176,15.667,20.946c13.048,10.667,29.891,15.968,45.501,17.941
				c4.669,0.59,9.384,0.912,14.058,0.919l-10.862-63.438c-1.662-9.707-11.076-17.569-21.026-17.56L84.857,137.28
				C89.778,146.578,95.999,155.356,103.822,162.594z"/>
			<path style="fill:#F9A813;" d="M104.023,231.022l-38.947,0.035c-2.024,0.002-3.939-1.597-4.277-3.572l-4.064-23.738
				c-0.338-1.974,1.029-3.576,3.052-3.578l38.947-0.035c2.024-0.002,3.938,1.597,4.276,3.571l4.064,23.738
				C107.414,229.418,106.047,231.02,104.023,231.022z"/>
			<path style="fill:#FFC05A;" d="M73.847,203.522c4.842,4.986,10.85,9.695,17.204,12.477c3.74,1.637,7.346,2.413,10.51,5.351
				c2.143,1.99,3.83,4.297,5.56,6.577c-0.005-0.159-0.017-0.319-0.045-0.483l-4.064-23.738c-0.338-1.974-2.253-3.573-4.277-3.572
				l-27.916,0.025C71.849,201.406,72.901,202.548,73.847,203.522z"/>
			
				<path style="fill:none;stroke:#BC5406;stroke-width:1.1572;stroke-linecap:round;stroke-linejoin:round;stroke-miterlimit:10;" d="
				M83.371,225.867L83.371,225.867c-2.255,0.002-4.409-1.796-4.785-3.996l-2.348-13.714c-0.377-2.2,1.16-4.002,3.416-4.004l0,0
				c2.255-0.002,4.409,1.796,4.785,3.996l2.348,13.714C87.163,224.063,85.627,225.865,83.371,225.867z"/>
			<g>
				<path style="fill:#BC5406;" d="M76.336,209.585l-13.18,0.012c-0.242,0-0.472-0.192-0.513-0.428l0,0
					c-0.04-0.236,0.124-0.429,0.366-0.429l13.18-0.012c0.242,0,0.472,0.192,0.513,0.428l0,0
					C76.742,209.392,76.578,209.585,76.336,209.585z"/>
				<path style="fill:#BC5406;" d="M77.412,215.871l-13.18,0.012c-0.242,0-0.472-0.192-0.513-0.428l0,0
					c-0.04-0.236,0.124-0.429,0.366-0.429l13.18-0.012c0.242,0,0.472,0.192,0.513,0.428l0,0
					C77.819,215.677,77.654,215.87,77.412,215.871z"/>
				<path style="fill:#BC5406;" d="M78.489,222.156l-13.18,0.012c-0.242,0-0.472-0.193-0.513-0.428l0,0
					c-0.04-0.236,0.124-0.429,0.366-0.429l13.18-0.012c0.242,0,0.472,0.192,0.513,0.428l0,0
					C78.895,221.963,78.73,222.156,78.489,222.156z"/>
			</g>
			<g>
				<path style="fill:#BC5406;" d="M98.01,209.565l-13.18,0.012c-0.242,0-0.472-0.193-0.513-0.428l0,0
					c-0.04-0.236,0.124-0.429,0.366-0.429l13.18-0.012c0.242,0,0.472,0.193,0.513,0.428l0,0
					C98.416,209.372,98.251,209.565,98.01,209.565z"/>
				<path style="fill:#BC5406;" d="M99.086,215.851l-13.18,0.012c-0.242,0-0.472-0.193-0.513-0.428l0,0
					c-0.04-0.236,0.124-0.429,0.366-0.429l13.18-0.012c0.242,0,0.472,0.192,0.513,0.428l0,0
					C99.492,215.658,99.327,215.851,99.086,215.851z"/>
				<path style="fill:#BC5406;" d="M100.162,222.137l-13.18,0.012c-0.242,0-0.472-0.192-0.513-0.428l0,0
					c-0.04-0.236,0.124-0.429,0.366-0.429l13.18-0.012c0.242,0,0.472,0.193,0.513,0.428l0,0
					C100.568,221.944,100.404,222.137,100.162,222.137z"/>
			</g>
			<g>
				
					<path style="fill:none;stroke:#FFFFFF;stroke-width:1.1572;stroke-linecap:round;stroke-linejoin:round;stroke-miterlimit:10;" d="
					M119.888,235.55L119.888,235.55c-1.45,0.001-2.834-1.155-3.076-2.569l-0.978-5.714c-0.242-1.414,0.746-2.572,2.196-2.574l0,0
					c1.45-0.001,2.834,1.155,3.076,2.569l0.978,5.714C122.326,234.39,121.338,235.548,119.888,235.55z"/>
				
					<path style="fill:none;stroke:#FFFFFF;stroke-width:1.1572;stroke-linecap:round;stroke-linejoin:round;stroke-miterlimit:10;" d="
					M128.675,235.542L128.675,235.542c-1.45,0.001-2.834-1.155-3.076-2.569l-0.978-5.714c-0.242-1.414,0.746-2.573,2.196-2.574l0,0
					c1.45-0.001,2.834,1.155,3.076,2.569l0.978,5.714C131.113,234.382,130.124,235.541,128.675,235.542z"/>
				
					<path style="fill:none;stroke:#FFFFFF;stroke-width:1.1572;stroke-linecap:round;stroke-linejoin:round;stroke-miterlimit:10;" d="
					M137.461,235.534L137.461,235.534c-1.45,0.001-2.834-1.155-3.076-2.569l-0.978-5.714c-0.242-1.414,0.746-2.572,2.196-2.574l0,0
					c1.45-0.001,2.834,1.155,3.076,2.569l0.978,5.714C139.899,234.374,138.911,235.533,137.461,235.534z"/>
				
					<path style="fill:none;stroke:#FFFFFF;stroke-width:1.1572;stroke-linecap:round;stroke-linejoin:round;stroke-miterlimit:10;" d="
					M146.248,235.526L146.248,235.526c-1.45,0.001-2.834-1.155-3.076-2.569l-0.978-5.714c-0.242-1.414,0.746-2.572,2.196-2.574l0,0
					c1.45-0.001,2.834,1.155,3.076,2.569l0.978,5.714C148.686,234.367,147.698,235.525,146.248,235.526z"/>
			</g>
			<g>
				
					<path style="fill:none;stroke:#FFFFFF;stroke-width:1.1572;stroke-linecap:round;stroke-linejoin:round;stroke-miterlimit:10;" d="
					M158.549,235.515L158.549,235.515c-1.45,0.001-2.834-1.155-3.076-2.569l-0.978-5.714c-0.242-1.414,0.746-2.573,2.196-2.574l0,0
					c1.45-0.001,2.834,1.155,3.076,2.569l0.978,5.714C160.987,234.356,159.999,235.514,158.549,235.515z"/>
				
					<path style="fill:none;stroke:#FFFFFF;stroke-width:1.1572;stroke-linecap:round;stroke-linejoin:round;stroke-miterlimit:10;" d="
					M167.336,235.507L167.336,235.507c-1.45,0.001-2.834-1.155-3.076-2.569l-0.978-5.714c-0.242-1.414,0.746-2.573,2.196-2.574l0,0
					c1.45-0.001,2.834,1.155,3.076,2.569l0.978,5.714C169.774,234.348,168.786,235.506,167.336,235.507z"/>
				
					<path style="fill:none;stroke:#FFFFFF;stroke-width:1.1572;stroke-linecap:round;stroke-linejoin:round;stroke-miterlimit:10;" d="
					M176.122,235.499L176.122,235.499c-1.45,0.001-2.834-1.155-3.076-2.569l-0.978-5.714c-0.242-1.414,0.746-2.573,2.196-2.574l0,0
					c1.45-0.001,2.834,1.155,3.076,2.569l0.978,5.714C178.56,234.34,177.572,235.498,176.122,235.499z"/>
				
					<path style="fill:none;stroke:#FFFFFF;stroke-width:1.1572;stroke-linecap:round;stroke-linejoin:round;stroke-miterlimit:10;" d="
					M184.909,235.491L184.909,235.491c-1.45,0.001-2.834-1.155-3.076-2.569l-0.978-5.714c-0.242-1.414,0.746-2.572,2.196-2.574l0,0
					c1.45-0.001,2.834,1.155,3.076,2.569l0.978,5.714C187.347,234.332,186.359,235.49,184.909,235.491z"/>
			</g>
			<g>
				
					<path style="fill:none;stroke:#FFFFFF;stroke-width:1.1572;stroke-linecap:round;stroke-linejoin:round;stroke-miterlimit:10;" d="
					M197.796,235.48L197.796,235.48c-1.45,0.001-2.834-1.155-3.076-2.569l-0.978-5.714c-0.242-1.414,0.746-2.573,2.196-2.574l0,0
					c1.45-0.001,2.834,1.155,3.076,2.569l0.978,5.714C200.234,234.32,199.246,235.479,197.796,235.48z"/>
				
					<path style="fill:none;stroke:#FFFFFF;stroke-width:1.1572;stroke-linecap:round;stroke-linejoin:round;stroke-miterlimit:10;" d="
					M206.583,235.472L206.583,235.472c-1.45,0.001-2.834-1.155-3.076-2.569l-0.978-5.714c-0.242-1.414,0.746-2.572,2.196-2.574l0,0
					c1.45-0.001,2.834,1.155,3.076,2.569l0.978,5.714C209.021,234.313,208.033,235.471,206.583,235.472z"/>
				
					<path style="fill:none;stroke:#FFFFFF;stroke-width:1.1572;stroke-linecap:round;stroke-linejoin:round;stroke-miterlimit:10;" d="
					M215.369,235.464L215.369,235.464c-1.45,0.001-2.834-1.155-3.076-2.569l-0.978-5.714c-0.242-1.414,0.746-2.572,2.196-2.574l0,0
					c1.45-0.001,2.834,1.155,3.076,2.569l0.978,5.714C217.807,234.305,216.819,235.463,215.369,235.464z"/>
				
					<path style="fill:none;stroke:#FFFFFF;stroke-width:1.1572;stroke-linecap:round;stroke-linejoin:round;stroke-miterlimit:10;" d="
					M224.156,235.456L224.156,235.456c-1.45,0.001-2.834-1.155-3.076-2.569l-0.978-5.714c-0.242-1.414,0.746-2.573,2.196-2.574l0,0
					c1.45-0.001,2.834,1.155,3.076,2.569l0.978,5.714C226.594,234.297,225.606,235.455,224.156,235.456z"/>
			</g>
			<g>
				
					<path style="fill:none;stroke:#FFFFFF;stroke-width:1.1572;stroke-linecap:round;stroke-linejoin:round;stroke-miterlimit:10;" d="
					M114.126,205.126c2.2,2.175,2.485,5.762,0.602,7.589"/>
				
					<path style="fill:none;stroke:#FFFFFF;stroke-width:1.1572;stroke-linecap:round;stroke-linejoin:round;stroke-miterlimit:10;" d="
					M119.831,201.83c3.776,3.733,4.265,9.891,1.034,13.027"/>
				
					<path style="fill:none;stroke:#FFFFFF;stroke-width:1.1572;stroke-linecap:round;stroke-linejoin:round;stroke-miterlimit:10;" d="
					M125.834,200.11c5.102,5.043,5.762,13.363,1.396,17.599"/>
			</g>
			
				<path style="fill:none;stroke:#8B7FF7;stroke-width:1.7358;stroke-linecap:round;stroke-linejoin:round;stroke-miterlimit:10;" d="
				M206.358,155.46l-72.05,0.065c-2.416,0.002-4.723-1.925-5.127-4.282l0,0c-0.404-2.357,1.243-4.287,3.66-4.29l72.05-0.065
				c2.416-0.002,4.723,1.925,5.127,4.282l0,0C210.421,153.527,208.775,155.458,206.358,155.46z"/>
		</g>
		
			<path style="fill:none;stroke:#FFFFFF;stroke-width:1.1572;stroke-linecap:round;stroke-linejoin:round;stroke-miterlimit:10;" d="
			M92.78,191.853l-35.146,0.032c-2.738,0.002-5.353-2.181-5.811-4.853l0,0c-0.457-2.671,1.409-4.859,4.148-4.862l35.146-0.032
			c2.739-0.002,5.353,2.181,5.811,4.853l0,0C97.385,189.663,95.519,191.851,92.78,191.853z"/>
	</g>
	<path style="fill:#BFB8FF;" d="M462.921,450.5H35.327c-1.629,0-2.962-1.333-2.962-2.962l0,0c0-1.629,1.333-2.962,2.962-2.962
		h427.594c1.629,0,2.962,1.333,2.962,2.962l0,0C465.883,449.167,464.551,450.5,462.921,450.5z"/>
	<g>
		<g>
			
				<rect x="137.979" y="396.022" transform="matrix(-1 -1.224647e-16 1.224647e-16 -1 365.5762 804.4244)" style="fill:#FFC05A;" width="89.618" height="12.381"/>
			<rect x="188.094" y="396.022" style="fill:#F9A813;" width="10.613" height="12.381"/>
			<rect x="169.227" y="396.022" style="fill:#F9A813;" width="11.202" height="12.381"/>
			<rect x="137.979" y="396.022" style="fill:#F9A813;" width="20.046" height="12.381"/>
			
				<line style="fill:none;stroke:#BC5406;stroke-width:0.5896;stroke-miterlimit:10;" x1="218.163" y1="396.022" x2="218.163" y2="407.224"/>
			
				<line style="fill:none;stroke:#BC5406;stroke-width:0.5896;stroke-miterlimit:10;" x1="212.268" y1="396.022" x2="212.268" y2="407.224"/>
			
				<line style="fill:none;stroke:#BC5406;stroke-width:0.5896;stroke-miterlimit:10;" x1="206.961" y1="396.022" x2="206.961" y2="407.224"/>
		</g>
		<g>
			
				<rect x="122.06" y="408.403" transform="matrix(-1 -1.224647e-16 1.224647e-16 -1 333.7383 829.1872)" style="fill:#FFC05A;" width="89.618" height="12.381"/>
			<rect x="172.176" y="408.403" style="fill:#F9A813;" width="10.613" height="12.381"/>
			<rect x="153.309" y="408.403" style="fill:#F9A813;" width="11.202" height="12.381"/>
			<rect x="122.06" y="408.403" style="fill:#F9A813;" width="20.046" height="12.381"/>
			
				<line style="fill:none;stroke:#BC5406;stroke-width:0.5896;stroke-miterlimit:10;" x1="202.245" y1="408.403" x2="202.245" y2="419.605"/>
			
				<line style="fill:none;stroke:#BC5406;stroke-width:0.5896;stroke-miterlimit:10;" x1="196.349" y1="408.403" x2="196.349" y2="419.605"/>
			
				<line style="fill:none;stroke:#BC5406;stroke-width:0.5896;stroke-miterlimit:10;" x1="191.042" y1="408.403" x2="191.042" y2="419.605"/>
		</g>
		<g>
			
				<rect x="136.21" y="420.834" transform="matrix(-1 -1.224647e-16 1.224647e-16 -1 362.0387 854.0498)" style="fill:#FFC05A;" width="89.618" height="12.381"/>
			<rect x="186.326" y="420.834" style="fill:#F9A813;" width="10.613" height="12.381"/>
			<rect x="167.459" y="420.834" style="fill:#F9A813;" width="11.202" height="12.381"/>
			<rect x="136.21" y="420.834" style="fill:#F9A813;" width="20.046" height="12.381"/>
			
				<line style="fill:none;stroke:#BC5406;stroke-width:0.5896;stroke-miterlimit:10;" x1="216.395" y1="420.834" x2="216.395" y2="432.036"/>
			
				<line style="fill:none;stroke:#BC5406;stroke-width:0.5896;stroke-miterlimit:10;" x1="210.499" y1="420.834" x2="210.499" y2="432.036"/>
			
				<line style="fill:none;stroke:#BC5406;stroke-width:0.5896;stroke-miterlimit:10;" x1="205.193" y1="420.834" x2="205.193" y2="432.036"/>
		</g>
		<g>
			
				<rect x="140.927" y="433.265" transform="matrix(-1 -1.224647e-16 1.224647e-16 -1 371.4721 878.9122)" style="fill:#FFC05A;" width="89.618" height="12.381"/>
			<rect x="191.042" y="433.265" style="fill:#F9A813;" width="10.613" height="12.381"/>
			<rect x="172.176" y="433.265" style="fill:#F9A813;" width="11.202" height="12.381"/>
			<rect x="140.927" y="433.265" style="fill:#F9A813;" width="20.046" height="12.381"/>
			
				<line style="fill:none;stroke:#BC5406;stroke-width:0.5896;stroke-miterlimit:10;" x1="221.111" y1="433.265" x2="221.111" y2="444.468"/>
			
				<line style="fill:none;stroke:#BC5406;stroke-width:0.5896;stroke-miterlimit:10;" x1="215.216" y1="433.265" x2="215.216" y2="444.468"/>
			
				<line style="fill:none;stroke:#BC5406;stroke-width:0.5896;stroke-miterlimit:10;" x1="209.909" y1="433.265" x2="209.909" y2="444.468"/>
		</g>
		
			<line style="fill:none;stroke:#BC5406;stroke-width:1.0795;stroke-miterlimit:10;" x1="182.788" y1="408.403" x2="142.106" y2="408.403"/>
		
			<line style="fill:none;stroke:#BC5406;stroke-width:1.0795;stroke-miterlimit:10;" x1="182.788" y1="420.784" x2="153.309" y2="420.784"/>
		
			<line style="fill:none;stroke:#BC5406;stroke-width:1.0795;stroke-miterlimit:10;" x1="151.745" y1="432.183" x2="167.459" y2="432.183"/>
		
			<line style="fill:none;stroke:#BC5406;stroke-width:1.0795;stroke-miterlimit:10;" x1="191.042" y1="433.265" x2="183.378" y2="433.265"/>
	</g>
	<g>
		<g>
			<path style="fill:#FFA9A9;" d="M314.638,235.402c11.232-0.652,22.461,1.118,33.582,3.491
				c12.385,2.643,23.168,8.581,32.742,16.829c12.765,10.996,22.071,24.473,28.749,39.84c4.977,11.453,8.172,23.406,9.453,35.828
				c1.861,18.049,0.068,35.621-7.262,52.412c-1.256,2.878-2.684,5.668-4.31,8.351c-0.525,0.867-0.775,1.728-0.767,2.749
				c0.062,9.07-0.293,18.123-1.271,27.145c-0.541,4.993-1.146,9.978-3.004,14.697c-1.997,5.072-5.831,8.065-11.147,8.607
				c-6.165,0.628-11.522-1.515-15.801-6.083c-2.495-2.664-3.881-5.911-4.768-9.406c-1.101-4.339-1.648-8.761-2.01-13.211
				c-0.148-1.823-0.14-1.824-1.857-1.753c-3.056,0.127-3.007,0.129-3.14,3.219c-0.264,6.147-1.053,12.215-3.05,18.07
				c-0.724,2.123-1.688,4.124-3.275,5.771c-3.032,3.148-6.899,4.05-11.06,4.037c-4.823-0.015-8.54-2.413-11.175-8.87
				c-1.426-3.494-1.928-7.259-2.497-10.98c-0.485-3.172-0.806-6.364-0.911-9.57c-0.033-1.005-0.419-1.326-1.373-1.346
				c-3.276-0.072-6.552-0.161-9.824-0.329c-1.19-0.061-1.356,0.486-1.384,1.485c-0.117,4.181-0.279,8.363-0.75,12.523
				c-0.321,2.84-0.712,5.674-1.707,8.376c-2.356,6.398-7.715,10.408-13.902,10.068c-6.456-0.355-11.393-3.383-14.49-9.157
				c-1.602-2.985-2.236-6.283-2.94-9.553c-0.84-3.905-0.917-7.885-1.154-11.849c-0.107-1.792-0.107-1.854-1.898-1.814
				c-3.568,0.081-7.094-0.443-10.64-0.661c-1.731-0.107-1.741-0.114-1.714,1.57c0.075,4.674,0.032,9.343-0.513,13.994
				c-0.406,3.465-0.977,6.898-2.037,10.233c-2.013,6.333-4.393,8.759-12.14,9.477c-7.684,0.712-14.521-3.948-17.188-11.272
				c-1.666-4.576-2.157-9.361-2.354-14.173c-0.145-3.551-0.093-7.11-0.117-10.666c-0.011-1.667,0.003-1.673-1.582-1.992
				c-4.801-0.967-9.454-2.371-13.812-4.653c-2.301-1.205-4.444-2.633-6.187-4.577c-0.645-0.719-1.391-1.042-2.317-1.253
				c-5.594-1.273-10.419-3.868-14.104-8.379c-2.634-3.225-4.012-6.977-4.681-11.029c-0.728-4.404-1.264-8.831-1.535-13.287
				c-0.042-0.695-0.05-1.393-0.064-2.09c-0.059-2.837,1.167-4.782,3.893-5.768c1.508-0.545,1.479-0.601,1.254-2.034
				c-3.924-25.072,0.839-48.465,14.226-69.928c14.886-23.866,36.313-39.302,63.184-47.206
				C287.172,237.411,300.651,235.326,314.638,235.402z"/>
			<path style="fill:#2D1A14;" d="M356.694,427.204c2.012,0.381,4.057,0.655,6.117,0.85c0.564-3.275,0.873-6.593,1.016-9.936
				c0.056-1.313,0.082-2.066,0.325-2.51c-7.102,1.251-14.328,1.889-21.484,1.687c-2.637-0.075-5.299-0.275-7.939-0.632
				C341.143,421.639,348.144,425.586,356.694,427.204z"/>
			
				<ellipse transform="matrix(0.9985 -0.0556 0.0556 0.9985 -20.5139 11.4454)" style="fill:#F3725F;" cx="195.461" cy="374.437" rx="13.777" ry="26.839"/>
			<path style="fill:#FC877C;" d="M212.243,287.184c-5.934-6.536-17.072-6.364-24.089-1.007
				c-7.017,5.357-10.22,14.598-10.212,23.427c0.012,13.624,7.204,27.04,18.544,34.591
				C198.686,326.592,203.504,302.622,212.243,287.184z"/>
			<path style="fill:#FC877C;" d="M258.679,288.468c17.396,19.442,30.819,42.424,39.207,67.128
				c12.581-10.345,17.821-27.695,18.291-43.977c0.6-20.775-10.605-41.939-34.682-37.006
				C271.667,276.627,264.789,280.511,258.679,288.468z"/>
			<path style="fill:#C1473A;" d="M201.996,376c0,6.896-1.271,12.486-2.838,12.486c-1.567,0-2.838-5.59-2.838-12.486
				c0-6.896,1.271-12.486,2.838-12.486C200.725,363.514,201.996,369.104,201.996,376z"/>
			<path style="fill:#C1473A;" d="M192.86,376c0,6.896-1.27,12.486-2.838,12.486s-2.838-5.59-2.838-12.486
				c0-6.896,1.27-12.486,2.838-12.486S192.86,369.104,192.86,376z"/>
			<path style="fill:#2D1A14;" d="M263.926,349.81c0,3.196-2.59,5.786-5.786,5.786c-3.196,0-5.786-2.59-5.786-5.786
				c0-3.196,2.59-5.786,5.786-5.786C261.336,344.024,263.926,346.614,263.926,349.81z"/>
			
				<path style="fill:none;stroke:#FFA9A9;stroke-width:4.3677;stroke-linecap:round;stroke-linejoin:round;stroke-miterlimit:10;" d="
				M410.231,375.001c10.582,0,21.414-12.08,24.604-18.649c1.984-4.087,4.767-21.032,0.238-22.981
				c-7.991-3.438-14.637,35.54,5.733,36.919c7.823,0.53,14.586-8.646,16.541-15.518c1.249-4.389,1.85-18.576-3.057-21.402
				c-5.034-2.899-6.299,11.452-6.552,13.977c-0.745,7.449,0.217,15.823,6.717,20.627c4.262,3.149,10.764,3.467,14.66-0.125"/>
			
				<path style="fill:none;stroke:#2D1A14;stroke-width:2.4362;stroke-linecap:round;stroke-linejoin:round;stroke-miterlimit:10;" d="
				M390.834,392.994c-6.522,3.158-11.86,8.693-14.78,15.325"/>
			
				<path style="fill:none;stroke:#2D1A14;stroke-width:2.4362;stroke-linecap:round;stroke-linejoin:round;stroke-miterlimit:10;" d="
				M287.76,408.677c5.457-4.715,12.815-7.164,20.009-6.661"/>
		</g>
		<path style="fill:#2D1A14;" d="M244.74,412.528c7.081,8.341,14.313,11.891,25.277,13.109c-0.046-3.452,0.046-7.511,0-10.963
			C259.054,414.066,255.399,414.066,244.74,412.528z"/>
		<g>
			<defs>
				<path id="SVGID_1_" d="M340.568,251.473c-29.246-10.01-63.811-2.288-86.015,19.218c-5.428-12.281-11.668-26.767-13.687-40.042
					c-2.018-13.275-0.774-27.414,5.82-39.11c9.387-16.653,29.339-26.276,48.378-24.553c19.039,1.723,36.458,14.106,45.565,30.914
					C349.736,214.707,346.647,233.349,340.568,251.473z"/>
			</defs>
			<clipPath id="SVGID_00000115501942505192996770000007363730640835001258_">
				<use xlink:href="#SVGID_1_"  style="overflow:visible;"/>
			</clipPath>
			<g style="clip-path:url(#SVGID_00000115501942505192996770000007363730640835001258_);">
				<g>
					<g>
						<g>
							
								<ellipse transform="matrix(0.2013 -0.9795 0.9795 0.2013 16.8096 474.6819)" style="fill:#F9A813;" cx="299.491" cy="227.033" rx="38.499" ry="38.834"/>
							
								<ellipse transform="matrix(0.9333 -0.3591 0.3591 0.9333 -61.0088 124.3428)" style="fill:#FFC05A;" cx="304.182" cy="226.385" rx="36.07" ry="36.071"/>
							
								<line style="fill:none;stroke:#BC5406;stroke-width:0.7022;stroke-linecap:round;stroke-linejoin:round;stroke-miterlimit:10;" x1="264.914" y1="209.179" x2="272.05" y2="210.646"/>
							
								<line style="fill:none;stroke:#BC5406;stroke-width:0.7022;stroke-linecap:round;stroke-linejoin:round;stroke-miterlimit:10;" x1="262.241" y1="215.17" x2="269.378" y2="216.637"/>
							
								<line style="fill:none;stroke:#BC5406;stroke-width:0.7022;stroke-linecap:round;stroke-linejoin:round;stroke-miterlimit:10;" x1="260.969" y1="222.545" x2="268.105" y2="224.012"/>
							
								<line style="fill:none;stroke:#BC5406;stroke-width:0.7022;stroke-linecap:round;stroke-linejoin:round;stroke-miterlimit:10;" x1="260.823" y1="229.419" x2="267.96" y2="230.886"/>
						</g>
					</g>
					<path style="fill:#F9A813;" d="M330.912,221.219l-29.592,32.199c0,0,17.958,5.224,29.478-18.878
						C330.798,234.541,332.907,225.349,330.912,221.219z"/>
					
						<line style="fill:none;stroke:#F9A813;stroke-width:2.3063;stroke-linecap:round;stroke-linejoin:round;stroke-miterlimit:10;" x1="329.846" y1="214.41" x2="294.878" y2="252.152"/>
					<g>
						<g>
							<path style="fill:#BC5406;" d="M310.083,199.934c-5.279-1.085-10.521-0.528-15.205,1.317
								c-0.223-0.375-0.451-0.747-0.68-1.118c4.961-2.002,10.533-2.621,16.145-1.467c15.26,3.138,25.107,18.174,21.952,33.518
								c-1.853,9.012-7.789,16.152-15.462,19.878l-0.89-1.006c7.482-3.51,13.289-10.402,15.085-19.133
								C334.039,217.278,324.643,202.928,310.083,199.934z"/>
						</g>
						<g>
							<path style="fill:#BC5406;" d="M284.081,208.996c-2.844,3.358-4.918,7.453-5.866,12.066
								c-3.011,14.644,6.385,28.995,20.945,31.989c3.672,0.755,7.327,0.715,10.789,0.001l0.978,1.105
								c-3.84,0.898-7.923,1.007-12.027,0.163c-15.26-3.138-25.108-18.174-21.952-33.518c1.01-4.91,3.235-9.26,6.288-12.81
								C283.519,208.324,283.801,208.659,284.081,208.996z"/>
						</g>
					</g>
				</g>
				
					<text transform="matrix(0.9795 0.2014 -0.2014 0.9795 290.3502 233.1894)" style="fill:#FFFFFF; font-family:'Montserrat-Medium'; font-size:35.4818px;">$</text>
			</g>
		</g>
		
			<path style="fill:none;stroke:#2D1A14;stroke-width:2.4362;stroke-linecap:round;stroke-linejoin:round;stroke-miterlimit:10;" d="
			M269.475,261.286c16.074-11.424,43.176-16.539,63.884-11.057"/>
	</g>
	<g>
		<path style="fill:#8DDAE2;" d="M163.754,360.903l-96.597,0.087c-5.978,0.005-11.634-4.718-12.632-10.549l-8.257-48.229
			c-0.999-5.832,3.038-10.564,9.016-10.569l96.597-0.087c5.978-0.005,11.634,4.718,12.632,10.55l8.258,48.229
			C173.769,356.166,169.732,360.897,163.754,360.903z"/>
		<path style="fill:#2D1A14;" d="M46.34,302.638h118.264l-0.091-0.533c-0.998-5.832-6.654-10.555-12.632-10.55l-96.597,0.087
			c-5.978,0.005-10.015,4.737-9.016,10.569L46.34,302.638z"/>
	</g>
	<g>
		<g>
			<path style="fill:#FFFFFF;" d="M83.498,348.142c4.027-13.803,16.875-23.928,32.071-23.928c15.195,0,28.043,10.125,32.07,23.928
				h10.554c-4.255-19.503-21.746-34.16-42.625-34.16c-20.879,0-38.37,14.657-42.625,34.16H83.498z"/>
		</g>
		<g>
			<path style="fill:#F9A813;" d="M158.082,347.64c-2.531-10.961-9.25-20.35-18.393-26.405c-2.606,2.39-5.183,4.812-7.742,7.254
				c7.375,4.137,13.007,10.977,15.537,19.15H158.082z"/>
		</g>
		<path style="fill:#2D1A14;" d="M163.767,348.178H68.985c-0.296,0-0.538-0.242-0.538-0.538l0,0c0-0.296,0.242-0.539,0.538-0.539
			h94.782c0.296,0,0.539,0.242,0.539,0.539l0,0C164.305,347.936,164.063,348.178,163.767,348.178z"/>
		
			<line style="fill:none;stroke:#2D1A14;stroke-width:1.0771;stroke-linecap:round;stroke-linejoin:round;stroke-miterlimit:10;" x1="114.222" y1="348.178" x2="145.995" y2="313.712"/>
		<path style="fill:#2D1A14;" d="M149.765,312.635c0,1.487-1.206,2.693-2.693,2.693s-2.693-1.206-2.693-2.693
			c0-1.487,1.206-2.693,2.693-2.693S149.765,311.148,149.765,312.635z"/>
		<path style="fill:#2D1A14;" d="M116.915,347.64c0,1.19-0.964,2.154-2.154,2.154c-1.19,0-2.154-0.964-2.154-2.154
			c0-1.19,0.965-2.154,2.154-2.154C115.95,345.486,116.915,346.45,116.915,347.64z"/>
	</g>
	<path style="fill:#FFFFFF;" d="M81.91,312.097H59.292c-0.889,0-1.616-0.727-1.616-1.616l0,0c0-0.889,0.727-1.616,1.616-1.616H81.91
		c0.889,0,1.616,0.727,1.616,1.616l0,0C83.526,311.37,82.799,312.097,81.91,312.097z"/>
	<path style="fill:#FFFFFF;" d="M82.449,318.021H59.83c-0.889,0-1.616-0.727-1.616-1.616l0,0c0-0.888,0.727-1.616,1.616-1.616
		h22.618c0.889,0,1.616,0.727,1.616,1.616l0,0C84.064,317.294,83.337,318.021,82.449,318.021z"/>
	<g>
		<g>
			<path style="fill:#8DDAE2;" d="M392.175,168.084l-124.083,0.111c-7.679,0.007-14.944-6.06-16.227-13.551l-10.607-61.952
				c-1.283-7.491,3.903-13.569,11.582-13.576l124.083-0.111c7.679-0.007,14.944,6.06,16.227,13.551l10.607,61.952
				C405.04,161.998,399.855,168.077,392.175,168.084z"/>
			<path style="fill:#2D1A14;" d="M241.352,93.24h151.915l-0.117-0.685c-1.283-7.491-8.547-13.558-16.226-13.551L252.84,79.116
				c-7.679,0.007-12.865,6.085-11.582,13.576L241.352,93.24z"/>
		</g>
		<g>
			
				<line style="fill:none;stroke:#2D1A14;stroke-width:1.1574;stroke-linecap:round;stroke-linejoin:round;stroke-miterlimit:10;" x1="261.589" y1="106.395" x2="270.27" y2="154.428"/>
			
				<line style="fill:none;stroke:#2D1A14;stroke-width:1.1574;stroke-linecap:round;stroke-linejoin:round;stroke-miterlimit:10;" x1="276.057" y1="106.395" x2="284.738" y2="154.428"/>
			
				<line style="fill:none;stroke:#2D1A14;stroke-width:1.1574;stroke-linecap:round;stroke-linejoin:round;stroke-miterlimit:10;" x1="290.525" y1="106.395" x2="299.205" y2="154.428"/>
			
				<line style="fill:none;stroke:#2D1A14;stroke-width:1.1574;stroke-linecap:round;stroke-linejoin:round;stroke-miterlimit:10;" x1="304.993" y1="106.395" x2="313.673" y2="154.428"/>
			
				<line style="fill:none;stroke:#2D1A14;stroke-width:1.1574;stroke-linecap:round;stroke-linejoin:round;stroke-miterlimit:10;" x1="319.46" y1="106.395" x2="328.141" y2="154.428"/>
			
				<line style="fill:none;stroke:#2D1A14;stroke-width:1.1574;stroke-linecap:round;stroke-linejoin:round;stroke-miterlimit:10;" x1="333.928" y1="106.395" x2="342.609" y2="154.428"/>
			
				<line style="fill:none;stroke:#2D1A14;stroke-width:1.1574;stroke-linecap:round;stroke-linejoin:round;stroke-miterlimit:10;" x1="348.396" y1="106.395" x2="357.077" y2="154.428"/>
			
				<line style="fill:none;stroke:#2D1A14;stroke-width:1.1574;stroke-linecap:round;stroke-linejoin:round;stroke-miterlimit:10;" x1="362.864" y1="106.395" x2="371.544" y2="154.428"/>
			
				<line style="fill:none;stroke:#2D1A14;stroke-width:1.1574;stroke-linecap:round;stroke-linejoin:round;stroke-miterlimit:10;" x1="377.331" y1="106.395" x2="386.012" y2="154.428"/>
		</g>
		<path style="fill:#FFFFFF;" d="M265.005,124.857L265.005,124.857c-1.418,0.201-2.743-0.795-2.944-2.213l-0.893-6.303
			c-0.201-1.418,0.795-2.743,2.213-2.944l0,0c1.418-0.201,2.743,0.795,2.944,2.213l0.893,6.303
			C267.419,123.331,266.423,124.656,265.005,124.857z"/>
		<path style="fill:#FFFFFF;" d="M280.63,136.431L280.63,136.431c-1.418,0.201-2.743-0.795-2.944-2.213l-0.893-6.303
			c-0.201-1.418,0.795-2.743,2.213-2.944h0c1.418-0.201,2.743,0.795,2.944,2.213l0.893,6.303
			C283.044,134.906,282.048,136.23,280.63,136.431z"/>
		<path style="fill:#FFFFFF;" d="M308.987,126.014L308.987,126.014c-1.418,0.201-2.743-0.795-2.944-2.213l-0.893-6.303
			c-0.201-1.418,0.795-2.743,2.213-2.944l0,0c1.418-0.201,2.743,0.795,2.944,2.213l0.893,6.303
			C311.401,124.489,310.405,125.813,308.987,126.014z"/>
		<path style="fill:#FFFFFF;" d="M337.344,125.436L337.344,125.436c-1.418,0.201-2.743-0.795-2.944-2.213l-0.893-6.303
			c-0.201-1.418,0.795-2.743,2.213-2.944l0,0c1.418-0.201,2.743,0.795,2.944,2.213l0.893,6.303
			C339.758,123.91,338.762,125.235,337.344,125.436z"/>
		<path style="fill:#FFFFFF;" d="M295.098,124.857L295.098,124.857c-1.418,0.201-2.743-0.795-2.944-2.213l-0.893-6.303
			c-0.201-1.418,0.795-2.743,2.213-2.944l0,0c1.418-0.201,2.743,0.795,2.944,2.213l0.893,6.303
			C297.512,123.331,296.516,124.656,295.098,124.857z"/>
		<path style="fill:#FFFFFF;" d="M325.191,138.167L325.191,138.167c-1.418,0.201-2.743-0.795-2.944-2.213l-0.893-6.303
			c-0.201-1.418,0.795-2.743,2.213-2.944l0,0c1.418-0.201,2.743,0.795,2.944,2.213l0.893,6.303
			C327.605,136.642,326.609,137.966,325.191,138.167z"/>
		<path style="fill:#FFFFFF;" d="M352.969,129.486L352.969,129.486c-1.418,0.201-2.743-0.795-2.944-2.213l-0.893-6.303
			c-0.201-1.418,0.795-2.743,2.213-2.944l0,0c1.418-0.201,2.743,0.795,2.944,2.213l0.893,6.303
			C355.383,127.961,354.387,129.286,352.969,129.486z"/>
		<path style="fill:#FFFFFF;" d="M381.326,124.857L381.326,124.857c-1.418,0.201-2.743-0.795-2.944-2.213l-0.893-6.303
			c-0.201-1.418,0.795-2.743,2.213-2.944l0,0c1.418-0.201,2.743,0.795,2.944,2.213l0.893,6.303
			C383.74,123.331,382.744,124.656,381.326,124.857z"/>
		<path style="fill:#FFFFFF;" d="M369.752,138.167L369.752,138.167c-1.418,0.201-2.743-0.795-2.944-2.213l-0.893-6.303
			c-0.201-1.418,0.795-2.743,2.213-2.944l0,0c1.418-0.201,2.743,0.795,2.944,2.213l0.893,6.303
			C372.166,136.642,371.17,137.966,369.752,138.167z"/>
	</g>
	<g>
		
			<ellipse transform="matrix(0.2319 -0.9727 0.9727 0.2319 93.7197 526.9333)" style="opacity:0.55;fill:#DBCCFF;" cx="380.526" cy="204.121" rx="21.811" ry="21.811"/>
		
			<ellipse transform="matrix(0.9226 -0.3857 0.3857 0.9226 -50.6417 189.7449)" style="opacity:0.55;fill:#DBCCFF;" cx="447.573" cy="221.085" rx="12.925" ry="12.925"/>
		<path style="opacity:0.55;fill:#DBCCFF;" d="M38.827,272.784c0,3.569-2.893,6.462-6.462,6.462c-3.569,0-6.462-2.893-6.462-6.462
			c0-3.569,2.893-6.462,6.462-6.462C35.934,266.322,38.827,269.215,38.827,272.784z"/>
		<circle style="opacity:0.55;fill:#DBCCFF;" cx="113.145" cy="103.146" r="14.54"/>
	</g>
	<g>
		<g>
			<path style="fill:#2D1A14;" d="M417.962,270.964l48.627,37.167c1.512,1.156,3.695,0.864,4.851-0.648l0,0
				c1.156-1.512,0.864-3.695-0.648-4.851l-48.627-37.167c-1.512-1.156-3.695-0.864-4.851,0.648l0,0
				C416.158,267.625,416.449,269.808,417.962,270.964z"/>
			<g>
				<path style="fill:#503C6F;" d="M449.97,286.717l20.823,15.915c1.512,1.156,1.804,3.339,0.648,4.851s-3.339,1.804-4.851,0.648
					l-21.081-16.113C446.966,290.234,448.46,288.471,449.97,286.717z"/>
			</g>
			<path style="opacity:0.73;fill:#C2C0F2;" d="M358.897,248.551c0,17.761,14.394,32.165,32.155,32.165
				c17.761,0,32.155-14.404,32.155-32.165c0-17.761-14.394-32.155-32.155-32.155C373.292,216.396,358.897,230.791,358.897,248.551z"
				/>
			<g>
				<path style="fill:#2D1A14;" d="M356.741,248.551c0-18.919,15.392-34.311,34.311-34.311c18.919,0,34.311,15.392,34.311,34.311
					c0,18.925-15.392,34.321-34.311,34.321C372.133,282.872,356.741,267.476,356.741,248.551z M361.053,248.551
					c0,16.547,13.457,30.009,29.999,30.009c16.542,0,29.999-13.462,29.999-30.009c0-16.542-13.457-29.999-29.999-29.999
					C374.511,218.553,361.053,232.01,361.053,248.551z"/>
			</g>
			<path style="fill:#BFB8FF;" d="M473.423,299.891l-32.422-24.532c-0.133,0.433-8.564,11.278-8.328,11.018l32.422,24.653
				c3.046,2.305,7.413,1.685,9.702-1.378l0,0C477.089,306.588,476.47,302.196,473.423,299.891z"/>
			<path style="fill:#8B7FF7;" d="M473.423,299.891l-23.596-17.854c-2.596,3.815-5.268,7.579-7.99,11.307l23.259,17.685
				c3.046,2.305,7.413,1.685,9.703-1.378C477.089,306.588,476.47,302.196,473.423,299.891z"/>
		</g>
		
			<path style="fill:none;stroke:#FFFFFF;stroke-width:6.4015;stroke-linecap:round;stroke-linejoin:round;stroke-miterlimit:10;" d="
			M388.142,232.011c0,0-17.604,4.001-13.603,24.406"/>
	</g>
	<g>
		<polygon style="fill:#FFFFFF;" points="168.075,268.126 170.484,272.53 174.887,274.938 170.484,277.347 168.075,281.75 
			165.667,277.347 161.263,274.938 165.667,272.53 		"/>
		<polygon style="fill:#FFFFFF;" points="142.226,261.752 143.841,264.706 146.795,266.322 143.841,267.937 142.226,270.891 
			140.61,267.937 137.656,266.322 140.61,264.706 		"/>
	</g>
	<g>
		<polygon style="fill:#FFFFFF;" points="107.789,370.329 111.382,376.898 117.95,380.491 111.382,384.083 107.789,390.651 
			104.197,384.083 97.628,380.491 104.197,376.898 		"/>
		<polygon style="fill:#FFFFFF;" points="136.84,371.222 138.213,373.732 140.724,375.105 138.213,376.478 136.84,378.988 
			135.467,376.478 132.957,375.105 135.467,373.732 		"/>
		<polygon style="fill:#FFFFFF;" points="73.323,408.599 75.762,413.057 80.22,415.495 75.762,417.933 73.323,422.392 
			70.885,417.933 66.427,415.495 70.885,413.057 		"/>
		<polygon style="fill:#FFFFFF;" points="115.273,421.902 118.021,426.927 123.046,429.675 118.021,432.423 115.273,437.448 
			112.525,432.423 107.5,429.675 112.525,426.927 		"/>
	</g>
	<polygon style="fill:#FFFFFF;" points="427.648,292.171 429.552,295.652 433.033,297.556 429.552,299.461 427.648,302.942 
		425.744,299.461 422.262,297.556 425.744,295.652 	"/>
	<g>
		<polygon style="fill:#FFFFFF;" points="374.871,318.435 377.772,323.737 383.074,326.637 377.772,329.537 374.871,334.84 
			371.971,329.537 366.669,326.637 371.971,323.737 		"/>
		<polygon style="fill:#FFFFFF;" points="396.413,300.788 397.936,303.573 400.721,305.096 397.936,306.619 396.413,309.404 
			394.89,306.619 392.104,305.096 394.89,303.573 		"/>
		<polygon style="fill:#FFFFFF;" points="396.413,349.918 398.463,353.667 402.213,355.718 398.463,357.769 396.413,361.518 
			394.362,357.769 390.613,355.718 394.362,353.667 		"/>
	</g>
	<polygon style="fill:#FFFFFF;" points="427.648,402.032 429.552,405.513 433.033,407.417 429.552,409.321 427.648,412.802 
		425.744,409.321 422.262,407.417 425.744,405.513 	"/>
	<polygon style="fill:#FFFFFF;" points="440.572,379.982 442.275,383.096 445.389,384.799 442.275,386.502 440.572,389.616 
		438.869,386.502 435.756,384.799 438.869,383.096 	"/>
	<path style="fill:#2D1A14;" d="M140.072,71.373c0,2.379-1.929,4.308-4.308,4.308s-4.308-1.929-4.308-4.308s1.929-4.308,4.308-4.308
		S140.072,68.994,140.072,71.373z"/>
	<path style="fill:#2D1A14;" d="M425.493,102.069c0,2.677-2.17,4.847-4.847,4.847c-2.677,0-4.847-2.17-4.847-4.847
		c0-2.677,2.17-4.847,4.847-4.847C423.323,97.223,425.493,99.393,425.493,102.069z"/>
	<circle style="fill:#2D1A14;" cx="457.267" cy="185.003" r="3.77"/>
	<circle style="fill:#2D1A14;" cx="31.288" cy="319.098" r="2.154"/>
	<path style="fill:#2D1A14;" d="M78.14,383.722c0,1.784-1.447,3.231-3.231,3.231c-1.785,0-3.231-1.447-3.231-3.231
		c0-1.785,1.447-3.231,3.231-3.231C76.694,380.491,78.14,381.937,78.14,383.722z"/>
	<path style="fill:#2D1A14;" d="M76.525,111.763c0,2.082-1.688,3.77-3.77,3.77c-2.082,0-3.77-1.688-3.77-3.77
		c0-2.082,1.688-3.77,3.77-3.77C74.837,107.993,76.525,109.681,76.525,111.763z"/>
	<path style="fill:#2D1A14;" d="M226.237,104.224c0,1.487-1.206,2.693-2.693,2.693c-1.487,0-2.693-1.205-2.693-2.693
		c0-1.487,1.205-2.693,2.693-2.693C225.031,101.531,226.237,102.736,226.237,104.224z"/>
	<path style="fill:#2D1A14;" d="M260.703,188.773c0,1.19-0.965,2.154-2.154,2.154s-2.154-0.964-2.154-2.154
		c0-1.19,0.964-2.154,2.154-2.154S260.703,187.583,260.703,188.773z"/>
</g>
</svg>
